<?xml version="1.0" encoding="UTF-8" standalone="no"?>
<!DOCTYPE svg PUBLIC "-//W3C//DTD SVG 1.1//EN"
 "http://www.w3.org/Graphics/SVG/1.1/DTD/svg11.dtd">
<!-- Generated by graphviz version 2.42.1 (0)
 -->
<!-- Title: loss Pages: 1 -->
<svg width="470pt" height="124pt"
 viewBox="0.00 0.00 469.61 123.84" xmlns="http://www.w3.org/2000/svg" xmlns:xlink="http://www.w3.org/1999/xlink">
<g id="graph0" class="graph" transform="scale(1 1) rotate(0) translate(4 119.84)">
<title>loss</title>
<polygon fill="white" stroke="transparent" points="-4,4 -4,-119.84 465.61,-119.84 465.61,4 -4,4"/>
<!-- x -->
<g id="node1" class="node">
<title>x</title>
<text text-anchor="middle" x="27" y="-68.2" font-family="Panton" font-size="16.00" fill="#7b7b7b">x</text>
</g>
<!-- model -->
<g id="node6" class="node">
<title>model</title>
<ellipse fill="none" stroke="#7b7b7b" cx="130.31" cy="-72" rx="40.11" ry="43.68"/>
<text text-anchor="middle" x="130.31" y="-86.2" font-family="Panton" font-size="16.00" fill="#7b7b7b">your</text>
<text text-anchor="middle" x="130.31" y="-68.2" font-family="Panton" font-size="16.00" fill="#7b7b7b">fancy</text>
<text text-anchor="middle" x="130.31" y="-50.2" font-family="Panton" font-size="16.00" fill="#7b7b7b">model</text>
</g>
<!-- x&#45;&gt;model -->
<g id="edge1" class="edge">
<title>x&#45;&gt;model</title>
<path fill="none" stroke="#7b7b7b" d="M54.09,-72C61.93,-72 70.8,-72 79.63,-72"/>
<polygon fill="#7b7b7b" stroke="#7b7b7b" points="79.92,-75.5 89.92,-72 79.92,-68.5 79.92,-75.5"/>
</g>
<!-- yhat -->
<g id="node2" class="node">
<title>yhat</title>
<text text-anchor="middle" x="233.61" y="-68.2" font-family="Panton" font-size="16.00" fill="#7b7b7b">yhat</text>
</g>
<!-- loss_function -->
<g id="node5" class="node">
<title>loss_function</title>
<polygon fill="none" stroke="#7b7b7b" points="371.61,-67 296.61,-67 296.61,-23 371.61,-23 371.61,-67"/>
<text text-anchor="middle" x="334.11" y="-50.2" font-family="Panton" font-size="16.00" fill="#7b7b7b">loss</text>
<text text-anchor="middle" x="334.11" y="-32.2" font-family="Panton" font-size="16.00" fill="#7b7b7b">function</text>
</g>
<!-- yhat&#45;&gt;loss_function -->
<g id="edge3" class="edge">
<title>yhat&#45;&gt;loss_function</title>
<path fill="none" stroke="#7b7b7b" d="M260.75,-64.84C268.7,-62.66 277.69,-60.19 286.56,-57.76"/>
<polygon fill="#7b7b7b" stroke="#7b7b7b" points="287.75,-61.06 296.47,-55.04 285.9,-54.31 287.75,-61.06"/>
</g>
<!-- y -->
<g id="node3" class="node">
<title>y</title>
<text text-anchor="middle" x="233.61" y="-14.2" font-family="Panton" font-size="16.00" fill="#7b7b7b">y</text>
</g>
<!-- y&#45;&gt;loss_function -->
<g id="edge5" class="edge">
<title>y&#45;&gt;loss_function</title>
<path fill="none" stroke="#7b7b7b" d="M260.75,-25.16C268.7,-27.34 277.69,-29.81 286.56,-32.24"/>
<polygon fill="#7b7b7b" stroke="#7b7b7b" points="285.9,-35.69 296.47,-34.96 287.75,-28.94 285.9,-35.69"/>
</g>
<!-- loss -->
<g id="node4" class="node">
<title>loss</title>
<text text-anchor="middle" x="434.61" y="-41.2" font-family="Panton" font-size="16.00" fill="#7b7b7b">loss</text>
</g>
<!-- loss_function&#45;&gt;loss -->
<g id="edge4" class="edge">
<title>loss_function&#45;&gt;loss</title>
<path fill="none" stroke="#7b7b7b" d="M371.79,-45C380.1,-45 388.91,-45 397.21,-45"/>
<polygon fill="#7b7b7b" stroke="#7b7b7b" points="397.36,-48.5 407.36,-45 397.36,-41.5 397.36,-48.5"/>
</g>
<!-- model&#45;&gt;yhat -->
<g id="edge2" class="edge">
<title>model&#45;&gt;yhat</title>
<path fill="none" stroke="#7b7b7b" d="M170.76,-72C179.2,-72 188.07,-72 196.38,-72"/>
<polygon fill="#7b7b7b" stroke="#7b7b7b" points="196.53,-75.5 206.53,-72 196.53,-68.5 196.53,-75.5"/>
</g>
</g>
</svg>
