<?xml version="1.0" encoding="UTF-8" standalone="no"?>
<!DOCTYPE svg PUBLIC "-//W3C//DTD SVG 1.1//EN"
 "http://www.w3.org/Graphics/SVG/1.1/DTD/svg11.dtd">
<!-- Generated by graphviz version 2.42.1 (0)
 -->
<!-- Title: stack Pages: 1 -->
<svg width="239pt" height="332pt"
 viewBox="0.00 0.00 239.00 332.00" xmlns="http://www.w3.org/2000/svg" xmlns:xlink="http://www.w3.org/1999/xlink">
<g id="graph0" class="graph" transform="scale(1 1) rotate(0) translate(4 328)">
<title>stack</title>
<polygon fill="white" stroke="transparent" points="-4,4 -4,-328 235,-328 235,4 -4,4"/>
<!-- x -->
<g id="node1" class="node">
<title>x</title>
<text text-anchor="middle" x="115.5" y="-299.8" font-family="Panton" font-size="24.00">x</text>
</g>
<!-- cnn1 -->
<g id="node3" class="node">
<title>cnn1</title>
<polygon fill="none" stroke="black" points="229,-252 2,-252 2,-216 229,-216 229,-252"/>
<text text-anchor="middle" x="115.5" y="-227.8" font-family="Panton" font-size="24.00">convolutional layer 1</text>
</g>
<!-- x&#45;&gt;cnn1 -->
<g id="edge1" class="edge">
<title>x&#45;&gt;cnn1</title>
<path fill="none" stroke="black" d="M115.5,-287.7C115.5,-279.98 115.5,-270.71 115.5,-262.11"/>
<polygon fill="black" stroke="black" points="119,-262.1 115.5,-252.1 112,-262.1 119,-262.1"/>
</g>
<!-- y -->
<g id="node2" class="node">
<title>y</title>
<text text-anchor="middle" x="115.5" y="-11.8" font-family="Panton" font-size="24.00">y</text>
</g>
<!-- cnn2 -->
<g id="node4" class="node">
<title>cnn2</title>
<polygon fill="none" stroke="black" points="231,-180 0,-180 0,-144 231,-144 231,-180"/>
<text text-anchor="middle" x="115.5" y="-155.8" font-family="Panton" font-size="24.00">convolutional layer 2</text>
</g>
<!-- cnn1&#45;&gt;cnn2 -->
<g id="edge2" class="edge">
<title>cnn1&#45;&gt;cnn2</title>
<path fill="none" stroke="black" d="M115.5,-215.7C115.5,-207.98 115.5,-198.71 115.5,-190.11"/>
<polygon fill="black" stroke="black" points="119,-190.1 115.5,-180.1 112,-190.1 119,-190.1"/>
</g>
<!-- dense -->
<g id="node5" class="node">
<title>dense</title>
<polygon fill="none" stroke="black" points="184.5,-108 46.5,-108 46.5,-72 184.5,-72 184.5,-108"/>
<text text-anchor="middle" x="115.5" y="-83.8" font-family="Panton" font-size="24.00">dense layer</text>
</g>
<!-- cnn2&#45;&gt;dense -->
<g id="edge3" class="edge">
<title>cnn2&#45;&gt;dense</title>
<path fill="none" stroke="black" d="M115.5,-143.7C115.5,-135.98 115.5,-126.71 115.5,-118.11"/>
<polygon fill="black" stroke="black" points="119,-118.1 115.5,-108.1 112,-118.1 119,-118.1"/>
</g>
<!-- dense&#45;&gt;y -->
<g id="edge4" class="edge">
<title>dense&#45;&gt;y</title>
<path fill="none" stroke="black" d="M115.5,-71.7C115.5,-63.98 115.5,-54.71 115.5,-46.11"/>
<polygon fill="black" stroke="black" points="119,-46.1 115.5,-36.1 112,-46.1 119,-46.1"/>
</g>
</g>
</svg>
