<?xml version="1.0" encoding="UTF-8" standalone="no"?>
<!DOCTYPE svg PUBLIC "-//W3C//DTD SVG 1.1//EN"
 "http://www.w3.org/Graphics/SVG/1.1/DTD/svg11.dtd">
<!-- Generated by graphviz version 2.42.1 (0)
 -->
<!-- Title: classify Pages: 1 -->
<svg width="266pt" height="98pt"
 viewBox="0.00 0.00 265.99 98.00" xmlns="http://www.w3.org/2000/svg" xmlns:xlink="http://www.w3.org/1999/xlink">
<g id="graph0" class="graph" transform="scale(1 1) rotate(0) translate(4 94)">
<title>classify</title>
<polygon fill="white" stroke="transparent" points="-4,4 -4,-94 261.99,-94 261.99,4 -4,4"/>
<!-- digit1 -->
<g id="node1" class="node">
<title>digit1</title>
</g>
<!-- model -->
<g id="node3" class="node">
<title>model</title>
<ellipse fill="none" stroke="black" cx="129" cy="-45" rx="38.99" ry="18"/>
<text text-anchor="middle" x="129" y="-41.3" font-family="Times,serif" font-size="14.00">model</text>
</g>
<!-- digit1&#45;&gt;model -->
<g id="edge1" class="edge">
<title>digit1&#45;&gt;model</title>
<path fill="none" stroke="black" d="M54.01,-64.98C63.48,-62.42 74.46,-59.45 85.01,-56.61"/>
<polygon fill="black" stroke="black" points="86.2,-59.91 94.94,-53.93 84.37,-53.15 86.2,-59.91"/>
</g>
<!-- digit2 -->
<g id="node2" class="node">
<title>digit2</title>
</g>
<!-- digit2&#45;&gt;model -->
<g id="edge2" class="edge">
<title>digit2&#45;&gt;model</title>
<path fill="none" stroke="black" d="M54.01,-25.02C63.48,-27.58 74.46,-30.55 85.01,-33.39"/>
<polygon fill="black" stroke="black" points="84.37,-36.85 94.94,-36.07 86.2,-30.09 84.37,-36.85"/>
</g>
<!-- output -->
<g id="node4" class="node">
<title>output</title>
</g>
<!-- model&#45;&gt;output -->
<g id="edge3" class="edge">
<title>model&#45;&gt;output</title>
<path fill="none" stroke="black" d="M168.09,-45C176.47,-45 185.33,-45 193.64,-45"/>
<polygon fill="black" stroke="black" points="193.8,-48.5 203.8,-45 193.8,-41.5 193.8,-48.5"/>
</g>
</g>
</svg>
