<?xml version="1.0" encoding="UTF-8" standalone="no"?>
<!DOCTYPE svg PUBLIC "-//W3C//DTD SVG 1.1//EN"
 "http://www.w3.org/Graphics/SVG/1.1/DTD/svg11.dtd">
<!-- Generated by graphviz version 2.42.1 (0)
 -->
<!-- Title: loss Pages: 1 -->
<svg width="672pt" height="111pt"
 viewBox="0.00 0.00 672.14 111.11" xmlns="http://www.w3.org/2000/svg" xmlns:xlink="http://www.w3.org/1999/xlink">
<g id="graph0" class="graph" transform="scale(1 1) rotate(0) translate(4 107.11)">
<title>loss</title>
<polygon fill="white" stroke="transparent" points="-4,4 -4,-107.11 668.14,-107.11 668.14,4 -4,4"/>
<!-- x -->
<g id="node1" class="node">
<title>x</title>
<text text-anchor="middle" x="27" y="-68.2" font-family="Panton" font-size="16.00" fill="#536366">x</text>
</g>
<!-- model -->
<g id="node6" class="node">
<title>model</title>
<ellipse fill="none" stroke="#536366" cx="216.57" cy="-72" rx="126.64" ry="31.23"/>
<text text-anchor="middle" x="216.57" y="-77.2" font-family="Panton" font-size="16.00" fill="#536366">your fancy model</text>
<text text-anchor="middle" x="216.57" y="-59.2" font-family="Panton" font-size="16.00" fill="#536366"> with weights w to learn</text>
</g>
<!-- x&#45;&gt;model -->
<g id="edge1" class="edge">
<title>x&#45;&gt;model</title>
<path fill="none" stroke="#536366" d="M54.08,-72C61.55,-72 70.25,-72 79.66,-72"/>
<polygon fill="#536366" stroke="#536366" points="79.71,-75.5 89.71,-72 79.71,-68.5 79.71,-75.5"/>
</g>
<!-- prediction -->
<g id="node2" class="node">
<title>prediction</title>
<text text-anchor="middle" x="421.14" y="-68.2" font-family="Panton" font-size="16.00" fill="#536366">prediction</text>
</g>
<!-- loss_function -->
<g id="node5" class="node">
<title>loss_function</title>
<polygon fill="none" stroke="#536366" points="574.14,-67 499.14,-67 499.14,-23 574.14,-23 574.14,-67"/>
<text text-anchor="middle" x="536.64" y="-50.2" font-family="Panton" font-size="16.00" fill="#536366">loss</text>
<text text-anchor="middle" x="536.64" y="-32.2" font-family="Panton" font-size="16.00" fill="#536366">function</text>
</g>
<!-- prediction&#45;&gt;loss_function -->
<g id="edge3" class="edge">
<title>prediction&#45;&gt;loss_function</title>
<path fill="none" stroke="#536366" d="M463.44,-62.18C471.82,-60.18 480.69,-58.07 489.24,-56.04"/>
<polygon fill="#536366" stroke="#536366" points="490.15,-59.42 499.07,-53.7 488.53,-52.61 490.15,-59.42"/>
</g>
<!-- y -->
<g id="node3" class="node">
<title>y</title>
<text text-anchor="middle" x="421.14" y="-14.2" font-family="Panton" font-size="16.00" fill="#536366">y</text>
</g>
<!-- y&#45;&gt;loss_function -->
<g id="edge5" class="edge">
<title>y&#45;&gt;loss_function</title>
<path fill="none" stroke="#536366" d="M448.18,-24.19C460.3,-27.08 475.08,-30.59 489.02,-33.91"/>
<polygon fill="#536366" stroke="#536366" points="488.44,-37.37 498.97,-36.28 490.06,-30.56 488.44,-37.37"/>
</g>
<!-- loss -->
<g id="node4" class="node">
<title>loss</title>
<text text-anchor="middle" x="637.14" y="-41.2" font-family="Panton bold" font-size="16.00" fill="#00aed2">loss</text>
</g>
<!-- loss_function&#45;&gt;loss -->
<g id="edge4" class="edge">
<title>loss_function&#45;&gt;loss</title>
<path fill="none" stroke="#536366" d="M574.32,-45C582.63,-45 591.45,-45 599.74,-45"/>
<polygon fill="#536366" stroke="#536366" points="599.89,-48.5 609.89,-45 599.89,-41.5 599.89,-48.5"/>
</g>
<!-- model&#45;&gt;prediction -->
<g id="edge2" class="edge">
<title>model&#45;&gt;prediction</title>
<path fill="none" stroke="#536366" d="M343.27,-72C352.14,-72 360.74,-72 368.78,-72"/>
<polygon fill="#536366" stroke="#536366" points="369,-75.5 379,-72 369,-68.5 369,-75.5"/>
</g>
</g>
</svg>
