<?xml version="1.0" encoding="UTF-8" standalone="no"?>
<!DOCTYPE svg PUBLIC "-//W3C//DTD SVG 1.1//EN"
 "http://www.w3.org/Graphics/SVG/1.1/DTD/svg11.dtd">
<!-- Generated by graphviz version 2.42.1 (0)
 -->
<!-- Title: loss Pages: 1 -->
<svg width="515pt" height="152pt"
 viewBox="0.00 0.00 514.91 152.00" xmlns="http://www.w3.org/2000/svg" xmlns:xlink="http://www.w3.org/1999/xlink">
<g id="graph0" class="graph" transform="scale(1 1) rotate(0) translate(4 148)">
<title>loss</title>
<polygon fill="white" stroke="transparent" points="-4,4 -4,-148 510.91,-148 510.91,4 -4,4"/>
<!-- x -->
<g id="node1" class="node">
<title>x</title>
<text text-anchor="middle" x="42" y="-68.2" font-family="Panton" font-size="16.00" fill="#536366">x</text>
</g>
<!-- model -->
<g id="node6" class="node">
<title>model</title>
<ellipse fill="none" stroke="#536366" cx="160.31" cy="-72" rx="40.11" ry="43.68"/>
<text text-anchor="middle" x="160.31" y="-86.2" font-family="Panton" font-size="16.00" fill="#536366">your</text>
<text text-anchor="middle" x="160.31" y="-68.2" font-family="Panton" font-size="16.00" fill="#536366">fancy</text>
<text text-anchor="middle" x="160.31" y="-50.2" font-family="Panton" font-size="16.00" fill="#536366">model</text>
</g>
<!-- x&#45;&gt;model -->
<g id="edge1" class="edge">
<title>x&#45;&gt;model</title>
<path fill="none" stroke="#536366" d="M69.1,-72C80.95,-72 95.38,-72 109.19,-72"/>
<polygon fill="#536366" stroke="#536366" points="109.58,-75.5 119.58,-72 109.58,-68.5 109.58,-75.5"/>
</g>
<!-- prediction -->
<g id="node2" class="node">
<title>prediction</title>
<text text-anchor="middle" x="42" y="-122.2" font-family="Panton" font-size="16.00" fill="#536366">prediction</text>
</g>
<!-- y -->
<g id="node3" class="node">
<title>y</title>
<text text-anchor="middle" x="271.26" y="-14.2" font-family="Panton" font-size="16.00" fill="#536366">y</text>
</g>
<!-- loss_function -->
<g id="node5" class="node">
<title>loss_function</title>
<polygon fill="none" stroke="#536366" points="416.91,-67 341.91,-67 341.91,-23 416.91,-23 416.91,-67"/>
<text text-anchor="middle" x="379.41" y="-50.2" font-family="Panton" font-size="16.00" fill="#536366">loss</text>
<text text-anchor="middle" x="379.41" y="-32.2" font-family="Panton" font-size="16.00" fill="#536366">function</text>
</g>
<!-- y&#45;&gt;loss_function -->
<g id="edge5" class="edge">
<title>y&#45;&gt;loss_function</title>
<path fill="none" stroke="#536366" d="M298.5,-24.67C308.56,-27.23 320.38,-30.24 331.79,-33.14"/>
<polygon fill="#536366" stroke="#536366" points="331.1,-36.58 341.66,-35.65 332.83,-29.8 331.1,-36.58"/>
</g>
<!-- loss -->
<g id="node4" class="node">
<title>loss</title>
<text text-anchor="middle" x="479.91" y="-41.2" font-family="Panton bold" font-size="16.00" fill="#00aed2">loss</text>
</g>
<!-- loss_function&#45;&gt;loss -->
<g id="edge4" class="edge">
<title>loss_function&#45;&gt;loss</title>
<path fill="none" stroke="#536366" d="M417.08,-45C425.39,-45 434.21,-45 442.51,-45"/>
<polygon fill="#536366" stroke="#536366" points="442.66,-48.5 452.66,-45 442.66,-41.5 442.66,-48.5"/>
</g>
<!-- yhat -->
<g id="node7" class="node">
<title>yhat</title>
<ellipse fill="none" stroke="#536366" cx="271.26" cy="-72" rx="34.8" ry="18.27"/>
<text text-anchor="middle" x="271.26" y="-68.2" font-family="Panton" font-size="16.00" fill="#536366">yhat</text>
</g>
<!-- model&#45;&gt;yhat -->
<g id="edge2" class="edge">
<title>model&#45;&gt;yhat</title>
<path fill="none" stroke="#536366" d="M200.64,-72C208.96,-72 217.79,-72 226.27,-72"/>
<polygon fill="#536366" stroke="#536366" points="226.38,-75.5 236.38,-72 226.38,-68.5 226.38,-75.5"/>
</g>
<!-- yhat&#45;&gt;loss_function -->
<g id="edge3" class="edge">
<title>yhat&#45;&gt;loss_function</title>
<path fill="none" stroke="#536366" d="M302.96,-64.19C312.05,-61.88 322.22,-59.29 332.07,-56.79"/>
<polygon fill="#536366" stroke="#536366" points="332.93,-60.18 341.76,-54.32 331.21,-53.39 332.93,-60.18"/>
</g>
</g>
</svg>
