<?xml version="1.0" encoding="UTF-8" standalone="no"?>
<!DOCTYPE svg PUBLIC "-//W3C//DTD SVG 1.1//EN"
 "http://www.w3.org/Graphics/SVG/1.1/DTD/svg11.dtd">
<!-- Generated by graphviz version 2.42.1 (0)
 -->
<!-- Title: loss Pages: 1 -->
<svg width="551pt" height="124pt"
 viewBox="0.00 0.00 550.52 123.84" xmlns="http://www.w3.org/2000/svg" xmlns:xlink="http://www.w3.org/1999/xlink">
<g id="graph0" class="graph" transform="scale(1 1) rotate(0) translate(4 119.84)">
<title>loss</title>
<polygon fill="white" stroke="transparent" points="-4,4 -4,-119.84 546.52,-119.84 546.52,4 -4,4"/>
<!-- x -->
<g id="node1" class="node">
<title>x</title>
<text text-anchor="middle" x="27" y="-68.2" font-family="Panton" font-size="16.00" fill="#536366">x</text>
</g>
<!-- model -->
<g id="node6" class="node">
<title>model</title>
<ellipse fill="none" stroke="#536366" cx="155.76" cy="-72" rx="65.52" ry="43.68"/>
<text text-anchor="middle" x="155.76" y="-86.2" font-family="Panton" font-size="16.00" fill="#536366">your fancy</text>
<text text-anchor="middle" x="155.76" y="-68.2" font-family="Panton" font-size="16.00" fill="#536366">model</text>
<text text-anchor="middle" x="155.76" y="-50.2" font-family="Panton" font-size="16.00" fill="#536366">(weights w)</text>
</g>
<!-- x&#45;&gt;model -->
<g id="edge1" class="edge">
<title>x&#45;&gt;model</title>
<path fill="none" stroke="#536366" d="M54.26,-72C61.85,-72 70.53,-72 79.55,-72"/>
<polygon fill="#536366" stroke="#536366" points="79.83,-75.5 89.83,-72 79.83,-68.5 79.83,-75.5"/>
</g>
<!-- prediction -->
<g id="node2" class="node">
<title>prediction</title>
<text text-anchor="middle" x="299.52" y="-68.2" font-family="Panton" font-size="16.00" fill="#536366">prediction</text>
</g>
<!-- loss_function -->
<g id="node5" class="node">
<title>loss_function</title>
<polygon fill="none" stroke="#536366" points="452.52,-67 377.52,-67 377.52,-23 452.52,-23 452.52,-67"/>
<text text-anchor="middle" x="415.02" y="-50.2" font-family="Panton" font-size="16.00" fill="#536366">loss</text>
<text text-anchor="middle" x="415.02" y="-32.2" font-family="Panton" font-size="16.00" fill="#536366">function</text>
</g>
<!-- prediction&#45;&gt;loss_function -->
<g id="edge3" class="edge">
<title>prediction&#45;&gt;loss_function</title>
<path fill="none" stroke="#536366" d="M341.82,-62.18C350.2,-60.18 359.07,-58.07 367.62,-56.04"/>
<polygon fill="#536366" stroke="#536366" points="368.53,-59.42 377.45,-53.7 366.91,-52.61 368.53,-59.42"/>
</g>
<!-- y -->
<g id="node3" class="node">
<title>y</title>
<text text-anchor="middle" x="299.52" y="-14.2" font-family="Panton" font-size="16.00" fill="#536366">y</text>
</g>
<!-- y&#45;&gt;loss_function -->
<g id="edge5" class="edge">
<title>y&#45;&gt;loss_function</title>
<path fill="none" stroke="#536366" d="M326.56,-24.19C338.67,-27.08 353.46,-30.59 367.4,-33.91"/>
<polygon fill="#536366" stroke="#536366" points="366.81,-37.37 377.35,-36.28 368.43,-30.56 366.81,-37.37"/>
</g>
<!-- loss -->
<g id="node4" class="node">
<title>loss</title>
<text text-anchor="middle" x="515.52" y="-41.2" font-family="Panton bold" font-size="16.00" fill="#00aed2">loss</text>
</g>
<!-- loss_function&#45;&gt;loss -->
<g id="edge4" class="edge">
<title>loss_function&#45;&gt;loss</title>
<path fill="none" stroke="#536366" d="M452.7,-45C461.01,-45 469.83,-45 478.12,-45"/>
<polygon fill="#536366" stroke="#536366" points="478.27,-48.5 488.27,-45 478.27,-41.5 478.27,-48.5"/>
</g>
<!-- model&#45;&gt;prediction -->
<g id="edge2" class="edge">
<title>model&#45;&gt;prediction</title>
<path fill="none" stroke="#536366" d="M221.83,-72C230.33,-72 238.94,-72 247.16,-72"/>
<polygon fill="#536366" stroke="#536366" points="247.34,-75.5 257.34,-72 247.34,-68.5 247.34,-75.5"/>
</g>
</g>
</svg>
