<?xml version="1.0" encoding="UTF-8" standalone="no"?>
<!DOCTYPE svg PUBLIC "-//W3C//DTD SVG 1.1//EN"
 "http://www.w3.org/Graphics/SVG/1.1/DTD/svg11.dtd">
<!-- Generated by graphviz version 2.42.1 (0)
 -->
<!-- Title: loss Pages: 1 -->
<svg width="1030pt" height="499pt"
 viewBox="0.00 0.00 1029.74 498.73" xmlns="http://www.w3.org/2000/svg" xmlns:xlink="http://www.w3.org/1999/xlink">
<g id="graph0" class="graph" transform="scale(1 1) rotate(0) translate(4 494.73)">
<title>loss</title>
<polygon fill="white" stroke="transparent" points="-4,4 -4,-494.73 1025.74,-494.73 1025.74,4 -4,4"/>
<!-- digit -->
<g id="node1" class="node">
<title>digit</title>
<ellipse fill="none" stroke="#536366" cx="326.68" cy="-245.37" rx="326.87" ry="245.23"/>
<image xlink:href="digit_0.png" width="614px" height="461px" preserveAspectRatio="xMinYMin meet" x="19.6833" y="-475.866"/>
</g>
<!-- model -->
<g id="node2" class="node">
<title>model</title>
<ellipse fill="none" stroke="#536366" cx="774.51" cy="-245.37" rx="85.29" ry="18"/>
<text text-anchor="middle" x="774.51" y="-241.67" font-family="Times,serif" font-size="14.00" fill="#536366">our fancy model</text>
</g>
<!-- digit&#45;&gt;model -->
<g id="edge1" class="edge">
<title>digit&#45;&gt;model</title>
<path fill="none" stroke="#536366" d="M653.45,-245.37C662.26,-245.37 670.8,-245.37 678.99,-245.37"/>
<polygon fill="#536366" stroke="#536366" points="679.17,-248.87 689.17,-245.37 679.17,-241.87 679.17,-248.87"/>
</g>
<!-- predictions -->
<g id="node3" class="node">
<title>predictions</title>
<ellipse fill="none" stroke="#536366" cx="958.7" cy="-245.37" rx="63.09" ry="18"/>
<text text-anchor="middle" x="958.7" y="-241.67" font-family="Times,serif" font-size="14.00" fill="#536366">predictions</text>
</g>
<!-- model&#45;&gt;predictions -->
<g id="edge2" class="edge">
<title>model&#45;&gt;predictions</title>
<path fill="none" stroke="#536366" d="M859.67,-245.37C868.22,-245.37 876.85,-245.37 885.26,-245.37"/>
<polygon fill="#536366" stroke="#536366" points="885.39,-248.87 895.39,-245.37 885.39,-241.87 885.39,-248.87"/>
</g>
</g>
</svg>
