<?xml version="1.0" encoding="UTF-8" standalone="no"?>
<!DOCTYPE svg PUBLIC "-//W3C//DTD SVG 1.1//EN"
 "http://www.w3.org/Graphics/SVG/1.1/DTD/svg11.dtd">
<!-- Generated by graphviz version 2.42.1 (0)
 -->
<!-- Title: stack Pages: 1 -->
<svg width="459pt" height="152pt"
 viewBox="0.00 0.00 458.76 152.00" xmlns="http://www.w3.org/2000/svg" xmlns:xlink="http://www.w3.org/1999/xlink">
<g id="graph0" class="graph" transform="scale(1 1) rotate(0) translate(4 148)">
<title>stack</title>
<polygon fill="white" stroke="transparent" points="-4,4 -4,-148 454.76,-148 454.76,4 -4,4"/>
<!-- x1 -->
<g id="node1" class="node">
<title>x1</title>
<text text-anchor="middle" x="27" y="-108.2" font-family="Panton" font-size="16.00" fill="#606060">x1</text>
</g>
<!-- cnn1 -->
<g id="node6" class="node">
<title>cnn1</title>
<ellipse fill="none" stroke="#606060" cx="165.66" cy="-112" rx="75.82" ry="31.23"/>
<text text-anchor="middle" x="165.66" y="-117.2" font-family="Panton" font-size="16.00" fill="#606060">convolutional</text>
<text text-anchor="middle" x="165.66" y="-99.2" font-family="Panton" font-size="16.00" fill="#606060">layer</text>
</g>
<!-- x1&#45;&gt;cnn1 -->
<g id="edge1" class="edge">
<title>x1&#45;&gt;cnn1</title>
<path fill="none" stroke="#606060" d="M54.03,-112C61.65,-112 70.43,-112 79.63,-112"/>
<polygon fill="#606060" stroke="#606060" points="79.76,-115.5 89.76,-112 79.76,-108.5 79.76,-115.5"/>
</g>
<!-- x2 -->
<g id="node2" class="node">
<title>x2</title>
<text text-anchor="middle" x="27" y="-28.2" font-family="Panton" font-size="16.00" fill="#606060">x2</text>
</g>
<!-- cnn2 -->
<g id="node7" class="node">
<title>cnn2</title>
<ellipse fill="none" stroke="#606060" cx="165.66" cy="-32" rx="75.82" ry="31.23"/>
<text text-anchor="middle" x="165.66" y="-37.2" font-family="Panton" font-size="16.00" fill="#606060">convolutional</text>
<text text-anchor="middle" x="165.66" y="-19.2" font-family="Panton" font-size="16.00" fill="#606060">layer</text>
</g>
<!-- x2&#45;&gt;cnn2 -->
<g id="edge3" class="edge">
<title>x2&#45;&gt;cnn2</title>
<path fill="none" stroke="#606060" d="M54.03,-32C61.65,-32 70.43,-32 79.63,-32"/>
<polygon fill="#606060" stroke="#606060" points="79.76,-35.5 89.76,-32 79.76,-28.5 79.76,-35.5"/>
</g>
<!-- y1 -->
<g id="node3" class="node">
<title>y1</title>
<text text-anchor="middle" x="423.76" y="-122.2" font-family="Panton" font-size="16.00" fill="#606060">y1</text>
</g>
<!-- y2 -->
<g id="node4" class="node">
<title>y2</title>
<text text-anchor="middle" x="423.76" y="-68.2" font-family="Panton" font-size="16.00" fill="#606060">y2</text>
</g>
<!-- y3 -->
<g id="node5" class="node">
<title>y3</title>
<text text-anchor="middle" x="423.76" y="-14.2" font-family="Panton" font-size="16.00" fill="#606060">y3</text>
</g>
<!-- dense -->
<g id="node8" class="node">
<title>dense</title>
<ellipse fill="none" stroke="#606060" cx="319.04" cy="-72" rx="41.94" ry="31.23"/>
<text text-anchor="middle" x="319.04" y="-77.2" font-family="Panton" font-size="16.00" fill="#606060">dense</text>
<text text-anchor="middle" x="319.04" y="-59.2" font-family="Panton" font-size="16.00" fill="#606060">layer</text>
</g>
<!-- cnn1&#45;&gt;dense -->
<g id="edge2" class="edge">
<title>cnn1&#45;&gt;dense</title>
<path fill="none" stroke="#606060" d="M229.98,-95.27C243.28,-91.75 257.1,-88.1 269.74,-84.76"/>
<polygon fill="#606060" stroke="#606060" points="270.82,-88.1 279.6,-82.16 269.03,-81.33 270.82,-88.1"/>
</g>
<!-- cnn2&#45;&gt;dense -->
<g id="edge4" class="edge">
<title>cnn2&#45;&gt;dense</title>
<path fill="none" stroke="#606060" d="M229.98,-48.73C243.28,-52.25 257.1,-55.9 269.74,-59.24"/>
<polygon fill="#606060" stroke="#606060" points="269.03,-62.67 279.6,-61.84 270.82,-55.9 269.03,-62.67"/>
</g>
<!-- dense&#45;&gt;y1 -->
<g id="edge5" class="edge">
<title>dense&#45;&gt;y1</title>
<path fill="none" stroke="#606060" d="M353.67,-89.68C364.55,-95.4 376.64,-101.76 387.63,-107.53"/>
<polygon fill="#606060" stroke="#606060" points="386.06,-110.66 396.54,-112.22 389.32,-104.47 386.06,-110.66"/>
</g>
<!-- dense&#45;&gt;y2 -->
<g id="edge6" class="edge">
<title>dense&#45;&gt;y2</title>
<path fill="none" stroke="#606060" d="M360.93,-72C369.35,-72 378.16,-72 386.41,-72"/>
<polygon fill="#606060" stroke="#606060" points="386.47,-75.5 396.47,-72 386.47,-68.5 386.47,-75.5"/>
</g>
<!-- dense&#45;&gt;y3 -->
<g id="edge7" class="edge">
<title>dense&#45;&gt;y3</title>
<path fill="none" stroke="#606060" d="M353.67,-54.32C364.55,-48.6 376.64,-42.24 387.63,-36.47"/>
<polygon fill="#606060" stroke="#606060" points="389.32,-39.53 396.54,-31.78 386.06,-33.34 389.32,-39.53"/>
</g>
</g>
</svg>
