<?xml version="1.0" encoding="UTF-8" standalone="no"?>
<!DOCTYPE svg PUBLIC "-//W3C//DTD SVG 1.1//EN"
 "http://www.w3.org/Graphics/SVG/1.1/DTD/svg11.dtd">
<!-- Generated by graphviz version 2.42.1 (0)
 -->
<!-- Title: match Pages: 1 -->
<svg width="1426pt" height="152pt"
 viewBox="0.00 0.00 1426.43 152.00" xmlns="http://www.w3.org/2000/svg" xmlns:xlink="http://www.w3.org/1999/xlink">
<g id="graph0" class="graph" transform="scale(1 1) rotate(0) translate(4 148)">
<title>match</title>
<polygon fill="white" stroke="transparent" points="-4,4 -4,-148 1422.43,-148 1422.43,4 -4,4"/>
<!-- ExampleGen -->
<g id="node1" class="node">
<title>ExampleGen</title>
<ellipse fill="none" stroke="#00aed2" cx="237.79" cy="-45" rx="59.59" ry="18"/>
<text text-anchor="middle" x="237.79" y="-41.3" font-family="Panton bold" font-size="14.00" fill="#00aed2">ExampleGen</text>
</g>
<!-- StatisticsGen -->
<g id="node2" class="node">
<title>StatisticsGen</title>
<ellipse fill="none" stroke="#00aed2" cx="398.58" cy="-72" rx="64.99" ry="18"/>
<text text-anchor="middle" x="398.58" y="-68.3" font-family="Panton bold" font-size="14.00" fill="#00aed2">StatisticsGen</text>
</g>
<!-- ExampleGen&#45;&gt;StatisticsGen -->
<g id="edge2" class="edge">
<title>ExampleGen&#45;&gt;StatisticsGen</title>
<path fill="none" stroke="#606060" d="M290.35,-53.77C303.83,-56.06 318.54,-58.56 332.62,-60.95"/>
<polygon fill="#606060" stroke="#606060" points="332.29,-64.45 342.73,-62.67 333.46,-57.55 332.29,-64.45"/>
</g>
<!-- Transform -->
<g id="node5" class="node">
<title>Transform</title>
<ellipse fill="none" stroke="#00aed2" cx="578.87" cy="-18" rx="51.19" ry="18"/>
<text text-anchor="middle" x="578.87" y="-14.3" font-family="Panton bold" font-size="14.00" fill="#00aed2">Transform</text>
</g>
<!-- ExampleGen&#45;&gt;Transform -->
<g id="edge6" class="edge">
<title>ExampleGen&#45;&gt;Transform</title>
<path fill="none" stroke="#606060" d="M295.93,-40.45C357.7,-35.53 455.7,-27.73 518.38,-22.74"/>
<polygon fill="#606060" stroke="#606060" points="518.81,-26.21 528.5,-21.93 518.26,-19.24 518.81,-26.21"/>
</g>
<!-- ExampleValidator -->
<g id="node3" class="node">
<title>ExampleValidator</title>
<ellipse fill="none" stroke="#00aed2" cx="578.87" cy="-126" rx="79.09" ry="18"/>
<text text-anchor="middle" x="578.87" y="-122.3" font-family="Panton bold" font-size="14.00" fill="#00aed2">ExampleValidator</text>
</g>
<!-- StatisticsGen&#45;&gt;ExampleValidator -->
<g id="edge3" class="edge">
<title>StatisticsGen&#45;&gt;ExampleValidator</title>
<path fill="none" stroke="#606060" d="M443.2,-85.21C466.59,-92.29 495.69,-101.11 520.85,-108.73"/>
<polygon fill="#606060" stroke="#606060" points="520.06,-112.15 530.64,-111.7 522.09,-105.45 520.06,-112.15"/>
</g>
<!-- SchemaGen -->
<g id="node4" class="node">
<title>SchemaGen</title>
<ellipse fill="none" stroke="#00aed2" cx="578.87" cy="-72" rx="59.29" ry="18"/>
<text text-anchor="middle" x="578.87" y="-68.3" font-family="Panton bold" font-size="14.00" fill="#00aed2">SchemaGen</text>
</g>
<!-- StatisticsGen&#45;&gt;SchemaGen -->
<g id="edge4" class="edge">
<title>StatisticsGen&#45;&gt;SchemaGen</title>
<path fill="none" stroke="#606060" d="M463.7,-72C478.54,-72 494.39,-72 509.41,-72"/>
<polygon fill="#606060" stroke="#606060" points="509.66,-75.5 519.66,-72 509.66,-68.5 509.66,-75.5"/>
</g>
<!-- ExampleValidator&#45;&gt;SchemaGen -->
<g id="edge5" class="edge">
<title>ExampleValidator&#45;&gt;SchemaGen</title>
<path fill="none" stroke="#606060" d="M578.87,-97.59C578.87,-95.1 578.87,-92.62 578.87,-90.14"/>
<polygon fill="#606060" stroke="#606060" points="575.37,-97.79 578.87,-107.79 582.37,-97.79 575.37,-97.79"/>
</g>
<!-- SchemaGen&#45;&gt;Transform -->
<g id="edge7" class="edge">
<title>SchemaGen&#45;&gt;Transform</title>
<path fill="none" stroke="#606060" d="M578.87,-53.79C578.87,-51.31 578.87,-48.83 578.87,-46.34"/>
<polygon fill="#606060" stroke="#606060" points="582.37,-46.14 578.87,-36.14 575.37,-46.14 582.37,-46.14"/>
</g>
<!-- Trainer -->
<g id="node6" class="node">
<title>Trainer</title>
<ellipse fill="none" stroke="#00aed2" cx="732.51" cy="-18" rx="38.19" ry="18"/>
<text text-anchor="middle" x="732.51" y="-14.3" font-family="Panton bold" font-size="14.00" fill="#00aed2">Trainer</text>
</g>
<!-- Transform&#45;&gt;Trainer -->
<g id="edge8" class="edge">
<title>Transform&#45;&gt;Trainer</title>
<path fill="none" stroke="#606060" d="M630.36,-18C647.49,-18 666.56,-18 683.48,-18"/>
<polygon fill="#606060" stroke="#606060" points="683.71,-21.5 693.71,-18 683.71,-14.5 683.71,-21.5"/>
</g>
<!-- Evaluator -->
<g id="node7" class="node">
<title>Evaluator</title>
<ellipse fill="none" stroke="#00aed2" cx="854.95" cy="-18" rx="48.19" ry="18"/>
<text text-anchor="middle" x="854.95" y="-14.3" font-family="Panton bold" font-size="14.00" fill="#00aed2">Evaluator</text>
</g>
<!-- Trainer&#45;&gt;Evaluator -->
<g id="edge9" class="edge">
<title>Trainer&#45;&gt;Evaluator</title>
<path fill="none" stroke="#606060" d="M770.96,-18C779.1,-18 787.89,-18 796.6,-18"/>
<polygon fill="#606060" stroke="#606060" points="796.75,-21.5 806.74,-18 796.74,-14.5 796.75,-21.5"/>
</g>
<!-- ModelValidator -->
<g id="node8" class="node">
<title>ModelValidator</title>
<ellipse fill="none" stroke="#00aed2" cx="1009.24" cy="-18" rx="70.39" ry="18"/>
<text text-anchor="middle" x="1009.24" y="-14.3" font-family="Panton bold" font-size="14.00" fill="#00aed2">ModelValidator</text>
</g>
<!-- Evaluator&#45;&gt;ModelValidator -->
<g id="edge10" class="edge">
<title>Evaluator&#45;&gt;ModelValidator</title>
<path fill="none" stroke="#606060" d="M903.3,-18C911.4,-18 920,-18 928.67,-18"/>
<polygon fill="#606060" stroke="#606060" points="928.84,-21.5 938.84,-18 928.84,-14.5 928.84,-21.5"/>
</g>
<!-- Pusher -->
<g id="node9" class="node">
<title>Pusher</title>
<ellipse fill="none" stroke="#00aed2" cx="1154.43" cy="-18" rx="38.99" ry="18"/>
<text text-anchor="middle" x="1154.43" y="-14.3" font-family="Panton bold" font-size="14.00" fill="#00aed2">Pusher</text>
</g>
<!-- ModelValidator&#45;&gt;Pusher -->
<g id="edge11" class="edge">
<title>ModelValidator&#45;&gt;Pusher</title>
<path fill="none" stroke="#606060" d="M1079.74,-18C1088.36,-18 1097.02,-18 1105.21,-18"/>
<polygon fill="#606060" stroke="#606060" points="1105.32,-21.5 1115.32,-18 1105.32,-14.5 1105.32,-21.5"/>
</g>
<!-- server -->
<g id="node11" class="node">
<title>server</title>
<text text-anchor="middle" x="1323.93" y="-14.2" font-family="Panton" font-size="16.00" fill="#606060">TF Serving/TF Lite/TF JS</text>
</g>
<!-- Pusher&#45;&gt;server -->
<g id="edge12" class="edge">
<title>Pusher&#45;&gt;server</title>
<path fill="none" stroke="#606060" d="M1193.44,-18C1201.29,-18 1209.92,-18 1218.88,-18"/>
<polygon fill="#606060" stroke="#606060" points="1219.11,-21.5 1229.11,-18 1219.11,-14.5 1219.11,-21.5"/>
</g>
<!-- data -->
<g id="node10" class="node">
<title>data</title>
<text text-anchor="middle" x="71" y="-50.2" font-family="Panton" font-size="16.00" fill="#606060">Training/Validation</text>
<text text-anchor="middle" x="71" y="-32.2" font-family="Panton" font-size="16.00" fill="#606060">Data</text>
</g>
<!-- data&#45;&gt;ExampleGen -->
<g id="edge1" class="edge">
<title>data&#45;&gt;ExampleGen</title>
<path fill="none" stroke="#606060" d="M142.37,-45C150.76,-45 159.33,-45 167.71,-45"/>
<polygon fill="#606060" stroke="#606060" points="167.81,-48.5 177.81,-45 167.81,-41.5 167.81,-48.5"/>
</g>
</g>
</svg>
