<?xml version="1.0" encoding="UTF-8" standalone="no"?>
<!DOCTYPE svg PUBLIC "-//W3C//DTD SVG 1.1//EN"
 "http://www.w3.org/Graphics/SVG/1.1/DTD/svg11.dtd">
<!-- Generated by graphviz version 2.42.1 (0)
 -->
<!-- Title: classify Pages: 1 -->
<svg width="313pt" height="80pt"
 viewBox="0.00 0.00 313.19 80.00" xmlns="http://www.w3.org/2000/svg" xmlns:xlink="http://www.w3.org/1999/xlink">
<g id="graph0" class="graph" transform="scale(1 1) rotate(0) translate(4 76)">
<title>classify</title>
<polygon fill="white" stroke="transparent" points="-4,4 -4,-76 309.19,-76 309.19,4 -4,4"/>
<!-- digit -->
<g id="node1" class="node">
<title>digit</title>
<image xlink:href="digits.png" width="72px" height="71.5955px" preserveAspectRatio="xMinYMin meet" x="0" y="-71.7978"/>
</g>
<!-- model -->
<g id="node2" class="node">
<title>model</title>
<ellipse fill="none" stroke="black" cx="147" cy="-36" rx="38.99" ry="18"/>
<text text-anchor="middle" x="147" y="-32.3" font-family="Times,serif" font-size="14.00">model</text>
</g>
<!-- digit&#45;&gt;model -->
<g id="edge1" class="edge">
<title>digit&#45;&gt;model</title>
<path fill="none" stroke="black" d="M72.09,-36C80.32,-36 89.23,-36 97.92,-36"/>
<polygon fill="black" stroke="black" points="97.96,-39.5 107.96,-36 97.96,-32.5 97.96,-39.5"/>
</g>
<!-- output -->
<g id="node3" class="node">
<title>output</title>
<ellipse fill="none" stroke="black" cx="263.59" cy="-36" rx="41.69" ry="18"/>
<text text-anchor="middle" x="263.59" y="-32.3" font-family="Times,serif" font-size="14.00">output</text>
</g>
<!-- model&#45;&gt;output -->
<g id="edge2" class="edge">
<title>model&#45;&gt;output</title>
<path fill="none" stroke="black" d="M186.15,-36C194.3,-36 203.03,-36 211.57,-36"/>
<polygon fill="black" stroke="black" points="211.85,-39.5 221.85,-36 211.85,-32.5 211.85,-39.5"/>
</g>
</g>
</svg>
