<?xml version="1.0" encoding="UTF-8" standalone="no"?>
<!DOCTYPE svg PUBLIC "-//W3C//DTD SVG 1.1//EN"
 "http://www.w3.org/Graphics/SVG/1.1/DTD/svg11.dtd">
<!-- Generated by graphviz version 2.42.1 (0)
 -->
<!-- Title: test Pages: 1 -->
<svg width="479pt" height="125pt"
 viewBox="0.00 0.00 479.46 125.00" xmlns="http://www.w3.org/2000/svg" xmlns:xlink="http://www.w3.org/1999/xlink">
<g id="graph0" class="graph" transform="scale(1 1) rotate(0) translate(4 121)">
<title>test</title>
<polygon fill="white" stroke="transparent" points="-4,4 -4,-121 475.46,-121 475.46,4 -4,4"/>
<!-- x -->
<g id="node1" class="node">
<title>x</title>
<polygon fill="none" stroke="black" points="54,-117 0,-117 0,-81 54,-81 54,-117"/>
<text text-anchor="middle" x="27" y="-92.8" font-family="Panton" font-size="24.00">x</text>
</g>
<!-- mult -->
<g id="node6" class="node">
<title>mult</title>
<ellipse fill="lightgray" stroke="lightgray" cx="134.55" cy="-72" rx="44.6" ry="24.08"/>
<text text-anchor="middle" x="134.55" y="-65.8" font-family="Panton" font-size="24.00">mult</text>
</g>
<!-- x&#45;&gt;mult -->
<g id="edge1" class="edge">
<title>x&#45;&gt;mult</title>
<path fill="none" stroke="black" d="M54.09,-92.33C63.16,-90.01 73.65,-87.32 83.98,-84.68"/>
<polygon fill="black" stroke="black" points="84.96,-88.04 93.78,-82.17 83.23,-81.26 84.96,-88.04"/>
</g>
<!-- w -->
<g id="node2" class="node">
<title>w</title>
<polygon fill="none" stroke="black" points="54,-63 0,-63 0,-27 54,-27 54,-63"/>
<text text-anchor="middle" x="27" y="-38.8" font-family="Panton" font-size="24.00">w</text>
</g>
<!-- w&#45;&gt;mult -->
<g id="edge2" class="edge">
<title>w&#45;&gt;mult</title>
<path fill="none" stroke="black" d="M54.09,-51.67C63.16,-53.99 73.65,-56.68 83.98,-59.32"/>
<polygon fill="black" stroke="black" points="83.23,-62.74 93.78,-61.83 84.96,-55.96 83.23,-62.74"/>
</g>
<!-- p -->
<g id="node3" class="node">
<title>p</title>
<polygon fill="none" stroke="black" points="269.1,-90 215.1,-90 215.1,-54 269.1,-54 269.1,-90"/>
<text text-anchor="middle" x="242.1" y="-65.8" font-family="Panton" font-size="24.00">p</text>
</g>
<!-- add -->
<g id="node7" class="node">
<title>add</title>
<ellipse fill="lightgray" stroke="lightgray" cx="343.28" cy="-45" rx="38.37" ry="24.08"/>
<text text-anchor="middle" x="343.28" y="-38.8" font-family="Panton" font-size="24.00">add</text>
</g>
<!-- p&#45;&gt;add -->
<g id="edge4" class="edge">
<title>p&#45;&gt;add</title>
<path fill="none" stroke="black" d="M269.15,-64.91C278.02,-62.49 288.2,-59.72 298.08,-57.03"/>
<polygon fill="black" stroke="black" points="299.08,-60.39 307.81,-54.38 297.24,-53.63 299.08,-60.39"/>
</g>
<!-- b -->
<g id="node4" class="node">
<title>b</title>
<polygon fill="none" stroke="black" points="269.1,-36 215.1,-36 215.1,0 269.1,0 269.1,-36"/>
<text text-anchor="middle" x="242.1" y="-11.8" font-family="Panton" font-size="24.00">b</text>
</g>
<!-- b&#45;&gt;add -->
<g id="edge5" class="edge">
<title>b&#45;&gt;add</title>
<path fill="none" stroke="black" d="M269.15,-25.09C278.02,-27.51 288.2,-30.28 298.08,-32.97"/>
<polygon fill="black" stroke="black" points="297.24,-36.37 307.81,-35.62 299.08,-29.61 297.24,-36.37"/>
</g>
<!-- y -->
<g id="node5" class="node">
<title>y</title>
<polygon fill="none" stroke="black" points="471.46,-63 417.46,-63 417.46,-27 471.46,-27 471.46,-63"/>
<text text-anchor="middle" x="444.46" y="-38.8" font-family="Panton" font-size="24.00">y</text>
</g>
<!-- mult&#45;&gt;p -->
<g id="edge3" class="edge">
<title>mult&#45;&gt;p</title>
<path fill="none" stroke="black" d="M179.39,-72C187.91,-72 196.76,-72 205,-72"/>
<polygon fill="black" stroke="black" points="205.04,-75.5 215.04,-72 205.04,-68.5 205.04,-75.5"/>
</g>
<!-- add&#45;&gt;y -->
<g id="edge6" class="edge">
<title>add&#45;&gt;y</title>
<path fill="none" stroke="black" d="M381.49,-45C389.84,-45 398.69,-45 407.01,-45"/>
<polygon fill="black" stroke="black" points="407.18,-48.5 417.18,-45 407.18,-41.5 407.18,-48.5"/>
</g>
</g>
</svg>
