<?xml version="1.0" encoding="UTF-8" standalone="no"?>
<!DOCTYPE svg PUBLIC "-//W3C//DTD SVG 1.1//EN"
 "http://www.w3.org/Graphics/SVG/1.1/DTD/svg11.dtd">
<!-- Generated by graphviz version 2.42.1 (0)
 -->
<!-- Title: stack Pages: 1 -->
<svg width="425pt" height="152pt"
 viewBox="0.00 0.00 425.00 152.00" xmlns="http://www.w3.org/2000/svg" xmlns:xlink="http://www.w3.org/1999/xlink">
<g id="graph0" class="graph" transform="scale(1 1) rotate(0) translate(4 148)">
<title>stack</title>
<polygon fill="white" stroke="transparent" points="-4,4 -4,-148 421,-148 421,4 -4,4"/>
<!-- x1 -->
<g id="node1" class="node">
<title>x1</title>
<text text-anchor="middle" x="27" y="-102" font-family="Panton" font-size="20.00">x1</text>
</g>
<!-- cnn1 -->
<g id="node6" class="node">
<title>cnn1</title>
<polygon fill="none" stroke="black" points="222,-133 90,-133 90,-81 222,-81 222,-133"/>
<text text-anchor="middle" x="156" y="-113" font-family="Panton" font-size="20.00">convolutional</text>
<text text-anchor="middle" x="156" y="-91" font-family="Panton" font-size="20.00">layer</text>
</g>
<!-- x1&#45;&gt;cnn1 -->
<g id="edge1" class="edge">
<title>x1&#45;&gt;cnn1</title>
<path fill="none" stroke="black" d="M54.01,-107C61.73,-107 70.62,-107 79.84,-107"/>
<polygon fill="black" stroke="black" points="79.94,-110.5 89.94,-107 79.94,-103.5 79.94,-110.5"/>
</g>
<!-- x2 -->
<g id="node2" class="node">
<title>x2</title>
<text text-anchor="middle" x="27" y="-32" font-family="Panton" font-size="20.00">x2</text>
</g>
<!-- cnn2 -->
<g id="node7" class="node">
<title>cnn2</title>
<polygon fill="none" stroke="black" points="222,-63 90,-63 90,-11 222,-11 222,-63"/>
<text text-anchor="middle" x="156" y="-43" font-family="Panton" font-size="20.00">convolutional</text>
<text text-anchor="middle" x="156" y="-21" font-family="Panton" font-size="20.00">layer</text>
</g>
<!-- x2&#45;&gt;cnn2 -->
<g id="edge3" class="edge">
<title>x2&#45;&gt;cnn2</title>
<path fill="none" stroke="black" d="M54.01,-37C61.73,-37 70.62,-37 79.84,-37"/>
<polygon fill="black" stroke="black" points="79.94,-40.5 89.94,-37 79.94,-33.5 79.94,-40.5"/>
</g>
<!-- y1 -->
<g id="node3" class="node">
<title>y1</title>
<text text-anchor="middle" x="390" y="-121" font-family="Panton" font-size="20.00">y1</text>
</g>
<!-- y2 -->
<g id="node4" class="node">
<title>y2</title>
<text text-anchor="middle" x="390" y="-67" font-family="Panton" font-size="20.00">y2</text>
</g>
<!-- y3 -->
<g id="node5" class="node">
<title>y3</title>
<text text-anchor="middle" x="390" y="-13" font-family="Panton" font-size="20.00">y3</text>
</g>
<!-- dense -->
<g id="node8" class="node">
<title>dense</title>
<polygon fill="none" stroke="black" points="327,-98 258,-98 258,-46 327,-46 327,-98"/>
<text text-anchor="middle" x="292.5" y="-78" font-family="Panton" font-size="20.00">dense</text>
<text text-anchor="middle" x="292.5" y="-56" font-family="Panton" font-size="20.00">layer</text>
</g>
<!-- cnn1&#45;&gt;dense -->
<g id="edge2" class="edge">
<title>cnn1&#45;&gt;dense</title>
<path fill="none" stroke="black" d="M222.28,-90.01C231.04,-87.73 239.84,-85.44 248.09,-83.3"/>
<polygon fill="black" stroke="black" points="249.04,-86.67 257.84,-80.76 247.28,-79.89 249.04,-86.67"/>
</g>
<!-- cnn2&#45;&gt;dense -->
<g id="edge4" class="edge">
<title>cnn2&#45;&gt;dense</title>
<path fill="none" stroke="black" d="M222.28,-53.99C231.04,-56.27 239.84,-58.56 248.09,-60.7"/>
<polygon fill="black" stroke="black" points="247.28,-64.11 257.84,-63.24 249.04,-57.33 247.28,-64.11"/>
</g>
<!-- dense&#45;&gt;y1 -->
<g id="edge5" class="edge">
<title>dense&#45;&gt;y1</title>
<path fill="none" stroke="black" d="M327.17,-91.04C335.86,-95.95 345.23,-101.25 353.99,-106.2"/>
<polygon fill="black" stroke="black" points="352.4,-109.33 362.83,-111.2 355.85,-103.23 352.4,-109.33"/>
</g>
<!-- dense&#45;&gt;y2 -->
<g id="edge6" class="edge">
<title>dense&#45;&gt;y2</title>
<path fill="none" stroke="black" d="M327.17,-72C335.4,-72 344.25,-72 352.6,-72"/>
<polygon fill="black" stroke="black" points="352.83,-75.5 362.83,-72 352.83,-68.5 352.83,-75.5"/>
</g>
<!-- dense&#45;&gt;y3 -->
<g id="edge7" class="edge">
<title>dense&#45;&gt;y3</title>
<path fill="none" stroke="black" d="M327.17,-52.96C335.86,-48.05 345.23,-42.75 353.99,-37.8"/>
<polygon fill="black" stroke="black" points="355.85,-40.77 362.83,-32.8 352.4,-34.67 355.85,-40.77"/>
</g>
</g>
</svg>
