<?xml version="1.0" encoding="UTF-8" standalone="no"?>
<!DOCTYPE svg PUBLIC "-//W3C//DTD SVG 1.1//EN"
 "http://www.w3.org/Graphics/SVG/1.1/DTD/svg11.dtd">
<!-- Generated by graphviz version 2.42.1 (0)
 -->
<!-- Title: stack Pages: 1 -->
<svg width="640pt" height="100pt"
 viewBox="0.00 0.00 639.97 99.77" xmlns="http://www.w3.org/2000/svg" xmlns:xlink="http://www.w3.org/1999/xlink">
<g id="graph0" class="graph" transform="scale(1 1) rotate(0) translate(4 95.77)">
<title>stack</title>
<polygon fill="white" stroke="transparent" points="-4,4 -4,-95.77 635.97,-95.77 635.97,4 -4,4"/>
<!-- image_1 -->
<g id="node1" class="node">
<title>image_1</title>
<text text-anchor="middle" x="37.5" y="-69.58" font-family="Panton" font-size="16.00" fill="#606060">image_1</text>
</g>
<!-- classifier_1 -->
<g id="node6" class="node">
<title>classifier_1</title>
<ellipse fill="none" stroke="#606060" cx="166.15" cy="-73.38" rx="55.31" ry="18.27"/>
<text text-anchor="middle" x="166.15" y="-69.58" font-family="Panton" font-size="16.00" fill="#606060">classifier</text>
</g>
<!-- image_1&#45;&gt;classifier_1 -->
<g id="edge1" class="edge">
<title>image_1&#45;&gt;classifier_1</title>
<path fill="none" stroke="#606060" d="M73.78,-73.38C82.17,-73.38 91.37,-73.38 100.62,-73.38"/>
<polygon fill="#606060" stroke="#606060" points="100.62,-76.88 110.62,-73.38 100.62,-69.88 100.62,-76.88"/>
</g>
<!-- image_2 -->
<g id="node2" class="node">
<title>image_2</title>
<text text-anchor="middle" x="37.5" y="-14.58" font-family="Panton" font-size="16.00" fill="#606060">image_2</text>
</g>
<!-- classifier_2 -->
<g id="node7" class="node">
<title>classifier_2</title>
<ellipse fill="none" stroke="#606060" cx="166.15" cy="-18.38" rx="55.31" ry="18.27"/>
<text text-anchor="middle" x="166.15" y="-14.58" font-family="Panton" font-size="16.00" fill="#606060">classifier</text>
</g>
<!-- image_2&#45;&gt;classifier_2 -->
<g id="edge4" class="edge">
<title>image_2&#45;&gt;classifier_2</title>
<path fill="none" stroke="#606060" d="M75.13,-18.38C83.12,-18.38 91.79,-18.38 100.5,-18.38"/>
<polygon fill="#606060" stroke="#606060" points="100.69,-21.88 110.69,-18.38 100.69,-14.88 100.69,-21.88"/>
</g>
<!-- probs_1 -->
<g id="node3" class="node">
<title>probs_1</title>
<text text-anchor="middle" x="293.81" y="-68.58" font-family="Panton" font-size="16.00" fill="#606060">probs_1</text>
</g>
<!-- lambda -->
<g id="node8" class="node">
<title>lambda</title>
<ellipse fill="none" stroke="#606060" cx="439.14" cy="-45.38" rx="72.66" ry="18.27"/>
<text text-anchor="middle" x="439.14" y="-41.58" font-family="Panton" font-size="16.00" fill="#606060">lambda layer</text>
</g>
<!-- probs_1&#45;&gt;lambda -->
<g id="edge3" class="edge">
<title>probs_1&#45;&gt;lambda</title>
<path fill="none" stroke="#606060" d="M329.14,-65.92C341.59,-63.57 356.12,-60.83 370.44,-58.14"/>
<polygon fill="#606060" stroke="#606060" points="371.12,-61.57 380.3,-56.28 369.82,-54.69 371.12,-61.57"/>
</g>
<!-- probs_2 -->
<g id="node4" class="node">
<title>probs_2</title>
<text text-anchor="middle" x="293.81" y="-14.58" font-family="Panton" font-size="16.00" fill="#606060">probs_2</text>
</g>
<!-- probs_2&#45;&gt;lambda -->
<g id="edge6" class="edge">
<title>probs_2&#45;&gt;lambda</title>
<path fill="none" stroke="#606060" d="M330.61,-25.13C342.68,-27.4 356.59,-30.02 370.31,-32.61"/>
<polygon fill="#606060" stroke="#606060" points="369.76,-36.07 380.24,-34.48 371.06,-29.19 369.76,-36.07"/>
</g>
<!-- prediction -->
<g id="node5" class="node">
<title>prediction</title>
<text text-anchor="middle" x="589.97" y="-41.58" font-family="Panton" font-size="16.00" fill="#606060">prediction</text>
</g>
<!-- classifier_1&#45;&gt;probs_1 -->
<g id="edge2" class="edge">
<title>classifier_1&#45;&gt;probs_1</title>
<path fill="none" stroke="#606060" d="M221.54,-72.95C230.5,-72.88 239.69,-72.81 248.37,-72.74"/>
<polygon fill="#606060" stroke="#606060" points="248.68,-76.24 258.65,-72.66 248.62,-69.24 248.68,-76.24"/>
</g>
<!-- classifier_2&#45;&gt;probs_2 -->
<g id="edge5" class="edge">
<title>classifier_2&#45;&gt;probs_2</title>
<path fill="none" stroke="#606060" d="M221.54,-18.38C230.03,-18.38 238.72,-18.38 246.99,-18.38"/>
<polygon fill="#606060" stroke="#606060" points="247.2,-21.88 257.2,-18.38 247.2,-14.88 247.2,-21.88"/>
</g>
<!-- lambda&#45;&gt;prediction -->
<g id="edge7" class="edge">
<title>lambda&#45;&gt;prediction</title>
<path fill="none" stroke="#606060" d="M512.38,-45.38C520.92,-45.38 529.5,-45.38 537.66,-45.38"/>
<polygon fill="#606060" stroke="#606060" points="537.75,-48.88 547.75,-45.38 537.75,-41.88 537.75,-48.88"/>
</g>
</g>
</svg>
