<?xml version="1.0" encoding="UTF-8" standalone="no"?>
<!DOCTYPE svg PUBLIC "-//W3C//DTD SVG 1.1//EN"
 "http://www.w3.org/Graphics/SVG/1.1/DTD/svg11.dtd">
<!-- Generated by graphviz version 2.42.1 (0)
 -->
<!-- Title: classify Pages: 1 -->
<svg width="289pt" height="260pt"
 viewBox="0.00 0.00 288.69 260.00" xmlns="http://www.w3.org/2000/svg" xmlns:xlink="http://www.w3.org/1999/xlink">
<g id="graph0" class="graph" transform="scale(1 1) rotate(0) translate(4 256)">
<title>classify</title>
<polygon fill="white" stroke="transparent" points="-4,4 -4,-256 284.69,-256 284.69,4 -4,4"/>
<!-- digit -->
<g id="node1" class="node">
<title>digit</title>
</g>
<!-- model -->
<g id="node2" class="node">
<title>model</title>
<ellipse fill="none" stroke="black" cx="151.69" cy="-207" rx="38.99" ry="18"/>
<text text-anchor="middle" x="151.69" y="-203.3" font-family="Times,serif" font-size="14.00">model</text>
</g>
<!-- output -->
<g id="node3" class="node">
<title>output</title>
</g>
<!-- model&#45;&gt;output -->
<g id="edge3" class="edge">
<title>model&#45;&gt;output</title>
<path fill="none" stroke="black" d="M190.78,-207C199.16,-207 208.02,-207 216.33,-207"/>
<polygon fill="black" stroke="black" points="216.49,-210.5 226.49,-207 216.49,-203.5 216.49,-210.5"/>
</g>
<!-- digit1 -->
<g id="node4" class="node">
<title>digit1</title>
<ellipse fill="none" stroke="black" cx="38.35" cy="-234" rx="38.19" ry="18"/>
<text text-anchor="middle" x="38.35" y="-230.3" font-family="Times,serif" font-size="14.00">digit1</text>
</g>
<!-- digit1&#45;&gt;model -->
<g id="edge1" class="edge">
<title>digit1&#45;&gt;model</title>
<path fill="none" stroke="black" d="M72.75,-225.9C83.55,-223.28 95.69,-220.34 107.12,-217.57"/>
<polygon fill="black" stroke="black" points="108.03,-220.95 116.92,-215.19 106.38,-214.14 108.03,-220.95"/>
</g>
<!-- digit2 -->
<g id="node5" class="node">
<title>digit2</title>
<ellipse fill="none" stroke="black" cx="38.35" cy="-180" rx="38.19" ry="18"/>
<text text-anchor="middle" x="38.35" y="-176.3" font-family="Times,serif" font-size="14.00">digit2</text>
</g>
<!-- digit2&#45;&gt;model -->
<g id="edge2" class="edge">
<title>digit2&#45;&gt;model</title>
<path fill="none" stroke="black" d="M72.75,-188.1C83.55,-190.72 95.69,-193.66 107.12,-196.43"/>
<polygon fill="black" stroke="black" points="106.38,-199.86 116.92,-198.81 108.03,-193.05 106.38,-199.86"/>
</g>
</g>
</svg>
