<?xml version="1.0" encoding="UTF-8" standalone="no"?>
<!DOCTYPE svg PUBLIC "-//W3C//DTD SVG 1.1//EN"
 "http://www.w3.org/Graphics/SVG/1.1/DTD/svg11.dtd">
<!-- Generated by graphviz version 2.42.1 (0)
 -->
<!-- Title: test Pages: 1 -->
<svg width="178pt" height="356pt"
 viewBox="0.00 0.00 178.00 356.17" xmlns="http://www.w3.org/2000/svg" xmlns:xlink="http://www.w3.org/1999/xlink">
<g id="graph0" class="graph" transform="scale(1 1) rotate(0) translate(4 352.17)">
<title>test</title>
<polygon fill="white" stroke="transparent" points="-4,4 -4,-352.17 174,-352.17 174,4 -4,4"/>
<!-- x -->
<g id="node1" class="node">
<title>x</title>
<polygon fill="none" stroke="black" points="54,-348.17 0,-348.17 0,-312.17 54,-312.17 54,-348.17"/>
<text text-anchor="middle" x="27" y="-323.97" font-family="Panton" font-size="24.00">x</text>
</g>
<!-- mult -->
<g id="node6" class="node">
<title>mult</title>
<ellipse fill="lightgray" stroke="lightgray" cx="63" cy="-252.12" rx="44.6" ry="24.08"/>
<text text-anchor="middle" x="63" y="-245.92" font-family="Panton" font-size="24.00">mult</text>
</g>
<!-- x&#45;&gt;mult -->
<g id="edge1" class="edge">
<title>x&#45;&gt;mult</title>
<path fill="none" stroke="black" d="M35.17,-311.91C39,-303.83 43.68,-293.94 48.1,-284.59"/>
<polygon fill="black" stroke="black" points="51.29,-286.05 52.4,-275.51 44.96,-283.05 51.29,-286.05"/>
</g>
<!-- alpha -->
<g id="node2" class="node">
<title>alpha</title>
<polygon fill="none" stroke="black" points="126,-348.17 72,-348.17 72,-312.17 126,-312.17 126,-348.17"/>
<text text-anchor="start" x="92" y="-323.97" font-family="Panton" font-size="24.00">α</text>
</g>
<!-- alpha&#45;&gt;mult -->
<g id="edge2" class="edge">
<title>alpha&#45;&gt;mult</title>
<path fill="none" stroke="black" d="M90.83,-311.91C87,-303.83 82.32,-293.94 77.9,-284.59"/>
<polygon fill="black" stroke="black" points="81.04,-283.05 73.6,-275.51 74.71,-286.05 81.04,-283.05"/>
</g>
<!-- p -->
<g id="node3" class="node">
<title>p</title>
<polygon fill="none" stroke="black" points="90,-192.08 36,-192.08 36,-156.08 90,-156.08 90,-192.08"/>
<text text-anchor="middle" x="63" y="-167.88" font-family="Panton" font-size="24.00">p</text>
</g>
<!-- add -->
<g id="node7" class="node">
<title>add</title>
<ellipse fill="lightgray" stroke="lightgray" cx="101" cy="-96.04" rx="38.37" ry="24.08"/>
<text text-anchor="middle" x="101" y="-89.84" font-family="Panton" font-size="24.00">add</text>
</g>
<!-- p&#45;&gt;add -->
<g id="edge4" class="edge">
<title>p&#45;&gt;add</title>
<path fill="none" stroke="black" d="M71.62,-155.83C75.7,-147.68 80.69,-137.69 85.39,-128.28"/>
<polygon fill="black" stroke="black" points="88.62,-129.65 89.95,-119.14 82.35,-126.53 88.62,-129.65"/>
</g>
<!-- beta -->
<g id="node4" class="node">
<title>beta</title>
<polygon fill="none" stroke="black" points="170,-192.08 108,-192.08 108,-156.08 170,-156.08 170,-192.08"/>
<text text-anchor="middle" x="139" y="-167.88" font-family="Panton" font-size="24.00">beta</text>
</g>
<!-- beta&#45;&gt;add -->
<g id="edge5" class="edge">
<title>beta&#45;&gt;add</title>
<path fill="none" stroke="black" d="M130.38,-155.83C126.3,-147.68 121.31,-137.69 116.61,-128.28"/>
<polygon fill="black" stroke="black" points="119.65,-126.53 112.05,-119.14 113.38,-129.65 119.65,-126.53"/>
</g>
<!-- y -->
<g id="node5" class="node">
<title>y</title>
<polygon fill="none" stroke="black" points="128,-36 74,-36 74,0 128,0 128,-36"/>
<text text-anchor="middle" x="101" y="-11.8" font-family="Panton" font-size="24.00">y</text>
</g>
<!-- mult&#45;&gt;p -->
<g id="edge3" class="edge">
<title>mult&#45;&gt;p</title>
<path fill="none" stroke="black" d="M63,-227.9C63,-219.79 63,-210.62 63,-202.22"/>
<polygon fill="black" stroke="black" points="66.5,-202.14 63,-192.14 59.5,-202.14 66.5,-202.14"/>
</g>
<!-- add&#45;&gt;y -->
<g id="edge6" class="edge">
<title>add&#45;&gt;y</title>
<path fill="none" stroke="black" d="M101,-71.81C101,-63.71 101,-54.54 101,-46.14"/>
<polygon fill="black" stroke="black" points="104.5,-46.05 101,-36.05 97.5,-46.05 104.5,-46.05"/>
</g>
</g>
</svg>
