<?xml version="1.0" encoding="UTF-8" standalone="no"?>
<!DOCTYPE svg PUBLIC "-//W3C//DTD SVG 1.1//EN"
 "http://www.w3.org/Graphics/SVG/1.1/DTD/svg11.dtd">
<!-- Generated by graphviz version 2.42.1 (0)
 -->
<!-- Title: match Pages: 1 -->
<svg width="837pt" height="260pt"
 viewBox="0.00 0.00 836.66 260.00" xmlns="http://www.w3.org/2000/svg" xmlns:xlink="http://www.w3.org/1999/xlink">
<g id="graph0" class="graph" transform="scale(1 1) rotate(0) translate(4 256)">
<title>match</title>
<polygon fill="white" stroke="transparent" points="-4,4 -4,-256 832.66,-256 832.66,4 -4,4"/>
<!-- StatisticsGen -->
<g id="node1" class="node">
<title>StatisticsGen</title>
<ellipse fill="none" stroke="#606060" cx="154.99" cy="-180" rx="64.99" ry="18"/>
<text text-anchor="middle" x="154.99" y="-176.3" font-family="Panton bold" font-size="14.00" fill="#606060">StatisticsGen</text>
</g>
<!-- ExampleGen -->
<g id="node2" class="node">
<title>ExampleGen</title>
<ellipse fill="none" stroke="#606060" cx="154.99" cy="-126" rx="59.59" ry="18"/>
<text text-anchor="middle" x="154.99" y="-122.3" font-family="Panton bold" font-size="14.00" fill="#606060">ExampleGen</text>
</g>
<!-- StatisticsGen&#45;&gt;ExampleGen -->
<g id="edge2" class="edge">
<title>StatisticsGen&#45;&gt;ExampleGen</title>
<path fill="none" stroke="#606060" d="M154.99,-151.59C154.99,-149.1 154.99,-146.62 154.99,-144.14"/>
<polygon fill="#606060" stroke="#606060" points="151.49,-151.79 154.99,-161.79 158.49,-151.79 151.49,-151.79"/>
</g>
<!-- ExampleValidator -->
<g id="node3" class="node">
<title>ExampleValidator</title>
<ellipse fill="none" stroke="#606060" cx="335.28" cy="-234" rx="79.09" ry="18"/>
<text text-anchor="middle" x="335.28" y="-230.3" font-family="Panton bold" font-size="14.00" fill="#606060">ExampleValidator</text>
</g>
<!-- StatisticsGen&#45;&gt;ExampleValidator -->
<g id="edge3" class="edge">
<title>StatisticsGen&#45;&gt;ExampleValidator</title>
<path fill="none" stroke="#606060" d="M199.61,-193.21C223,-200.29 252.1,-209.11 277.27,-216.73"/>
<polygon fill="#606060" stroke="#606060" points="276.47,-220.15 287.05,-219.7 278.5,-213.45 276.47,-220.15"/>
</g>
<!-- SchemaGen -->
<g id="node4" class="node">
<title>SchemaGen</title>
<ellipse fill="none" stroke="#606060" cx="335.28" cy="-180" rx="59.29" ry="18"/>
<text text-anchor="middle" x="335.28" y="-176.3" font-family="Panton bold" font-size="14.00" fill="#606060">SchemaGen</text>
</g>
<!-- StatisticsGen&#45;&gt;SchemaGen -->
<g id="edge4" class="edge">
<title>StatisticsGen&#45;&gt;SchemaGen</title>
<path fill="none" stroke="#606060" d="M220.11,-180C234.95,-180 250.8,-180 265.82,-180"/>
<polygon fill="#606060" stroke="#606060" points="266.07,-183.5 276.07,-180 266.07,-176.5 266.07,-183.5"/>
</g>
<!-- Transform -->
<g id="node5" class="node">
<title>Transform</title>
<ellipse fill="none" stroke="#606060" cx="335.28" cy="-126" rx="51.19" ry="18"/>
<text text-anchor="middle" x="335.28" y="-122.3" font-family="Panton bold" font-size="14.00" fill="#606060">Transform</text>
</g>
<!-- ExampleGen&#45;&gt;Transform -->
<g id="edge6" class="edge">
<title>ExampleGen&#45;&gt;Transform</title>
<path fill="none" stroke="#606060" d="M214.87,-126C233.78,-126 254.76,-126 273.79,-126"/>
<polygon fill="#606060" stroke="#606060" points="273.84,-129.5 283.84,-126 273.84,-122.5 273.84,-129.5"/>
</g>
<!-- ExampleValidator&#45;&gt;SchemaGen -->
<g id="edge5" class="edge">
<title>ExampleValidator&#45;&gt;SchemaGen</title>
<path fill="none" stroke="#606060" d="M335.28,-205.59C335.28,-203.1 335.28,-200.62 335.28,-198.14"/>
<polygon fill="#606060" stroke="#606060" points="331.78,-205.79 335.28,-215.79 338.78,-205.79 331.78,-205.79"/>
</g>
<!-- SchemaGen&#45;&gt;Transform -->
<g id="edge7" class="edge">
<title>SchemaGen&#45;&gt;Transform</title>
<path fill="none" stroke="#606060" d="M335.28,-161.79C335.28,-159.31 335.28,-156.83 335.28,-154.34"/>
<polygon fill="#606060" stroke="#606060" points="338.78,-154.14 335.28,-144.14 331.78,-154.14 338.78,-154.14"/>
</g>
<!-- Trainer -->
<g id="node6" class="node">
<title>Trainer</title>
<ellipse fill="none" stroke="#606060" cx="488.92" cy="-126" rx="38.19" ry="18"/>
<text text-anchor="middle" x="488.92" y="-122.3" font-family="Panton bold" font-size="14.00" fill="#606060">Trainer</text>
</g>
<!-- Transform&#45;&gt;Trainer -->
<g id="edge8" class="edge">
<title>Transform&#45;&gt;Trainer</title>
<path fill="none" stroke="#606060" d="M386.78,-126C403.9,-126 422.97,-126 439.9,-126"/>
<polygon fill="#606060" stroke="#606060" points="440.12,-129.5 450.12,-126 440.12,-122.5 440.12,-129.5"/>
</g>
<!-- Evaluator -->
<g id="node7" class="node">
<title>Evaluator</title>
<ellipse fill="none" stroke="#606060" cx="633.46" cy="-126" rx="48.19" ry="18"/>
<text text-anchor="middle" x="633.46" y="-122.3" font-family="Panton bold" font-size="14.00" fill="#606060">Evaluator</text>
</g>
<!-- Trainer&#45;&gt;Evaluator -->
<g id="edge9" class="edge">
<title>Trainer&#45;&gt;Evaluator</title>
<path fill="none" stroke="#606060" d="M527.37,-126C541.92,-126 558.91,-126 574.94,-126"/>
<polygon fill="#606060" stroke="#606060" points="575.3,-129.5 585.3,-126 575.3,-122.5 575.3,-129.5"/>
</g>
<!-- ModelValidator -->
<g id="node8" class="node">
<title>ModelValidator</title>
<ellipse fill="none" stroke="#606060" cx="633.46" cy="-72" rx="70.39" ry="18"/>
<text text-anchor="middle" x="633.46" y="-68.3" font-family="Panton bold" font-size="14.00" fill="#606060">ModelValidator</text>
</g>
<!-- Evaluator&#45;&gt;ModelValidator -->
<g id="edge10" class="edge">
<title>Evaluator&#45;&gt;ModelValidator</title>
<path fill="none" stroke="#606060" d="M633.46,-107.79C633.46,-105.31 633.46,-102.83 633.46,-100.34"/>
<polygon fill="#606060" stroke="#606060" points="636.96,-100.14 633.46,-90.14 629.96,-100.14 636.96,-100.14"/>
</g>
<!-- Pusher -->
<g id="node9" class="node">
<title>Pusher</title>
<ellipse fill="none" stroke="#606060" cx="784.16" cy="-72" rx="38.99" ry="18"/>
<text text-anchor="middle" x="784.16" y="-68.3" font-family="Panton bold" font-size="14.00" fill="#606060">Pusher</text>
</g>
<!-- ModelValidator&#45;&gt;Pusher -->
<g id="edge11" class="edge">
<title>ModelValidator&#45;&gt;Pusher</title>
<path fill="none" stroke="#606060" d="M704.02,-72C714.34,-72 724.79,-72 734.56,-72"/>
<polygon fill="#606060" stroke="#606060" points="734.86,-75.5 744.86,-72 734.86,-68.5 734.86,-75.5"/>
</g>
<!-- server -->
<g id="node11" class="node">
<title>server</title>
<text text-anchor="middle" x="784.16" y="-14.2" font-family="Panton" font-size="16.00" fill="#606060">TF Serving</text>
</g>
<!-- Pusher&#45;&gt;server -->
<g id="edge12" class="edge">
<title>Pusher&#45;&gt;server</title>
<path fill="none" stroke="#606060" d="M784.16,-53.79C784.16,-51.31 784.16,-48.83 784.16,-46.34"/>
<polygon fill="#606060" stroke="#606060" points="787.66,-46.14 784.16,-36.14 780.66,-46.14 787.66,-46.14"/>
</g>
<!-- data -->
<g id="node10" class="node">
<title>data</title>
<text text-anchor="middle" x="27" y="-122.2" font-family="Panton" font-size="16.00" fill="#606060">Data</text>
</g>
<!-- data&#45;&gt;ExampleGen -->
<g id="edge1" class="edge">
<title>data&#45;&gt;ExampleGen</title>
<path fill="none" stroke="#606060" d="M54.11,-126C63.27,-126 74.03,-126 85.05,-126"/>
<polygon fill="#606060" stroke="#606060" points="85.19,-129.5 95.19,-126 85.19,-122.5 85.19,-129.5"/>
</g>
</g>
</svg>
