<?xml version="1.0" encoding="UTF-8" standalone="no"?>
<!DOCTYPE svg PUBLIC "-//W3C//DTD SVG 1.1//EN"
 "http://www.w3.org/Graphics/SVG/1.1/DTD/svg11.dtd">
<!-- Generated by graphviz version 2.42.1 (0)
 -->
<!-- Title: stack Pages: 1 -->
<svg width="646pt" height="70pt"
 viewBox="0.00 0.00 646.08 70.23" xmlns="http://www.w3.org/2000/svg" xmlns:xlink="http://www.w3.org/1999/xlink">
<g id="graph0" class="graph" transform="scale(1 1) rotate(0) translate(4 66.23)">
<title>stack</title>
<polygon fill="white" stroke="transparent" points="-4,4 -4,-66.23 642.08,-66.23 642.08,4 -4,4"/>
<!-- x -->
<g id="node1" class="node">
<title>x</title>
<text text-anchor="middle" x="27" y="-27.31" font-family="Panton" font-size="16.00" fill="#606060">x</text>
</g>
<!-- cnn1 -->
<g id="node3" class="node">
<title>cnn1</title>
<ellipse fill="none" stroke="#606060" cx="165.66" cy="-31.11" rx="75.82" ry="31.23"/>
<text text-anchor="middle" x="165.66" y="-36.31" font-family="Panton" font-size="16.00" fill="#606060">convolutional</text>
<text text-anchor="middle" x="165.66" y="-18.31" font-family="Panton" font-size="16.00" fill="#606060">layer</text>
</g>
<!-- x&#45;&gt;cnn1 -->
<g id="edge1" class="edge">
<title>x&#45;&gt;cnn1</title>
<path fill="none" stroke="#606060" d="M54.03,-31.11C61.65,-31.11 70.43,-31.11 79.63,-31.11"/>
<polygon fill="#606060" stroke="#606060" points="79.76,-34.61 89.76,-31.11 79.76,-27.61 79.76,-34.61"/>
</g>
<!-- y -->
<g id="node2" class="node">
<title>y</title>
<text text-anchor="middle" x="611.08" y="-27.31" font-family="Panton" font-size="16.00" fill="#606060">y</text>
</g>
<!-- cnn2 -->
<g id="node4" class="node">
<title>cnn2</title>
<ellipse fill="none" stroke="#606060" cx="352.98" cy="-31.11" rx="75.82" ry="31.23"/>
<text text-anchor="middle" x="352.98" y="-36.31" font-family="Panton" font-size="16.00" fill="#606060">convolutional</text>
<text text-anchor="middle" x="352.98" y="-18.31" font-family="Panton" font-size="16.00" fill="#606060">layer</text>
</g>
<!-- cnn1&#45;&gt;cnn2 -->
<g id="edge2" class="edge">
<title>cnn1&#45;&gt;cnn2</title>
<path fill="none" stroke="#606060" d="M241.5,-31.11C249.86,-31.11 258.42,-31.11 266.89,-31.11"/>
<polygon fill="#606060" stroke="#606060" points="267.16,-34.61 277.16,-31.11 267.16,-27.61 267.16,-34.61"/>
</g>
<!-- dense -->
<g id="node5" class="node">
<title>dense</title>
<ellipse fill="none" stroke="#606060" cx="506.36" cy="-31.11" rx="41.94" ry="31.23"/>
<text text-anchor="middle" x="506.36" y="-36.31" font-family="Panton" font-size="16.00" fill="#606060">dense</text>
<text text-anchor="middle" x="506.36" y="-18.31" font-family="Panton" font-size="16.00" fill="#606060">layer</text>
</g>
<!-- cnn2&#45;&gt;dense -->
<g id="edge3" class="edge">
<title>cnn2&#45;&gt;dense</title>
<path fill="none" stroke="#606060" d="M428.78,-31.11C437.37,-31.11 445.98,-31.11 454.16,-31.11"/>
<polygon fill="#606060" stroke="#606060" points="454.25,-34.61 464.25,-31.11 454.25,-27.61 454.25,-34.61"/>
</g>
<!-- dense&#45;&gt;y -->
<g id="edge4" class="edge">
<title>dense&#45;&gt;y</title>
<path fill="none" stroke="#606060" d="M548.25,-31.11C556.67,-31.11 565.48,-31.11 573.73,-31.11"/>
<polygon fill="#606060" stroke="#606060" points="573.8,-34.61 583.8,-31.11 573.8,-27.61 573.8,-34.61"/>
</g>
</g>
</svg>
