<?xml version="1.0" encoding="UTF-8" standalone="no"?>
<!DOCTYPE svg PUBLIC "-//W3C//DTD SVG 1.1//EN"
 "http://www.w3.org/Graphics/SVG/1.1/DTD/svg11.dtd">
<!-- Generated by graphviz version 2.42.1 (0)
 -->
<!-- Title: match Pages: 1 -->
<svg width="1271pt" height="156pt"
 viewBox="0.00 0.00 1270.84 156.00" xmlns="http://www.w3.org/2000/svg" xmlns:xlink="http://www.w3.org/1999/xlink">
<g id="graph0" class="graph" transform="scale(1 1) rotate(0) translate(4 152)">
<title>match</title>
<polygon fill="white" stroke="transparent" points="-4,4 -4,-152 1266.84,-152 1266.84,4 -4,4"/>
<!-- StatisticsGen -->
<g id="node1" class="node">
<title>StatisticsGen</title>
<ellipse fill="none" stroke="#00aed2" cx="242.99" cy="-76" rx="64.99" ry="18"/>
<text text-anchor="middle" x="242.99" y="-72.3" font-family="Panton bold" font-size="14.00" fill="#00aed2">StatisticsGen</text>
</g>
<!-- ExampleGen -->
<g id="node2" class="node">
<title>ExampleGen</title>
<ellipse fill="none" stroke="#00aed2" cx="242.99" cy="-22" rx="59.59" ry="18"/>
<text text-anchor="middle" x="242.99" y="-18.3" font-family="Panton bold" font-size="14.00" fill="#00aed2">ExampleGen</text>
</g>
<!-- StatisticsGen&#45;&gt;ExampleGen -->
<g id="edge2" class="edge">
<title>StatisticsGen&#45;&gt;ExampleGen</title>
<path fill="none" stroke="#606060" d="M242.99,-47.59C242.99,-45.1 242.99,-42.62 242.99,-40.14"/>
<polygon fill="#606060" stroke="#606060" points="239.49,-47.79 242.99,-57.79 246.49,-47.79 239.49,-47.79"/>
</g>
<!-- ExampleValidator -->
<g id="node3" class="node">
<title>ExampleValidator</title>
<ellipse fill="none" stroke="#00aed2" cx="423.28" cy="-130" rx="79.09" ry="18"/>
<text text-anchor="middle" x="423.28" y="-126.3" font-family="Panton bold" font-size="14.00" fill="#00aed2">ExampleValidator</text>
</g>
<!-- StatisticsGen&#45;&gt;ExampleValidator -->
<g id="edge3" class="edge">
<title>StatisticsGen&#45;&gt;ExampleValidator</title>
<path fill="none" stroke="#606060" d="M287.61,-89.21C311,-96.29 340.1,-105.11 365.27,-112.73"/>
<polygon fill="#606060" stroke="#606060" points="364.47,-116.15 375.05,-115.7 366.5,-109.45 364.47,-116.15"/>
</g>
<!-- SchemaGen -->
<g id="node4" class="node">
<title>SchemaGen</title>
<ellipse fill="none" stroke="#00aed2" cx="423.28" cy="-76" rx="59.29" ry="18"/>
<text text-anchor="middle" x="423.28" y="-72.3" font-family="Panton bold" font-size="14.00" fill="#00aed2">SchemaGen</text>
</g>
<!-- StatisticsGen&#45;&gt;SchemaGen -->
<g id="edge4" class="edge">
<title>StatisticsGen&#45;&gt;SchemaGen</title>
<path fill="none" stroke="#606060" d="M308.11,-76C322.95,-76 338.8,-76 353.82,-76"/>
<polygon fill="#606060" stroke="#606060" points="354.07,-79.5 364.07,-76 354.07,-72.5 354.07,-79.5"/>
</g>
<!-- Transform -->
<g id="node5" class="node">
<title>Transform</title>
<ellipse fill="none" stroke="#00aed2" cx="423.28" cy="-22" rx="51.19" ry="18"/>
<text text-anchor="middle" x="423.28" y="-18.3" font-family="Panton bold" font-size="14.00" fill="#00aed2">Transform</text>
</g>
<!-- ExampleGen&#45;&gt;Transform -->
<g id="edge6" class="edge">
<title>ExampleGen&#45;&gt;Transform</title>
<path fill="none" stroke="#606060" d="M302.87,-22C321.78,-22 342.76,-22 361.79,-22"/>
<polygon fill="#606060" stroke="#606060" points="361.84,-25.5 371.84,-22 361.84,-18.5 361.84,-25.5"/>
</g>
<!-- ExampleValidator&#45;&gt;SchemaGen -->
<g id="edge5" class="edge">
<title>ExampleValidator&#45;&gt;SchemaGen</title>
<path fill="none" stroke="#606060" d="M423.28,-101.59C423.28,-99.1 423.28,-96.62 423.28,-94.14"/>
<polygon fill="#606060" stroke="#606060" points="419.78,-101.79 423.28,-111.79 426.78,-101.79 419.78,-101.79"/>
</g>
<!-- SchemaGen&#45;&gt;Transform -->
<g id="edge7" class="edge">
<title>SchemaGen&#45;&gt;Transform</title>
<path fill="none" stroke="#606060" d="M423.28,-57.79C423.28,-55.31 423.28,-52.83 423.28,-50.34"/>
<polygon fill="#606060" stroke="#606060" points="426.78,-50.14 423.28,-40.14 419.78,-50.14 426.78,-50.14"/>
</g>
<!-- Trainer -->
<g id="node6" class="node">
<title>Trainer</title>
<ellipse fill="none" stroke="#00aed2" cx="576.92" cy="-22" rx="38.19" ry="18"/>
<text text-anchor="middle" x="576.92" y="-18.3" font-family="Panton bold" font-size="14.00" fill="#00aed2">Trainer</text>
</g>
<!-- Transform&#45;&gt;Trainer -->
<g id="edge8" class="edge">
<title>Transform&#45;&gt;Trainer</title>
<path fill="none" stroke="#606060" d="M474.78,-22C491.9,-22 510.97,-22 527.9,-22"/>
<polygon fill="#606060" stroke="#606060" points="528.12,-25.5 538.12,-22 528.12,-18.5 528.12,-25.5"/>
</g>
<!-- Evaluator -->
<g id="node7" class="node">
<title>Evaluator</title>
<ellipse fill="none" stroke="#00aed2" cx="699.36" cy="-22" rx="48.19" ry="18"/>
<text text-anchor="middle" x="699.36" y="-18.3" font-family="Panton bold" font-size="14.00" fill="#00aed2">Evaluator</text>
</g>
<!-- Trainer&#45;&gt;Evaluator -->
<g id="edge9" class="edge">
<title>Trainer&#45;&gt;Evaluator</title>
<path fill="none" stroke="#606060" d="M615.37,-22C623.51,-22 632.3,-22 641.01,-22"/>
<polygon fill="#606060" stroke="#606060" points="641.16,-25.5 651.16,-22 641.16,-18.5 641.16,-25.5"/>
</g>
<!-- ModelValidator -->
<g id="node8" class="node">
<title>ModelValidator</title>
<ellipse fill="none" stroke="#00aed2" cx="853.65" cy="-22" rx="70.39" ry="18"/>
<text text-anchor="middle" x="853.65" y="-18.3" font-family="Panton bold" font-size="14.00" fill="#00aed2">ModelValidator</text>
</g>
<!-- Evaluator&#45;&gt;ModelValidator -->
<g id="edge10" class="edge">
<title>Evaluator&#45;&gt;ModelValidator</title>
<path fill="none" stroke="#606060" d="M747.71,-22C755.81,-22 764.41,-22 773.08,-22"/>
<polygon fill="#606060" stroke="#606060" points="773.25,-25.5 783.25,-22 773.25,-18.5 773.25,-25.5"/>
</g>
<!-- Pusher -->
<g id="node9" class="node">
<title>Pusher</title>
<ellipse fill="none" stroke="#00aed2" cx="998.84" cy="-22" rx="38.99" ry="18"/>
<text text-anchor="middle" x="998.84" y="-18.3" font-family="Panton bold" font-size="14.00" fill="#00aed2">Pusher</text>
</g>
<!-- ModelValidator&#45;&gt;Pusher -->
<g id="edge11" class="edge">
<title>ModelValidator&#45;&gt;Pusher</title>
<path fill="none" stroke="#606060" d="M924.15,-22C932.77,-22 941.43,-22 949.62,-22"/>
<polygon fill="#606060" stroke="#606060" points="949.73,-25.5 959.73,-22 949.73,-18.5 949.73,-25.5"/>
</g>
<!-- server -->
<g id="node11" class="node">
<title>server</title>
<text text-anchor="middle" x="1168.34" y="-18.2" font-family="Panton" font-size="16.00" fill="#606060">TF Serving/TF Lite/TF JS</text>
</g>
<!-- Pusher&#45;&gt;server -->
<g id="edge12" class="edge">
<title>Pusher&#45;&gt;server</title>
<path fill="none" stroke="#606060" d="M1037.85,-22C1045.71,-22 1054.33,-22 1063.29,-22"/>
<polygon fill="#606060" stroke="#606060" points="1063.52,-25.5 1073.52,-22 1063.52,-18.5 1063.52,-25.5"/>
</g>
<!-- data -->
<g id="node10" class="node">
<title>data</title>
<text text-anchor="middle" x="71" y="-27.2" font-family="Panton" font-size="16.00" fill="#606060">Training/Validation</text>
<text text-anchor="middle" x="71" y="-9.2" font-family="Panton" font-size="16.00" fill="#606060">Data</text>
</g>
<!-- data&#45;&gt;ExampleGen -->
<g id="edge1" class="edge">
<title>data&#45;&gt;ExampleGen</title>
<path fill="none" stroke="#606060" d="M142.12,-22C152.35,-22 162.86,-22 173.06,-22"/>
<polygon fill="#606060" stroke="#606060" points="173.13,-25.5 183.13,-22 173.13,-18.5 173.13,-25.5"/>
</g>
</g>
</svg>
