<?xml version="1.0" encoding="UTF-8" standalone="no"?>
<!DOCTYPE svg PUBLIC "-//W3C//DTD SVG 1.1//EN"
 "http://www.w3.org/Graphics/SVG/1.1/DTD/svg11.dtd">
<!-- Generated by graphviz version 2.42.1 (0)
 -->
<!-- Title: loss Pages: 1 -->
<svg width="741pt" height="324pt"
 viewBox="0.00 0.00 741.28 323.50" xmlns="http://www.w3.org/2000/svg" xmlns:xlink="http://www.w3.org/1999/xlink">
<g id="graph0" class="graph" transform="scale(1 1) rotate(0) translate(4 319.5)">
<title>loss</title>
<polygon fill="white" stroke="transparent" points="-4,4 -4,-319.5 737.28,-319.5 737.28,4 -4,4"/>
<!-- digit1 -->
<g id="node1" class="node">
<title>digit1</title>
<image xlink:href="digit_0.svg" width="347px" height="261px" preserveAspectRatio="xMinYMin meet" x="2.84217e-14" y="-315.5"/>
</g>
<!-- model1 -->
<g id="node2" class="node">
<title>model1</title>
<ellipse fill="none" stroke="#536366" cx="468.14" cy="-156" rx="85.29" ry="18"/>
<text text-anchor="middle" x="468.14" y="-152.3" font-family="Times,serif" font-size="14.00" fill="#536366">our fancy model</text>
</g>
<!-- digit1&#45;&gt;model1 -->
<g id="edge1" class="edge">
<title>digit1&#45;&gt;model1</title>
<path fill="none" stroke="#536366" d="M347.27,-167.88C358.71,-166.75 369.93,-165.63 380.63,-164.57"/>
<polygon fill="#536366" stroke="#536366" points="381.12,-168.04 390.72,-163.57 380.43,-161.08 381.12,-168.04"/>
</g>
<!-- merge -->
<g id="node5" class="node">
<title>merge</title>
<ellipse fill="none" stroke="#536366" cx="616.28" cy="-101" rx="27" ry="18"/>
<text text-anchor="middle" x="616.28" y="-97.3" font-family="Times,serif" font-size="14.00" fill="#536366">?</text>
</g>
<!-- model1&#45;&gt;merge -->
<g id="edge2" class="edge">
<title>model1&#45;&gt;merge</title>
<path fill="none" stroke="#536366" d="M510.63,-140.39C533.5,-131.78 561.49,-121.24 582.77,-113.24"/>
<polygon fill="#536366" stroke="#536366" points="584.2,-116.44 592.32,-109.64 581.73,-109.89 584.2,-116.44"/>
</g>
<!-- digit2 -->
<g id="node3" class="node">
<title>digit2</title>
</g>
<!-- model2 -->
<g id="node4" class="node">
<title>model2</title>
<ellipse fill="none" stroke="#536366" cx="468.14" cy="-74" rx="85.29" ry="18"/>
<text text-anchor="middle" x="468.14" y="-70.3" font-family="Times,serif" font-size="14.00" fill="#536366">our fancy model</text>
</g>
<!-- digit2&#45;&gt;model2 -->
<g id="edge4" class="edge">
<title>digit2&#45;&gt;model2</title>
<path fill="none" stroke="#536366" d="M200.63,-21.41C234.52,-25.99 295.42,-34.75 347,-45 365.47,-48.67 385.39,-53.23 403.6,-57.64"/>
<polygon fill="#536366" stroke="#536366" points="402.98,-61.09 413.52,-60.07 404.64,-54.29 402.98,-61.09"/>
</g>
<!-- model2&#45;&gt;merge -->
<g id="edge5" class="edge">
<title>model2&#45;&gt;merge</title>
<path fill="none" stroke="#536366" d="M532.82,-85.76C548.88,-88.73 565.55,-91.81 579.67,-94.42"/>
<polygon fill="#536366" stroke="#536366" points="579.45,-97.94 589.91,-96.31 580.72,-91.05 579.45,-97.94"/>
</g>
<!-- predictions -->
<g id="node6" class="node">
<title>predictions</title>
</g>
<!-- merge&#45;&gt;predictions -->
<g id="edge3" class="edge">
<title>merge&#45;&gt;predictions</title>
<path fill="none" stroke="#536366" d="M643.69,-101C651.68,-101 660.6,-101 669.11,-101"/>
<polygon fill="#536366" stroke="#536366" points="669.2,-104.5 679.2,-101 669.2,-97.5 669.2,-104.5"/>
</g>
</g>
</svg>
