<?xml version="1.0" encoding="UTF-8" standalone="no"?><svg xmlns="http://www.w3.org/2000/svg" xmlns:xlink="http://www.w3.org/1999/xlink" contentScriptType="application/ecmascript" contentStyleType="text/css" height="493px" preserveAspectRatio="none" style="width:631px;height:493px;" version="1.1" viewBox="0 0 631 493" width="631px" zoomAndPan="magnify"><defs><filter height="300%" id="f1a5tp7ko4ww82" width="300%" x="-1" y="-1"><feGaussianBlur result="blurOut" stdDeviation="2.0"/><feColorMatrix in="blurOut" result="blurOut2" type="matrix" values="0 0 0 0 0 0 0 0 0 0 0 0 0 0 0 0 0 0 .4 0"/><feOffset dx="4.0" dy="4.0" in="blurOut2" result="blurOut3"/><feBlend in="SourceGraphic" in2="blurOut3" mode="normal"/></filter></defs><g><polygon fill="#F8F8F8" filter="url(#f1a5tp7ko4ww82)" points="22.5,207.7998,22.5,208.01,32.0714,207.3855,41.6429,207.9931,51.2143,208.1995,60.7857,207.0864,70.3571,207.7221,79.9286,207.3733,89.5,207.7998,89.4511,207.6817,91.2591,208.5111,92.9473,209.0514,94.8739,210.167,96.4907,210.5347,98.3388,211.461,98.2779,211.4358,99.2041,213.2839,99.7769,214.9856,100.5565,216.773,101.2579,218.528,102,220.2998,102.1785,220.2998,102.2391,230.6665,102.5857,241.0331,102.6711,251.3997,102.6793,261.7663,102.2546,272.1329,102,282.4995,102.1428,282.5587,101.484,284.3569,100.3134,285.9431,100.0123,287.8894,98.9798,289.5328,98.3388,291.3384,98.4069,291.5028,96.5079,291.9182,94.7946,292.7817,93.1301,293.7635,91.2616,294.2523,89.5,294.9995,89.5,295.1048,79.9286,295.3382,70.3571,295.4158,60.7857,294.9956,51.2143,295.2868,41.6429,294.4271,32.0714,295.2839,22.5,294.9995,22.5699,295.1684,20.7889,294.4042,19.0427,293.7239,17.1351,292.6541,15.3457,291.8698,13.6612,291.3384,13.4698,291.2591,12.9108,289.5631,12.1362,287.7778,11.6743,286.122,10.6784,284.245,10,282.4995,9.6569,282.4995,10.2283,272.1329,9.3332,261.7663,9.4809,251.3997,10.649,241.0331,10.4357,230.6665,10,220.2998,10.2262,220.3935,10.6331,218.491,11.5628,216.805,12.3785,215.0718,12.7835,213.1685,13.6612,211.461,13.6489,211.4315,15.445,210.7676,17.2798,210.1973,18.9639,209.263,20.7912,208.6745,22.5,207.7998" style="stroke: #383838; stroke-width: 1.5;"/><text fill="#000000" font-family="Panton" font-size="14" lengthAdjust="spacingAndGlyphs" textLength="72" x="20" y="230.9598">TensorFlow</text><text fill="#000000" font-family="Panton" font-size="14" lengthAdjust="spacingAndGlyphs" textLength="68" x="23" y="247.7597">Distributed</text><text fill="#000000" font-family="Panton" font-size="14" lengthAdjust="spacingAndGlyphs" textLength="61" x="23" y="264.5596">Execution</text><text fill="#000000" font-family="Panton" font-size="14" lengthAdjust="spacingAndGlyphs" textLength="42" x="23" y="281.3596">Engine</text><polygon fill="#F8F8F8" filter="url(#f1a5tp7ko4ww82)" points="164.5,218.7997,164.5,219.0099,173.7857,218.3854,183.0714,218.993,192.3571,219.1994,201.6429,218.0863,210.9286,218.722,220.2143,218.3732,229.5,218.7997,229.4511,218.6816,231.2591,219.511,232.9473,220.0513,234.8739,221.1669,236.4907,221.5346,238.3388,222.4609,238.2779,222.4357,239.2041,224.2838,239.7769,225.9855,240.5565,227.7729,241.2579,229.5279,242,231.2997,242.0595,231.2997,242.0797,233.6597,242.1952,236.0197,242.2237,238.3797,242.2264,240.7397,242,243.0997,242.0784,243.1322,241.4105,244.9266,240.7518,246.7248,239.5812,248.311,239.28,250.2573,238.3388,251.9385,238.301,251.8472,236.6392,252.8351,234.7402,253.2505,233.0268,254.1141,231.3624,255.0958,229.5,255.5997,229.5,255.5509,220.2143,255.705,210.9286,255.9383,201.6429,256.0159,192.3571,255.5958,183.0714,255.8869,173.7857,255.0273,164.5,255.5997,164.5363,255.6873,162.8022,255.0363,161.0212,254.2721,159.2749,253.5918,157.3673,252.522,155.6612,251.9385,155.4603,251.8553,154.7376,250.0915,154.1786,248.3955,153.4039,246.6101,152.9421,244.9544,152,243.0997,151.9418,243.0997,151.8856,240.7397,152.0761,238.3797,151.7777,236.0197,151.827,233.6597,152,231.2997,152.1999,231.3825,152.8664,229.5876,153.6907,227.8579,154.0976,225.9554,155.0272,224.2694,155.6612,222.4609,155.7365,222.6427,157.3687,221.5832,159.1845,220.9669,160.9805,220.303,162.8154,219.7327,164.5,218.7997" style="stroke: #383838; stroke-width: 1.5;"/><text fill="#000000" font-family="Panton" font-size="14" lengthAdjust="spacingAndGlyphs" textLength="70" x="162" y="241.9597">Python API</text><polygon fill="#F8F8F8" filter="url(#f1a5tp7ko4ww82)" points="304.5,20,304.5,20.2102,314.8636,19.5857,325.2273,20.1933,335.5909,20.3997,345.9545,19.2866,356.3182,19.9223,366.6818,19.5735,377.0455,19.6165,387.4091,19.9318,397.7727,19.3086,408.1364,20.5536,418.5,20,418.4196,19.8059,420.2425,20.6713,422.0906,21.5975,423.7924,22.1703,425.5798,22.9499,427.3388,23.6612,427.329,23.6571,428.126,25.4517,428.8769,27.2272,429.7159,29.0392,430.4744,30.8178,431,32.5,431.2264,32.5,431.0849,34.86,431.1545,37.22,431.2341,39.58,430.7596,41.9399,431,44.2999,431.209,44.3865,430.1765,46.0299,429.6999,47.9036,428.6509,49.5401,428.05,51.3623,427.3388,53.1388,427.4334,53.3671,425.5649,53.856,423.8167,54.6357,422.0787,55.4397,420.3209,56.1959,418.5,56.7999,418.5,56.796,408.1364,57.0871,397.7727,56.2275,387.4091,57.0843,377.0455,57.3481,366.6818,57.2445,356.3182,57.413,345.9545,56.3168,335.5909,56.1477,325.2273,56.1785,314.8636,56.741,304.5,56.7999,304.4749,56.7394,302.8192,56.2775,300.9422,55.2817,299.1529,54.4976,297.4581,53.9413,295.6612,53.1388,295.4558,53.0537,294.7691,51.3048,294.3965,49.686,293.5986,47.891,292.9584,46.1614,292,44.2999,291.8927,44.2999,292.1064,41.9399,292.1968,39.58,291.8425,37.22,291.968,34.86,292,32.5,292.0388,32.5161,292.9329,30.8154,293.4632,28.9639,294.3392,27.2557,294.7584,25.3583,295.6612,23.6612,295.5748,23.4526,297.4932,23.084,299.1052,21.9759,301.0294,21.6212,302.7586,20.7959,304.5,20" style="stroke: #383838; stroke-width: 1.5;"/><text fill="#000000" font-family="Panton" font-size="14" font-weight="bold" lengthAdjust="spacingAndGlyphs" textLength="47" x="302" y="43.1599">tensors</text><text fill="#000000" font-family="Panton" font-size="14" lengthAdjust="spacingAndGlyphs" textLength="8" x="352" y="43.1599">+</text><text fill="#000000" font-family="Panton" font-size="14" font-weight="bold" lengthAdjust="spacingAndGlyphs" textLength="58" x="363" y="43.1599">gradients</text><path d="M242,237.1997 L242,237.3865 L244,236.8314 L246,237.3715 L248,237.555 L250,236.5656 L252,237.1997 L252,237.1997 L251.9702,237.1823 L252.8323,235.3958 L253.8449,233.697 L254.9621,232.0591 L255.7189,230.2112 L256.9805,228.6575 L257.2212,228.7084 L257.121,226.6388 L257.7236,224.7177 L258.4119,222.8148 L258.6014,220.8064 L259.0532,218.8534 L259.0832,218.8578 L259.4098,216.3082 L259.8729,213.7784 L260.2702,211.2391 L260.7932,208.718 L260.9063,206.1372 L261.2027,206.1703 L261.5417,203.1615 L261.6896,200.1314 L262.1174,197.1325 L262.5582,194.1351 L262.5835,191.0914 L262.2643,191.062 L263.1929,187.7604 L263.0704,184.362 L263.747,181.0372 L263.6007,177.6367 L264.1289,174.2982 L264.0986,174.2958 L265.0317,167.0244 L265.2558,159.6972 L265.8982,152.4029 L266.5758,145.1113 L267,137.7998 L267.1844,137.8143 L267.5725,130.5 L268.2757,123.2105 L268.469,115.8808 L269.4229,108.611 L269.8711,101.3014 L270.1137,101.3238 L270.3769,97.9609 L270.7606,94.6092 L270.5845,91.2059 L270.8188,87.8404 L271.4165,84.5083 L271.142,84.4777 L271.7259,81.4962 L272.0006,78.4803 L272.7238,75.5143 L272.6811,72.463 L273.0938,69.4624 L272.9429,69.4404 L273.5647,66.9338 L273.5417,64.3332 L273.9773,61.7994 L274.8616,59.3311 L274.9468,56.7462 L275.1362,56.7863 L275.6807,54.8529 L275.636,52.795 L276.3292,50.8931 L276.8617,48.9572 L277.0195,46.9421 L276.8382,46.8364 L277.9788,45.2122 L279.0601,43.5535 L280.2581,41.9627 L281.0023,40.1075 L282,38.4 L282,38.8111 L284,37.9077 L286,37.798 L288,38.8476 L290,37.7627 L292,38.4 " fill="none" style="stroke: #383838; stroke-width: 1.0;"/><polygon fill="#F8F8F8" filter="url(#f1a5tp7ko4ww82)" points="304.5,76.7999,304.5,77.0101,314.8333,76.3856,325.1667,76.9932,335.5,77.1996,345.8333,76.0865,356.1667,76.7222,366.5,76.3734,376.8333,76.4164,387.1667,76.7318,397.5,76.7999,397.4118,76.587,399.3384,77.7027,400.9551,78.0703,402.7781,78.9357,404.6262,79.8619,406.3388,80.4611,406.3124,80.4502,407.0921,82.2376,407.7935,83.9926,408.5905,85.7872,409.3414,87.5627,410,89.2999,410.1952,89.2999,410.2237,91.6599,410.2264,94.0199,410.0849,96.3799,410.1545,98.7399,410,101.0999,410.2163,101.1894,409.0457,102.7756,408.7445,104.7219,407.712,106.3653,407.2355,108.239,406.3388,109.9387,406.2757,109.7862,404.5623,110.6498,402.8979,111.6315,401.0293,112.1204,399.2812,112.9,397.5,113.5999,397.5,113.9385,387.1667,114.0161,376.8333,113.5959,366.5,113.8871,356.1667,113.0274,345.8333,113.8842,335.5,114.148,325.1667,114.0444,314.8333,114.2129,304.5,113.5999,304.4384,113.4511,302.649,112.6668,300.8852,111.944,299.1892,111.385,297.4039,110.6104,295.6612,109.9387,295.871,110.0256,294.8751,108.1486,294.0911,106.3594,293.5348,104.6645,292.5269,102.7826,292,101.0999,291.827,101.0999,292.2163,98.7399,292.1452,96.3799,292.2448,94.0199,291.8927,91.6599,292,89.2999,292.0983,89.3406,292.9141,87.6075,293.319,85.7041,294.1672,83.9844,294.9677,82.2449,295.6612,80.4611,295.7443,80.6618,297.4284,79.7276,299.2557,79.1391,300.8938,78.0938,302.6458,77.3236,304.5,76.7999" style="stroke: #383838; stroke-width: 1.5;"/><text fill="#000000" font-family="Panton" font-size="14" lengthAdjust="spacingAndGlyphs" textLength="98" x="302" y="99.9599">extended maths</text><path d="M242,237.1997 L242,237.3865 L244,236.8314 L246,237.3715 L248,237.555 L250,236.5656 L252,237.1997 L252,237.1997 L251.9732,237.1779 L252.8492,235.8595 L253.8601,234.6513 L254.9648,233.5196 L255.7463,232.1242 L256.9805,231.0982 L257.2195,231.1565 L257.4935,227.8146 L258.4654,224.6429 L259.5224,221.4921 L260.0841,218.2204 L260.9063,215.0122 L260.9362,215.0169 L261.2277,212.8606 L261.6555,210.7256 L262.0176,208.5804 L262.5052,206.4547 L262.5835,204.2652 L262.8793,204.3033 L263.192,201.9047 L263.3139,199.4816 L263.7151,197.0944 L264.1294,194.709 L264.1289,192.2701 L263.8103,192.235 L265.0029,187.089 L265.1464,181.8275 L266.0874,176.6539 L266.2071,171.3898 L267,166.1998 L266.9697,166.1965 L267.9018,161.0218 L268.1269,155.7693 L268.7692,150.5628 L269.4465,145.3601 L269.8711,140.1295 L270.0546,140.1532 L270.1785,137.7303 L270.6159,135.3478 L270.546,132.9 L271.2328,130.5496 L271.4165,128.1344 L271.6572,128.172 L271.9472,126.0155 L272.3566,123.8776 L272.2107,121.6531 L272.4719,119.4921 L273.0938,117.3874 L272.8254,117.3219 L273.8535,114.164 L274.5792,110.9323 L275.7434,107.8076 L276.159,104.5002 L277.0195,101.3014 L276.9014,101.205 L278.0942,100.1453 L278.7821,98.6734 L279.8291,97.4946 L281.2273,96.6026 L282,95.1999 L282,95.5872 L284,95.8528 L286,94.9139 L288,95.4836 L290,95.7247 L292,95.1999 " fill="none" style="stroke: #383838; stroke-width: 1.0;"/><polygon fill="#F8F8F8" filter="url(#f1a5tp7ko4ww82)" points="304.5,133.5999,304.5,133.81,314.5,133.1855,324.5,133.7931,334.5,133.9995,344.5,132.8865,354.5,133.5221,364.5,133.1734,374.5,133.2164,384.5,133.5317,394.5,132.9085,404.5,134.1535,414.5,132.9696,424.5,133.4021,434.5,133.5999,434.5551,133.7329,436.2568,134.3057,438.0442,135.0853,439.7992,135.7867,441.5938,136.5838,443.3388,137.261,443.4125,137.2915,444.2514,139.1035,445.01,140.8822,445.7447,142.651,446.3462,144.3646,447,146.0999,447.1545,146.0999,447.2341,148.4598,446.7596,150.8198,447.2262,153.1798,446.9012,155.5398,447,157.8998,447.1644,157.9679,446.1153,159.6044,445.5144,161.4266,445.0317,163.2977,444.0561,164.9646,443.3388,166.7386,443.3523,166.771,441.6143,167.5751,439.8564,168.3313,438.035,168.9341,436.3044,169.756,434.5,170.3998,434.5,169.8274,424.5,170.6842,414.5,170.948,404.5,170.8443,394.5,171.0128,384.5,169.9167,374.5,169.7476,364.5,169.7784,354.5,170.3409,344.5,170.2033,334.5,171.0812,324.5,170.2251,314.5,170.0567,304.5,170.3998,304.5291,170.4701,302.6472,169.4622,300.8982,168.7754,299.2795,168.4029,297.4845,167.605,295.6612,166.7386,295.8874,166.8323,294.8298,164.9298,294.295,163.2438,293.6463,161.5106,292.5868,159.6073,292,157.8998,291.968,157.8998,292.042,155.5398,292.2173,153.1798,291.9986,150.8198,292.1542,148.4598,292,146.0999,291.8295,146.0292,292.5237,144.2457,293.6196,142.6286,293.9759,140.7051,295.0857,139.0937,295.6612,137.261,295.6875,137.3247,297.3948,136.4463,299.1516,135.6876,301.023,135.2056,302.694,134.2399,304.5,133.5999" style="stroke: #383838; stroke-width: 1.5;"/><text fill="#000000" font-family="Panton" font-size="14" font-weight="bold" lengthAdjust="spacingAndGlyphs" textLength="18" x="302" y="156.7598">I/O</text><text fill="#000000" font-family="Panton" font-size="14" lengthAdjust="spacingAndGlyphs" textLength="23" x="323" y="156.7598">and</text><text fill="#000000" font-family="Panton" font-size="14" font-weight="bold" lengthAdjust="spacingAndGlyphs" textLength="88" x="349" y="156.7598">preprocessing</text><text fill="#000000" font-family="Panton" font-size="14" font-weight="bold" lengthAdjust="spacingAndGlyphs" textLength="40" x="500" y="128.5599">tf.data</text><path d="M447,151.9998 L447,152.1866 L449,151.6315 L451,152.1716 L453,152.3551 L455,151.3657 L457,151.9998 L457,151.9998 L456.9847,151.9689 L458.6972,150.9487 L460.4869,150.0846 L462.3303,149.3289 L463.9887,148.1994 L465.9063,147.5936 L466.1146,147.7245 L466.8878,145.5058 L468.2693,143.6693 L469.725,141.8795 L470.749,139.8183 L472,137.8999 L472.0257,137.916 L473.2067,135.9536 L474.5047,134.0646 L475.7462,132.1402 L477.0954,130.2834 L478.0938,128.2062 L478.226,128.4735 L480.0089,127.5955 L481.7064,126.5451 L483.5289,125.7471 L485.3571,124.9609 L487,123.7999 L487,123.1589 L489,124.403 L491,123.5364 L493,124.2744 L495,123.3599 L497,123.7999 " fill="none" style="stroke: #383838; stroke-width: 1.0;"/><text fill="#000000" font-family="Panton" font-size="14" lengthAdjust="spacingAndGlyphs" textLength="49" x="500" y="147.3598">tf.image</text><path d="M447,151.9998 L447,152.1866 L449,151.6315 L451,152.1716 L453,152.3551 L455,151.3657 L457,151.9998 L457,151.9998 L456.9897,151.9669 L459.9433,150.8789 L462.949,149.9572 L465.9909,149.1509 L468.9081,147.9466 L472,147.2998 L472.0736,147.5346 L474.9162,146.0925 L477.9737,145.336 L481.0574,144.663 L483.9886,143.5035 L487,142.5999 L487,142.6605 L489,142.5715 L491,142.7585 L493,142.8124 L495,143.1205 L497,142.5999 " fill="none" style="stroke: #383838; stroke-width: 1.0;"/><text fill="#000000" font-family="Panton" font-size="14" lengthAdjust="spacingAndGlyphs" textLength="56" x="500" y="166.1598">tf.strings</text><path d="M447,151.9998 L447,152.1866 L449,151.6315 L451,152.1716 L453,152.3551 L455,151.3657 L457,151.9998 L457,151.9998 L456.9897,151.9669 L459.9433,152.7589 L462.949,153.7172 L465.9909,154.7909 L468.9081,155.4666 L472,156.6998 L472.0736,156.9346 L474.9162,157.3725 L477.9737,158.4959 L481.0574,159.703 L483.9886,160.4234 L487,161.3998 L487,161.4604 L489,161.3714 L491,161.5585 L493,161.6123 L495,161.9204 L497,161.3998 " fill="none" style="stroke: #383838; stroke-width: 1.0;"/><text fill="#000000" font-family="Panton" font-size="14" lengthAdjust="spacingAndGlyphs" textLength="9" x="500" y="184.9597">...</text><path d="M447,151.9998 L447,152.1866 L449,151.6315 L451,152.1716 L453,152.3551 L455,151.3657 L457,151.9998 L457,151.9998 L456.9847,151.9689 L458.6972,152.7112 L460.4869,153.6095 L462.3303,154.6164 L463.9887,155.2494 L465.9063,156.406 L466.1146,156.537 L466.8878,158.1957 L468.2693,160.2368 L469.725,162.3244 L470.749,164.1407 L472,166.0998 L472.0257,166.1159 L473.2067,168.0309 L474.5047,170.0195 L475.7462,171.9726 L477.0954,173.9933 L478.0938,175.7935 L478.226,176.0608 L480.0089,176.9453 L481.7064,177.6574 L483.5289,178.6219 L485.3571,179.5982 L487,180.1997 L487,179.5587 L489,180.8028 L491,179.9361 L493,180.6742 L495,179.7597 L497,180.1997 " fill="none" style="stroke: #383838; stroke-width: 1.0;"/><path d="M242,237.1997 L242,237.3865 L244,236.8314 L246,237.3715 L248,237.555 L250,236.5656 L252,237.1997 L252,237.1997 L251.9713,237.1805 L253.6237,234.4318 L255.4208,231.7799 L257.3186,229.1954 L258.8696,226.3789 L260.9063,223.8872 L261.1457,223.9438 L261.2782,221.0938 L262.1098,218.4089 L263.0267,215.7442 L263.4473,212.9622 L264.1289,210.2419 L264.1587,210.2474 L264.6892,207.1109 L265.3554,203.9994 L265.9561,200.8758 L266.6818,197.7752 L267,194.5998 L267.2933,194.6536 L267.8712,191.5258 L268.2597,188.3633 L268.9253,185.2517 L269.6038,182.1424 L269.8711,178.9576 L269.5591,178.8839 L270.8091,176.2978 L271.0319,173.4692 L272.0356,170.8249 L272.2351,167.9908 L273.0938,165.3123 L273.0684,165.2954 L275.1489,162.8331 L276.6382,159.9753 L278.4764,157.3508 L280.3438,154.746 L282,151.9998 L282,152.3698 L284,151.9963 L286,152.2551 L288,151.491 L290,152.2526 L292,151.9998 " fill="none" style="stroke: #383838; stroke-width: 1.0;"/><polygon fill="#F8F8F8" filter="url(#f1a5tp7ko4ww82)" points="304.5,190.3998,304.5,190.61,314.8077,189.9855,325.1154,190.5931,335.4231,190.7995,345.7308,189.6864,356.0385,190.3221,366.3462,189.9733,376.6538,190.0163,386.9615,190.3316,397.2692,189.7084,407.5769,190.9534,417.8846,189.7695,428.1923,190.202,438.5,190.3998,438.5551,190.5328,440.2568,191.1056,442.0442,191.8853,443.7992,192.5866,445.5938,193.3837,447.3388,194.0609,447.4125,194.0914,448.2514,195.9034,449.01,197.6821,449.7447,199.4509,450.3462,201.1645,451,202.8998,451.1545,202.8998,451.2341,205.2598,450.7596,207.6198,451.2262,209.9797,450.9012,212.3397,451,214.6997,451.1644,214.7678,450.1153,216.4043,449.5144,218.2265,449.0317,220.0976,448.0561,221.7646,447.3388,223.5385,447.3523,223.571,445.6143,224.3751,443.8564,225.1312,442.035,225.734,440.3044,226.5559,438.5,227.1997,438.5,226.6273,428.1923,227.4841,417.8846,227.7479,407.5769,227.6442,397.2692,227.8127,386.9615,226.7166,376.6538,226.5475,366.3462,226.5783,356.0385,227.1408,345.7308,227.0032,335.4231,227.8811,325.1154,227.025,314.8077,226.8567,304.5,227.1997,304.5291,227.27,302.6472,226.2621,300.8982,225.5754,299.2795,225.2029,297.4845,224.4049,295.6612,223.5385,295.8874,223.6322,294.8298,221.7297,294.295,220.0437,293.6463,218.3106,292.5868,216.4072,292,214.6997,291.968,214.6997,292.042,212.3397,292.2173,209.9797,291.9986,207.6198,292.1542,205.2598,292,202.8998,291.8295,202.8291,292.5237,201.0456,293.6196,199.4285,293.9759,197.505,295.0857,195.8936,295.6612,194.0609,295.6875,194.1246,297.3948,193.2462,299.1516,192.4875,301.023,192.0055,302.694,191.0398,304.5,190.3998" style="stroke: #383838; stroke-width: 1.5;"/><text fill="#000000" font-family="Panton" font-size="14" lengthAdjust="spacingAndGlyphs" textLength="139" x="302" y="213.5597">low-level deep learning</text><path d="M242,237.1997 L242,237.3865 L244,236.8314 L246,237.3715 L248,237.555 L250,236.5656 L252,237.1997 L252,237.1997 L251.9846,237.1688 L253.6967,236.1425 L255.4865,235.2722 L257.3302,234.5101 L258.988,233.3747 L260.9063,232.7622 L261.115,232.8925 L261.8874,230.6614 L263.2692,228.8107 L264.7254,227.0064 L265.7489,224.932 L267,222.9997 L267.0257,223.0158 L268.2067,221.0397 L269.5048,219.1367 L270.7464,217.1985 L272.0958,215.3276 L273.0938,213.2372 L273.2268,213.5042 L275.0096,212.6199 L276.7067,211.5635 L278.5294,210.7592 L280.3579,209.9666 L282,208.7997 L282,208.1587 L284,209.4029 L286,208.5362 L288,209.2742 L290,208.3597 L292,208.7997 " fill="none" style="stroke: #383838; stroke-width: 1.0;"/><polygon fill="#F8F8F8" filter="url(#f1a5tp7ko4ww82)" points="304.5,247.1997,304.5,247.4099,314.5,246.7854,324.5,247.393,334.5,247.5994,344.5,246.4863,354.5,247.122,364.5,246.7732,374.5,246.8162,384.5,247.1316,394.5,246.5083,404.5,247.7533,414.5,246.5694,424.5,247.0019,434.5,247.6317,444.5,247.1997,444.4891,247.1733,446.2765,247.953,448.0315,248.6543,449.8261,249.4514,451.6016,250.2023,453.3388,250.8609,453.5192,250.9356,454.2777,252.7142,455.0125,254.4831,455.6139,256.1967,456.4105,257.9911,457,259.6997,457.2341,259.6997,456.7596,262.0597,457.2262,264.4197,456.9012,266.7797,457.1779,269.1396,457,271.4996,456.8476,271.4365,456.2467,273.2587,455.7639,275.1298,454.7883,276.7967,454.1035,278.5841,453.3388,280.3385,453.382,280.4428,451.6242,281.1989,449.8028,281.8017,448.0722,282.6236,446.1947,283.0911,444.5,283.9996,444.5,284.284,434.5,284.5478,424.5,284.4442,414.5,284.6127,404.5,283.5166,394.5,283.3475,384.5,283.3782,374.5,283.9408,364.5,283.8031,354.5,284.681,344.5,283.825,334.5,283.6566,324.5,284.2279,314.5,283.3328,304.5,283.9996,304.4338,283.8398,302.815,283.4673,301.02,282.6693,299.2904,282.0291,297.3879,280.9716,295.6612,280.3385,295.7595,280.3792,295.1108,278.646,294.0512,276.7427,293.4349,275.0229,292.771,273.2835,292,271.4996,292.2173,271.4996,291.9986,269.1396,292.1542,266.7797,291.8154,264.4197,291.7742,262.0597,292,259.6997,292.1551,259.7639,292.5114,257.8405,293.6212,256.2291,294.2603,254.4228,294.8464,252.5945,295.6612,250.8609,295.616,250.7519,297.4875,250.2699,299.1585,249.3042,301.04,248.8464,302.6617,247.7617,304.5,247.1997" style="stroke: #383838; stroke-width: 1.5;"/><text fill="#000000" font-family="Panton" font-size="14" font-weight="bold" lengthAdjust="spacingAndGlyphs" textLength="60" x="302" y="270.3596">high-level</text><text fill="#000000" font-family="Panton" font-size="14" lengthAdjust="spacingAndGlyphs" textLength="0" x="365" y="270.3596"/><text fill="#000000" font-family="Panton" font-size="14" font-weight="bold" lengthAdjust="spacingAndGlyphs" textLength="30" x="365" y="270.3596">deep</text><text fill="#000000" font-family="Panton" font-size="14" lengthAdjust="spacingAndGlyphs" textLength="0" x="398" y="270.3596"/><text fill="#000000" font-family="Panton" font-size="14" font-weight="bold" lengthAdjust="spacingAndGlyphs" textLength="49" x="398" y="270.3596">learning</text><text fill="#000000" font-family="Panton" font-size="14" font-weight="bold" lengthAdjust="spacingAndGlyphs" textLength="46" x="510" y="251.5597">tf.keras</text><path d="M457,265.5997 L457,265.7865 L459,265.2314 L461,265.7715 L463,265.9549 L465,264.9655 L467,265.5997 L467,265.5997 L466.9817,265.5704 L469.8993,263.5591 L472.9095,261.6953 L475.9839,259.934 L478.8368,257.8193 L482,256.1997 L482.1307,256.4082 L484.8513,254.0823 L487.9533,252.3652 L491.1019,250.7224 L493.9798,248.6474 L497,246.7997 L497,246.8604 L499,246.7713 L501,246.9584 L503,247.0123 L505,247.3204 L507,246.7997 " fill="none" style="stroke: #383838; stroke-width: 1.0;"/><text fill="#000000" font-family="Panton" font-size="14" font-weight="bold" lengthAdjust="spacingAndGlyphs" textLength="71" x="510" y="270.3596">tf.estimator</text><path d="M457,265.5997 L457,265.7865 L459,265.2314 L461,265.7715 L463,265.9549 L465,264.9655 L467,265.5997 L467,265.5997 L467,265.5651 L473,265.4101 L479,265.4292 L485,265.5694 L491,265.2924 L497,265.5997 L497,266.0918 L499,265.0394 L501,265.4239 L503,265.9836 L505,265.5234 L507,265.5997 " fill="none" style="stroke: #383838; stroke-width: 1.0;"/><text fill="#000000" font-family="Panton" font-size="14" lengthAdjust="spacingAndGlyphs" textLength="109" x="510" y="289.1596">tf.feature_column</text><path d="M457,265.5997 L457,265.7865 L459,265.2314 L461,265.7715 L463,265.9549 L465,264.9655 L467,265.5997 L467,265.5997 L466.9817,265.5704 L469.8993,267.319 L472.9095,269.2152 L475.9839,271.214 L478.8368,272.8593 L482,274.9996 L482.1307,275.2081 L484.8513,276.6423 L487.9533,278.6851 L491.1019,280.8023 L493.9798,282.4873 L497,284.3996 L497,284.4603 L499,284.3712 L501,284.5583 L503,284.6122 L505,284.9202 L507,284.3996 " fill="none" style="stroke: #383838; stroke-width: 1.0;"/><path d="M242,237.1997 L242,237.3865 L244,236.8314 L246,237.3715 L248,237.555 L250,236.5656 L252,237.1997 L252,237.1997 L251.9846,237.1688 L253.6967,237.9175 L255.4865,238.8221 L257.3302,239.8351 L258.988,240.4747 L260.9063,241.6372 L261.115,241.7675 L261.8874,243.4414 L263.2692,245.4957 L264.7254,247.5963 L265.7489,249.427 L267,251.3997 L267.0257,251.4157 L268.2067,253.3447 L269.5048,255.3467 L270.7464,257.3135 L272.0958,259.3475 L273.0938,261.1622 L273.2268,261.4291 L275.0096,262.3199 L276.7067,263.0385 L278.5294,264.0091 L280.3579,264.9915 L282,265.5997 L282,264.9586 L284,266.2028 L286,265.3361 L288,266.0742 L290,265.1596 L292,265.5997 " fill="none" style="stroke: #383838; stroke-width: 1.0;"/><polygon fill="#F8F8F8" filter="url(#f1a5tp7ko4ww82)" points="304.5,303.9996,304.5,304.2098,314.2143,303.5853,323.9286,304.1929,333.6429,304.3993,343.3571,303.2862,353.0714,303.9219,362.7857,303.5731,372.5,303.9996,372.4511,303.8815,374.2591,304.7109,375.9473,305.2512,377.8739,306.3668,379.4907,306.7345,381.3388,307.6608,381.2779,307.6356,382.2041,309.4837,382.7769,311.1854,383.5565,312.9728,384.2579,314.7278,385,316.4996,385.0595,316.4996,385.0797,318.8596,385.1952,321.2196,385.2237,323.5796,385.2264,325.9396,385,328.2996,385.0784,328.332,384.4105,330.1265,383.7518,331.9247,382.5812,333.5109,382.28,335.4572,381.3388,337.1384,381.301,337.0471,379.6392,338.035,377.7402,338.4504,376.0268,339.314,374.3624,340.2957,372.5,340.7996,372.5,340.7508,362.7857,340.9049,353.0714,341.1382,343.3571,341.2158,333.6429,340.7957,323.9286,341.0868,314.2143,340.2271,304.5,340.7996,304.5363,340.8871,302.8022,340.2361,301.0212,339.472,299.2749,338.7916,297.3673,337.7219,295.6612,337.1384,295.4603,337.0552,294.7376,335.2914,294.1786,333.5954,293.4039,331.81,292.9421,330.1542,292,328.2996,291.9418,328.2996,291.8856,325.9396,292.0761,323.5796,291.7777,321.2196,291.827,318.8596,292,316.4996,292.1999,316.5824,292.8664,314.7874,293.6907,313.0578,294.0976,311.1553,295.0272,309.4693,295.6612,307.6608,295.7365,307.8426,297.3687,306.7831,299.1845,306.1668,300.9805,305.5029,302.8154,304.9326,304.5,303.9996" style="stroke: #383838; stroke-width: 1.5;"/><text fill="#000000" font-family="Panton" font-size="14" font-weight="bold" lengthAdjust="spacingAndGlyphs" textLength="73" x="302" y="327.1596">deployment</text><path d="M242,237.1997 L242,237.3865 L244,236.8314 L246,237.3715 L248,237.555 L250,236.5656 L252,237.1997 L252,237.1997 L251.9713,237.1805 L253.6237,239.7568 L255.4208,242.4299 L257.3186,245.1704 L258.8696,247.6788 L260.9063,250.5122 L261.1457,250.5687 L261.2782,253.1769 L262.1098,255.9501 L263.0267,258.7435 L263.4473,261.4197 L264.1289,264.1575 L264.1587,264.163 L264.6892,267.2834 L265.3554,270.4287 L265.9561,273.562 L266.6818,276.7182 L267,279.7997 L267.2933,279.8535 L267.8712,282.9826 L268.2597,286.0769 L268.9253,289.2221 L269.6038,292.3697 L269.8711,295.4418 L269.5591,295.3681 L270.8091,298.2402 L271.0319,300.8696 L272.0356,303.6835 L272.2351,306.3075 L273.0938,309.0871 L273.0684,309.0702 L275.1489,311.9329 L276.6382,314.4001 L278.4764,317.1006 L280.3438,319.8208 L282,322.3996 L282,322.7696 L284,322.3961 L286,322.6549 L288,321.8908 L290,322.6524 L292,322.3996 " fill="none" style="stroke: #383838; stroke-width: 1.0;"/><polygon fill="#F8F8F8" filter="url(#f1a5tp7ko4ww82)" points="304.5,360.7996,304.5,361.0097,314.5,360.3852,324.5,360.9928,334.5,361.1992,344.5,360.0862,354.5,360.7218,364.5,360.3731,374.5,360.7996,374.4511,360.6815,376.2591,361.5108,377.9473,362.0511,379.8739,363.1668,381.4907,363.5344,383.3388,364.4607,383.2779,364.4355,384.2041,366.2836,384.7769,367.9853,385.5565,369.7727,386.2579,371.5277,387,373.2996,387.0595,373.2996,387.0797,375.6595,387.1952,378.0195,387.2237,380.3795,387.2264,382.7395,387,385.0995,387.0784,385.132,386.4105,386.9264,385.7518,388.7246,384.5812,390.3108,384.28,392.2571,383.3388,393.9383,383.301,393.847,381.6392,394.8349,379.7402,395.2503,378.0268,396.1139,376.3624,397.0956,374.5,397.5995,374.5,397.5508,364.5,397.7048,354.5,397.9381,344.5,398.0157,334.5,397.5956,324.5,397.8867,314.5,397.0271,304.5,397.5995,304.5363,397.6871,302.8022,397.0361,301.0212,396.2719,299.2749,395.5916,297.3673,394.5218,295.6612,393.9383,295.4603,393.8551,294.7376,392.0913,294.1786,390.3953,293.4039,388.61,292.9421,386.9542,292,385.0995,291.9418,385.0995,291.8856,382.7395,292.0761,380.3795,291.7777,378.0195,291.827,375.6595,292,373.2996,292.1999,373.3823,292.8664,371.5874,293.6907,369.8577,294.0976,367.9552,295.0272,366.2692,295.6612,364.4607,295.7365,364.6426,297.3687,363.583,299.1845,362.9667,300.9805,362.3028,302.8154,361.7325,304.5,360.7996" style="stroke: #383838; stroke-width: 1.5;"/><text fill="#000000" font-family="Panton" font-size="14" lengthAdjust="spacingAndGlyphs" textLength="75" x="302" y="383.9595">visualization</text><path d="M242,237.1997 L242,237.3865 L244,236.8314 L246,237.3715 L248,237.555 L250,236.5656 L252,237.1997 L252,237.1997 L251.9732,237.1779 L252.8492,238.3002 L253.8601,239.5325 L254.9648,240.8415 L255.7463,241.8866 L256.9805,243.3013 L257.2195,243.3596 L257.4935,246.452 L258.4654,249.7148 L259.5224,252.9983 L260.0841,256.161 L260.9063,259.3872 L260.9362,259.3919 L261.2277,261.5344 L261.6555,263.6982 L262.0176,265.8518 L262.5052,268.025 L262.5835,270.1342 L262.8793,270.1723 L263.192,272.5718 L263.3139,274.9467 L263.7151,277.3576 L264.1294,279.7702 L264.1289,282.1293 L263.8103,282.0942 L265.0029,287.3764 L265.1464,292.543 L266.0874,297.7975 L266.2071,302.9615 L267,308.1996 L266.9697,308.1963 L267.9018,313.4498 L268.1269,318.6254 L268.7692,323.8469 L269.4465,329.0723 L269.8711,334.2699 L270.0546,334.2935 L270.1785,336.6687 L270.6159,339.0842 L270.546,341.4344 L271.2328,343.8821 L271.4165,346.265 L271.6572,346.3026 L271.9472,348.4449 L272.3566,350.6058 L272.2107,352.6801 L272.4719,354.8179 L273.0938,357.0121 L272.8254,356.9466 L273.8535,360.223 L274.5792,363.4257 L275.7434,366.7354 L276.159,369.8624 L277.0195,373.098 L276.9014,373.0016 L278.0942,374.3824 L278.7821,375.3512 L279.8291,376.613 L281.2273,378.1616 L282,379.1995 L282,379.5868 L284,379.8524 L286,378.9135 L288,379.4833 L290,379.7243 L292,379.1995 " fill="none" style="stroke: #383838; stroke-width: 1.0;"/><polygon fill="#F8F8F8" filter="url(#f1a5tp7ko4ww82)" points="304.5,417.5995,304.5,417.6695,305.3,417.4614,306.1,417.6639,306.9,417.7327,307.7,417.3617,308.5,417.5995,308.4901,417.5756,310.2134,418.2004,311.9866,418.9459,313.7946,419.7752,315.4829,420.3155,317.3388,421.2607,317.5093,421.3313,317.877,422.948,318.7424,424.771,319.6686,426.6191,320.2414,428.3208,321,430.0995,321.0227,430.0995,320.9894,432.4595,321.0595,434.8195,321.0797,437.1794,321.1952,439.5394,321,441.8994,321.2067,441.985,320.477,443.7538,319.6139,445.4674,318.9461,447.2619,318.2873,449.0601,317.3388,450.7382,317.2468,450.5162,315.6576,451.6794,313.7655,452.1114,312.1036,453.0993,310.2046,453.5147,308.5,454.3994,308.5,454.3766,307.7,454.6466,306.9,454.3832,306.1,454.4345,305.3,454.5123,304.5,454.3994,304.5531,454.5276,302.7317,453.666,301.0011,453.0234,299.1237,452.0264,297.4652,451.5581,295.6612,450.7382,295.83,450.8082,295.0658,449.0272,294.3855,447.2809,293.3157,445.3733,292.5314,443.584,292,441.8994,291.7929,441.8994,291.9804,439.5394,291.9345,437.1794,292.2271,434.8195,291.9418,432.4595,292,430.0995,291.8944,430.0557,292.8025,428.3608,293.2591,426.4789,294.0368,424.73,295.1288,423.1112,295.6612,421.2607,295.7167,421.3948,297.5226,420.7546,299.1557,419.6971,301.0052,419.1623,302.8075,418.5135,304.5,417.5995" style="stroke: #383838; stroke-width: 1.5;"/><text fill="#000000" font-family="Panton" font-size="14" lengthAdjust="spacingAndGlyphs" textLength="9" x="302" y="440.7594">...</text><path d="M242,237.1997 L242,237.3865 L244,236.8314 L246,237.3715 L248,237.555 L250,236.5656 L252,237.1997 L252,237.1997 L251.9702,237.1823 L252.8323,238.8127 L253.8449,240.5307 L254.9621,242.3098 L255.7189,243.8787 L256.9805,245.7419 L257.2212,245.7928 L257.121,247.6448 L257.7236,249.6453 L258.4119,251.664 L258.6014,253.5773 L259.0532,255.546 L259.0832,255.5503 L259.4098,258.0872 L259.8729,260.6439 L260.2702,263.191 L260.7932,265.7565 L260.9063,268.2622 L261.2027,268.2952 L261.5417,271.3048 L261.6896,274.2931 L262.1174,277.3125 L262.5582,280.3334 L262.5835,283.308 L262.2643,283.2787 L263.1929,286.6943 L263.0704,290.0132 L263.747,293.4057 L263.6007,296.7224 L264.1289,300.1012 L264.0986,300.0988 L265.0317,307.4267 L265.2558,314.6988 L265.8982,322.0039 L266.5758,329.3117 L267,336.5996 L267.1844,336.6141 L267.5725,343.8991 L268.2757,351.2089 L268.469,358.4787 L269.4229,365.8082 L269.8711,373.098 L270.1137,373.1203 L270.3769,376.4747 L270.7606,379.8402 L270.5845,383.1542 L270.8188,386.5059 L271.4165,389.8911 L271.142,389.8605 L271.7259,392.8974 L272.0006,395.8998 L272.7238,398.9522 L272.6811,401.9192 L273.0938,404.937 L272.9429,404.915 L273.5647,407.4949 L273.5417,409.9807 L273.9773,412.5334 L274.8616,415.1515 L274.9468,417.6532 L275.1362,417.6932 L275.6807,419.6815 L275.636,421.5452 L276.3292,423.565 L276.8617,425.5507 L277.0195,427.4573 L276.8382,427.3515 L277.9788,429.1443 L279.0601,430.9023 L280.2581,432.7285 L281.0023,434.2901 L282,435.9995 L282,436.4106 L284,435.5072 L286,435.3974 L288,436.4471 L290,435.3622 L292,435.9995 " fill="none" style="stroke: #383838; stroke-width: 1.0;"/><path d="M102,251.3997 L102,251.5865 L104,251.0314 L106,251.5715 L108,251.755 L110,250.7656 L112,251.3997 L112,251.3997 L111.9852,251.3685 L114.9189,249.8084 L117.9271,248.4056 L120.987,247.1123 L123.8685,245.442 L127,244.2997 L127.1053,244.5221 L129.8802,242.6265 L132.9624,241.3803 L136.0821,240.2132 L138.9837,238.5852 L142,237.1997 L142,237.2604 L144,237.1713 L146,237.3584 L148,237.4123 L150,237.7203 L152,237.1997 " fill="none" style="stroke: #383838; stroke-width: 1.0;"/><polygon fill="#F8F8F8" filter="url(#f1a5tp7ko4ww82)" points="164.5,275.5997,164.5,275.6697,173.3,275.4616,182.1,275.6641,190.9,275.7329,199.7,275.3619,208.5,275.5997,208.4901,275.5757,210.2134,276.2006,211.9866,276.946,213.7946,277.7754,215.4829,278.3157,217.3388,279.2608,217.5093,279.3315,217.877,280.9482,218.7424,282.7711,219.6686,284.6192,220.2414,286.321,221,288.0997,221.0227,288.0997,220.9894,290.4597,221.0595,292.8196,221.0797,295.1796,221.1952,297.5396,221,299.8996,221.2067,299.9852,220.477,301.754,219.6139,303.4676,218.9461,305.262,218.2873,307.0602,217.3388,308.7384,217.2468,308.5163,215.6576,309.6796,213.7655,310.1116,212.1036,311.0995,210.2046,311.5149,208.5,312.3996,208.5,312.3768,199.7,312.6468,190.9,312.3834,182.1,312.4347,173.3,312.5125,164.5,312.3996,164.5531,312.5278,162.7317,311.6662,161.0011,311.0236,159.1237,310.0266,157.4652,309.5582,155.6612,308.7384,155.83,308.8084,155.0658,307.0274,154.3855,305.2811,153.3157,303.3735,152.5314,301.5842,152,299.8996,151.7929,299.8996,151.9804,297.5396,151.9345,295.1796,152.2271,292.8196,151.9418,290.4597,152,288.0997,151.8944,288.0559,152.8025,286.361,153.2591,284.4791,154.0368,282.7301,155.1288,281.1114,155.6612,279.2608,155.7167,279.395,157.5226,278.7548,159.1557,277.6973,161.0052,277.1624,162.8075,276.5137,164.5,275.5997" style="stroke: #383838; stroke-width: 1.5;"/><text fill="#000000" font-family="Panton" font-size="14" lengthAdjust="spacingAndGlyphs" textLength="49" x="162" y="298.7596">C++ API</text><path d="M102,251.3997 L102,251.5865 L104,251.0314 L106,251.5715 L108,251.755 L110,250.7656 L112,251.3997 L112,251.3997 L111.9793,251.372 L113.6678,252.5791 L115.4605,253.9257 L117.3256,255.3692 L118.941,256.4786 L120.9063,258.0559 L121.1334,258.1505 L121.8664,260.8771 L123.2626,263.8797 L124.7397,266.9159 L125.7461,269.7563 L127,272.6997 L127.028,272.7113 L128.2056,275.623 L129.5108,278.5876 L130.7544,281.5267 L132.1153,284.5147 L133.0938,287.3434 L133.2723,287.5823 L135.0557,288.9165 L136.724,290.0965 L138.5608,291.5022 L140.4056,292.9184 L142,293.9996 L142,293.3586 L144,294.6028 L146,293.7361 L148,294.4741 L150,293.5596 L152,293.9996 " fill="none" style="stroke: #383838; stroke-width: 1.0;"/><polygon fill="#F8F8F8" filter="url(#f1a5tp7ko4ww82)" points="164.5,332.3996,164.5,332.6098,174.1,331.9853,183.7,332.5929,193.3,332.7993,202.9,331.6862,212.5,332.3996,212.4901,332.3757,214.2134,333.0005,215.9866,333.746,217.7946,334.5753,219.4829,335.1156,221.3388,336.0608,221.5093,336.1314,221.877,337.7481,222.7424,339.5711,223.6686,341.4192,224.2414,343.1209,225,344.8996,225.0227,344.8996,224.9894,347.2596,225.0595,349.6196,225.0797,351.9796,225.1952,354.3395,225,356.6995,225.2067,356.7851,224.477,358.5539,223.6139,360.2675,222.9461,362.062,222.2873,363.8602,221.3388,365.5384,221.2468,365.3163,219.6576,366.4795,217.7655,366.9115,216.1036,367.8995,214.2046,368.3148,212.5,369.1995,212.5,369.131,202.9,369.9411,193.3,369.1508,183.7,369.3048,174.1,369.5382,164.5,369.1995,164.5531,369.3277,162.7317,368.4661,161.0011,367.8235,159.1237,366.8265,157.4652,366.3582,155.6612,365.5384,155.83,365.6083,155.0658,363.8273,154.3855,362.081,153.3157,360.1734,152.5314,358.3841,152,356.6995,151.7929,356.6995,151.9804,354.3395,151.9345,351.9796,152.2271,349.6196,151.9418,347.2596,152,344.8996,151.8944,344.8558,152.8025,343.1609,153.2591,341.279,154.0368,339.5301,155.1288,337.9113,155.6612,336.0608,155.7167,336.1949,157.5226,335.5547,159.1557,334.4972,161.0052,333.9624,162.8075,333.3137,164.5,332.3996" style="stroke: #383838; stroke-width: 1.5;"/><text fill="#000000" font-family="Panton" font-size="14" lengthAdjust="spacingAndGlyphs" textLength="53" x="162" y="355.5595">Java API</text><path d="M102,251.3997 L102,251.5865 L104,251.0314 L106,251.5715 L108,251.755 L110,250.7656 L112,251.3997 L112,251.3997 L111.97,251.3825 L113.6168,254.4116 L115.4146,257.5274 L117.3175,260.7034 L118.8584,263.6718 L120.9063,266.9309 L121.1474,266.9797 L121.2762,270.0592 L122.1092,273.2813 L123.028,276.5207 L123.447,279.659 L124.1289,282.8504 L124.1589,282.8551 L124.6891,286.4981 L125.3557,290.1624 L125.9566,293.8165 L126.6829,297.4902 L127,301.0996 L127.2946,301.146 L127.8724,304.7964 L128.2602,308.4169 L128.9262,312.0812 L129.6052,315.7475 L129.8711,319.3488 L129.5569,319.2852 L130.8112,322.5926 L131.031,325.6905 L132.0372,328.9476 L132.2336,332.0408 L133.0938,335.2683 L133.0673,335.2532 L135.1609,338.5385 L136.6375,341.47 L138.4781,344.6103 L140.3493,347.7682 L142,350.7996 L142,351.1695 L144,350.7961 L146,351.0549 L148,350.2907 L150,351.0523 L152,350.7996 " fill="none" style="stroke: #383838; stroke-width: 1.0;"/><polygon fill="#F8F8F8" filter="url(#f1a5tp7ko4ww82)" points="164.5,389.1995,164.5,389.2696,171.7,389.0614,178.9,389.264,186.1,389.3328,193.3,388.9617,200.5,389.1995,200.4901,389.1756,202.2134,389.8004,203.9866,390.5459,205.7946,391.3752,207.4829,391.9155,209.3388,392.8607,209.5093,392.9313,209.877,394.5481,210.7424,396.371,211.6686,398.2191,212.2414,399.9208,213,401.6995,213.0227,401.6995,212.9894,404.0595,213.0595,406.4195,213.0797,408.7795,213.1952,411.1395,213,413.4995,213.2067,413.5851,212.477,415.3539,211.6139,417.0675,210.9461,418.8619,210.2873,420.6601,209.3388,422.3383,209.2468,422.1162,207.6576,423.2795,205.7655,423.7114,204.1036,424.6994,202.2046,425.1148,200.5,425.9995,200.5,425.9766,193.3,426.2467,186.1,425.9832,178.9,426.0346,171.7,426.1123,164.5,425.9995,164.5531,426.1276,162.7317,425.266,161.0011,424.6234,159.1237,423.6265,157.4652,423.1581,155.6612,422.3383,155.83,422.4082,155.0658,420.6272,154.3855,418.8809,153.3157,416.9734,152.5314,415.184,152,413.4995,151.7929,413.4995,151.9804,411.1395,151.9345,408.7795,152.2271,406.4195,151.9418,404.0595,152,401.6995,151.8944,401.6558,152.8025,399.9609,153.2591,398.0789,154.0368,396.33,155.1288,394.7112,155.6612,392.8607,155.7167,392.9949,157.5226,392.3546,159.1557,391.2971,161.0052,390.7623,162.8075,390.1136,164.5,389.1995" style="stroke: #383838; stroke-width: 1.5;"/><text fill="#000000" font-family="Panton" font-size="14" lengthAdjust="spacingAndGlyphs" textLength="41" x="162" y="412.3595">Go API</text><path d="M102,251.3997 L102,251.5865 L104,251.0314 L106,251.5715 L108,251.755 L110,250.7656 L112,251.3997 L112,251.3997 L111.9723,251.3791 L112.8439,252.6291 L113.8553,253.9828 L114.964,255.4087 L115.7376,256.5859 L116.9805,258.1114 L117.2207,258.1647 L117.4921,261.5896 L118.465,265.1702 L119.5234,268.7697 L120.0839,272.2587 L120.9063,275.8059 L120.9363,275.8102 L121.2276,278.1683 L121.6557,280.5458 L122.0178,282.9139 L122.5058,285.2999 L122.5835,287.6277 L122.8797,287.6624 L123.1924,290.3017 L123.3141,292.9187 L123.7154,295.5684 L124.1298,298.2197 L124.1289,300.8223 L123.81,300.7904 L125.0032,306.5878 L125.1462,312.2801 L126.0876,318.0523 L126.2069,323.7422 L127,329.4996 L126.9697,329.4966 L127.9022,335.2679 L128.1269,340.9684 L128.7692,346.7106 L129.4466,352.4564 L129.8711,358.1769 L130.0548,358.1984 L130.1785,360.8156 L130.616,363.4696 L130.5457,366.0641 L131.233,368.7473 L131.4165,371.3715 L131.6577,371.4057 L131.9476,373.7636 L132.3572,376.1385 L132.2103,378.4344 L132.4713,380.7882 L133.0938,383.1933 L132.8241,383.1334 L133.8534,386.7265 L134.5788,390.2522 L135.7449,393.8756 L136.1586,397.3321 L137.0195,400.8878 L136.8971,400.7969 L138.0971,402.2906 L138.7737,403.3958 L139.8225,404.7773 L141.2355,406.429 L142,407.5995 L142,407.9867 L144,408.2524 L146,407.3134 L148,407.8832 L150,408.1243 L152,407.5995 " fill="none" style="stroke: #383838; stroke-width: 1.0;"/><polygon fill="#F8F8F8" filter="url(#f1a5tp7ko4ww82)" points="164.5,445.9995,164.5,446.0695,165.3,445.8613,166.1,446.0639,166.9,446.1327,167.7,445.7617,168.5,445.9995,168.4901,445.9755,170.2134,446.6003,171.9866,447.3458,173.7946,448.1752,175.4829,448.7155,177.3388,449.6606,177.5093,449.7312,177.877,451.348,178.7424,453.1709,179.6686,455.019,180.2414,456.7207,181,458.4995,181.0227,458.4995,180.9894,460.8594,181.0595,463.2194,181.0797,465.5794,181.1952,467.9394,181,470.2994,181.2067,470.385,180.477,472.1538,179.6139,473.8674,178.9461,475.6618,178.2873,477.46,177.3388,479.1382,177.2468,478.9161,175.6576,480.0794,173.7655,480.5114,172.1036,481.4993,170.2046,481.9147,168.5,482.7994,168.5,482.7765,167.7,483.0466,166.9,482.7831,166.1,482.8345,165.3,482.9123,164.5,482.7994,164.5531,482.9276,162.7317,482.0659,161.0011,481.4234,159.1237,480.4264,157.4652,479.958,155.6612,479.1382,155.83,479.2081,155.0658,477.4272,154.3855,475.6809,153.3157,473.7733,152.5314,471.984,152,470.2994,151.7929,470.2994,151.9804,467.9394,151.9345,465.5794,152.2271,463.2194,151.9418,460.8594,152,458.4995,151.8944,458.4557,152.8025,456.7608,153.2591,454.8789,154.0368,453.1299,155.1288,451.5112,155.6612,449.6606,155.7167,449.7948,157.5226,449.1546,159.1557,448.0971,161.0052,447.5622,162.8075,446.9135,164.5,445.9995" style="stroke: #383838; stroke-width: 1.5;"/><text fill="#000000" font-family="Panton" font-size="14" lengthAdjust="spacingAndGlyphs" textLength="9" x="162" y="469.1594">...</text><path d="M102,251.3997 L102,251.5865 L104,251.0314 L106,251.5715 L108,251.755 L110,250.7656 L112,251.3997 L112,251.3997 L111.9697,251.3832 L112.8296,253.1396 L113.8425,254.9792 L114.9617,256.8766 L115.7145,258.5747 L116.9805,260.552 L117.2219,260.5997 L117.1202,262.5987 L117.7233,264.7368 L118.4125,266.8918 L118.6013,268.9481 L119.0532,271.0564 L119.0833,271.0605 L119.4098,273.7794 L119.8731,276.5169 L120.2704,279.2454 L120.7936,281.9911 L120.9063,284.6809 L121.2029,284.7118 L121.542,287.9363 L121.6897,291.1408 L122.1175,294.3746 L122.5585,297.6097 L122.5835,300.8015 L122.2641,300.7741 L123.193,304.4258 L123.0704,307.9873 L123.7471,311.6174 L123.6006,315.1768 L124.1289,318.7941 L124.0985,318.7919 L125.0318,326.6394 L125.2557,334.4347 L125.8982,342.2608 L126.5759,350.0895 L127,357.8996 L127.1845,357.9131 L127.5725,365.7205 L128.2757,373.5511 L128.4689,381.3442 L129.4229,389.1931 L129.8711,397.005 L130.1138,397.0258 L130.377,400.6204 L130.7607,404.2253 L130.5844,407.7822 L130.8186,411.3743 L131.4165,414.9976 L131.1418,414.969 L131.7259,418.219 L132.0005,421.4368 L132.7241,424.7013 L132.6811,427.8861 L133.0938,431.1182 L132.9427,431.0977 L133.5649,433.8568 L133.5413,436.5281 L133.9769,439.2618 L134.862,442.0567 L134.9468,444.7427 L135.1367,444.7802 L135.6816,446.9068 L135.6356,448.9168 L136.3296,451.0728 L136.8624,453.197 L137.0195,455.2471 L136.8351,455.1467 L137.9782,457.0572 L139.0609,458.9348 L140.2623,460.8769 L141.0023,462.5681 L142,464.3994 L142,464.8106 L144,463.9072 L146,463.7974 L148,464.8471 L150,463.7621 L152,464.3994 " fill="none" style="stroke: #383838; stroke-width: 1.0;"/><!--MD5=[391615035027501bf03d839ec59badea]
@startmindmap
skinparam monochrome true
skinparam handwritten true
skinparam DefaultFontSize 30
skinparam DefaultFontName Panton
+ TensorFlow\n Distributed\n Execution\n Engine
++ Python API
+++  <b>tensors</b> + <b>gradients</b>
+++  extended maths
+++  <b>I/O</b> and <b>preprocessing</b>
++++_ <b>tf.data</b>
++++_ tf.image
++++_ tf.strings
++++_ ...
+++  low-level deep learning
+++  <b>high-level</b> <b>deep</b> <b>learning</b>
++++_ <b>tf.keras</b>
++++_ <b>tf.estimator</b>
++++_ tf.feature_column
+++  <b>deployment</b>
+++  visualization
+++  ...
++ C++ API
++ Java API
++ Go API
++ ...
@endmindmap

PlantUML version 1.2019.13(Tue Dec 10 18:18:29 CET 2019)
(GPL source distribution)
Java Runtime: OpenJDK Runtime Environment
JVM: OpenJDK 64-Bit Server VM
Java Version: 11.0.5+10-suse-2.1-x8664
Operating System: Linux
Default Encoding: UTF-8
Language: en
Country: US
--></g></svg>