<?xml version="1.0" encoding="UTF-8" standalone="no"?><svg xmlns="http://www.w3.org/2000/svg" xmlns:xlink="http://www.w3.org/1999/xlink" contentScriptType="application/ecmascript" contentStyleType="text/css" height="613px" preserveAspectRatio="none" style="width:727px;height:613px;" version="1.1" viewBox="0 0 727 613" width="727px" zoomAndPan="magnify"><defs/><g><line style="stroke: #536366; stroke-width: 1.0; stroke-dasharray: 5.0,5.0;" x1="55" x2="55" y1="90" y2="518.9998"/><line style="stroke: #536366; stroke-width: 1.0; stroke-dasharray: 5.0,5.0;" x1="525.5" x2="525.5" y1="90" y2="518.9998"/><line style="stroke: #536366; stroke-width: 1.0; stroke-dasharray: 5.0,5.0;" x1="650.5" x2="650.5" y1="90" y2="518.9998"/><text fill="#536366" font-family="Panton" font-size="20" lengthAdjust="spacingAndGlyphs" textLength="88" x="8" y="84.8">your code</text><ellipse cx="55" cy="13" fill="#FFFFFF" rx="8" ry="8" style="stroke: #536366; stroke-width: 2.0;"/><path d="M55,21 L55,48 M42,29 L68,29 M55,48 L42,63 M55,48 L68,63 " fill="none" style="stroke: #536366; stroke-width: 2.0;"/><text fill="#536366" font-family="Panton" font-size="20" lengthAdjust="spacingAndGlyphs" textLength="88" x="8" y="536.7998">your code</text><ellipse cx="55" cy="551.9998" fill="#FFFFFF" rx="8" ry="8" style="stroke: #536366; stroke-width: 2.0;"/><path d="M55,559.9998 L55,586.9998 M42,567.9998 L68,567.9998 M55,586.9998 L42,601.9998 M55,586.9998 L68,601.9998 " fill="none" style="stroke: #536366; stroke-width: 2.0;"/><text fill="#536366" font-family="Panton" font-size="20" lengthAdjust="spacingAndGlyphs" textLength="105" x="470.5" y="84.8">File Storage</text><path d="M508,30 C508,20 526,20 526,20 C526,20 544,20 544,30 L544,56 C544,66 526,66 526,66 C526,66 508,66 508,56 L508,30 " fill="#D3D3D3" style="stroke: #536366; stroke-width: 1.5;"/><path d="M508,30 C508,40 526,40 526,40 C526,40 544,40 544,30 " fill="none" style="stroke: #536366; stroke-width: 1.5;"/><text fill="#536366" font-family="Panton" font-size="20" lengthAdjust="spacingAndGlyphs" textLength="105" x="470.5" y="536.7998">File Storage</text><path d="M508,551.9998 C508,541.9998 526,541.9998 526,541.9998 C526,541.9998 544,541.9998 544,551.9998 L544,577.9998 C544,587.9998 526,587.9998 526,587.9998 C526,587.9998 508,587.9998 508,577.9998 L508,551.9998 " fill="#D3D3D3" style="stroke: #536366; stroke-width: 1.5;"/><path d="M508,551.9998 C508,561.9998 526,561.9998 526,561.9998 C526,561.9998 544,561.9998 544,551.9998 " fill="none" style="stroke: #536366; stroke-width: 1.5;"/><text fill="#00AED2" font-family="Panton" font-size="20" lengthAdjust="spacingAndGlyphs" textLength="113" x="591.5" y="84.8">TensorBoard</text><ellipse cx="651" cy="50" fill="#D3D3D3" rx="12" ry="12" style="stroke: #536366; stroke-width: 2.0;"/><line style="stroke: #536366; stroke-width: 2.0;" x1="639" x2="663" y1="64" y2="64"/><text fill="#00AED2" font-family="Panton" font-size="20" lengthAdjust="spacingAndGlyphs" textLength="113" x="591.5" y="536.7998">TensorBoard</text><ellipse cx="651" cy="557.9998" fill="#D3D3D3" rx="12" ry="12" style="stroke: #536366; stroke-width: 2.0;"/><line style="stroke: #536366; stroke-width: 2.0;" x1="639" x2="663" y1="571.9998" y2="571.9998"/><rect fill="#808080" height="3" style="stroke: #808080; stroke-width: 1.0;" width="712.5" x="3" y="125"/><line style="stroke: #808080; stroke-width: 1.0;" x1="3" x2="715.5" y1="125" y2="125"/><line style="stroke: #808080; stroke-width: 1.0;" x1="3" x2="715.5" y1="128" y2="128"/><rect fill="#808080" height="32" style="stroke: #808080; stroke-width: 2.0;" width="120" x="299.25" y="110"/><text fill="#FFFFFF" font-family="Panton" font-size="20" font-weight="bold" lengthAdjust="spacingAndGlyphs" textLength="101" x="305.25" y="132.8">Initialization</text><polygon fill="#00AED2" points="514,202.9999,524,206.9999,514,210.9999,518,206.9999" style="stroke: #00AED2; stroke-width: 1.0;"/><line style="stroke: #00AED2; stroke-width: 3.0;" x1="55" x2="520" y1="206.9999" y2="206.9999"/><text fill="#000000" font-family="Panton" font-size="20" lengthAdjust="spacingAndGlyphs" textLength="421" x="62" y="199.7999">tf.summary.create_file_writer(PATH).as_default()</text><rect fill="#808080" height="3" style="stroke: #808080; stroke-width: 1.0;" width="712.5" x="3" y="264.9999"/><line style="stroke: #808080; stroke-width: 1.0;" x1="3" x2="715.5" y1="264.9999" y2="264.9999"/><line style="stroke: #808080; stroke-width: 1.0;" x1="3" x2="715.5" y1="267.9999" y2="267.9999"/><rect fill="#808080" height="32" style="stroke: #808080; stroke-width: 2.0;" width="88" x="315.25" y="249.9999"/><text fill="#FFFFFF" font-family="Panton" font-size="20" font-weight="bold" lengthAdjust="spacingAndGlyphs" textLength="69" x="321.25" y="272.7999">Logging</text><polygon fill="#00AED2" points="514,342.9999,524,346.9999,514,350.9999,518,346.9999" style="stroke: #00AED2; stroke-width: 1.0;"/><line style="stroke: #00AED2; stroke-width: 3.0;" x1="55" x2="520" y1="346.9999" y2="346.9999"/><text fill="#000000" font-family="Panton" font-size="20" lengthAdjust="spacingAndGlyphs" textLength="342" x="62" y="339.7999">tf.summary.scalar('alpha', alpha, step=1)</text><polygon fill="#00AED2" points="537,356.9999,527,360.9999,537,364.9999,533,360.9999" style="stroke: #00AED2; stroke-width: 1.0;"/><line style="stroke: #00AED2; stroke-width: 3.0; stroke-dasharray: 2.0,2.0;" x1="531" x2="650" y1="360.9999" y2="360.9999"/><polygon fill="#00AED2" points="514,394.9999,524,398.9999,514,402.9999,518,398.9999" style="stroke: #00AED2; stroke-width: 1.0;"/><line style="stroke: #00AED2; stroke-width: 3.0;" x1="55" x2="520" y1="398.9999" y2="398.9999"/><text fill="#000000" font-family="Panton" font-size="20" lengthAdjust="spacingAndGlyphs" textLength="345" x="62" y="391.7999">tf.summary.scalar('alpha', alpha, step=2)</text><polygon fill="#00AED2" points="514,457.9998,524,461.9998,514,465.9998,518,461.9998" style="stroke: #00AED2; stroke-width: 1.0;"/><line style="stroke: #00AED2; stroke-width: 3.0;" x1="55" x2="520" y1="461.9998" y2="461.9998"/><text fill="#000000" font-family="Panton" font-size="20" lengthAdjust="spacingAndGlyphs" textLength="447" x="62" y="454.7998">tf.summary.histogram('distribution', probs, step=10)</text><polygon fill="#00AED2" points="537,471.9998,527,475.9998,537,479.9998,533,475.9998" style="stroke: #00AED2; stroke-width: 1.0;"/><line style="stroke: #00AED2; stroke-width: 3.0; stroke-dasharray: 2.0,2.0;" x1="531" x2="650" y1="475.9998" y2="475.9998"/><!--MD5=[9c90a3700ede32d27f440eb7ce225636]
@startuml
skinparam shadowing false
skinparam DefaultFontName Panton
skinparam DefaultFontSize 20

skinparam actor {
        BackgroundColor white
        BorderColor #536366
        FontColor  #536366
        }

skinparam note {
        BorderColor white
        BackgroundColor white
        FontColor #536366
}

skinparam entity {
        BackgroundColor lightgray
        BorderColor #536366
        FontColor  #00aed2
        }

skinparam database {
        BackgroundColor lightgray
        BorderColor #536366
        FontColor #536366
}

skinparam sequence {
        ArrowColor #00aed2
        ArrowThickness 3
        LifeLineBorderColor #536366
        LifeLineBAckgroundColor lightgray
        GroupBackgroundColor #f0f0f0
        GroupBorderColor #f0f0f0
        BoxBorderColor #f4f4f4
        BoxBackgroundColor #f4f4f4
        BoxFontColor #536366
        DividerBackgroundColor gray
        DividerBorderColor gray
        DividerFontColor white
}

skinparam BoxPadding 200


actor "your code" as User
database "File Storage" as FileStorage
entity "TensorBoard" as TensorBoard

== Initialization ==
|||
User -> FileStorage: tf.summary.create_file_writer(PATH).as_default()
|||
== Logging ==
|||
User -> FileStorage: tf.summary.scalar('alpha', alpha, step=1)
FileStorage <- - TensorBoard:
User -> FileStorage: tf.summary.scalar('alpha', alpha, step=2)
|||
User -> FileStorage: tf.summary.histogram('distribution', probs, step=10)
FileStorage <- - TensorBoard:
|||


@enduml

PlantUML version 1.2019.13(Tue Dec 10 18:18:29 CET 2019)
(GPL source distribution)
Java Runtime: OpenJDK Runtime Environment
JVM: OpenJDK 64-Bit Server VM
Java Version: 11.0.6+10-suse-1.1-x8664
Operating System: Linux
Default Encoding: UTF-8
Language: en
Country: US
--></g></svg>