<?xml version="1.0" encoding="UTF-8" standalone="no"?>
<!DOCTYPE svg PUBLIC "-//W3C//DTD SVG 1.1//EN"
 "http://www.w3.org/Graphics/SVG/1.1/DTD/svg11.dtd">
<!-- Generated by graphviz version 2.42.1 (0)
 -->
<!-- Title: match Pages: 1 -->
<svg width="624pt" height="483pt"
 viewBox="0.00 0.00 624.00 482.68" xmlns="http://www.w3.org/2000/svg" xmlns:xlink="http://www.w3.org/1999/xlink">
<g id="graph0" class="graph" transform="scale(1 1) rotate(0) translate(4 478.68)">
<title>match</title>
<polygon fill="white" stroke="transparent" points="-4,4 -4,-478.68 620,-478.68 620,4 -4,4"/>
<!-- tfrecords -->
<g id="node1" class="node">
<title>tfrecords</title>
<text text-anchor="middle" x="58" y="-452.88" font-family="Panton" font-size="16.00" fill="#606060">TFRecord files</text>
</g>
<!-- generate -->
<g id="node9" class="node">
<title>generate</title>
<ellipse fill="none" stroke="#00aed2" cx="180" cy="-371.56" rx="58.88" ry="31.23"/>
<text text-anchor="middle" x="180" y="-376.76" font-family="Panton bold" font-size="16.00" fill="#00aed2">generate</text>
<text text-anchor="middle" x="180" y="-358.76" font-family="Panton bold" font-size="16.00" fill="#00aed2">statistics</text>
</g>
<!-- tfrecords&#45;&gt;generate -->
<g id="edge1" class="edge">
<title>tfrecords&#45;&gt;generate</title>
<path fill="none" stroke="#606060" d="M82.98,-438.66C98.32,-428.21 118.39,-414.54 136.29,-402.34"/>
<polygon fill="#606060" stroke="#606060" points="138.58,-405.01 144.88,-396.49 134.64,-399.23 138.58,-405.01"/>
</g>
<!-- dataframe -->
<g id="node2" class="node">
<title>dataframe</title>
<text text-anchor="middle" x="180" y="-452.88" font-family="Panton" font-size="16.00" fill="#606060">DataFrame</text>
</g>
<!-- dataframe&#45;&gt;generate -->
<g id="edge2" class="edge">
<title>dataframe&#45;&gt;generate</title>
<path fill="none" stroke="#606060" d="M180,-438.46C180,-430.99 180,-421.91 180,-412.91"/>
<polygon fill="#606060" stroke="#606060" points="183.5,-412.87 180,-402.87 176.5,-412.87 183.5,-412.87"/>
</g>
<!-- csv -->
<g id="node3" class="node">
<title>csv</title>
<text text-anchor="middle" x="281" y="-452.88" font-family="Panton" font-size="16.00" fill="#606060">CSV File</text>
</g>
<!-- csv&#45;&gt;generate -->
<g id="edge3" class="edge">
<title>csv&#45;&gt;generate</title>
<path fill="none" stroke="#606060" d="M260.07,-438.46C248.29,-428.76 233.18,-416.33 219.28,-404.88"/>
<polygon fill="#606060" stroke="#606060" points="221.21,-401.94 211.26,-398.29 216.76,-407.34 221.21,-401.94"/>
</g>
<!-- tfrecords2 -->
<g id="node4" class="node">
<title>tfrecords2</title>
<text text-anchor="middle" x="356" y="-112.43" font-family="Panton" font-size="16.00" fill="#606060">TFRecord files</text>
</g>
<!-- validate -->
<g id="node12" class="node">
<title>validate</title>
<ellipse fill="none" stroke="#00aed2" cx="417" cy="-31.11" rx="56.64" ry="31.23"/>
<text text-anchor="middle" x="417" y="-36.31" font-family="Panton bold" font-size="16.00" fill="#00aed2">validate</text>
<text text-anchor="middle" x="417" y="-18.31" font-family="Panton bold" font-size="16.00" fill="#00aed2">new data</text>
</g>
<!-- tfrecords2&#45;&gt;validate -->
<g id="edge9" class="edge">
<title>tfrecords2&#45;&gt;validate</title>
<path fill="none" stroke="#606060" d="M368.64,-98C374.97,-89.38 382.89,-78.58 390.48,-68.25"/>
<polygon fill="#606060" stroke="#606060" points="393.36,-70.24 396.45,-60.11 387.71,-66.1 393.36,-70.24"/>
</g>
<!-- dataframe2 -->
<g id="node5" class="node">
<title>dataframe2</title>
<text text-anchor="middle" x="478" y="-112.43" font-family="Panton" font-size="16.00" fill="#606060">DataFrame</text>
</g>
<!-- dataframe2&#45;&gt;validate -->
<g id="edge10" class="edge">
<title>dataframe2&#45;&gt;validate</title>
<path fill="none" stroke="#606060" d="M465.36,-98C459.03,-89.38 451.11,-78.58 443.52,-68.25"/>
<polygon fill="#606060" stroke="#606060" points="446.29,-66.1 437.55,-60.11 440.64,-70.24 446.29,-66.1"/>
</g>
<!-- csv2 -->
<g id="node6" class="node">
<title>csv2</title>
<text text-anchor="middle" x="579" y="-112.43" font-family="Panton" font-size="16.00" fill="#606060">CSV File</text>
</g>
<!-- csv2&#45;&gt;validate -->
<g id="edge11" class="edge">
<title>csv2&#45;&gt;validate</title>
<path fill="none" stroke="#606060" d="M545.83,-98.21C523.07,-86.53 492.47,-70.83 466.8,-57.66"/>
<polygon fill="#606060" stroke="#606060" points="468.09,-54.39 457.6,-52.94 464.89,-60.62 468.09,-54.39"/>
</g>
<!-- statistics -->
<g id="node7" class="node">
<title>statistics</title>
<text text-anchor="middle" x="180" y="-282.65" font-family="Panton bold" font-size="16.00" fill="#606060">statistics</text>
</g>
<!-- visualize -->
<g id="node10" class="node">
<title>visualize</title>
<ellipse fill="none" stroke="#00aed2" cx="116" cy="-201.34" rx="58.88" ry="31.23"/>
<text text-anchor="middle" x="116" y="-206.54" font-family="Panton bold" font-size="16.00" fill="#00aed2">visualize</text>
<text text-anchor="middle" x="116" y="-188.54" font-family="Panton bold" font-size="16.00" fill="#00aed2">statistics</text>
</g>
<!-- statistics&#45;&gt;visualize -->
<g id="edge5" class="edge">
<title>statistics&#45;&gt;visualize</title>
<path fill="none" stroke="#606060" d="M166.74,-268.23C160.09,-259.6 151.79,-248.81 143.83,-238.47"/>
<polygon fill="#606060" stroke="#606060" points="146.43,-236.12 137.56,-230.33 140.89,-240.39 146.43,-236.12"/>
</g>
<!-- infer -->
<g id="node11" class="node">
<title>infer</title>
<ellipse fill="none" stroke="#00aed2" cx="244" cy="-201.34" rx="50.82" ry="31.23"/>
<text text-anchor="middle" x="244" y="-206.54" font-family="Panton bold" font-size="16.00" fill="#00aed2">infer</text>
<text text-anchor="middle" x="244" y="-188.54" font-family="Panton bold" font-size="16.00" fill="#00aed2">schema</text>
</g>
<!-- statistics&#45;&gt;infer -->
<g id="edge6" class="edge">
<title>statistics&#45;&gt;infer</title>
<path fill="none" stroke="#606060" d="M193.26,-268.23C200.09,-259.36 208.67,-248.22 216.83,-237.62"/>
<polygon fill="#606060" stroke="#606060" points="219.62,-239.74 222.95,-229.68 214.07,-235.47 219.62,-239.74"/>
</g>
<!-- schema -->
<g id="node8" class="node">
<title>schema</title>
<text text-anchor="middle" x="244" y="-112.43" font-family="Panton bold" font-size="16.00" fill="#606060">schema</text>
</g>
<!-- schema&#45;&gt;validate -->
<g id="edge8" class="edge">
<title>schema&#45;&gt;validate</title>
<path fill="none" stroke="#606060" d="M279.43,-98.21C304.38,-86.22 338.18,-69.98 366.03,-56.6"/>
<polygon fill="#606060" stroke="#606060" points="367.72,-59.67 375.22,-52.18 364.69,-53.36 367.72,-59.67"/>
</g>
<!-- generate&#45;&gt;statistics -->
<g id="edge4" class="edge">
<title>generate&#45;&gt;statistics</title>
<path fill="none" stroke="#606060" d="M180,-340.09C180,-331.84 180,-322.97 180,-314.9"/>
<polygon fill="#606060" stroke="#606060" points="183.5,-314.87 180,-304.87 176.5,-314.87 183.5,-314.87"/>
</g>
<!-- infer&#45;&gt;schema -->
<g id="edge7" class="edge">
<title>infer&#45;&gt;schema</title>
<path fill="none" stroke="#606060" d="M244,-169.86C244,-161.62 244,-152.74 244,-144.67"/>
<polygon fill="#606060" stroke="#606060" points="247.5,-144.65 244,-134.65 240.5,-144.65 247.5,-144.65"/>
</g>
</g>
</svg>
