<?xml version="1.0" encoding="UTF-8" standalone="no"?>
<!DOCTYPE svg PUBLIC "-//W3C//DTD SVG 1.1//EN"
 "http://www.w3.org/Graphics/SVG/1.1/DTD/svg11.dtd">
<!-- Generated by graphviz version 2.42.1 (0)
 -->
<!-- Title: match Pages: 1 -->
<svg width="502pt" height="114pt"
 viewBox="0.00 0.00 502.35 114.00" xmlns="http://www.w3.org/2000/svg" xmlns:xlink="http://www.w3.org/1999/xlink">
<g id="graph0" class="graph" transform="scale(1 1) rotate(0) translate(4 110)">
<title>match</title>
<polygon fill="white" stroke="transparent" points="-4,4 -4,-110 498.35,-110 498.35,4 -4,4"/>
<!-- digit1 -->
<g id="node1" class="node">
<title>digit1</title>
<text text-anchor="middle" x="33" y="-89.2" font-family="Panton" font-size="16.00" fill="#536366">first</text>
<text text-anchor="middle" x="33" y="-71.2" font-family="Panton" font-size="16.00" fill="#536366">digit x1</text>
</g>
<!-- model1 -->
<g id="node3" class="node">
<title>model1</title>
<ellipse fill="none" stroke="#536366" cx="175.54" cy="-82" rx="73.58" ry="18.27"/>
<text text-anchor="middle" x="175.54" y="-78.2" font-family="Panton" font-size="16.00" fill="#536366">our classifier</text>
</g>
<!-- digit1&#45;&gt;model1 -->
<g id="edge1" class="edge">
<title>digit1&#45;&gt;model1</title>
<path fill="none" stroke="#536366" d="M64.84,-83.56C73.06,-83.44 82.34,-83.31 91.93,-83.18"/>
<polygon fill="#536366" stroke="#536366" points="92.07,-86.67 102.02,-83.03 91.97,-79.67 92.07,-86.67"/>
</g>
<!-- digit2 -->
<g id="node2" class="node">
<title>digit2</title>
<text text-anchor="middle" x="33" y="-27.2" font-family="Panton" font-size="16.00" fill="#536366">first</text>
<text text-anchor="middle" x="33" y="-9.2" font-family="Panton" font-size="16.00" fill="#536366">digit x2</text>
</g>
<!-- model2 -->
<g id="node4" class="node">
<title>model2</title>
<ellipse fill="none" stroke="#536366" cx="175.54" cy="-25" rx="73.58" ry="18.27"/>
<text text-anchor="middle" x="175.54" y="-21.2" font-family="Panton" font-size="16.00" fill="#536366">our classifier</text>
</g>
<!-- digit2&#45;&gt;model2 -->
<g id="edge4" class="edge">
<title>digit2&#45;&gt;model2</title>
<path fill="none" stroke="#536366" d="M66.24,-22.69C74.07,-22.86 82.81,-23.04 91.82,-23.23"/>
<polygon fill="#536366" stroke="#536366" points="92.01,-26.74 102.09,-23.45 92.16,-19.74 92.01,-26.74"/>
</g>
<!-- merge -->
<g id="node5" class="node">
<title>merge</title>
<ellipse fill="none" stroke="#00ade2" cx="328.21" cy="-52" rx="43.27" ry="18.27"/>
<text text-anchor="middle" x="328.21" y="-48.2" font-family="Panton bold" font-size="16.00" fill="#00ade2">merge</text>
</g>
<!-- model1&#45;&gt;merge -->
<g id="edge2" class="edge">
<title>model1&#45;&gt;merge</title>
<path fill="none" stroke="#536366" d="M233.5,-70.66C248.39,-67.69 264.3,-64.53 278.7,-61.66"/>
<polygon fill="#536366" stroke="#536366" points="279.76,-65.02 288.88,-59.63 278.39,-58.15 279.76,-65.02"/>
</g>
<!-- model2&#45;&gt;merge -->
<g id="edge5" class="edge">
<title>model2&#45;&gt;merge</title>
<path fill="none" stroke="#536366" d="M235.66,-35.59C249.72,-38.11 264.57,-40.77 278.12,-43.2"/>
<polygon fill="#536366" stroke="#536366" points="277.74,-46.69 288.2,-45.01 278.97,-39.8 277.74,-46.69"/>
</g>
<!-- output -->
<g id="node6" class="node">
<title>output</title>
<text text-anchor="middle" x="450.85" y="-57.2" font-family="Panton" font-size="16.00" fill="#536366">matching</text>
<text text-anchor="middle" x="450.85" y="-39.2" font-family="Panton" font-size="16.00" fill="#536366">probability</text>
</g>
<!-- merge&#45;&gt;output -->
<g id="edge3" class="edge">
<title>merge&#45;&gt;output</title>
<path fill="none" stroke="#536366" d="M371.4,-52C379.62,-52 388.32,-52 396.83,-52"/>
<polygon fill="#536366" stroke="#536366" points="397.07,-55.5 407.06,-52 397.06,-48.5 397.07,-55.5"/>
</g>
</g>
</svg>
