<?xml version="1.0" encoding="UTF-8" standalone="no"?>
<!DOCTYPE svg PUBLIC "-//W3C//DTD SVG 1.1//EN"
 "http://www.w3.org/Graphics/SVG/1.1/DTD/svg11.dtd">
<!-- Generated by graphviz version 2.42.1 (0)
 -->
<!-- Title: match Pages: 1 -->
<svg width="580pt" height="296pt"
 viewBox="0.00 0.00 579.93 295.87" xmlns="http://www.w3.org/2000/svg" xmlns:xlink="http://www.w3.org/1999/xlink">
<g id="graph0" class="graph" transform="scale(1 1) rotate(0) translate(4 291.87)">
<title>match</title>
<polygon fill="white" stroke="transparent" points="-4,4 -4,-291.87 575.93,-291.87 575.93,4 -4,4"/>
<!-- generate -->
<g id="node1" class="node">
<title>generate</title>
<ellipse fill="none" stroke="#00aed2" cx="209.98" cy="-198" rx="57.97" ry="26.74"/>
<text text-anchor="middle" x="209.98" y="-201.8" font-family="Times,serif" font-size="14.00" fill="#00aed2">generate</text>
<text text-anchor="middle" x="209.98" y="-186.8" font-family="Times,serif" font-size="14.00" fill="#00aed2">statistics</text>
</g>
<!-- statistics -->
<g id="node11" class="node">
<title>statistics</title>
<text text-anchor="middle" x="361.97" y="-194.2" font-family="Panton bold" font-size="16.00" fill="#606060">statistics</text>
</g>
<!-- generate&#45;&gt;statistics -->
<g id="edge4" class="edge">
<title>generate&#45;&gt;statistics</title>
<path fill="none" stroke="#606060" d="M268.11,-198C281.97,-198 296.68,-198 310.22,-198"/>
<polygon fill="#606060" stroke="#606060" points="310.31,-201.5 320.31,-198 310.31,-194.5 310.31,-201.5"/>
</g>
<!-- visualize -->
<g id="node2" class="node">
<title>visualize</title>
<ellipse fill="none" stroke="#00aed2" cx="361.97" cy="-261" rx="57.97" ry="26.74"/>
<text text-anchor="middle" x="361.97" y="-264.8" font-family="Times,serif" font-size="14.00" fill="#00aed2">visualize</text>
<text text-anchor="middle" x="361.97" y="-249.8" font-family="Times,serif" font-size="14.00" fill="#00aed2">statistics</text>
</g>
<!-- visualize&#45;&gt;statistics -->
<g id="edge5" class="edge">
<title>visualize&#45;&gt;statistics</title>
<path fill="none" stroke="#606060" d="M361.97,-224.02C361.97,-221.42 361.97,-218.81 361.97,-216.21"/>
<polygon fill="#606060" stroke="#606060" points="358.47,-224.06 361.97,-234.06 365.47,-224.06 358.47,-224.06"/>
</g>
<!-- infer -->
<g id="node3" class="node">
<title>infer</title>
<ellipse fill="none" stroke="#00aed2" cx="513.95" cy="-198" rx="50.41" ry="26.74"/>
<text text-anchor="middle" x="513.95" y="-201.8" font-family="Times,serif" font-size="14.00" fill="#00aed2">infer</text>
<text text-anchor="middle" x="513.95" y="-186.8" font-family="Times,serif" font-size="14.00" fill="#00aed2">schema</text>
</g>
<!-- schema -->
<g id="node12" class="node">
<title>schema</title>
<text text-anchor="middle" x="513.95" y="-131.2" font-family="Panton bold" font-size="16.00" fill="#606060">schema</text>
</g>
<!-- infer&#45;&gt;schema -->
<g id="edge7" class="edge">
<title>infer&#45;&gt;schema</title>
<path fill="none" stroke="#606060" d="M513.95,-171.06C513.95,-168.45 513.95,-165.85 513.95,-163.25"/>
<polygon fill="#606060" stroke="#606060" points="517.45,-163.21 513.95,-153.21 510.45,-163.21 517.45,-163.21"/>
</g>
<!-- validate -->
<g id="node4" class="node">
<title>validate</title>
<ellipse fill="none" stroke="#00aed2" cx="513.95" cy="-72" rx="57.97" ry="26.74"/>
<text text-anchor="middle" x="513.95" y="-75.8" font-family="Times,serif" font-size="14.00" fill="#00aed2">validate</text>
<text text-anchor="middle" x="513.95" y="-60.8" font-family="Times,serif" font-size="14.00" fill="#00aed2">new data</text>
</g>
<!-- tfrecords -->
<g id="node5" class="node">
<title>tfrecords</title>
<text text-anchor="middle" x="58" y="-248.2" font-family="Panton" font-size="16.00" fill="#606060">TFRecord files</text>
</g>
<!-- tfrecords&#45;&gt;generate -->
<g id="edge1" class="edge">
<title>tfrecords&#45;&gt;generate</title>
<path fill="none" stroke="#606060" d="M109.36,-233.87C123.74,-228.69 139.48,-223.02 154.12,-217.75"/>
<polygon fill="#606060" stroke="#606060" points="155.33,-221.04 163.55,-214.36 152.95,-214.45 155.33,-221.04"/>
</g>
<!-- dataframe -->
<g id="node6" class="node">
<title>dataframe</title>
<text text-anchor="middle" x="58" y="-194.2" font-family="Panton" font-size="16.00" fill="#606060">DataFrame</text>
</g>
<!-- dataframe&#45;&gt;generate -->
<g id="edge2" class="edge">
<title>dataframe&#45;&gt;generate</title>
<path fill="none" stroke="#606060" d="M104.41,-198C116.18,-198 129.1,-198 141.73,-198"/>
<polygon fill="#606060" stroke="#606060" points="141.77,-201.5 151.77,-198 141.77,-194.5 141.77,-201.5"/>
</g>
<!-- csv -->
<g id="node7" class="node">
<title>csv</title>
<text text-anchor="middle" x="58" y="-140.2" font-family="Panton" font-size="16.00" fill="#606060">CSV File</text>
</g>
<!-- csv&#45;&gt;generate -->
<g id="edge3" class="edge">
<title>csv&#45;&gt;generate</title>
<path fill="none" stroke="#606060" d="M95.31,-157.07C112.96,-163.43 134.56,-171.21 154.17,-178.27"/>
<polygon fill="#606060" stroke="#606060" points="153.02,-181.57 163.61,-181.66 155.39,-174.98 153.02,-181.57"/>
</g>
<!-- tfrecords2 -->
<g id="node8" class="node">
<title>tfrecords2</title>
<text text-anchor="middle" x="361.97" y="-122.2" font-family="Panton" font-size="16.00" fill="#606060">TFRecord files</text>
</g>
<!-- tfrecords2&#45;&gt;validate -->
<g id="edge9" class="edge">
<title>tfrecords2&#45;&gt;validate</title>
<path fill="none" stroke="#606060" d="M413.32,-107.87C427.71,-102.69 443.45,-97.02 458.08,-91.75"/>
<polygon fill="#606060" stroke="#606060" points="459.29,-95.04 467.51,-88.36 456.92,-88.45 459.29,-95.04"/>
</g>
<!-- dataframe2 -->
<g id="node9" class="node">
<title>dataframe2</title>
<text text-anchor="middle" x="361.97" y="-68.2" font-family="Panton" font-size="16.00" fill="#606060">DataFrame</text>
</g>
<!-- dataframe2&#45;&gt;validate -->
<g id="edge10" class="edge">
<title>dataframe2&#45;&gt;validate</title>
<path fill="none" stroke="#606060" d="M408.37,-72C420.14,-72 433.07,-72 445.7,-72"/>
<polygon fill="#606060" stroke="#606060" points="445.74,-75.5 455.74,-72 445.74,-68.5 445.74,-75.5"/>
</g>
<!-- csv2 -->
<g id="node10" class="node">
<title>csv2</title>
<text text-anchor="middle" x="361.97" y="-14.2" font-family="Panton" font-size="16.00" fill="#606060">CSV File</text>
</g>
<!-- csv2&#45;&gt;validate -->
<g id="edge11" class="edge">
<title>csv2&#45;&gt;validate</title>
<path fill="none" stroke="#606060" d="M399.27,-31.07C416.93,-37.43 438.53,-45.21 458.14,-52.27"/>
<polygon fill="#606060" stroke="#606060" points="456.98,-55.57 467.58,-55.66 459.35,-48.98 456.98,-55.57"/>
</g>
<!-- statistics&#45;&gt;infer -->
<g id="edge6" class="edge">
<title>statistics&#45;&gt;infer</title>
<path fill="none" stroke="#606060" d="M403.55,-198C418.86,-198 436.6,-198 453.28,-198"/>
<polygon fill="#606060" stroke="#606060" points="453.5,-201.5 463.5,-198 453.5,-194.5 453.5,-201.5"/>
</g>
<!-- schema&#45;&gt;validate -->
<g id="edge8" class="edge">
<title>schema&#45;&gt;validate</title>
<path fill="none" stroke="#606060" d="M513.95,-116.75C513.95,-114.27 513.95,-111.78 513.95,-109.29"/>
<polygon fill="#606060" stroke="#606060" points="517.45,-109.07 513.95,-99.07 510.45,-109.07 517.45,-109.07"/>
</g>
</g>
</svg>
