<?xml version="1.0" encoding="UTF-8" standalone="no"?>
<!DOCTYPE svg PUBLIC "-//W3C//DTD SVG 1.1//EN"
 "http://www.w3.org/Graphics/SVG/1.1/DTD/svg11.dtd">
<!-- Generated by graphviz version 2.42.1 (0)
 -->
<!-- Title: stack Pages: 1 -->
<svg width="390pt" height="152pt"
 viewBox="0.00 0.00 390.00 152.00" xmlns="http://www.w3.org/2000/svg" xmlns:xlink="http://www.w3.org/1999/xlink">
<g id="graph0" class="graph" transform="scale(1 1) rotate(0) translate(4 148)">
<title>stack</title>
<polygon fill="white" stroke="transparent" points="-4,4 -4,-148 386,-148 386,4 -4,4"/>
<!-- x1 -->
<g id="node1" class="node">
<title>x1</title>
<text text-anchor="middle" x="27" y="-99.2" font-family="Panton" font-size="16.00" fill="#323232">x1</text>
</g>
<!-- cnn1 -->
<g id="node6" class="node">
<title>cnn1</title>
<polygon fill="none" stroke="#323232" points="197,-125 90,-125 90,-81 197,-81 197,-125"/>
<text text-anchor="middle" x="143.5" y="-108.2" font-family="Panton" font-size="16.00" fill="#323232">convolutional</text>
<text text-anchor="middle" x="143.5" y="-90.2" font-family="Panton" font-size="16.00" fill="#323232">layer</text>
</g>
<!-- x1&#45;&gt;cnn1 -->
<g id="edge1" class="edge">
<title>x1&#45;&gt;cnn1</title>
<path fill="none" stroke="#323232" d="M54.27,-103C61.94,-103 70.68,-103 79.61,-103"/>
<polygon fill="#323232" stroke="#323232" points="79.71,-106.5 89.71,-103 79.71,-99.5 79.71,-106.5"/>
</g>
<!-- x2 -->
<g id="node2" class="node">
<title>x2</title>
<text text-anchor="middle" x="27" y="-37.2" font-family="Panton" font-size="16.00" fill="#323232">x2</text>
</g>
<!-- cnn2 -->
<g id="node7" class="node">
<title>cnn2</title>
<polygon fill="none" stroke="#323232" points="197,-63 90,-63 90,-19 197,-19 197,-63"/>
<text text-anchor="middle" x="143.5" y="-46.2" font-family="Panton" font-size="16.00" fill="#323232">convolutional</text>
<text text-anchor="middle" x="143.5" y="-28.2" font-family="Panton" font-size="16.00" fill="#323232">layer</text>
</g>
<!-- x2&#45;&gt;cnn2 -->
<g id="edge3" class="edge">
<title>x2&#45;&gt;cnn2</title>
<path fill="none" stroke="#323232" d="M54.27,-41C61.94,-41 70.68,-41 79.61,-41"/>
<polygon fill="#323232" stroke="#323232" points="79.71,-44.5 89.71,-41 79.71,-37.5 79.71,-44.5"/>
</g>
<!-- y1 -->
<g id="node3" class="node">
<title>y1</title>
<text text-anchor="middle" x="355" y="-122.2" font-family="Panton" font-size="16.00" fill="#323232">y1</text>
</g>
<!-- y2 -->
<g id="node4" class="node">
<title>y2</title>
<text text-anchor="middle" x="355" y="-68.2" font-family="Panton" font-size="16.00" fill="#323232">y2</text>
</g>
<!-- y3 -->
<g id="node5" class="node">
<title>y3</title>
<text text-anchor="middle" x="355" y="-14.2" font-family="Panton" font-size="16.00" fill="#323232">y3</text>
</g>
<!-- dense -->
<g id="node8" class="node">
<title>dense</title>
<polygon fill="none" stroke="#323232" points="292,-94 233,-94 233,-50 292,-50 292,-94"/>
<text text-anchor="middle" x="262.5" y="-77.2" font-family="Panton" font-size="16.00" fill="#323232">dense</text>
<text text-anchor="middle" x="262.5" y="-59.2" font-family="Panton" font-size="16.00" fill="#323232">layer</text>
</g>
<!-- cnn1&#45;&gt;dense -->
<g id="edge2" class="edge">
<title>cnn1&#45;&gt;dense</title>
<path fill="none" stroke="#323232" d="M197.18,-89.04C205.89,-86.73 214.78,-84.38 223.05,-82.19"/>
<polygon fill="#323232" stroke="#323232" points="224.02,-85.55 232.79,-79.61 222.23,-78.78 224.02,-85.55"/>
</g>
<!-- cnn2&#45;&gt;dense -->
<g id="edge4" class="edge">
<title>cnn2&#45;&gt;dense</title>
<path fill="none" stroke="#323232" d="M197.18,-54.96C205.89,-57.27 214.78,-59.62 223.05,-61.81"/>
<polygon fill="#323232" stroke="#323232" points="222.23,-65.22 232.79,-64.39 224.02,-58.45 222.23,-65.22"/>
</g>
<!-- dense&#45;&gt;y1 -->
<g id="edge5" class="edge">
<title>dense&#45;&gt;y1</title>
<path fill="none" stroke="#323232" d="M292.13,-89.09C300.68,-94.18 310.14,-99.83 319.04,-105.14"/>
<polygon fill="#323232" stroke="#323232" points="317.32,-108.19 327.7,-110.31 320.91,-102.18 317.32,-108.19"/>
</g>
<!-- dense&#45;&gt;y2 -->
<g id="edge6" class="edge">
<title>dense&#45;&gt;y2</title>
<path fill="none" stroke="#323232" d="M292.13,-72C300.23,-72 309.16,-72 317.65,-72"/>
<polygon fill="#323232" stroke="#323232" points="317.7,-75.5 327.7,-72 317.7,-68.5 317.7,-75.5"/>
</g>
<!-- dense&#45;&gt;y3 -->
<g id="edge7" class="edge">
<title>dense&#45;&gt;y3</title>
<path fill="none" stroke="#323232" d="M292.13,-54.91C300.68,-49.82 310.14,-44.17 319.04,-38.86"/>
<polygon fill="#323232" stroke="#323232" points="320.91,-41.82 327.7,-33.69 317.32,-35.81 320.91,-41.82"/>
</g>
</g>
</svg>
