<?xml version="1.0" encoding="UTF-8" standalone="no"?><svg xmlns="http://www.w3.org/2000/svg" xmlns:xlink="http://www.w3.org/1999/xlink" contentScriptType="application/ecmascript" contentStyleType="text/css" height="661px" preserveAspectRatio="none" style="width:746px;height:661px;" version="1.1" viewBox="0 0 746 661" width="746px" zoomAndPan="magnify"><defs/><g><line style="stroke: #666666; stroke-width: 1.0; stroke-dasharray: 5.0,5.0;" x1="55" x2="55" y1="90" y2="566.9998"/><line style="stroke: #666666; stroke-width: 1.0; stroke-dasharray: 5.0,5.0;" x1="525.5" x2="525.5" y1="90" y2="566.9998"/><line style="stroke: #666666; stroke-width: 1.0; stroke-dasharray: 5.0,5.0;" x1="669.5" x2="669.5" y1="90" y2="566.9998"/><text fill="#666666" font-family="Panton" font-size="20" lengthAdjust="spacingAndGlyphs" textLength="88" x="8" y="84.8">your code</text><ellipse cx="55" cy="13" fill="#FFFFFF" rx="8" ry="8" style="stroke: #666666; stroke-width: 2.0;"/><path d="M55,21 L55,48 M42,29 L68,29 M55,48 L42,63 M55,48 L68,63 " fill="none" style="stroke: #666666; stroke-width: 2.0;"/><text fill="#666666" font-family="Panton" font-size="20" lengthAdjust="spacingAndGlyphs" textLength="88" x="8" y="584.7998">your code</text><ellipse cx="55" cy="599.9998" fill="#FFFFFF" rx="8" ry="8" style="stroke: #666666; stroke-width: 2.0;"/><path d="M55,607.9998 L55,634.9998 M42,615.9998 L68,615.9998 M55,634.9998 L42,649.9998 M55,634.9998 L68,649.9998 " fill="none" style="stroke: #666666; stroke-width: 2.0;"/><text fill="#666666" font-family="Panton" font-size="20" lengthAdjust="spacingAndGlyphs" textLength="105" x="470.5" y="84.8">File Storage</text><path d="M508,30 C508,20 526,20 526,20 C526,20 544,20 544,30 L544,56 C544,66 526,66 526,66 C526,66 508,66 508,56 L508,30 " fill="#D3D3D3" style="stroke: #666666; stroke-width: 1.5;"/><path d="M508,30 C508,40 526,40 526,40 C526,40 544,40 544,30 " fill="none" style="stroke: #666666; stroke-width: 1.5;"/><text fill="#666666" font-family="Panton" font-size="20" lengthAdjust="spacingAndGlyphs" textLength="105" x="470.5" y="584.7998">File Storage</text><path d="M508,599.9998 C508,589.9998 526,589.9998 526,589.9998 C526,589.9998 544,589.9998 544,599.9998 L544,625.9998 C544,635.9998 526,635.9998 526,635.9998 C526,635.9998 508,635.9998 508,625.9998 L508,599.9998 " fill="#D3D3D3" style="stroke: #666666; stroke-width: 1.5;"/><path d="M508,599.9998 C508,609.9998 526,609.9998 526,609.9998 C526,609.9998 544,609.9998 544,599.9998 " fill="none" style="stroke: #666666; stroke-width: 1.5;"/><text fill="#00AED2" font-family="Panton" font-size="20" lengthAdjust="spacingAndGlyphs" textLength="113" x="610.5" y="84.8">TensorBoard</text><ellipse cx="670" cy="50" fill="#D3D3D3" rx="12" ry="12" style="stroke: #666666; stroke-width: 2.0;"/><line style="stroke: #666666; stroke-width: 2.0;" x1="658" x2="682" y1="64" y2="64"/><text fill="#00AED2" font-family="Panton" font-size="20" lengthAdjust="spacingAndGlyphs" textLength="113" x="610.5" y="584.7998">TensorBoard</text><ellipse cx="670" cy="605.9998" fill="#D3D3D3" rx="12" ry="12" style="stroke: #666666; stroke-width: 2.0;"/><line style="stroke: #666666; stroke-width: 2.0;" x1="658" x2="682" y1="619.9998" y2="619.9998"/><rect fill="#808080" height="3" style="stroke: #808080; stroke-width: 1.0;" width="731.5" x="3" y="125"/><line style="stroke: #808080; stroke-width: 1.0;" x1="3" x2="734.5" y1="125" y2="125"/><line style="stroke: #808080; stroke-width: 1.0;" x1="3" x2="734.5" y1="128" y2="128"/><rect fill="#808080" height="32" style="stroke: #808080; stroke-width: 2.0;" width="120" x="308.75" y="110"/><text fill="#FFFFFF" font-family="Panton" font-size="20" font-weight="bold" lengthAdjust="spacingAndGlyphs" textLength="101" x="314.75" y="132.8">Initialization</text><polygon fill="#00AED2" points="514,202.9999,524,206.9999,514,210.9999,518,206.9999" style="stroke: #00AED2; stroke-width: 1.0;"/><line style="stroke: #00AED2; stroke-width: 3.0;" x1="55" x2="520" y1="206.9999" y2="206.9999"/><text fill="#000000" font-family="Panton" font-size="20" lengthAdjust="spacingAndGlyphs" textLength="421" x="62" y="199.7999">tf.summary.create_file_writer(PATH).as_default()</text><rect fill="#808080" height="3" style="stroke: #808080; stroke-width: 1.0;" width="731.5" x="3" y="264.9999"/><line style="stroke: #808080; stroke-width: 1.0;" x1="3" x2="734.5" y1="264.9999" y2="264.9999"/><line style="stroke: #808080; stroke-width: 1.0;" x1="3" x2="734.5" y1="267.9999" y2="267.9999"/><rect fill="#808080" height="32" style="stroke: #808080; stroke-width: 2.0;" width="88" x="324.75" y="249.9999"/><text fill="#FFFFFF" font-family="Panton" font-size="20" font-weight="bold" lengthAdjust="spacingAndGlyphs" textLength="69" x="330.75" y="272.7999">Logging</text><polygon fill="#00AED2" points="514,342.9999,524,346.9999,514,350.9999,518,346.9999" style="stroke: #00AED2; stroke-width: 1.0;"/><line style="stroke: #00AED2; stroke-width: 3.0;" x1="55" x2="520" y1="346.9999" y2="346.9999"/><text fill="#000000" font-family="Panton" font-size="20" lengthAdjust="spacingAndGlyphs" textLength="342" x="62" y="339.7999">tf.summary.scalar('alpha', alpha, step=1)</text><polygon fill="#00AED2" points="537,380.9999,527,384.9999,537,388.9999,533,384.9999" style="stroke: #00AED2; stroke-width: 1.0;"/><line style="stroke: #00AED2; stroke-width: 3.0; stroke-dasharray: 2.0,2.0;" x1="531" x2="669" y1="384.9999" y2="384.9999"/><text fill="#000000" font-family="Panton" font-size="20" lengthAdjust="spacingAndGlyphs" textLength="120" x="543" y="377.7999">track updates</text><polygon fill="#00AED2" points="514,418.9998,524,422.9998,514,426.9998,518,422.9998" style="stroke: #00AED2; stroke-width: 1.0;"/><line style="stroke: #00AED2; stroke-width: 3.0;" x1="55" x2="520" y1="422.9998" y2="422.9998"/><text fill="#000000" font-family="Panton" font-size="20" lengthAdjust="spacingAndGlyphs" textLength="345" x="62" y="415.7998">tf.summary.scalar('alpha', alpha, step=2)</text><polygon fill="#00AED2" points="514,481.9998,524,485.9998,514,489.9998,518,485.9998" style="stroke: #00AED2; stroke-width: 1.0;"/><line style="stroke: #00AED2; stroke-width: 3.0;" x1="55" x2="520" y1="485.9998" y2="485.9998"/><text fill="#000000" font-family="Panton" font-size="20" lengthAdjust="spacingAndGlyphs" textLength="447" x="62" y="478.7998">tf.summary.histogram('distribution', probs, step=10)</text><polygon fill="#00AED2" points="537,519.9998,527,523.9998,537,527.9998,533,523.9998" style="stroke: #00AED2; stroke-width: 1.0;"/><line style="stroke: #00AED2; stroke-width: 3.0; stroke-dasharray: 2.0,2.0;" x1="531" x2="669" y1="523.9998" y2="523.9998"/><text fill="#000000" font-family="Panton" font-size="20" lengthAdjust="spacingAndGlyphs" textLength="120" x="543" y="516.7998">track updates</text><!--MD5=[b34f01f5897f3c2cf4eb541cd0cd448f]
@startuml
skinparam shadowing false
skinparam DefaultFontName Panton
skinparam DefaultFontSize 20

skinparam actor {
        BackgroundColor white
        BorderColor #666
        FontColor  #666
        }

skinparam note {
        BorderColor white
        BackgroundColor white
        FontColor #666
}

skinparam entity {
        BackgroundColor lightgray
        BorderColor #666
        FontColor  #00aed2
        }

skinparam database {
        BackgroundColor lightgray
        BorderColor #666
        FontColor #666
}

skinparam sequence {
        ArrowColor #00aed2
        ArrowThickness 3
        LifeLineBorderColor #666
        LifeLineBAckgroundColor lightgray
        GroupBackgroundColor #f0f0f0
        GroupBorderColor #f0f0f0
        BoxBorderColor #f4f4f4
        BoxBackgroundColor #f4f4f4
        BoxFontColor #666
        DividerBackgroundColor gray
        DividerBorderColor gray
        DividerFontColor white
}

skinparam BoxPadding 200


actor "your code" as User
database "File Storage" as FileStorage
entity "TensorBoard" as TensorBoard

== Initialization ==
|||
User -> FileStorage: tf.summary.create_file_writer(PATH).as_default()
|||
== Logging ==
|||
User -> FileStorage: tf.summary.scalar('alpha', alpha, step=1)
FileStorage <- - TensorBoard : track updates
User -> FileStorage: tf.summary.scalar('alpha', alpha, step=2)
|||
User -> FileStorage: tf.summary.histogram('distribution', probs, step=10)
FileStorage <- - TensorBoard : track updates
|||


@enduml

PlantUML version 1.2019.13(Tue Dec 10 18:18:29 CET 2019)
(GPL source distribution)
Java Runtime: OpenJDK Runtime Environment
JVM: OpenJDK 64-Bit Server VM
Java Version: 11.0.6+10-suse-1.1-x8664
Operating System: Linux
Default Encoding: UTF-8
Language: en
Country: US
--></g></svg>