<?xml version="1.0" encoding="UTF-8" standalone="no"?>
<!DOCTYPE svg PUBLIC "-//W3C//DTD SVG 1.1//EN"
 "http://www.w3.org/Graphics/SVG/1.1/DTD/svg11.dtd">
<!-- Generated by graphviz version 2.42.1 (0)
 -->
<!-- Title: match Pages: 1 -->
<svg width="391pt" height="100pt"
 viewBox="0.00 0.00 390.88 99.77" xmlns="http://www.w3.org/2000/svg" xmlns:xlink="http://www.w3.org/1999/xlink">
<g id="graph0" class="graph" transform="scale(1 1) rotate(0) translate(4 95.77)">
<title>match</title>
<polygon fill="white" stroke="transparent" points="-4,4 -4,-95.77 386.88,-95.77 386.88,4 -4,4"/>
<!-- digit1 -->
<g id="node1" class="node">
<title>digit1</title>
</g>
<!-- model1 -->
<g id="node3" class="node">
<title>model1</title>
<ellipse fill="none" stroke="#536366" cx="130.31" cy="-73.38" rx="40.11" ry="18.27"/>
<text text-anchor="middle" x="130.31" y="-69.58" font-family="Panton" font-size="16.00" fill="#536366">model</text>
</g>
<!-- digit1&#45;&gt;model1 -->
<g id="edge1" class="edge">
<title>digit1&#45;&gt;model1</title>
<path fill="none" stroke="#536366" d="M54.09,-73.38C61.93,-73.38 70.8,-73.38 79.63,-73.38"/>
<polygon fill="#536366" stroke="#536366" points="79.92,-76.88 89.92,-73.38 79.92,-69.88 79.92,-76.88"/>
</g>
<!-- digit2 -->
<g id="node2" class="node">
<title>digit2</title>
</g>
<!-- model2 -->
<g id="node4" class="node">
<title>model2</title>
<ellipse fill="none" stroke="#536366" cx="130.31" cy="-18.38" rx="40.11" ry="18.27"/>
<text text-anchor="middle" x="130.31" y="-14.58" font-family="Panton" font-size="16.00" fill="#536366">model</text>
</g>
<!-- digit2&#45;&gt;model2 -->
<g id="edge4" class="edge">
<title>digit2&#45;&gt;model2</title>
<path fill="none" stroke="#536366" d="M54.09,-18.38C61.93,-18.38 70.8,-18.38 79.63,-18.38"/>
<polygon fill="#536366" stroke="#536366" points="79.92,-21.88 89.92,-18.38 79.92,-14.88 79.92,-21.88"/>
</g>
<!-- merge -->
<g id="node5" class="node">
<title>merge</title>
<ellipse fill="none" stroke="#00ade2" cx="249.74" cy="-45.38" rx="43.27" ry="18.27"/>
<text text-anchor="middle" x="249.74" y="-41.58" font-family="Panton bold" font-size="16.00" fill="#00ade2">merge</text>
</g>
<!-- model1&#45;&gt;merge -->
<g id="edge2" class="edge">
<title>model1&#45;&gt;merge</title>
<path fill="none" stroke="#536366" d="M166.54,-64.98C177.51,-62.37 189.8,-59.44 201.46,-56.66"/>
<polygon fill="#536366" stroke="#536366" points="202.58,-59.99 211.49,-54.27 200.95,-53.18 202.58,-59.99"/>
</g>
<!-- model2&#45;&gt;merge -->
<g id="edge5" class="edge">
<title>model2&#45;&gt;merge</title>
<path fill="none" stroke="#536366" d="M166.54,-26.49C177.51,-29.01 189.8,-31.83 201.46,-34.51"/>
<polygon fill="#536366" stroke="#536366" points="200.96,-37.99 211.49,-36.82 202.53,-31.17 200.96,-37.99"/>
</g>
<!-- output -->
<g id="node6" class="node">
<title>output</title>
</g>
<!-- merge&#45;&gt;output -->
<g id="edge3" class="edge">
<title>merge&#45;&gt;output</title>
<path fill="none" stroke="#536366" d="M293.1,-45.38C301.57,-45.38 310.4,-45.38 318.64,-45.38"/>
<polygon fill="#536366" stroke="#536366" points="318.7,-48.88 328.7,-45.38 318.7,-41.88 318.7,-48.88"/>
</g>
</g>
</svg>
