<?xml version="1.0" encoding="UTF-8" standalone="no"?>
<!DOCTYPE svg PUBLIC "-//W3C//DTD SVG 1.1//EN"
 "http://www.w3.org/Graphics/SVG/1.1/DTD/svg11.dtd">
<!-- Generated by graphviz version 2.42.1 (0)
 -->
<!-- Title: stack Pages: 1 -->
<svg width="565pt" height="98pt"
 viewBox="0.00 0.00 565.00 98.00" xmlns="http://www.w3.org/2000/svg" xmlns:xlink="http://www.w3.org/1999/xlink">
<g id="graph0" class="graph" transform="scale(1 1) rotate(0) translate(4 94)">
<title>stack</title>
<polygon fill="white" stroke="transparent" points="-4,4 -4,-94 561,-94 561,4 -4,4"/>
<!-- image_1 -->
<g id="node1" class="node">
<title>image_1</title>
<text text-anchor="middle" x="37.5" y="-68.2" font-family="Panton" font-size="16.00" fill="#606060">image_1</text>
</g>
<!-- classifier_1 -->
<g id="node6" class="node">
<title>classifier_1</title>
<polygon fill="none" stroke="#606060" points="189,-90 111,-90 111,-54 189,-54 189,-90"/>
<text text-anchor="middle" x="150" y="-68.2" font-family="Panton" font-size="16.00" fill="#606060">classifier</text>
</g>
<!-- image_1&#45;&gt;classifier_1 -->
<g id="edge1" class="edge">
<title>image_1&#45;&gt;classifier_1</title>
<path fill="none" stroke="#606060" d="M73.77,-72C82.3,-72 91.57,-72 100.6,-72"/>
<polygon fill="#606060" stroke="#606060" points="100.63,-75.5 110.63,-72 100.63,-68.5 100.63,-75.5"/>
</g>
<!-- image_2 -->
<g id="node2" class="node">
<title>image_2</title>
<text text-anchor="middle" x="37.5" y="-14.2" font-family="Panton" font-size="16.00" fill="#606060">image_2</text>
</g>
<!-- classifier_2 -->
<g id="node7" class="node">
<title>classifier_2</title>
<polygon fill="none" stroke="#606060" points="189,-36 111,-36 111,0 189,0 189,-36"/>
<text text-anchor="middle" x="150" y="-14.2" font-family="Panton" font-size="16.00" fill="#606060">classifier</text>
</g>
<!-- image_2&#45;&gt;classifier_2 -->
<g id="edge4" class="edge">
<title>image_2&#45;&gt;classifier_2</title>
<path fill="none" stroke="#606060" d="M75.29,-18C83.42,-18 92.14,-18 100.65,-18"/>
<polygon fill="#606060" stroke="#606060" points="100.85,-21.5 110.85,-18 100.85,-14.5 100.85,-21.5"/>
</g>
<!-- probs_1 -->
<g id="node3" class="node">
<title>probs_1</title>
<text text-anchor="middle" x="261.5" y="-68.2" font-family="Panton" font-size="16.00" fill="#606060">probs_1</text>
</g>
<!-- lambda -->
<g id="node8" class="node">
<title>lambda</title>
<polygon fill="none" stroke="#606060" points="437,-63 334,-63 334,-27 437,-27 437,-63"/>
<text text-anchor="middle" x="385.5" y="-41.2" font-family="Panton" font-size="16.00" fill="#606060">lambda layer</text>
</g>
<!-- probs_1&#45;&gt;lambda -->
<g id="edge3" class="edge">
<title>probs_1&#45;&gt;lambda</title>
<path fill="none" stroke="#606060" d="M296.81,-64.41C305.19,-62.55 314.42,-60.51 323.63,-58.47"/>
<polygon fill="#606060" stroke="#606060" points="324.59,-61.84 333.6,-56.27 323.08,-55.01 324.59,-61.84"/>
</g>
<!-- probs_2 -->
<g id="node4" class="node">
<title>probs_2</title>
<text text-anchor="middle" x="261.5" y="-14.2" font-family="Panton" font-size="16.00" fill="#606060">probs_2</text>
</g>
<!-- probs_2&#45;&gt;lambda -->
<g id="edge6" class="edge">
<title>probs_2&#45;&gt;lambda</title>
<path fill="none" stroke="#606060" d="M298.12,-25.88C306.19,-27.67 314.99,-29.62 323.77,-31.56"/>
<polygon fill="#606060" stroke="#606060" points="323.13,-35 333.65,-33.75 324.65,-28.17 323.13,-35"/>
</g>
<!-- prediction -->
<g id="node5" class="node">
<title>prediction</title>
<text text-anchor="middle" x="515" y="-41.2" font-family="Panton" font-size="16.00" fill="#606060">prediction</text>
</g>
<!-- classifier_1&#45;&gt;probs_1 -->
<g id="edge2" class="edge">
<title>classifier_1&#45;&gt;probs_1</title>
<path fill="none" stroke="#606060" d="M189.3,-72C197.99,-72 207.28,-72 216.2,-72"/>
<polygon fill="#606060" stroke="#606060" points="216.43,-75.5 226.43,-72 216.43,-68.5 216.43,-75.5"/>
</g>
<!-- classifier_2&#45;&gt;probs_2 -->
<g id="edge5" class="edge">
<title>classifier_2&#45;&gt;probs_2</title>
<path fill="none" stroke="#606060" d="M189.3,-18C197.54,-18 206.33,-18 214.82,-18"/>
<polygon fill="#606060" stroke="#606060" points="214.98,-21.5 224.98,-18 214.98,-14.5 214.98,-21.5"/>
</g>
<!-- lambda&#45;&gt;prediction -->
<g id="edge7" class="edge">
<title>lambda&#45;&gt;prediction</title>
<path fill="none" stroke="#606060" d="M437.26,-45C445.65,-45 454.36,-45 462.76,-45"/>
<polygon fill="#606060" stroke="#606060" points="462.82,-48.5 472.82,-45 462.82,-41.5 462.82,-48.5"/>
</g>
</g>
</svg>
