<?xml version="1.0" encoding="UTF-8" standalone="no"?>
<!DOCTYPE svg PUBLIC "-//W3C//DTD SVG 1.1//EN"
 "http://www.w3.org/Graphics/SVG/1.1/DTD/svg11.dtd">
<!-- Generated by graphviz version 2.42.1 (0)
 -->
<!-- Title: match Pages: 1 -->
<svg width="688pt" height="313pt"
 viewBox="0.00 0.00 688.00 313.22" xmlns="http://www.w3.org/2000/svg" xmlns:xlink="http://www.w3.org/1999/xlink">
<g id="graph0" class="graph" transform="scale(1 1) rotate(0) translate(4 309.22)">
<title>match</title>
<polygon fill="white" stroke="transparent" points="-4,4 -4,-309.22 684,-309.22 684,4 -4,4"/>
<!-- generate -->
<g id="node1" class="node">
<title>generate</title>
<ellipse fill="none" stroke="#00aed2" cx="180" cy="-206.35" rx="52.15" ry="26.74"/>
<text text-anchor="middle" x="180" y="-210.15" font-family="Panton bold" font-size="14.00" fill="#00aed2">generate</text>
<text text-anchor="middle" x="180" y="-195.15" font-family="Panton bold" font-size="14.00" fill="#00aed2">statistics</text>
</g>
<!-- statistics -->
<g id="node11" class="node">
<title>statistics</title>
<text text-anchor="middle" x="180" y="-112.81" font-family="Panton bold" font-size="16.00" fill="#606060">statistics</text>
</g>
<!-- generate&#45;&gt;statistics -->
<g id="edge4" class="edge">
<title>generate&#45;&gt;statistics</title>
<path fill="none" stroke="#606060" d="M180,-179.03C180,-168.27 180,-155.84 180,-144.98"/>
<polygon fill="#606060" stroke="#606060" points="183.5,-144.77 180,-134.77 176.5,-144.77 183.5,-144.77"/>
</g>
<!-- visualize -->
<g id="node2" class="node">
<title>visualize</title>
<ellipse fill="none" stroke="#00aed2" cx="518" cy="-116.61" rx="52.15" ry="26.74"/>
<text text-anchor="middle" x="518" y="-120.41" font-family="Panton bold" font-size="14.00" fill="#00aed2">visualize</text>
<text text-anchor="middle" x="518" y="-105.41" font-family="Panton bold" font-size="14.00" fill="#00aed2">statistics</text>
</g>
<!-- visualize&#45;&gt;statistics -->
<g id="edge5" class="edge">
<title>visualize&#45;&gt;statistics</title>
<path fill="none" stroke="#606060" d="M481.84,-145.27C471.49,-151.9 459.8,-158.02 448,-161.48 403.64,-174.48 283.86,-176.07 240,-161.48 223.95,-156.14 208.73,-144.66 197.64,-134.64"/>
<polygon fill="#606060" stroke="#606060" points="483.87,-148.13 490.2,-139.63 479.95,-142.32 483.87,-148.13"/>
</g>
<!-- infer -->
<g id="node3" class="node">
<title>infer</title>
<ellipse fill="none" stroke="#00aed2" cx="182" cy="-26.87" rx="45.92" ry="26.74"/>
<text text-anchor="middle" x="182" y="-30.67" font-family="Panton bold" font-size="14.00" fill="#00aed2">infer</text>
<text text-anchor="middle" x="182" y="-15.67" font-family="Panton bold" font-size="14.00" fill="#00aed2">schema</text>
</g>
<!-- schema -->
<g id="node12" class="node">
<title>schema</title>
<text text-anchor="middle" x="283" y="-23.07" font-family="Panton bold" font-size="16.00" fill="#606060">schema</text>
</g>
<!-- infer&#45;&gt;schema -->
<g id="edge7" class="edge">
<title>infer&#45;&gt;schema</title>
<path fill="none" stroke="#606060" d="M228.16,-26.87C230.94,-26.87 233.73,-26.87 236.51,-26.87"/>
<polygon fill="#606060" stroke="#606060" points="236.58,-30.37 246.58,-26.87 236.58,-23.37 236.58,-30.37"/>
</g>
<!-- validate -->
<g id="node4" class="node">
<title>validate</title>
<ellipse fill="none" stroke="#00aed2" cx="389" cy="-26.87" rx="50.82" ry="26.74"/>
<text text-anchor="middle" x="389" y="-30.67" font-family="Panton bold" font-size="14.00" fill="#00aed2">validate</text>
<text text-anchor="middle" x="389" y="-15.67" font-family="Panton bold" font-size="14.00" fill="#00aed2">new data</text>
</g>
<!-- tfrecords -->
<g id="node5" class="node">
<title>tfrecords</title>
<text text-anchor="middle" x="58" y="-283.42" font-family="Panton" font-size="16.00" fill="#606060">TFRecord files</text>
</g>
<!-- tfrecords&#45;&gt;generate -->
<g id="edge1" class="edge">
<title>tfrecords&#45;&gt;generate</title>
<path fill="none" stroke="#606060" d="M84.47,-269.11C100.61,-258.67 121.56,-245.13 139.73,-233.39"/>
<polygon fill="#606060" stroke="#606060" points="141.89,-236.15 148.39,-227.79 138.09,-230.28 141.89,-236.15"/>
</g>
<!-- dataframe -->
<g id="node6" class="node">
<title>dataframe</title>
<text text-anchor="middle" x="180" y="-283.42" font-family="Panton" font-size="16.00" fill="#606060">DataFrame</text>
</g>
<!-- dataframe&#45;&gt;generate -->
<g id="edge2" class="edge">
<title>dataframe&#45;&gt;generate</title>
<path fill="none" stroke="#606060" d="M180,-269.11C180,-261.62 180,-252.53 180,-243.65"/>
<polygon fill="#606060" stroke="#606060" points="183.5,-243.43 180,-233.43 176.5,-243.43 183.5,-243.43"/>
</g>
<!-- csv -->
<g id="node7" class="node">
<title>csv</title>
<text text-anchor="middle" x="281" y="-283.42" font-family="Panton" font-size="16.00" fill="#606060">CSV File</text>
</g>
<!-- csv&#45;&gt;generate -->
<g id="edge3" class="edge">
<title>csv&#45;&gt;generate</title>
<path fill="none" stroke="#606060" d="M259.08,-269.11C246.57,-259.34 230.57,-246.84 216.23,-235.65"/>
<polygon fill="#606060" stroke="#606060" points="218.06,-232.63 208.03,-229.24 213.75,-238.15 218.06,-232.63"/>
</g>
<!-- tfrecords2 -->
<g id="node8" class="node">
<title>tfrecords2</title>
<text text-anchor="middle" x="390" y="-112.81" font-family="Panton" font-size="16.00" fill="#606060">TFRecord files</text>
</g>
<!-- tfrecords2&#45;&gt;validate -->
<g id="edge9" class="edge">
<title>tfrecords2&#45;&gt;validate</title>
<path fill="none" stroke="#606060" d="M389.8,-98.28C389.69,-88.46 389.55,-75.82 389.41,-63.95"/>
<polygon fill="#606060" stroke="#606060" points="392.91,-63.78 389.3,-53.82 385.91,-63.86 392.91,-63.78"/>
</g>
<!-- dataframe2 -->
<g id="node9" class="node">
<title>dataframe2</title>
<text text-anchor="middle" x="634" y="-112.81" font-family="Panton" font-size="16.00" fill="#606060">DataFrame</text>
</g>
<!-- dataframe2&#45;&gt;validate -->
<g id="edge10" class="edge">
<title>dataframe2&#45;&gt;validate</title>
<path fill="none" stroke="#606060" d="M599.37,-98.52C592.68,-95.45 585.67,-92.38 579,-89.74 533.85,-71.85 481.26,-55.03 442.88,-43.45"/>
<polygon fill="#606060" stroke="#606060" points="443.52,-39.99 432.94,-40.48 441.52,-46.7 443.52,-39.99"/>
</g>
<!-- csv2 -->
<g id="node10" class="node">
<title>csv2</title>
<text text-anchor="middle" x="277" y="-112.81" font-family="Panton" font-size="16.00" fill="#606060">CSV File</text>
</g>
<!-- csv2&#45;&gt;validate -->
<g id="edge11" class="edge">
<title>csv2&#45;&gt;validate</title>
<path fill="none" stroke="#606060" d="M298.86,-98.48C314.32,-86.38 335.39,-69.87 353.27,-55.86"/>
<polygon fill="#606060" stroke="#606060" points="355.52,-58.55 361.23,-49.63 351.2,-53.04 355.52,-58.55"/>
</g>
<!-- statistics&#45;&gt;infer -->
<g id="edge6" class="edge">
<title>statistics&#45;&gt;infer</title>
<path fill="none" stroke="#606060" d="M180.4,-98.28C180.62,-88.46 180.91,-75.82 181.18,-63.95"/>
<polygon fill="#606060" stroke="#606060" points="184.68,-63.9 181.41,-53.82 177.68,-63.74 184.68,-63.9"/>
</g>
<!-- schema&#45;&gt;validate -->
<g id="edge8" class="edge">
<title>schema&#45;&gt;validate</title>
<path fill="none" stroke="#606060" d="M319.02,-26.87C321.97,-26.87 324.92,-26.87 327.86,-26.87"/>
<polygon fill="#606060" stroke="#606060" points="327.88,-30.37 337.88,-26.87 327.88,-23.37 327.88,-30.37"/>
</g>
</g>
</svg>
