<?xml version="1.0" encoding="UTF-8" standalone="no"?>
<!DOCTYPE svg PUBLIC "-//W3C//DTD SVG 1.1//EN"
 "http://www.w3.org/Graphics/SVG/1.1/DTD/svg11.dtd">
<!-- Generated by graphviz version 2.42.1 (0)
 -->
<!-- Title: stack Pages: 1 -->
<svg width="646pt" height="100pt"
 viewBox="0.00 0.00 645.63 99.77" xmlns="http://www.w3.org/2000/svg" xmlns:xlink="http://www.w3.org/1999/xlink">
<g id="graph0" class="graph" transform="scale(1 1) rotate(0) translate(4 95.77)">
<title>stack</title>
<polygon fill="white" stroke="transparent" points="-4,4 -4,-95.77 641.63,-95.77 641.63,4 -4,4"/>
<!-- image_1 -->
<g id="node1" class="node">
<title>image_1</title>
<text text-anchor="middle" x="37.5" y="-69.58" font-family="Panton" font-size="16.00" fill="#606060">image_1</text>
</g>
<!-- classifier_1 -->
<g id="node6" class="node">
<title>classifier_1</title>
<ellipse fill="none" stroke="#606060" cx="166.15" cy="-73.38" rx="55.31" ry="18.27"/>
<text text-anchor="middle" x="166.15" y="-69.58" font-family="Panton" font-size="16.00" fill="#606060">classifier</text>
</g>
<!-- image_1&#45;&gt;classifier_1 -->
<g id="edge1" class="edge">
<title>image_1&#45;&gt;classifier_1</title>
<path fill="none" stroke="#606060" d="M73.78,-73.38C82.17,-73.38 91.37,-73.38 100.62,-73.38"/>
<polygon fill="#606060" stroke="#606060" points="100.62,-76.88 110.62,-73.38 100.62,-69.88 100.62,-76.88"/>
</g>
<!-- image_2 -->
<g id="node2" class="node">
<title>image_2</title>
<text text-anchor="middle" x="37.5" y="-14.58" font-family="Panton" font-size="16.00" fill="#606060">image_2</text>
</g>
<!-- classifier_2 -->
<g id="node7" class="node">
<title>classifier_2</title>
<ellipse fill="none" stroke="#606060" cx="166.15" cy="-18.38" rx="55.31" ry="18.27"/>
<text text-anchor="middle" x="166.15" y="-14.58" font-family="Panton" font-size="16.00" fill="#606060">classifier</text>
</g>
<!-- image_2&#45;&gt;classifier_2 -->
<g id="edge4" class="edge">
<title>image_2&#45;&gt;classifier_2</title>
<path fill="none" stroke="#606060" d="M75.13,-18.38C83.12,-18.38 91.79,-18.38 100.5,-18.38"/>
<polygon fill="#606060" stroke="#606060" points="100.69,-21.88 110.69,-18.38 100.69,-14.88 100.69,-21.88"/>
</g>
<!-- probs_1 -->
<g id="node3" class="node">
<title>probs_1</title>
<text text-anchor="middle" x="293.81" y="-68.58" font-family="Panton" font-size="16.00" fill="#606060">probs_1</text>
</g>
<!-- lambda -->
<g id="node8" class="node">
<title>lambda</title>
<ellipse fill="none" stroke="#00aed2" cx="441.97" cy="-45.38" rx="75.82" ry="43.68"/>
<text text-anchor="middle" x="441.97" y="-59.58" font-family="Panton bold" font-size="16.00" fill="#00aed2">lambda layer</text>
<text text-anchor="middle" x="441.97" y="-41.58" font-family="Panton bold" font-size="16.00" fill="#00aed2">or</text>
<text text-anchor="middle" x="441.97" y="-23.58" font-family="Panton bold" font-size="16.00" fill="#00aed2">dense layer</text>
</g>
<!-- probs_1&#45;&gt;lambda -->
<g id="edge3" class="edge">
<title>probs_1&#45;&gt;lambda</title>
<path fill="none" stroke="#606060" d="M329.08,-66.05C338.44,-64.32 349.01,-62.37 359.81,-60.38"/>
<polygon fill="#606060" stroke="#606060" points="360.58,-63.79 369.77,-58.54 359.31,-56.91 360.58,-63.79"/>
</g>
<!-- probs_2 -->
<g id="node4" class="node">
<title>probs_2</title>
<text text-anchor="middle" x="293.81" y="-14.58" font-family="Panton" font-size="16.00" fill="#606060">probs_2</text>
</g>
<!-- probs_2&#45;&gt;lambda -->
<g id="edge6" class="edge">
<title>probs_2&#45;&gt;lambda</title>
<path fill="none" stroke="#606060" d="M330.56,-24.99C339.44,-26.63 349.31,-28.45 359.41,-30.32"/>
<polygon fill="#606060" stroke="#606060" points="359.08,-33.82 369.55,-32.19 360.35,-26.93 359.08,-33.82"/>
</g>
<!-- prediction -->
<g id="node5" class="node">
<title>prediction</title>
<text text-anchor="middle" x="595.63" y="-41.58" font-family="Panton" font-size="16.00" fill="#606060">prediction</text>
</g>
<!-- classifier_1&#45;&gt;probs_1 -->
<g id="edge2" class="edge">
<title>classifier_1&#45;&gt;probs_1</title>
<path fill="none" stroke="#606060" d="M221.54,-72.95C230.5,-72.88 239.69,-72.81 248.37,-72.74"/>
<polygon fill="#606060" stroke="#606060" points="248.68,-76.24 258.65,-72.66 248.62,-69.24 248.68,-76.24"/>
</g>
<!-- classifier_2&#45;&gt;probs_2 -->
<g id="edge5" class="edge">
<title>classifier_2&#45;&gt;probs_2</title>
<path fill="none" stroke="#606060" d="M221.54,-18.38C230.03,-18.38 238.72,-18.38 246.99,-18.38"/>
<polygon fill="#606060" stroke="#606060" points="247.2,-21.88 257.2,-18.38 247.2,-14.88 247.2,-21.88"/>
</g>
<!-- lambda&#45;&gt;prediction -->
<g id="edge7" class="edge">
<title>lambda&#45;&gt;prediction</title>
<path fill="none" stroke="#606060" d="M517.91,-45.38C526.52,-45.38 535.14,-45.38 543.33,-45.38"/>
<polygon fill="#606060" stroke="#606060" points="543.44,-48.88 553.44,-45.38 543.44,-41.88 543.44,-48.88"/>
</g>
</g>
</svg>
