<?xml version="1.0" encoding="UTF-8" standalone="no"?>
<!DOCTYPE svg PUBLIC "-//W3C//DTD SVG 1.1//EN"
 "http://www.w3.org/Graphics/SVG/1.1/DTD/svg11.dtd">
<!-- Generated by graphviz version 2.42.1 (0)
 -->
<!-- Title: loss Pages: 1 -->
<svg width="398pt" height="44pt"
 viewBox="0.00 0.00 398.37 44.00" xmlns="http://www.w3.org/2000/svg" xmlns:xlink="http://www.w3.org/1999/xlink">
<g id="graph0" class="graph" transform="scale(1 1) rotate(0) translate(4 40)">
<title>loss</title>
<polygon fill="white" stroke="transparent" points="-4,4 -4,-40 394.37,-40 394.37,4 -4,4"/>
<!-- digit -->
<g id="node1" class="node">
<title>digit</title>
</g>
<!-- model -->
<g id="node2" class="node">
<title>model</title>
<ellipse fill="none" stroke="#536366" cx="143.14" cy="-18" rx="85.29" ry="18"/>
<text text-anchor="middle" x="143.14" y="-14.3" font-family="Times,serif" font-size="14.00" fill="#536366">our fancy model</text>
</g>
<!-- digit&#45;&gt;model -->
<g id="edge1" class="edge">
<title>digit&#45;&gt;model</title>
<path fill="none" stroke="#536366" d="M22.21,-18C28.61,-18 37.57,-18 47.73,-18"/>
<polygon fill="#536366" stroke="#536366" points="47.8,-21.5 57.8,-18 47.8,-14.5 47.8,-21.5"/>
</g>
<!-- predictions -->
<g id="node3" class="node">
<title>predictions</title>
<ellipse fill="none" stroke="#536366" cx="327.33" cy="-18" rx="63.09" ry="18"/>
<text text-anchor="middle" x="327.33" y="-14.3" font-family="Times,serif" font-size="14.00" fill="#536366">predictions</text>
</g>
<!-- model&#45;&gt;predictions -->
<g id="edge2" class="edge">
<title>model&#45;&gt;predictions</title>
<path fill="none" stroke="#536366" d="M228.3,-18C236.85,-18 245.49,-18 253.9,-18"/>
<polygon fill="#536366" stroke="#536366" points="254.03,-21.5 264.03,-18 254.03,-14.5 254.03,-21.5"/>
</g>
</g>
</svg>
