<?xml version="1.0" encoding="UTF-8" standalone="no"?>
<!DOCTYPE svg PUBLIC "-//W3C//DTD SVG 1.1//EN"
 "http://www.w3.org/Graphics/SVG/1.1/DTD/svg11.dtd">
<!-- Generated by graphviz version 2.42.1 (0)
 -->
<!-- Title: test Pages: 1 -->
<svg width="170pt" height="379pt"
 viewBox="0.00 0.00 170.00 379.31" xmlns="http://www.w3.org/2000/svg" xmlns:xlink="http://www.w3.org/1999/xlink">
<g id="graph0" class="graph" transform="scale(1 1) rotate(0) translate(4 375.31)">
<title>test</title>
<polygon fill="white" stroke="transparent" points="-4,4 -4,-375.31 166,-375.31 166,4 -4,4"/>
<!-- x -->
<g id="node1" class="node">
<title>x</title>
<polygon fill="none" stroke="black" points="54,-371.31 0,-371.31 0,-332.31 54,-332.31 54,-371.31"/>
<text text-anchor="middle" x="27" y="-344.91" font-family="Panton" font-size="28.00">x</text>
</g>
<!-- add -->
<g id="node7" class="node">
<title>add</title>
<ellipse fill="lightgray" stroke="lightgray" cx="63" cy="-268.73" rx="43.27" ry="27.65"/>
<text text-anchor="middle" x="63" y="-261.83" font-family="Panton" font-size="28.00">add</text>
</g>
<!-- x&#45;&gt;add -->
<g id="edge1" class="edge">
<title>x&#45;&gt;add</title>
<path fill="none" stroke="black" d="M35.35,-332C38.96,-323.86 43.31,-314.07 47.48,-304.67"/>
<polygon fill="black" stroke="black" points="50.7,-306.06 51.56,-295.5 44.3,-303.22 50.7,-306.06"/>
</g>
<!-- w -->
<g id="node2" class="node">
<title>w</title>
<polygon fill="none" stroke="black" points="126,-371.31 72,-371.31 72,-332.31 126,-332.31 126,-371.31"/>
<text text-anchor="middle" x="99" y="-344.91" font-family="Panton" font-size="28.00">w</text>
</g>
<!-- w&#45;&gt;add -->
<g id="edge2" class="edge">
<title>w&#45;&gt;add</title>
<path fill="none" stroke="black" d="M90.65,-332C87.04,-323.86 82.69,-314.07 78.52,-304.67"/>
<polygon fill="black" stroke="black" points="81.7,-303.22 74.44,-295.5 75.3,-306.06 81.7,-303.22"/>
</g>
<!-- s -->
<g id="node3" class="node">
<title>s</title>
<polygon fill="none" stroke="black" points="90,-205.15 36,-205.15 36,-166.15 90,-166.15 90,-205.15"/>
<text text-anchor="middle" x="63" y="-178.75" font-family="Panton" font-size="28.00">s</text>
</g>
<!-- mult -->
<g id="node6" class="node">
<title>mult</title>
<ellipse fill="lightgray" stroke="lightgray" cx="99" cy="-102.58" rx="50.41" ry="27.65"/>
<text text-anchor="middle" x="99" y="-95.68" font-family="Panton" font-size="28.00">mult</text>
</g>
<!-- s&#45;&gt;mult -->
<g id="edge4" class="edge">
<title>s&#45;&gt;mult</title>
<path fill="none" stroke="black" d="M71.35,-165.85C74.9,-157.86 79.15,-148.28 83.25,-139.05"/>
<polygon fill="black" stroke="black" points="86.56,-140.21 87.42,-129.65 80.17,-137.37 86.56,-140.21"/>
</g>
<!-- b -->
<g id="node4" class="node">
<title>b</title>
<polygon fill="none" stroke="black" points="162,-205.15 108,-205.15 108,-166.15 162,-166.15 162,-205.15"/>
<text text-anchor="middle" x="135" y="-178.75" font-family="Panton" font-size="28.00">b</text>
</g>
<!-- b&#45;&gt;mult -->
<g id="edge5" class="edge">
<title>b&#45;&gt;mult</title>
<path fill="none" stroke="black" d="M126.65,-165.85C123.1,-157.86 118.85,-148.28 114.75,-139.05"/>
<polygon fill="black" stroke="black" points="117.83,-137.37 110.58,-129.65 111.44,-140.21 117.83,-137.37"/>
</g>
<!-- y -->
<g id="node5" class="node">
<title>y</title>
<polygon fill="none" stroke="black" points="126,-39 72,-39 72,0 126,0 126,-39"/>
<text text-anchor="middle" x="99" y="-12.6" font-family="Panton" font-size="28.00">y</text>
</g>
<!-- mult&#45;&gt;y -->
<g id="edge6" class="edge">
<title>mult&#45;&gt;y</title>
<path fill="none" stroke="black" d="M99,-74.58C99,-66.51 99,-57.63 99,-49.44"/>
<polygon fill="black" stroke="black" points="102.5,-49.19 99,-39.19 95.5,-49.19 102.5,-49.19"/>
</g>
<!-- add&#45;&gt;s -->
<g id="edge3" class="edge">
<title>add&#45;&gt;s</title>
<path fill="none" stroke="black" d="M63,-240.73C63,-232.66 63,-223.78 63,-215.59"/>
<polygon fill="black" stroke="black" points="66.5,-215.35 63,-205.35 59.5,-215.35 66.5,-215.35"/>
</g>
</g>
</svg>
