<?xml version="1.0" encoding="UTF-8" standalone="no"?>
<!DOCTYPE svg PUBLIC "-//W3C//DTD SVG 1.1//EN"
 "http://www.w3.org/Graphics/SVG/1.1/DTD/svg11.dtd">
<!-- Generated by graphviz version 2.42.1 (0)
 -->
<!-- Title: stack Pages: 1 -->
<svg width="706pt" height="68pt"
 viewBox="0.00 0.00 706.00 68.00" xmlns="http://www.w3.org/2000/svg" xmlns:xlink="http://www.w3.org/1999/xlink">
<g id="graph0" class="graph" transform="scale(1 1) rotate(0) translate(4 64)">
<title>stack</title>
<polygon fill="white" stroke="transparent" points="-4,4 -4,-64 702,-64 702,4 -4,4"/>
<!-- x -->
<g id="node1" class="node">
<title>x</title>
<text text-anchor="middle" x="27" y="-23.8" font-family="Panton" font-size="24.00">x</text>
</g>
<!-- cnn1 -->
<g id="node3" class="node">
<title>cnn1</title>
<polygon fill="none" stroke="black" points="244,-60 90,-60 90,0 244,0 244,-60"/>
<text text-anchor="middle" x="167" y="-36.8" font-family="Panton" font-size="24.00">convolutional</text>
<text text-anchor="middle" x="167" y="-10.8" font-family="Panton" font-size="24.00">layer 1</text>
</g>
<!-- x&#45;&gt;cnn1 -->
<g id="edge1" class="edge">
<title>x&#45;&gt;cnn1</title>
<path fill="none" stroke="black" d="M54.28,-30C61.86,-30 70.58,-30 79.72,-30"/>
<polygon fill="black" stroke="black" points="79.79,-33.5 89.79,-30 79.79,-26.5 79.79,-33.5"/>
</g>
<!-- y -->
<g id="node2" class="node">
<title>y</title>
<text text-anchor="middle" x="671" y="-23.8" font-family="Panton" font-size="24.00">y</text>
</g>
<!-- cnn2 -->
<g id="node4" class="node">
<title>cnn2</title>
<polygon fill="none" stroke="black" points="434,-60 280,-60 280,0 434,0 434,-60"/>
<text text-anchor="middle" x="357" y="-36.8" font-family="Panton" font-size="24.00">convolutional</text>
<text text-anchor="middle" x="357" y="-10.8" font-family="Panton" font-size="24.00">layer 2</text>
</g>
<!-- cnn1&#45;&gt;cnn2 -->
<g id="edge2" class="edge">
<title>cnn1&#45;&gt;cnn2</title>
<path fill="none" stroke="black" d="M244.2,-30C252.52,-30 261.03,-30 269.47,-30"/>
<polygon fill="black" stroke="black" points="269.7,-33.5 279.7,-30 269.7,-26.5 269.7,-33.5"/>
</g>
<!-- dense -->
<g id="node5" class="node">
<title>dense</title>
<polygon fill="none" stroke="black" points="608,-48 470,-48 470,-12 608,-12 608,-48"/>
<text text-anchor="middle" x="539" y="-23.8" font-family="Panton" font-size="24.00">dense layer</text>
</g>
<!-- cnn2&#45;&gt;dense -->
<g id="edge3" class="edge">
<title>cnn2&#45;&gt;dense</title>
<path fill="none" stroke="black" d="M434.08,-30C442.53,-30 451.16,-30 459.65,-30"/>
<polygon fill="black" stroke="black" points="459.91,-33.5 469.91,-30 459.91,-26.5 459.91,-33.5"/>
</g>
<!-- dense&#45;&gt;y -->
<g id="edge4" class="edge">
<title>dense&#45;&gt;y</title>
<path fill="none" stroke="black" d="M608.05,-30C616.93,-30 625.74,-30 633.81,-30"/>
<polygon fill="black" stroke="black" points="633.93,-33.5 643.93,-30 633.93,-26.5 633.93,-33.5"/>
</g>
</g>
</svg>
