<?xml version="1.0" encoding="UTF-8" standalone="no"?><svg xmlns="http://www.w3.org/2000/svg" xmlns:xlink="http://www.w3.org/1999/xlink" contentScriptType="application/ecmascript" contentStyleType="text/css" height="493px" preserveAspectRatio="none" style="width:781px;height:493px;" version="1.1" viewBox="0 0 781 493" width="781px" zoomAndPan="magnify"><defs><filter height="300%" id="fcwb3j6vbv6m6" width="300%" x="-1" y="-1"><feGaussianBlur result="blurOut" stdDeviation="2.0"/><feColorMatrix in="blurOut" result="blurOut2" type="matrix" values="0 0 0 0 0 0 0 0 0 0 0 0 0 0 0 0 0 0 .4 0"/><feOffset dx="4.0" dy="4.0" in="blurOut2" result="blurOut3"/><feBlend in="SourceGraphic" in2="blurOut3" mode="normal"/></filter></defs><g><polygon fill="#FFA500" filter="url(#fcwb3j6vbv6m6)" points="271.5,207.7998,271.5,208.01,281.0714,207.3855,290.6429,207.9931,300.2143,208.1995,309.7857,207.0864,319.3571,207.7221,328.9286,207.3733,338.5,207.7998,338.4511,207.6817,340.2591,208.5111,341.9473,209.0514,343.8739,210.167,345.4907,210.5347,347.3388,211.461,347.2779,211.4358,348.2041,213.2839,348.7769,214.9856,349.5565,216.773,350.2579,218.528,351,220.2998,351.1785,220.2998,351.2391,230.6665,351.5857,241.0331,351.6711,251.3997,351.6793,261.7663,351.2546,272.1329,351,282.4995,351.1428,282.5587,350.484,284.3569,349.3134,285.9431,349.0123,287.8894,347.9798,289.5328,347.3388,291.3384,347.4069,291.5028,345.5079,291.9182,343.7946,292.7817,342.1301,293.7635,340.2616,294.2523,338.5,294.9995,338.5,295.1048,328.9286,295.3382,319.3571,295.4158,309.7857,294.9956,300.2143,295.2868,290.6429,294.4271,281.0714,295.2839,271.5,294.9995,271.5699,295.1684,269.7889,294.4042,268.0427,293.7239,266.1351,292.6541,264.3457,291.8698,262.6612,291.3384,262.4698,291.2591,261.9108,289.5631,261.1362,287.7778,260.6743,286.122,259.6784,284.245,259,282.4995,258.6569,282.4995,259.2283,272.1329,258.3332,261.7663,258.4809,251.3997,259.649,241.0331,259.4357,230.6665,259,220.2998,259.2262,220.3935,259.6331,218.491,260.5628,216.805,261.3785,215.0718,261.7835,213.1685,262.6612,211.461,262.6489,211.4315,264.445,210.7676,266.2798,210.1973,267.9639,209.263,269.7912,208.6745,271.5,207.7998" style="stroke: #A80036; stroke-width: 1.5;"/><text fill="#000000" font-family="Panton" font-size="14" lengthAdjust="spacingAndGlyphs" textLength="72" x="269" y="230.9598">TensorFlow</text><text fill="#000000" font-family="Panton" font-size="14" lengthAdjust="spacingAndGlyphs" textLength="68" x="272" y="247.7597">Distributed</text><text fill="#000000" font-family="Panton" font-size="14" lengthAdjust="spacingAndGlyphs" textLength="61" x="272" y="264.5596">Execution</text><text fill="#000000" font-family="Panton" font-size="14" lengthAdjust="spacingAndGlyphs" textLength="42" x="272" y="281.3596">Engine</text><polygon fill="#D3D3D3" filter="url(#fcwb3j6vbv6m6)" points="413.5,218.7997,413.5,219.0099,422.7857,218.3854,432.0714,218.993,441.3571,219.1994,450.6429,218.0863,459.9286,218.722,469.2143,218.3732,478.5,218.7997,478.4511,218.6816,480.2591,219.511,481.9473,220.0513,483.8739,221.1669,485.4907,221.5346,487.3388,222.4609,487.2779,222.4357,488.2041,224.2838,488.7769,225.9855,489.5565,227.7729,490.2579,229.5279,491,231.2997,491.0595,231.2997,491.0797,233.6597,491.1952,236.0197,491.2237,238.3797,491.2264,240.7397,491,243.0997,491.0784,243.1322,490.4105,244.9266,489.7518,246.7248,488.5812,248.311,488.28,250.2573,487.3388,251.9385,487.301,251.8472,485.6392,252.8351,483.7402,253.2505,482.0268,254.1141,480.3624,255.0958,478.5,255.5997,478.5,255.5509,469.2143,255.705,459.9286,255.9383,450.6429,256.0159,441.3571,255.5958,432.0714,255.8869,422.7857,255.0273,413.5,255.5997,413.5363,255.6873,411.8022,255.0363,410.0212,254.2721,408.2749,253.5918,406.3673,252.522,404.6612,251.9385,404.4603,251.8553,403.7376,250.0915,403.1786,248.3955,402.4039,246.6101,401.9421,244.9544,401,243.0997,400.9418,243.0997,400.8856,240.7397,401.0761,238.3797,400.7777,236.0197,400.827,233.6597,401,231.2997,401.1999,231.3825,401.8664,229.5876,402.6907,227.8579,403.0976,225.9554,404.0272,224.2694,404.6612,222.4609,404.7365,222.6427,406.3687,221.5832,408.1845,220.9669,409.9805,220.303,411.8154,219.7327,413.5,218.7997" style="stroke: #A80036; stroke-width: 1.5;"/><text fill="#000000" font-family="Panton" font-size="14" lengthAdjust="spacingAndGlyphs" textLength="70" x="411" y="241.9597">Python API</text><polygon fill="#ADD8E6" filter="url(#fcwb3j6vbv6m6)" points="553.5,20,553.5,20.2102,563.8636,19.5857,574.2273,20.1933,584.5909,20.3997,594.9545,19.2866,605.3182,19.9223,615.6818,19.5735,626.0455,19.6165,636.4091,19.9318,646.7727,19.3086,657.1364,20.5536,667.5,20,667.4196,19.8059,669.2425,20.6713,671.0906,21.5975,672.7924,22.1703,674.5798,22.9499,676.3388,23.6612,676.329,23.6571,677.126,25.4517,677.8769,27.2272,678.7159,29.0392,679.4744,30.8178,680,32.5,680.2264,32.5,680.0849,34.86,680.1545,37.22,680.2341,39.58,679.7596,41.9399,680,44.2999,680.209,44.3865,679.1765,46.0299,678.6999,47.9036,677.6509,49.5401,677.05,51.3623,676.3388,53.1388,676.4334,53.3671,674.5649,53.856,672.8167,54.6357,671.0787,55.4397,669.3209,56.1959,667.5,56.7999,667.5,56.796,657.1364,57.0871,646.7727,56.2275,636.4091,57.0843,626.0455,57.3481,615.6818,57.2445,605.3182,57.413,594.9545,56.3168,584.5909,56.1477,574.2273,56.1785,563.8636,56.741,553.5,56.7999,553.4749,56.7394,551.8192,56.2775,549.9422,55.2817,548.1529,54.4976,546.4581,53.9413,544.6612,53.1388,544.4558,53.0537,543.7691,51.3048,543.3965,49.686,542.5986,47.891,541.9584,46.1614,541,44.2999,540.8927,44.2999,541.1064,41.9399,541.1968,39.58,540.8425,37.22,540.968,34.86,541,32.5,541.0388,32.5161,541.9329,30.8154,542.4632,28.9639,543.3392,27.2557,543.7584,25.3583,544.6612,23.6612,544.5748,23.4526,546.4932,23.084,548.1052,21.9759,550.0294,21.6212,551.7586,20.7959,553.5,20" style="stroke: #A80036; stroke-width: 1.5;"/><text fill="#000000" font-family="Panton" font-size="14" font-weight="bold" lengthAdjust="spacingAndGlyphs" textLength="47" x="551" y="43.1599">tensors</text><text fill="#000000" font-family="Panton" font-size="14" lengthAdjust="spacingAndGlyphs" textLength="8" x="601" y="43.1599">+</text><text fill="#000000" font-family="Panton" font-size="14" font-weight="bold" lengthAdjust="spacingAndGlyphs" textLength="58" x="612" y="43.1599">gradients</text><path d="M491,237.1997 L491,237.3865 L493,236.8314 L495,237.3715 L497,237.555 L499,236.5656 L501,237.1997 L501,237.1997 L500.9702,237.1823 L501.8323,235.3958 L502.8449,233.697 L503.9621,232.0591 L504.7189,230.2112 L505.9805,228.6575 L506.2212,228.7084 L506.121,226.6388 L506.7236,224.7177 L507.4119,222.8148 L507.6014,220.8064 L508.0532,218.8534 L508.0832,218.8578 L508.4098,216.3082 L508.8729,213.7784 L509.2702,211.2391 L509.7932,208.718 L509.9063,206.1372 L510.2027,206.1703 L510.5417,203.1615 L510.6896,200.1314 L511.1174,197.1325 L511.5582,194.1351 L511.5835,191.0914 L511.2643,191.062 L512.1929,187.7604 L512.0704,184.362 L512.747,181.0372 L512.6007,177.6367 L513.1289,174.2982 L513.0986,174.2958 L514.0317,167.0244 L514.2558,159.6972 L514.8982,152.4029 L515.5758,145.1113 L516,137.7998 L516.1844,137.8143 L516.5725,130.5 L517.2757,123.2105 L517.469,115.8808 L518.4229,108.611 L518.8711,101.3014 L519.1137,101.3238 L519.3769,97.9609 L519.7606,94.6092 L519.5845,91.2059 L519.8188,87.8404 L520.4165,84.5083 L520.142,84.4777 L520.7259,81.4962 L521.0006,78.4803 L521.7238,75.5143 L521.6811,72.463 L522.0938,69.4624 L521.9429,69.4404 L522.5647,66.9338 L522.5417,64.3332 L522.9773,61.7994 L523.8616,59.3311 L523.9468,56.7462 L524.1362,56.7863 L524.6807,54.8529 L524.636,52.795 L525.3292,50.8931 L525.8617,48.9572 L526.0195,46.9421 L525.8382,46.8364 L526.9788,45.2122 L528.0601,43.5535 L529.2581,41.9627 L530.0023,40.1075 L531,38.4 L531,38.8111 L533,37.9077 L535,37.798 L537,38.8476 L539,37.7627 L541,38.4 " fill="none" style="stroke: #A80036; stroke-width: 1.0;"/><polygon fill="#ADD8E6" filter="url(#fcwb3j6vbv6m6)" points="553.5,76.7999,553.5,77.0101,563.7,76.3856,573.9,76.9932,584.1,77.1996,594.3,76.0865,604.5,76.7222,614.7,76.3734,624.9,76.4164,635.1,76.7318,645.3,76.1086,655.5,77.3536,665.7,76.1696,675.9,76.6022,686.1,77.2319,696.3,76.7142,706.5,76.8682,716.7,76.768,726.9,76.9785,737.1,77.0391,747.3,77.3856,757.5,76.7999,757.5856,77.0066,759.3544,77.7413,761.068,78.3428,762.8624,79.1394,764.6606,79.9451,766.3388,80.4611,766.1167,80.3691,767.28,82.3154,767.712,83.9588,768.6999,85.8325,769.1153,87.469,770,89.2999,769.9772,89.2999,770.2472,91.6599,769.9838,94.0199,770.0351,96.3799,770.1129,98.7399,770,101.0999,770.1282,101.1529,769.2666,102.8671,768.624,104.672,767.627,106.3301,767.1586,108.2072,766.3388,109.9387,766.4088,110.1075,764.6278,110.8078,762.8815,111.5919,760.9739,111.9866,759.1846,112.6668,757.5,113.5999,757.5,112.9785,747.3,113.541,737.1,113.4033,726.9,114.2813,716.7,113.4252,706.5,113.2568,696.3,113.8281,686.1,112.933,675.9,113.0807,665.7,114.2488,655.5,114.0355,645.3,114.3343,635.1,113.2781,624.9,113.9191,614.7,114.1903,604.5,113.1274,594.3,113.504,584.1,113.7258,573.9,114.2516,563.7,113.5957,553.5,113.5999,553.559,113.7423,551.6616,112.6971,549.8781,111.9268,548.2609,111.5582,546.3375,110.4501,544.6612,109.9387,544.8179,110.0036,543.9926,108.1973,543.1142,106.369,542.3555,104.5903,541.8735,102.9261,541,101.0999,540.9002,101.0999,541.1973,98.7399,540.8158,96.3799,541.2058,94.0199,541.1614,91.6599,541,89.2999,541.0754,89.3312,541.7468,87.5382,542.6882,85.8571,543.3857,84.0749,543.9811,82.2504,544.6612,80.4611,544.6954,80.5437,546.4123,79.6887,548.2881,79.2173,549.9842,78.3121,551.7542,77.5853,553.5,76.7999" style="stroke: #A80036; stroke-width: 1.5;"/><text fill="#000000" font-family="Panton" font-size="14" lengthAdjust="spacingAndGlyphs" textLength="209" x="551" y="99.9599">linear algebra, signal processing, ...</text><path d="M491,237.1997 L491,237.3865 L493,236.8314 L495,237.3715 L497,237.555 L499,236.5656 L501,237.1997 L501,237.1997 L500.9732,237.1779 L501.8492,235.8595 L502.8601,234.6513 L503.9648,233.5196 L504.7463,232.1242 L505.9805,231.0982 L506.2195,231.1565 L506.4935,227.8146 L507.4654,224.6429 L508.5224,221.4921 L509.0841,218.2204 L509.9063,215.0122 L509.9362,215.0169 L510.2277,212.8606 L510.6555,210.7256 L511.0176,208.5804 L511.5052,206.4547 L511.5835,204.2652 L511.8793,204.3033 L512.192,201.9047 L512.3139,199.4816 L512.7151,197.0944 L513.1294,194.709 L513.1289,192.2701 L512.8103,192.235 L514.0029,187.089 L514.1464,181.8275 L515.0874,176.6539 L515.2071,171.3898 L516,166.1998 L515.9697,166.1965 L516.9018,161.0218 L517.1269,155.7693 L517.7692,150.5628 L518.4465,145.3601 L518.8711,140.1295 L519.0546,140.1532 L519.1785,137.7303 L519.6159,135.3478 L519.546,132.9 L520.2328,130.5496 L520.4165,128.1344 L520.6572,128.172 L520.9472,126.0155 L521.3566,123.8776 L521.2107,121.6531 L521.4719,119.4921 L522.0938,117.3874 L521.8254,117.3219 L522.8535,114.164 L523.5792,110.9323 L524.7434,107.8076 L525.159,104.5002 L526.0195,101.3014 L525.9014,101.205 L527.0942,100.1453 L527.7821,98.6734 L528.8291,97.4946 L530.2273,96.6026 L531,95.1999 L531,95.5872 L533,95.8528 L535,94.9139 L537,95.4836 L539,95.7247 L541,95.1999 " fill="none" style="stroke: #A80036; stroke-width: 1.0;"/><polygon fill="#ADD8E6" filter="url(#fcwb3j6vbv6m6)" points="553.5,133.5999,553.5,133.81,563.5,133.1855,573.5,133.7931,583.5,133.9995,593.5,132.8865,603.5,133.5221,613.5,133.1734,623.5,133.2164,633.5,133.5317,643.5,132.9085,653.5,134.1535,663.5,132.9696,673.5,133.4021,683.5,133.5999,683.5551,133.7329,685.2568,134.3057,687.0442,135.0853,688.7992,135.7867,690.5938,136.5838,692.3388,137.261,692.4125,137.2915,693.2514,139.1035,694.01,140.8822,694.7447,142.651,695.3462,144.3646,696,146.0999,696.1545,146.0999,696.2341,148.4598,695.7596,150.8198,696.2262,153.1798,695.9012,155.5398,696,157.8998,696.1644,157.9679,695.1153,159.6044,694.5144,161.4266,694.0317,163.2977,693.0561,164.9646,692.3388,166.7386,692.3523,166.771,690.6143,167.5751,688.8564,168.3313,687.035,168.9341,685.3044,169.756,683.5,170.3998,683.5,169.8274,673.5,170.6842,663.5,170.948,653.5,170.8443,643.5,171.0128,633.5,169.9167,623.5,169.7476,613.5,169.7784,603.5,170.3409,593.5,170.2033,583.5,171.0812,573.5,170.2251,563.5,170.0567,553.5,170.3998,553.5291,170.4701,551.6472,169.4622,549.8982,168.7754,548.2795,168.4029,546.4845,167.605,544.6612,166.7386,544.8874,166.8323,543.8298,164.9298,543.295,163.2438,542.6463,161.5106,541.5868,159.6073,541,157.8998,540.968,157.8998,541.042,155.5398,541.2173,153.1798,540.9986,150.8198,541.1542,148.4598,541,146.0999,540.8295,146.0292,541.5237,144.2457,542.6196,142.6286,542.9759,140.7051,544.0857,139.0937,544.6612,137.261,544.6875,137.3247,546.3948,136.4463,548.1516,135.6876,550.023,135.2056,551.694,134.2399,553.5,133.5999" style="stroke: #A80036; stroke-width: 1.5;"/><text fill="#000000" font-family="Panton" font-size="14" font-weight="bold" lengthAdjust="spacingAndGlyphs" textLength="18" x="551" y="156.7598">I/O</text><text fill="#000000" font-family="Panton" font-size="14" lengthAdjust="spacingAndGlyphs" textLength="23" x="572" y="156.7598">and</text><text fill="#000000" font-family="Panton" font-size="14" font-weight="bold" lengthAdjust="spacingAndGlyphs" textLength="88" x="598" y="156.7598">preprocessing</text><path d="M491,237.1997 L491,237.3865 L493,236.8314 L495,237.3715 L497,237.555 L499,236.5656 L501,237.1997 L501,237.1997 L500.9713,237.1805 L502.6237,234.4318 L504.4208,231.7799 L506.3186,229.1954 L507.8696,226.3789 L509.9063,223.8872 L510.1457,223.9438 L510.2782,221.0938 L511.1098,218.4089 L512.0267,215.7442 L512.4473,212.9622 L513.1289,210.2419 L513.1587,210.2474 L513.6892,207.1109 L514.3554,203.9994 L514.9561,200.8758 L515.6818,197.7752 L516,194.5998 L516.2933,194.6536 L516.8712,191.5258 L517.2597,188.3633 L517.9253,185.2517 L518.6038,182.1424 L518.8711,178.9576 L518.5591,178.8839 L519.8091,176.2978 L520.0319,173.4692 L521.0356,170.8249 L521.2351,167.9908 L522.0938,165.3123 L522.0684,165.2954 L524.1489,162.8331 L525.6382,159.9753 L527.4764,157.3508 L529.3438,154.746 L531,151.9998 L531,152.3698 L533,151.9963 L535,152.2551 L537,151.491 L539,152.2526 L541,151.9998 " fill="none" style="stroke: #A80036; stroke-width: 1.0;"/><polygon fill="#ADD8E6" filter="url(#fcwb3j6vbv6m6)" points="553.5,190.3998,553.5,190.61,563.8077,189.9855,574.1154,190.5931,584.4231,190.7995,594.7308,189.6864,605.0385,190.3221,615.3462,189.9733,625.6538,190.0163,635.9615,190.3316,646.2692,189.7084,656.5769,190.9534,666.8846,189.7695,677.1923,190.202,687.5,190.3998,687.5551,190.5328,689.2568,191.1056,691.0442,191.8853,692.7992,192.5866,694.5938,193.3837,696.3388,194.0609,696.4125,194.0914,697.2514,195.9034,698.01,197.6821,698.7447,199.4509,699.3462,201.1645,700,202.8998,700.1545,202.8998,700.2341,205.2598,699.7596,207.6198,700.2262,209.9797,699.9012,212.3397,700,214.6997,700.1644,214.7678,699.1153,216.4043,698.5144,218.2265,698.0317,220.0976,697.0561,221.7646,696.3388,223.5385,696.3523,223.571,694.6143,224.3751,692.8564,225.1312,691.035,225.734,689.3044,226.5559,687.5,227.1997,687.5,226.6273,677.1923,227.4841,666.8846,227.7479,656.5769,227.6442,646.2692,227.8127,635.9615,226.7166,625.6538,226.5475,615.3462,226.5783,605.0385,227.1408,594.7308,227.0032,584.4231,227.8811,574.1154,227.025,563.8077,226.8567,553.5,227.1997,553.5291,227.27,551.6472,226.2621,549.8982,225.5754,548.2795,225.2029,546.4845,224.4049,544.6612,223.5385,544.8874,223.6322,543.8298,221.7297,543.295,220.0437,542.6463,218.3106,541.5868,216.4072,541,214.6997,540.968,214.6997,541.042,212.3397,541.2173,209.9797,540.9986,207.6198,541.1542,205.2598,541,202.8998,540.8295,202.8291,541.5237,201.0456,542.6196,199.4285,542.9759,197.505,544.0857,195.8936,544.6612,194.0609,544.6875,194.1246,546.3948,193.2462,548.1516,192.4875,550.023,192.0055,551.694,191.0398,553.5,190.3998" style="stroke: #A80036; stroke-width: 1.5;"/><text fill="#000000" font-family="Panton" font-size="14" lengthAdjust="spacingAndGlyphs" textLength="139" x="551" y="213.5597">low-level deep learning</text><path d="M491,237.1997 L491,237.3865 L493,236.8314 L495,237.3715 L497,237.555 L499,236.5656 L501,237.1997 L501,237.1997 L500.9846,237.1688 L502.6967,236.1425 L504.4865,235.2722 L506.3302,234.5101 L507.988,233.3747 L509.9063,232.7622 L510.115,232.8925 L510.8874,230.6614 L512.2692,228.8107 L513.7254,227.0064 L514.7489,224.932 L516,222.9997 L516.0257,223.0158 L517.2067,221.0397 L518.5048,219.1367 L519.7464,217.1985 L521.0958,215.3276 L522.0938,213.2372 L522.2268,213.5042 L524.0096,212.6199 L525.7067,211.5635 L527.5294,210.7592 L529.3579,209.9666 L531,208.7997 L531,208.1587 L533,209.4029 L535,208.5362 L537,209.2742 L539,208.3597 L541,208.7997 " fill="none" style="stroke: #A80036; stroke-width: 1.0;"/><polygon fill="#ADD8E6" filter="url(#fcwb3j6vbv6m6)" points="553.5,247.1997,553.5,247.4099,563.5,246.7854,573.5,247.393,583.5,247.5994,593.5,246.4863,603.5,247.122,613.5,246.7732,623.5,246.8162,633.5,247.1316,643.5,246.5083,653.5,247.7533,663.5,246.5694,673.5,247.0019,683.5,247.6317,693.5,247.1997,693.4891,247.1733,695.2765,247.953,697.0315,248.6543,698.8261,249.4514,700.6016,250.2023,702.3388,250.8609,702.5192,250.9356,703.2777,252.7142,704.0125,254.4831,704.6139,256.1967,705.4105,257.9911,706,259.6997,706.2341,259.6997,705.7596,262.0597,706.2262,264.4197,705.9012,266.7797,706.1779,269.1396,706,271.4996,705.8476,271.4365,705.2467,273.2587,704.7639,275.1298,703.7883,276.7967,703.1035,278.5841,702.3388,280.3385,702.382,280.4428,700.6242,281.1989,698.8028,281.8017,697.0722,282.6236,695.1947,283.0911,693.5,283.9996,693.5,284.284,683.5,284.5478,673.5,284.4442,663.5,284.6127,653.5,283.5166,643.5,283.3475,633.5,283.3782,623.5,283.9408,613.5,283.8031,603.5,284.681,593.5,283.825,583.5,283.6566,573.5,284.2279,563.5,283.3328,553.5,283.9996,553.4338,283.8398,551.815,283.4673,550.02,282.6693,548.2904,282.0291,546.3879,280.9716,544.6612,280.3385,544.7595,280.3792,544.1108,278.646,543.0512,276.7427,542.4349,275.0229,541.771,273.2835,541,271.4996,541.2173,271.4996,540.9986,269.1396,541.1542,266.7797,540.8154,264.4197,540.7742,262.0597,541,259.6997,541.1551,259.7639,541.5114,257.8405,542.6212,256.2291,543.2603,254.4228,543.8464,252.5945,544.6612,250.8609,544.616,250.7519,546.4875,250.2699,548.1585,249.3042,550.04,248.8464,551.6617,247.7617,553.5,247.1997" style="stroke: #A80036; stroke-width: 1.5;"/><text fill="#000000" font-family="Panton" font-size="14" font-weight="bold" lengthAdjust="spacingAndGlyphs" textLength="60" x="551" y="270.3596">high-level</text><text fill="#000000" font-family="Panton" font-size="14" lengthAdjust="spacingAndGlyphs" textLength="0" x="614" y="270.3596"/><text fill="#000000" font-family="Panton" font-size="14" font-weight="bold" lengthAdjust="spacingAndGlyphs" textLength="30" x="614" y="270.3596">deep</text><text fill="#000000" font-family="Panton" font-size="14" lengthAdjust="spacingAndGlyphs" textLength="0" x="647" y="270.3596"/><text fill="#000000" font-family="Panton" font-size="14" font-weight="bold" lengthAdjust="spacingAndGlyphs" textLength="49" x="647" y="270.3596">learning</text><path d="M491,237.1997 L491,237.3865 L493,236.8314 L495,237.3715 L497,237.555 L499,236.5656 L501,237.1997 L501,237.1997 L500.9846,237.1688 L502.6967,237.9175 L504.4865,238.8221 L506.3302,239.8351 L507.988,240.4747 L509.9063,241.6372 L510.115,241.7675 L510.8874,243.4414 L512.2692,245.4957 L513.7254,247.5963 L514.7489,249.427 L516,251.3997 L516.0257,251.4157 L517.2067,253.3447 L518.5048,255.3467 L519.7464,257.3135 L521.0958,259.3475 L522.0938,261.1622 L522.2268,261.4291 L524.0096,262.3199 L525.7067,263.0385 L527.5294,264.0091 L529.3579,264.9915 L531,265.5997 L531,264.9586 L533,266.2028 L535,265.3361 L537,266.0742 L539,265.1596 L541,265.5997 " fill="none" style="stroke: #A80036; stroke-width: 1.0;"/><polygon fill="#ADD8E6" filter="url(#fcwb3j6vbv6m6)" points="553.5,303.9996,553.5,304.2098,563.2143,303.5853,572.9286,304.1929,582.6429,304.3993,592.3571,303.2862,602.0714,303.9219,611.7857,303.5731,621.5,303.9996,621.4511,303.8815,623.2591,304.7109,624.9473,305.2512,626.8739,306.3668,628.4907,306.7345,630.3388,307.6608,630.2779,307.6356,631.2041,309.4837,631.7769,311.1854,632.5565,312.9728,633.2579,314.7278,634,316.4996,634.0595,316.4996,634.0797,318.8596,634.1952,321.2196,634.2237,323.5796,634.2264,325.9396,634,328.2996,634.0784,328.332,633.4105,330.1265,632.7518,331.9247,631.5812,333.5109,631.28,335.4572,630.3388,337.1384,630.301,337.0471,628.6392,338.035,626.7402,338.4504,625.0268,339.314,623.3624,340.2957,621.5,340.7996,621.5,340.7508,611.7857,340.9049,602.0714,341.1382,592.3571,341.2158,582.6429,340.7957,572.9286,341.0868,563.2143,340.2271,553.5,340.7996,553.5363,340.8871,551.8022,340.2361,550.0212,339.472,548.2749,338.7916,546.3673,337.7219,544.6612,337.1384,544.4603,337.0552,543.7376,335.2914,543.1786,333.5954,542.4039,331.81,541.9421,330.1542,541,328.2996,540.9418,328.2996,540.8856,325.9396,541.0761,323.5796,540.7777,321.2196,540.827,318.8596,541,316.4996,541.1999,316.5824,541.8664,314.7874,542.6907,313.0578,543.0976,311.1553,544.0272,309.4693,544.6612,307.6608,544.7365,307.8426,546.3687,306.7831,548.1845,306.1668,549.9805,305.5029,551.8154,304.9326,553.5,303.9996" style="stroke: #A80036; stroke-width: 1.5;"/><text fill="#000000" font-family="Panton" font-size="14" lengthAdjust="spacingAndGlyphs" textLength="73" x="551" y="327.1596">deployment</text><path d="M491,237.1997 L491,237.3865 L493,236.8314 L495,237.3715 L497,237.555 L499,236.5656 L501,237.1997 L501,237.1997 L500.9713,237.1805 L502.6237,239.7568 L504.4208,242.4299 L506.3186,245.1704 L507.8696,247.6788 L509.9063,250.5122 L510.1457,250.5687 L510.2782,253.1769 L511.1098,255.9501 L512.0267,258.7435 L512.4473,261.4197 L513.1289,264.1575 L513.1587,264.163 L513.6892,267.2834 L514.3554,270.4287 L514.9561,273.562 L515.6818,276.7182 L516,279.7997 L516.2933,279.8535 L516.8712,282.9826 L517.2597,286.0769 L517.9253,289.2221 L518.6038,292.3697 L518.8711,295.4418 L518.5591,295.3681 L519.8091,298.2402 L520.0319,300.8696 L521.0356,303.6835 L521.2351,306.3075 L522.0938,309.0871 L522.0684,309.0702 L524.1489,311.9329 L525.6382,314.4001 L527.4764,317.1006 L529.3438,319.8208 L531,322.3996 L531,322.7696 L533,322.3961 L535,322.6549 L537,321.8908 L539,322.6524 L541,322.3996 " fill="none" style="stroke: #A80036; stroke-width: 1.0;"/><polygon fill="#ADD8E6" filter="url(#fcwb3j6vbv6m6)" points="553.5,360.7996,553.5,361.0097,563.5,360.3852,573.5,360.9928,583.5,361.1992,593.5,360.0862,603.5,360.7218,613.5,360.3731,623.5,360.7996,623.4511,360.6815,625.2591,361.5108,626.9473,362.0511,628.8739,363.1668,630.4907,363.5344,632.3388,364.4607,632.2779,364.4355,633.2041,366.2836,633.7769,367.9853,634.5565,369.7727,635.2579,371.5277,636,373.2996,636.0595,373.2996,636.0797,375.6595,636.1952,378.0195,636.2237,380.3795,636.2264,382.7395,636,385.0995,636.0784,385.132,635.4105,386.9264,634.7518,388.7246,633.5812,390.3108,633.28,392.2571,632.3388,393.9383,632.301,393.847,630.6392,394.8349,628.7402,395.2503,627.0268,396.1139,625.3624,397.0956,623.5,397.5995,623.5,397.5508,613.5,397.7048,603.5,397.9381,593.5,398.0157,583.5,397.5956,573.5,397.8867,563.5,397.0271,553.5,397.5995,553.5363,397.6871,551.8022,397.0361,550.0212,396.2719,548.2749,395.5916,546.3673,394.5218,544.6612,393.9383,544.4603,393.8551,543.7376,392.0913,543.1786,390.3953,542.4039,388.61,541.9421,386.9542,541,385.0995,540.9418,385.0995,540.8856,382.7395,541.0761,380.3795,540.7777,378.0195,540.827,375.6595,541,373.2996,541.1999,373.3823,541.8664,371.5874,542.6907,369.8577,543.0976,367.9552,544.0272,366.2692,544.6612,364.4607,544.7365,364.6426,546.3687,363.583,548.1845,362.9667,549.9805,362.3028,551.8154,361.7325,553.5,360.7996" style="stroke: #A80036; stroke-width: 1.5;"/><text fill="#000000" font-family="Panton" font-size="14" lengthAdjust="spacingAndGlyphs" textLength="75" x="551" y="383.9595">visualization</text><path d="M491,237.1997 L491,237.3865 L493,236.8314 L495,237.3715 L497,237.555 L499,236.5656 L501,237.1997 L501,237.1997 L500.9732,237.1779 L501.8492,238.3002 L502.8601,239.5325 L503.9648,240.8415 L504.7463,241.8866 L505.9805,243.3013 L506.2195,243.3596 L506.4935,246.452 L507.4654,249.7148 L508.5224,252.9983 L509.0841,256.161 L509.9063,259.3872 L509.9362,259.3919 L510.2277,261.5344 L510.6555,263.6982 L511.0176,265.8518 L511.5052,268.025 L511.5835,270.1342 L511.8793,270.1723 L512.192,272.5718 L512.3139,274.9467 L512.7151,277.3576 L513.1294,279.7702 L513.1289,282.1293 L512.8103,282.0942 L514.0029,287.3764 L514.1464,292.543 L515.0874,297.7975 L515.2071,302.9615 L516,308.1996 L515.9697,308.1963 L516.9018,313.4498 L517.1269,318.6254 L517.7692,323.8469 L518.4465,329.0723 L518.8711,334.2699 L519.0546,334.2935 L519.1785,336.6687 L519.6159,339.0842 L519.546,341.4344 L520.2328,343.8821 L520.4165,346.265 L520.6572,346.3026 L520.9472,348.4449 L521.3566,350.6058 L521.2107,352.6801 L521.4719,354.8179 L522.0938,357.0121 L521.8254,356.9466 L522.8535,360.223 L523.5792,363.4257 L524.7434,366.7354 L525.159,369.8624 L526.0195,373.098 L525.9014,373.0016 L527.0942,374.3824 L527.7821,375.3512 L528.8291,376.613 L530.2273,378.1616 L531,379.1995 L531,379.5868 L533,379.8524 L535,378.9135 L537,379.4833 L539,379.7243 L541,379.1995 " fill="none" style="stroke: #A80036; stroke-width: 1.0;"/><polygon fill="#ADD8E6" filter="url(#fcwb3j6vbv6m6)" points="553.5,417.5995,553.5,417.6695,554.3,417.4614,555.1,417.6639,555.9,417.7327,556.7,417.3617,557.5,417.5995,557.4901,417.5756,559.2134,418.2004,560.9866,418.9459,562.7946,419.7752,564.4829,420.3155,566.3388,421.2607,566.5093,421.3313,566.877,422.948,567.7424,424.771,568.6686,426.6191,569.2414,428.3208,570,430.0995,570.0227,430.0995,569.9894,432.4595,570.0595,434.8195,570.0797,437.1794,570.1952,439.5394,570,441.8994,570.2067,441.985,569.477,443.7538,568.6139,445.4674,567.9461,447.2619,567.2873,449.0601,566.3388,450.7382,566.2468,450.5162,564.6576,451.6794,562.7655,452.1114,561.1036,453.0993,559.2046,453.5147,557.5,454.3994,557.5,454.3766,556.7,454.6466,555.9,454.3832,555.1,454.4345,554.3,454.5123,553.5,454.3994,553.5531,454.5276,551.7317,453.666,550.0011,453.0234,548.1237,452.0264,546.4652,451.5581,544.6612,450.7382,544.83,450.8082,544.0658,449.0272,543.3855,447.2809,542.3157,445.3733,541.5314,443.584,541,441.8994,540.7929,441.8994,540.9804,439.5394,540.9345,437.1794,541.2271,434.8195,540.9418,432.4595,541,430.0995,540.8944,430.0557,541.8025,428.3608,542.2591,426.4789,543.0368,424.73,544.1288,423.1112,544.6612,421.2607,544.7167,421.3948,546.5226,420.7546,548.1557,419.6971,550.0052,419.1623,551.8075,418.5135,553.5,417.5995" style="stroke: #A80036; stroke-width: 1.5;"/><text fill="#000000" font-family="Panton" font-size="14" lengthAdjust="spacingAndGlyphs" textLength="9" x="551" y="440.7594">...</text><path d="M491,237.1997 L491,237.3865 L493,236.8314 L495,237.3715 L497,237.555 L499,236.5656 L501,237.1997 L501,237.1997 L500.9702,237.1823 L501.8323,238.8127 L502.8449,240.5307 L503.9621,242.3098 L504.7189,243.8787 L505.9805,245.7419 L506.2212,245.7928 L506.121,247.6448 L506.7236,249.6453 L507.4119,251.664 L507.6014,253.5773 L508.0532,255.546 L508.0832,255.5503 L508.4098,258.0872 L508.8729,260.6439 L509.2702,263.191 L509.7932,265.7565 L509.9063,268.2622 L510.2027,268.2952 L510.5417,271.3048 L510.6896,274.2931 L511.1174,277.3125 L511.5582,280.3334 L511.5835,283.308 L511.2643,283.2787 L512.1929,286.6943 L512.0704,290.0132 L512.747,293.4057 L512.6007,296.7224 L513.1289,300.1012 L513.0986,300.0988 L514.0317,307.4267 L514.2558,314.6988 L514.8982,322.0039 L515.5758,329.3117 L516,336.5996 L516.1844,336.6141 L516.5725,343.8991 L517.2757,351.2089 L517.469,358.4787 L518.4229,365.8082 L518.8711,373.098 L519.1137,373.1203 L519.3769,376.4747 L519.7606,379.8402 L519.5845,383.1542 L519.8188,386.5059 L520.4165,389.8911 L520.142,389.8605 L520.7259,392.8974 L521.0006,395.8998 L521.7238,398.9522 L521.6811,401.9192 L522.0938,404.937 L521.9429,404.915 L522.5647,407.4949 L522.5417,409.9807 L522.9773,412.5334 L523.8616,415.1515 L523.9468,417.6532 L524.1362,417.6932 L524.6807,419.6815 L524.636,421.5452 L525.3292,423.565 L525.8617,425.5507 L526.0195,427.4573 L525.8382,427.3515 L526.9788,429.1443 L528.0601,430.9023 L529.2581,432.7285 L530.0023,434.2901 L531,435.9995 L531,436.4106 L533,435.5072 L535,435.3974 L537,436.4471 L539,435.3622 L541,435.9995 " fill="none" style="stroke: #A80036; stroke-width: 1.0;"/><path d="M351,251.3997 L351,251.5865 L353,251.0314 L355,251.5715 L357,251.755 L359,250.7656 L361,251.3997 L361,251.3997 L360.9852,251.3685 L363.9189,249.8084 L366.9271,248.4056 L369.987,247.1123 L372.8685,245.442 L376,244.2997 L376.1053,244.5221 L378.8802,242.6265 L381.9624,241.3803 L385.0821,240.2132 L387.9837,238.5852 L391,237.1997 L391,237.2604 L393,237.1713 L395,237.3584 L397,237.4123 L399,237.7203 L401,237.1997 " fill="none" style="stroke: #A80036; stroke-width: 1.0;"/><polygon fill="#FFFFFF" filter="url(#fcwb3j6vbv6m6)" points="413.5,275.5997,413.5,275.6697,422.3,275.4616,431.1,275.6641,439.9,275.7329,448.7,275.3619,457.5,275.5997,457.4901,275.5757,459.2134,276.2006,460.9866,276.946,462.7946,277.7754,464.4829,278.3157,466.3388,279.2608,466.5093,279.3315,466.877,280.9482,467.7424,282.7711,468.6686,284.6192,469.2414,286.321,470,288.0997,470.0227,288.0997,469.9894,290.4597,470.0595,292.8196,470.0797,295.1796,470.1952,297.5396,470,299.8996,470.2067,299.9852,469.477,301.754,468.6139,303.4676,467.9461,305.262,467.2873,307.0602,466.3388,308.7384,466.2468,308.5163,464.6576,309.6796,462.7655,310.1116,461.1036,311.0995,459.2046,311.5149,457.5,312.3996,457.5,312.3768,448.7,312.6468,439.9,312.3834,431.1,312.4347,422.3,312.5125,413.5,312.3996,413.5531,312.5278,411.7317,311.6662,410.0011,311.0236,408.1237,310.0266,406.4652,309.5582,404.6612,308.7384,404.83,308.8084,404.0658,307.0274,403.3855,305.2811,402.3157,303.3735,401.5314,301.5842,401,299.8996,400.7929,299.8996,400.9804,297.5396,400.9345,295.1796,401.2271,292.8196,400.9418,290.4597,401,288.0997,400.8944,288.0559,401.8025,286.361,402.2591,284.4791,403.0368,282.7301,404.1288,281.1114,404.6612,279.2608,404.7167,279.395,406.5226,278.7548,408.1557,277.6973,410.0052,277.1624,411.8075,276.5137,413.5,275.5997" style="stroke: #A80036; stroke-width: 1.5;"/><text fill="#000000" font-family="Panton" font-size="14" lengthAdjust="spacingAndGlyphs" textLength="49" x="411" y="298.7596">C++ API</text><path d="M351,251.3997 L351,251.5865 L353,251.0314 L355,251.5715 L357,251.755 L359,250.7656 L361,251.3997 L361,251.3997 L360.9793,251.372 L362.6678,252.5791 L364.4605,253.9257 L366.3256,255.3692 L367.941,256.4786 L369.9063,258.0559 L370.1334,258.1505 L370.8664,260.8771 L372.2626,263.8797 L373.7397,266.9159 L374.7461,269.7563 L376,272.6997 L376.028,272.7113 L377.2056,275.623 L378.5108,278.5876 L379.7544,281.5267 L381.1153,284.5147 L382.0938,287.3434 L382.2723,287.5823 L384.0557,288.9165 L385.724,290.0965 L387.5608,291.5022 L389.4056,292.9184 L391,293.9996 L391,293.3586 L393,294.6028 L395,293.7361 L397,294.4741 L399,293.5596 L401,293.9996 " fill="none" style="stroke: #A80036; stroke-width: 1.0;"/><polygon fill="#FFFFFF" filter="url(#fcwb3j6vbv6m6)" points="413.5,332.3996,413.5,332.6098,423.1,331.9853,432.7,332.5929,442.3,332.7993,451.9,331.6862,461.5,332.3996,461.4901,332.3757,463.2134,333.0005,464.9866,333.746,466.7946,334.5753,468.4829,335.1156,470.3388,336.0608,470.5093,336.1314,470.877,337.7481,471.7424,339.5711,472.6686,341.4192,473.2414,343.1209,474,344.8996,474.0227,344.8996,473.9894,347.2596,474.0595,349.6196,474.0797,351.9796,474.1952,354.3395,474,356.6995,474.2067,356.7851,473.477,358.5539,472.6139,360.2675,471.9461,362.062,471.2873,363.8602,470.3388,365.5384,470.2468,365.3163,468.6576,366.4795,466.7655,366.9115,465.1036,367.8995,463.2046,368.3148,461.5,369.1995,461.5,369.131,451.9,369.9411,442.3,369.1508,432.7,369.3048,423.1,369.5382,413.5,369.1995,413.5531,369.3277,411.7317,368.4661,410.0011,367.8235,408.1237,366.8265,406.4652,366.3582,404.6612,365.5384,404.83,365.6083,404.0658,363.8273,403.3855,362.081,402.3157,360.1734,401.5314,358.3841,401,356.6995,400.7929,356.6995,400.9804,354.3395,400.9345,351.9796,401.2271,349.6196,400.9418,347.2596,401,344.8996,400.8944,344.8558,401.8025,343.1609,402.2591,341.279,403.0368,339.5301,404.1288,337.9113,404.6612,336.0608,404.7167,336.1949,406.5226,335.5547,408.1557,334.4972,410.0052,333.9624,411.8075,333.3137,413.5,332.3996" style="stroke: #A80036; stroke-width: 1.5;"/><text fill="#000000" font-family="Panton" font-size="14" lengthAdjust="spacingAndGlyphs" textLength="53" x="411" y="355.5595">Java API</text><path d="M351,251.3997 L351,251.5865 L353,251.0314 L355,251.5715 L357,251.755 L359,250.7656 L361,251.3997 L361,251.3997 L360.97,251.3825 L362.6168,254.4116 L364.4146,257.5274 L366.3175,260.7034 L367.8584,263.6718 L369.9063,266.9309 L370.1474,266.9797 L370.2762,270.0592 L371.1092,273.2813 L372.028,276.5207 L372.447,279.659 L373.1289,282.8504 L373.1589,282.8551 L373.6891,286.4981 L374.3557,290.1624 L374.9566,293.8165 L375.6829,297.4902 L376,301.0996 L376.2946,301.146 L376.8724,304.7964 L377.2602,308.4169 L377.9262,312.0812 L378.6052,315.7475 L378.8711,319.3488 L378.5569,319.2852 L379.8112,322.5926 L380.031,325.6905 L381.0372,328.9476 L381.2336,332.0408 L382.0938,335.2683 L382.0673,335.2532 L384.1609,338.5385 L385.6375,341.47 L387.4781,344.6103 L389.3493,347.7682 L391,350.7996 L391,351.1695 L393,350.7961 L395,351.0549 L397,350.2907 L399,351.0523 L401,350.7996 " fill="none" style="stroke: #A80036; stroke-width: 1.0;"/><polygon fill="#FFFFFF" filter="url(#fcwb3j6vbv6m6)" points="413.5,389.1995,413.5,389.2696,420.7,389.0614,427.9,389.264,435.1,389.3328,442.3,388.9617,449.5,389.1995,449.4901,389.1756,451.2134,389.8004,452.9866,390.5459,454.7946,391.3752,456.4829,391.9155,458.3388,392.8607,458.5093,392.9313,458.877,394.5481,459.7424,396.371,460.6686,398.2191,461.2414,399.9208,462,401.6995,462.0227,401.6995,461.9894,404.0595,462.0595,406.4195,462.0797,408.7795,462.1952,411.1395,462,413.4995,462.2067,413.5851,461.477,415.3539,460.6139,417.0675,459.9461,418.8619,459.2873,420.6601,458.3388,422.3383,458.2468,422.1162,456.6576,423.2795,454.7655,423.7114,453.1036,424.6994,451.2046,425.1148,449.5,425.9995,449.5,425.9766,442.3,426.2467,435.1,425.9832,427.9,426.0346,420.7,426.1123,413.5,425.9995,413.5531,426.1276,411.7317,425.266,410.0011,424.6234,408.1237,423.6265,406.4652,423.1581,404.6612,422.3383,404.83,422.4082,404.0658,420.6272,403.3855,418.8809,402.3157,416.9734,401.5314,415.184,401,413.4995,400.7929,413.4995,400.9804,411.1395,400.9345,408.7795,401.2271,406.4195,400.9418,404.0595,401,401.6995,400.8944,401.6558,401.8025,399.9609,402.2591,398.0789,403.0368,396.33,404.1288,394.7112,404.6612,392.8607,404.7167,392.9949,406.5226,392.3546,408.1557,391.2971,410.0052,390.7623,411.8075,390.1136,413.5,389.1995" style="stroke: #A80036; stroke-width: 1.5;"/><text fill="#000000" font-family="Panton" font-size="14" lengthAdjust="spacingAndGlyphs" textLength="41" x="411" y="412.3595">Go API</text><path d="M351,251.3997 L351,251.5865 L353,251.0314 L355,251.5715 L357,251.755 L359,250.7656 L361,251.3997 L361,251.3997 L360.9723,251.3791 L361.8439,252.6291 L362.8553,253.9828 L363.964,255.4087 L364.7376,256.5859 L365.9805,258.1114 L366.2207,258.1647 L366.4921,261.5896 L367.465,265.1702 L368.5234,268.7697 L369.0839,272.2587 L369.9063,275.8059 L369.9363,275.8102 L370.2276,278.1683 L370.6557,280.5458 L371.0178,282.9139 L371.5058,285.2999 L371.5835,287.6277 L371.8797,287.6624 L372.1924,290.3017 L372.3141,292.9187 L372.7154,295.5684 L373.1298,298.2197 L373.1289,300.8223 L372.81,300.7904 L374.0032,306.5878 L374.1462,312.2801 L375.0876,318.0523 L375.2069,323.7422 L376,329.4996 L375.9697,329.4966 L376.9022,335.2679 L377.1269,340.9684 L377.7692,346.7106 L378.4466,352.4564 L378.8711,358.1769 L379.0548,358.1984 L379.1785,360.8156 L379.616,363.4696 L379.5457,366.0641 L380.233,368.7473 L380.4165,371.3715 L380.6577,371.4057 L380.9476,373.7636 L381.3572,376.1385 L381.2103,378.4344 L381.4713,380.7882 L382.0938,383.1933 L381.8241,383.1334 L382.8534,386.7265 L383.5788,390.2522 L384.7449,393.8756 L385.1586,397.3321 L386.0195,400.8878 L385.8971,400.7969 L387.0971,402.2906 L387.7737,403.3958 L388.8225,404.7773 L390.2355,406.429 L391,407.5995 L391,407.9867 L393,408.2524 L395,407.3134 L397,407.8832 L399,408.1243 L401,407.5995 " fill="none" style="stroke: #A80036; stroke-width: 1.0;"/><polygon fill="#FFFFFF" filter="url(#fcwb3j6vbv6m6)" points="413.5,445.9995,413.5,446.0695,414.3,445.8613,415.1,446.0639,415.9,446.1327,416.7,445.7617,417.5,445.9995,417.4901,445.9755,419.2134,446.6003,420.9866,447.3458,422.7946,448.1752,424.4829,448.7155,426.3388,449.6606,426.5093,449.7312,426.877,451.348,427.7424,453.1709,428.6686,455.019,429.2414,456.7207,430,458.4995,430.0227,458.4995,429.9894,460.8594,430.0595,463.2194,430.0797,465.5794,430.1952,467.9394,430,470.2994,430.2067,470.385,429.477,472.1538,428.6139,473.8674,427.9461,475.6618,427.2873,477.46,426.3388,479.1382,426.2468,478.9161,424.6576,480.0794,422.7655,480.5114,421.1036,481.4993,419.2046,481.9147,417.5,482.7994,417.5,482.7765,416.7,483.0466,415.9,482.7831,415.1,482.8345,414.3,482.9123,413.5,482.7994,413.5531,482.9276,411.7317,482.0659,410.0011,481.4234,408.1237,480.4264,406.4652,479.958,404.6612,479.1382,404.83,479.2081,404.0658,477.4272,403.3855,475.6809,402.3157,473.7733,401.5314,471.984,401,470.2994,400.7929,470.2994,400.9804,467.9394,400.9345,465.5794,401.2271,463.2194,400.9418,460.8594,401,458.4995,400.8944,458.4557,401.8025,456.7608,402.2591,454.8789,403.0368,453.1299,404.1288,451.5112,404.6612,449.6606,404.7167,449.7948,406.5226,449.1546,408.1557,448.0971,410.0052,447.5622,411.8075,446.9135,413.5,445.9995" style="stroke: #A80036; stroke-width: 1.5;"/><text fill="#000000" font-family="Panton" font-size="14" lengthAdjust="spacingAndGlyphs" textLength="9" x="411" y="469.1594">...</text><path d="M351,251.3997 L351,251.5865 L353,251.0314 L355,251.5715 L357,251.755 L359,250.7656 L361,251.3997 L361,251.3997 L360.9697,251.3832 L361.8296,253.1396 L362.8425,254.9792 L363.9617,256.8766 L364.7145,258.5747 L365.9805,260.552 L366.2219,260.5997 L366.1202,262.5987 L366.7233,264.7368 L367.4125,266.8918 L367.6013,268.9481 L368.0532,271.0564 L368.0833,271.0605 L368.4098,273.7794 L368.8731,276.5169 L369.2704,279.2454 L369.7936,281.9911 L369.9063,284.6809 L370.2029,284.7118 L370.542,287.9363 L370.6897,291.1408 L371.1175,294.3746 L371.5585,297.6097 L371.5835,300.8015 L371.2641,300.7741 L372.193,304.4258 L372.0704,307.9873 L372.7471,311.6174 L372.6006,315.1768 L373.1289,318.7941 L373.0985,318.7919 L374.0318,326.6394 L374.2557,334.4347 L374.8982,342.2608 L375.5759,350.0895 L376,357.8996 L376.1845,357.9131 L376.5725,365.7205 L377.2757,373.5511 L377.4689,381.3442 L378.4229,389.1931 L378.8711,397.005 L379.1138,397.0258 L379.377,400.6204 L379.7607,404.2253 L379.5844,407.7822 L379.8186,411.3743 L380.4165,414.9976 L380.1418,414.969 L380.7259,418.219 L381.0005,421.4368 L381.7241,424.7013 L381.6811,427.8861 L382.0938,431.1182 L381.9427,431.0977 L382.5649,433.8568 L382.5413,436.5281 L382.9769,439.2618 L383.862,442.0567 L383.9468,444.7427 L384.1367,444.7802 L384.6816,446.9068 L384.6356,448.9168 L385.3296,451.0728 L385.8624,453.197 L386.0195,455.2471 L385.8351,455.1467 L386.9782,457.0572 L388.0609,458.9348 L389.2623,460.8769 L390.0023,462.5681 L391,464.3994 L391,464.8106 L393,463.9072 L395,463.7974 L397,464.8471 L399,463.7621 L401,464.3994 " fill="none" style="stroke: #A80036; stroke-width: 1.0;"/><polygon fill="#D3D3D3" filter="url(#fcwb3j6vbv6m6)" points="132.5,139.3999,132.5,139.6101,143.1667,138.9856,153.8333,139.5932,164.5,139.7996,175.1667,138.6865,185.8333,139.3222,196.5,139.3999,196.4456,139.2685,198.2188,140.014,200.0268,140.8433,201.7151,141.3837,203.6417,142.4993,205.3388,143.061,205.1447,142.9806,206.0102,144.8036,206.9363,146.6517,207.5091,148.3534,208.2888,150.1408,209,151.8999,208.9894,151.8999,209.0595,157.6198,209.0797,163.3398,209.1952,169.0598,209.2237,174.7798,209,180.4997,209.2092,180.5864,208.3462,182.3,207.6783,184.0944,207.0196,185.8926,205.849,187.4788,205.3388,189.3386,205.4254,189.5475,203.5332,189.9795,201.8714,190.9674,199.9724,191.3828,198.259,192.2464,196.5,192.9997,196.5,193.7413,185.8333,192.951,175.1667,193.105,164.5,193.3384,153.8333,193.416,143.1667,192.9958,132.5,192.9997,132.5366,193.0882,130.6592,192.0912,129.0007,191.6228,127.2666,190.9718,125.4856,190.2077,123.6612,189.3386,123.85,189.4168,122.7802,187.5092,121.9959,185.7198,121.2731,183.956,120.7141,182.26,120,180.4997,119.9345,180.4997,120.2271,174.7798,119.9418,169.0598,119.8856,163.3398,120.0761,157.6198,120,151.8999,119.7946,151.8148,120.5724,150.0659,121.6643,148.4471,122.3309,146.6521,123.1551,144.9225,123.6612,143.061,123.6201,142.9619,125.4696,142.4271,127.272,141.7784,128.9042,140.7189,130.72,140.1026,132.5,139.3999" style="stroke: #A80036; stroke-width: 1.5;"/><text fill="#000000" font-family="Panton" font-size="14" lengthAdjust="spacingAndGlyphs" textLength="69" x="130" y="162.5598">Processing</text><text fill="#000000" font-family="Panton" font-size="14" lengthAdjust="spacingAndGlyphs" textLength="33" x="133" y="179.3597">Units</text><polygon fill="#D3D3D3" filter="url(#fcwb3j6vbv6m6)" points="34.5,62.5999,34.5,62.67,39.1,62.4618,43.7,62.6644,48.3,62.7332,52.9,62.3621,57.5,62.5999,57.4901,62.576,59.2134,63.2008,60.9866,63.9463,62.7946,64.7757,64.4829,65.316,66.3388,66.2611,66.5093,66.3317,66.877,67.9485,67.7424,69.7714,68.6686,71.6195,69.2414,73.3212,70,75.0999,70.0227,75.0999,69.9894,77.4599,70.0595,79.8199,70.0797,82.1799,70.1952,84.5399,70,86.8999,70.2067,86.9855,69.477,88.7543,68.6139,90.4679,67.9461,92.2623,67.2873,94.0605,66.3388,95.7387,66.2468,95.5166,64.6576,96.6799,62.7655,97.1119,61.1036,98.0998,59.2046,98.5152,57.5,99.3999,57.5,99.377,52.9,99.6471,48.3,99.3836,43.7,99.435,39.1,99.5127,34.5,99.3999,34.5531,99.5281,32.7317,98.6664,31.0011,98.0239,29.1237,97.0269,27.4652,96.5585,25.6612,95.7387,25.83,95.8086,25.0658,94.0276,24.3855,92.2814,23.3157,90.3738,22.5314,88.5844,22,86.8999,21.7929,86.8999,21.9804,84.5399,21.9345,82.1799,22.2271,79.8199,21.9418,77.4599,22,75.0999,21.8944,75.0562,22.8025,73.3613,23.2591,71.4793,24.0368,69.7304,25.1288,68.1117,25.6612,66.2611,25.7167,66.3953,27.5226,65.7551,29.1557,64.6975,31.0052,64.1627,32.8075,63.514,34.5,62.5999" style="stroke: #A80036; stroke-width: 1.5;"/><text fill="#000000" font-family="Panton" font-size="14" lengthAdjust="spacingAndGlyphs" textLength="28" x="32" y="85.7599">CPU</text><path d="M120,166.1998 L120,166.3866 L118,165.8315 L116,166.3716 L114,166.5551 L112,165.5657 L110,166.1998 L110,166.1998 L109.9713,166.1806 L108.0612,163.4319 L106.2958,160.78 L104.6311,158.1955 L102.6196,155.379 L101.0938,152.8873 L101.3332,152.9439 L100.1766,150.0939 L99.7191,147.409 L99.347,144.7443 L98.4785,141.9623 L97.8711,139.242 L97.9009,139.2475 L97.2829,136.111 L96.8007,132.9995 L96.253,129.8759 L95.8302,126.7753 L95,123.5999 L95.2933,123.6537 L94.7227,120.5259 L93.9629,117.3634 L93.48,114.2517 L93.0101,111.1425 L92.1289,107.9577 L91.817,107.884 L91.7779,105.2979 L90.7116,102.4693 L90.4262,99.825 L89.3367,96.9909 L88.9063,94.3124 L88.8809,94.2955 L87.3989,91.8332 L85.3257,88.9754 L83.6014,86.3509 L81.9063,83.7461 L80,80.9999 L80,81.3699 L78,80.9964 L76,81.2552 L74,80.4911 L72,81.2527 L70,80.9999 " fill="none" style="stroke: #A80036; stroke-width: 1.0;"/><polygon fill="#D3D3D3" filter="url(#fcwb3j6vbv6m6)" points="34.5,119.3999,34.5,119.4699,39.1,119.2618,43.7,119.4643,48.3,119.5331,52.9,119.1621,57.5,119.3999,57.4901,119.3759,59.2134,120.0008,60.9866,120.7462,62.7946,121.5756,64.4829,122.1159,66.3388,123.061,66.5093,123.1317,66.877,124.7484,67.7424,126.5713,68.6686,128.4194,69.2414,130.1212,70,131.8999,70.0227,131.8999,69.9894,134.2599,70.0595,136.6198,70.0797,138.9798,70.1952,141.3398,70,143.6998,70.2067,143.7854,69.477,145.5542,68.6139,147.2678,67.9461,149.0622,67.2873,150.8604,66.3388,152.5386,66.2468,152.3165,64.6576,153.4798,62.7655,153.9118,61.1036,154.8997,59.2046,155.3151,57.5,156.1998,57.5,156.177,52.9,156.447,48.3,156.1836,43.7,156.2349,39.1,156.3127,34.5,156.1998,34.5531,156.328,32.7317,155.4664,31.0011,154.8238,29.1237,153.8268,27.4652,153.3584,25.6612,152.5386,25.83,152.6086,25.0658,150.8276,24.3855,149.0813,23.3157,147.1737,22.5314,145.3844,22,143.6998,21.7929,143.6998,21.9804,141.3398,21.9345,138.9798,22.2271,136.6198,21.9418,134.2599,22,131.8999,21.8944,131.8561,22.8025,130.1612,23.2591,128.2793,24.0368,126.5304,25.1288,124.9116,25.6612,123.061,25.7167,123.1952,27.5226,122.555,29.1557,121.4975,31.0052,120.9626,32.8075,120.3139,34.5,119.3999" style="stroke: #A80036; stroke-width: 1.5;"/><text fill="#000000" font-family="Panton" font-size="14" lengthAdjust="spacingAndGlyphs" textLength="28" x="32" y="142.5598">GPU</text><path d="M120,166.1998 L120,166.3866 L118,165.8315 L116,166.3716 L114,166.5551 L112,165.5657 L110,166.1998 L110,166.1998 L109.9846,166.1689 L108.1342,165.1426 L106.3615,164.2722 L104.6427,163.5102 L102.738,162.3748 L101.0938,161.7623 L101.3025,161.8926 L99.6374,159.6615 L98.5817,157.8108 L97.6004,156.0065 L96.1864,153.9321 L95,151.9998 L95.0257,152.0159 L93.7692,150.0398 L92.6298,148.1368 L91.4339,146.1986 L90.3458,144.3277 L88.9063,142.2373 L89.0393,142.5043 L87.2596,141.62 L85.3942,140.5636 L83.6544,139.7592 L81.9204,138.9667 L80,137.7998 L80,137.1588 L78,138.403 L76,137.5363 L74,138.2743 L72,137.3598 L70,137.7998 " fill="none" style="stroke: #A80036; stroke-width: 1.0;"/><polygon fill="#D3D3D3" filter="url(#fcwb3j6vbv6m6)" points="35.5,176.1998,35.5,176.2699,39.9,176.0617,44.3,176.2642,48.7,176.333,53.1,175.962,57.5,176.1998,57.4901,176.1759,59.2134,176.8007,60.9866,177.5462,62.7946,178.3755,64.4829,178.9158,66.3388,179.861,66.5093,179.9316,66.877,181.5483,67.7424,183.3713,68.6686,185.2194,69.2414,186.9211,70,188.6998,70.0227,188.6998,69.9894,191.0598,70.0595,193.4198,70.0797,195.7798,70.1952,198.1397,70,200.4997,70.2067,200.5853,69.477,202.3541,68.6139,204.0677,67.9461,205.8622,67.2873,207.6604,66.3388,209.3386,66.2468,209.1165,64.6576,210.2797,62.7655,210.7117,61.1036,211.6997,59.2046,212.115,57.5,212.9997,57.5,212.9769,53.1,213.2469,48.7,212.9835,44.3,213.0348,39.9,213.1126,35.5,212.9997,35.5531,213.1279,33.7317,212.2663,32.0011,211.6237,30.1237,210.6267,28.4652,210.1584,26.6612,209.3386,26.83,209.4085,26.0658,207.6275,25.3855,205.8812,24.3157,203.9736,23.5314,202.1843,23,200.4997,22.7929,200.4997,22.9804,198.1397,22.9345,195.7798,23.2271,193.4198,22.9418,191.0598,23,188.6998,22.8944,188.656,23.8025,186.9611,24.2591,185.0792,25.0368,183.3303,26.1288,181.7115,26.6612,179.861,26.7167,179.9951,28.5226,179.3549,30.1557,178.2974,32.0052,177.7626,33.8075,177.1139,35.5,176.1998" style="stroke: #A80036; stroke-width: 1.5;"/><text fill="#000000" font-family="Panton" font-size="14" lengthAdjust="spacingAndGlyphs" textLength="27" x="33" y="199.3597">TPU</text><path d="M120,166.1998 L120,166.3866 L118,165.8315 L116,166.3716 L114,166.5551 L112,165.5657 L110,166.1998 L110,166.1998 L109.9846,166.1689 L108.1342,166.9176 L106.3615,167.8222 L104.6427,168.8352 L102.738,169.4748 L101.0938,170.6373 L101.3025,170.7676 L99.6374,172.4415 L98.5817,174.4957 L97.6004,176.5964 L96.1864,178.4271 L95,180.3998 L95.0257,180.4158 L93.7692,182.3448 L92.6298,184.3468 L91.4339,186.3136 L90.3458,188.3476 L88.9063,190.1623 L89.0393,190.4292 L87.2596,191.32 L85.3942,192.0386 L83.6544,193.0092 L81.9204,193.9916 L80,194.5998 L80,193.9587 L78,195.2029 L76,194.3362 L74,195.0743 L72,194.1597 L70,194.5998 " fill="none" style="stroke: #A80036; stroke-width: 1.0;"/><polygon fill="#D3D3D3" filter="url(#fcwb3j6vbv6m6)" points="53.5,232.9997,53.5,233.0698,54.3,232.8616,55.1,233.0642,55.9,233.133,56.7,232.7619,57.5,232.9997,57.4901,232.9758,59.2134,233.6006,60.9866,234.3461,62.7946,235.1754,64.4829,235.7157,66.3388,236.6609,66.5093,236.7315,66.877,238.3483,67.7424,240.1712,68.6686,242.0193,69.2414,243.721,70,245.4997,70.0227,245.4997,69.9894,247.8597,70.0595,250.2197,70.0797,252.5797,70.1952,254.9397,70,257.2997,70.2067,257.3853,69.477,259.1541,68.6139,260.8677,67.9461,262.6621,67.2873,264.4603,66.3388,266.1385,66.2468,265.9164,64.6576,267.0797,62.7655,267.5116,61.1036,268.4996,59.2046,268.915,57.5,269.7997,57.5,269.7768,56.7,270.0469,55.9,269.7834,55.1,269.8348,54.3,269.9125,53.5,269.7997,53.5531,269.9278,51.7317,269.0662,50.0011,268.4236,48.1237,267.4267,46.4652,266.9583,44.6612,266.1385,44.83,266.2084,44.0658,264.4274,43.3855,262.6812,42.3157,260.7736,41.5314,258.9842,41,257.2997,40.7929,257.2997,40.9804,254.9397,40.9345,252.5797,41.2271,250.2197,40.9418,247.8597,41,245.4997,40.8944,245.456,41.8025,243.7611,42.2591,241.8791,43.0368,240.1302,44.1288,238.5114,44.6612,236.6609,44.7167,236.7951,46.5226,236.1549,48.1557,235.0973,50.0052,234.5625,51.8075,233.9138,53.5,232.9997" style="stroke: #A80036; stroke-width: 1.5;"/><text fill="#000000" font-family="Panton" font-size="14" lengthAdjust="spacingAndGlyphs" textLength="9" x="51" y="256.1597">...</text><path d="M120,166.1998 L120,166.3866 L118,165.8315 L116,166.3716 L114,166.5551 L112,165.5657 L110,166.1998 L110,166.1998 L109.9713,166.1806 L108.0612,168.7569 L106.2958,171.43 L104.6311,174.1704 L102.6196,176.6789 L101.0938,179.5123 L101.3332,179.5688 L100.1766,182.177 L99.7191,184.9502 L99.347,187.7436 L98.4785,190.4198 L97.8711,193.1576 L97.9009,193.1631 L97.2829,196.2834 L96.8007,199.4288 L96.253,202.5621 L95.8302,205.7183 L95,208.7997 L95.2933,208.8536 L94.7227,211.9827 L93.9629,215.077 L93.48,218.2222 L93.0101,221.3698 L92.1289,224.4419 L91.817,224.3682 L91.7779,227.2403 L90.7116,229.8697 L90.4262,232.6836 L89.3367,235.3076 L88.9063,238.0872 L88.8809,238.0703 L87.3989,240.933 L85.3257,243.4002 L83.6014,246.1007 L81.9063,248.8209 L80,251.3997 L80,251.7697 L78,251.3962 L76,251.655 L74,250.8909 L72,251.6525 L70,251.3997 " fill="none" style="stroke: #A80036; stroke-width: 1.0;"/><path d="M259,251.3997 L259,251.5865 L257,251.0314 L255,251.5715 L253,251.755 L251,250.7656 L249,251.3997 L249,251.3997 L248.9713,251.3805 L247.0612,248.6318 L245.2958,245.9799 L243.6311,243.3954 L241.6196,240.5788 L240.0938,238.0872 L240.3332,238.1438 L239.1766,235.2938 L238.7191,232.6089 L238.347,229.9442 L237.4785,227.1622 L236.8711,224.4419 L236.9009,224.4474 L236.2829,221.3109 L235.8007,218.1994 L235.253,215.0758 L234.8302,211.9752 L234,208.7997 L234.2933,208.8536 L233.7227,205.7258 L232.9629,202.5633 L232.48,199.4516 L232.0101,196.3424 L231.1289,193.1576 L230.817,193.0839 L230.7779,190.4978 L229.7116,187.6692 L229.4262,185.0249 L228.3367,182.1908 L227.9063,179.5123 L227.8809,179.4954 L226.3989,177.0331 L224.3257,174.1752 L222.6014,171.5508 L220.9063,168.946 L219,166.1998 L219,166.5698 L217,166.1963 L215,166.4551 L213,165.691 L211,166.4526 L209,166.1998 " fill="none" style="stroke: #A80036; stroke-width: 1.0;"/><polygon fill="#D3D3D3" filter="url(#fcwb3j6vbv6m6)" points="141.5,338.1996,141.5,338.4098,150.6667,337.7853,159.8333,338.3929,169,338.5993,178.1667,337.4862,187.3333,338.1219,196.5,338.1996,196.4456,338.0683,198.2188,338.8137,200.0268,339.6431,201.7151,340.1834,203.6417,341.299,205.3388,341.8608,205.1447,341.7804,206.0102,343.6033,206.9363,345.4514,207.5091,347.1531,208.2888,348.9406,209,350.6996,208.9894,350.6996,209.0595,356.4196,209.0797,362.1396,209.1952,367.8595,209.2237,373.5795,209,379.2995,209.2092,379.3861,208.3462,381.0997,207.6783,382.8941,207.0196,384.6923,205.849,386.2785,205.3388,388.1383,205.4254,388.3473,203.5332,388.7792,201.8714,389.7672,199.9724,390.1826,198.259,391.0461,196.5,391.7995,196.5,392.5411,187.3333,391.7507,178.1667,391.9048,169,392.1381,159.8333,392.2157,150.6667,391.7956,141.5,391.7995,141.5366,391.8879,139.6592,390.891,138.0007,390.4226,136.2666,389.7716,134.4856,389.0074,132.6612,388.1383,132.85,388.2165,131.7802,386.3089,130.9959,384.5196,130.2731,382.7557,129.7141,381.0597,129,379.2995,128.9345,379.2995,129.2271,373.5795,128.9418,367.8595,128.8856,362.1396,129.0761,356.4196,129,350.6996,128.7946,350.6146,129.5724,348.8656,130.6643,347.2469,131.3309,345.4519,132.1551,343.7222,132.6612,341.8608,132.6201,341.7617,134.4696,341.2268,136.272,340.5781,137.9042,339.5186,139.72,338.9023,141.5,338.1996" style="stroke: #A80036; stroke-width: 1.5;"/><text fill="#000000" font-family="Panton" font-size="14" lengthAdjust="spacingAndGlyphs" textLength="60" x="139" y="361.3596">Operating</text><text fill="#000000" font-family="Panton" font-size="14" lengthAdjust="spacingAndGlyphs" textLength="54" x="142" y="378.1595">Systems</text><polygon fill="#D3D3D3" filter="url(#fcwb3j6vbv6m6)" points="22.5,289.7997,22.5,289.8697,31.3,289.6615,40.1,289.8641,48.9,289.9329,57.7,289.5619,66.5,289.7997,66.4901,289.7757,68.2134,290.4005,69.9866,291.146,71.7946,291.9754,73.4829,292.5157,75.3388,293.4608,75.5093,293.5314,75.877,295.1482,76.7424,296.9711,77.6686,298.8192,78.2414,300.5209,79,302.2997,79.0227,302.2997,78.9894,304.6596,79.0595,307.0196,79.0797,309.3796,79.1952,311.7396,79,314.0996,79.2067,314.1852,78.477,315.954,77.6139,317.6676,76.9461,319.462,76.2873,321.2602,75.3388,322.9384,75.2468,322.7163,73.6576,323.8796,71.7655,324.3116,70.1036,325.2995,68.2046,325.7149,66.5,326.5996,66.5,326.5767,57.7,326.8468,48.9,326.5833,40.1,326.6347,31.3,326.7125,22.5,326.5996,22.5531,326.7278,20.7317,325.8661,19.0011,325.2236,17.1237,324.2266,15.4652,323.7582,13.6612,322.9384,13.83,323.0083,13.0658,321.2274,12.3855,319.4811,11.3157,317.5735,10.5314,315.7842,10,314.0996,9.7929,314.0996,9.9804,311.7396,9.9345,309.3796,10.2271,307.0196,9.9418,304.6596,10,302.2997,9.8944,302.2559,10.8025,300.561,11.2591,298.6791,12.0368,296.9301,13.1288,295.3114,13.6612,293.4608,13.7167,293.595,15.5226,292.9548,17.1557,291.8973,19.0052,291.3624,20.8075,290.7137,22.5,289.7997" style="stroke: #A80036; stroke-width: 1.5;"/><text fill="#000000" font-family="Panton" font-size="14" lengthAdjust="spacingAndGlyphs" textLength="49" x="20" y="312.9596">Android</text><path d="M129,364.9995 L129,365.1864 L127,364.6313 L125,365.1714 L123,365.3548 L121,364.3654 L119,364.9995 L119,364.9995 L118.9756,364.9751 L117.085,363.0903 L115.3172,361.3288 L113.6349,359.6531 L111.6581,357.6819 L110.0938,356.1246 L110.3257,356.2067 L109.1852,354.2116 L108.7218,352.4565 L108.3411,350.7305 L107.4797,348.8343 L106.8711,347.0277 L106.9003,347.0357 L106.2832,344.9383 L105.7992,342.8775 L105.2509,340.799 L104.8252,338.7543 L104,336.5996 L104.2875,336.6787 L103.7168,334.5941 L102.9607,332.4584 L102.476,330.3974 L102.004,328.3399 L101.1289,326.1715 L100.8268,326.0644 L100.7686,324.4528 L99.7156,322.4887 L99.4189,320.7926 L98.3434,318.8205 L97.9063,317.0746 L97.8848,317.053 L96.3577,315.5331 L94.3285,313.5093 L92.5955,311.7828 L90.8875,310.0812 L89,308.1996 L89,308.5696 L87,308.1961 L85,308.4549 L83,307.6908 L81,308.4524 L79,308.1996 " fill="none" style="stroke: #A80036; stroke-width: 1.0;"/><polygon fill="#D3D3D3" filter="url(#fcwb3j6vbv6m6)" points="50.5,346.5996,50.5,346.6696,53.7,346.4615,56.9,346.664,60.1,346.7328,63.3,346.3618,66.5,346.5996,66.4901,346.5756,68.2134,347.2005,69.9866,347.9459,71.7946,348.7753,73.4829,349.3156,75.3388,350.2607,75.5093,350.3314,75.877,351.9481,76.7424,353.7711,77.6686,355.6191,78.2414,357.3209,79,359.0996,79.0227,359.0996,78.9894,361.4596,79.0595,363.8195,79.0797,366.1795,79.1952,368.5395,79,370.8995,79.2067,370.9851,78.477,372.7539,77.6139,374.4675,76.9461,376.2619,76.2873,378.0602,75.3388,379.7383,75.2468,379.5162,73.6576,380.6795,71.7655,381.1115,70.1036,382.0994,68.2046,382.5148,66.5,383.3995,66.5,383.3767,63.3,383.6467,60.1,383.3833,56.9,383.4346,53.7,383.5124,50.5,383.3995,50.5531,383.5277,48.7317,382.6661,47.0011,382.0235,45.1237,381.0265,43.4652,380.5582,41.6612,379.7383,41.83,379.8083,41.0658,378.0273,40.3855,376.281,39.3157,374.3734,38.5314,372.5841,38,370.8995,37.7929,370.8995,37.9804,368.5395,37.9345,366.1795,38.2271,363.8195,37.9418,361.4596,38,359.0996,37.8944,359.0558,38.8025,357.3609,39.2591,355.479,40.0368,353.7301,41.1288,352.1113,41.6612,350.2607,41.7167,350.3949,43.5226,349.7547,45.1557,348.6972,47.0052,348.1623,48.8075,347.5136,50.5,346.5996" style="stroke: #A80036; stroke-width: 1.5;"/><text fill="#000000" font-family="Panton" font-size="14" lengthAdjust="spacingAndGlyphs" textLength="21" x="48" y="369.7595">iOS</text><path d="M129,364.9995 L129,365.1864 L127,364.6313 L125,365.1714 L123,365.3548 L121,364.3654 L119,364.9995 L119,364.9995 L119,364.965 L113,364.81 L107,364.8291 L101,364.9693 L95,364.6923 L89,364.9995 L89,365.4917 L87,364.4393 L85,364.8237 L83,365.3835 L81,364.9233 L79,364.9995 " fill="none" style="stroke: #A80036; stroke-width: 1.0;"/><polygon fill="#D3D3D3" filter="url(#fcwb3j6vbv6m6)" points="62.5,403.3995,62.5,403.4696,63.3,403.2614,64.1,403.4639,64.9,403.5327,65.7,403.1617,66.5,403.3995,66.4901,403.3756,68.2134,404.0004,69.9866,404.7459,71.7946,405.5752,73.4829,406.1155,75.3388,407.0607,75.5093,407.1313,75.877,408.748,76.7424,410.571,77.6686,412.4191,78.2414,414.1208,79,415.8995,79.0227,415.8995,78.9894,418.2595,79.0595,420.6195,79.0797,422.9795,79.1952,425.3394,79,427.6994,79.2067,427.785,78.477,429.5538,77.6139,431.2674,76.9461,433.0619,76.2873,434.8601,75.3388,436.5383,75.2468,436.3162,73.6576,437.4795,71.7655,437.9114,70.1036,438.8994,68.2046,439.3148,66.5,440.1994,66.5,440.1766,65.7,440.4466,64.9,440.1832,64.1,440.2345,63.3,440.3123,62.5,440.1994,62.5531,440.3276,60.7317,439.466,59.0011,438.8234,57.1237,437.8265,55.4652,437.3581,53.6612,436.5383,53.83,436.6082,53.0658,434.8272,52.3855,433.0809,51.3157,431.1733,50.5314,429.384,50,427.6994,49.7929,427.6994,49.9804,425.3394,49.9345,422.9795,50.2271,420.6195,49.9418,418.2595,50,415.8995,49.8944,415.8557,50.8025,414.1609,51.2591,412.2789,52.0368,410.53,53.1288,408.9112,53.6612,407.0607,53.7167,407.1948,55.5226,406.5546,57.1557,405.4971,59.0052,404.9623,60.8075,404.3136,62.5,403.3995" style="stroke: #A80036; stroke-width: 1.5;"/><text fill="#000000" font-family="Panton" font-size="14" lengthAdjust="spacingAndGlyphs" textLength="9" x="60" y="426.5594">...</text><path d="M129,364.9995 L129,365.1864 L127,364.6313 L125,365.1714 L123,365.3548 L121,364.3654 L119,364.9995 L119,364.9995 L118.9756,364.9751 L117.085,366.6403 L115.3172,368.4288 L113.6349,370.3031 L111.6581,371.8819 L110.0938,373.8745 L110.3257,373.9567 L109.1852,375.6004 L108.7218,377.4839 L108.3411,379.3968 L107.4797,381.1393 L106.8711,382.9714 L106.9003,382.9794 L106.2832,385.0532 L105.7992,387.1637 L105.2509,389.2565 L104.8252,391.383 L104,393.3995 L104.2875,393.4787 L103.7168,395.5653 L102.9607,397.6008 L102.476,399.7111 L102.004,401.8248 L101.1289,403.8276 L100.8268,403.7206 L100.7686,405.7477 L99.7156,407.4224 L99.4189,409.365 L98.3434,411.0316 L97.9063,412.9245 L97.8848,412.9029 L96.3577,414.933 L94.3285,416.4591 L92.5955,418.2826 L90.8875,420.1311 L89,421.7995 L89,422.1695 L87,421.796 L85,422.0548 L83,421.2907 L81,422.0523 L79,421.7995 " fill="none" style="stroke: #A80036; stroke-width: 1.0;"/><path d="M259,251.3997 L259,251.5865 L257,251.0314 L255,251.5715 L253,251.755 L251,250.7656 L249,251.3997 L249,251.3997 L248.9691,251.3842 L247.0493,254.8647 L245.2852,258.4232 L243.6292,262.0361 L241.6004,265.4619 L240.0938,269.1497 L240.336,269.1926 L239.1734,272.7396 L238.7181,276.4118 L238.3492,280.0994 L237.4781,283.698 L236.8711,287.3434 L236.9011,287.3475 L236.2828,291.5127 L235.8013,295.6967 L235.2537,299.8716 L234.8321,304.0639 L234,308.1996 L234.2955,308.2403 L233.7249,312.412 L232.9637,316.5575 L232.4815,320.7414 L232.0123,324.9272 L231.1289,329.0558 L230.8133,328.9999 L230.7813,332.7472 L229.7101,336.3103 L229.4289,340.0135 L228.3341,343.5724 L227.9063,347.2496 L227.879,347.2359 L226.4196,350.9474 L224.3244,354.3398 L222.6043,357.9205 L220.9158,361.517 L219,364.9995 L219,365.3695 L217,364.9961 L215,365.2548 L213,364.4907 L211,365.2523 L209,364.9995 " fill="none" style="stroke: #A80036; stroke-width: 1.0;"/><!--MD5=[83fb220b68532d23ccb330345d3d8f5d]
@startmindmap
skinparam handwritten true
skinparam DefaultFontSize 30
<style>
node {
        BackGroundColor orange
        FontName Panton
}
</style>
+ TensorFlow\n Distributed\n Execution\n Engine
<style>
node {
        BackGroundColor lightgray
}
</style>
- - Processing\n Units
- - - CPU
- - - GPU
- - - TPU
- - - ...
- - Operating\n Systems
- - - Android
- - - iOS
- - - ...
<style>
</style>
++ Python API
<style>
node {
        BackGroundColor lightblue
}
</style>
+++ <b>tensors</b> + <b>gradients</b>
+++ linear algebra, signal processing, ...
+++ <b>I/O</b> and <b>preprocessing</b>
+++ low-level deep learning
+++ <b>high-level</b> <b>deep</b> <b>learning</b>
+++ deployment
+++ visualization
+++ ...
<style>
node {
        BackGroundColor white
}
</style>
++ C++ API
++ Java API
++ Go API
++ ...
@endmindmap

PlantUML version 1.2019.13(Tue Dec 10 18:18:29 CET 2019)
(GPL source distribution)
Java Runtime: OpenJDK Runtime Environment
JVM: OpenJDK 64-Bit Server VM
Java Version: 11.0.5+10-suse-2.1-x8664
Operating System: Linux
Default Encoding: UTF-8
Language: en
Country: US
--></g></svg>