<?xml version="1.0" encoding="UTF-8" standalone="no"?>
<!DOCTYPE svg PUBLIC "-//W3C//DTD SVG 1.1//EN"
 "http://www.w3.org/Graphics/SVG/1.1/DTD/svg11.dtd">
<!-- Generated by graphviz version 2.42.1 (0)
 -->
<!-- Title: loss Pages: 1 -->
<svg width="594pt" height="124pt"
 viewBox="0.00 0.00 594.36 123.84" xmlns="http://www.w3.org/2000/svg" xmlns:xlink="http://www.w3.org/1999/xlink">
<g id="graph0" class="graph" transform="scale(1 1) rotate(0) translate(4 119.84)">
<title>loss</title>
<polygon fill="white" stroke="transparent" points="-4,4 -4,-119.84 590.36,-119.84 590.36,4 -4,4"/>
<!-- x -->
<g id="node1" class="node">
<title>x</title>
<text text-anchor="middle" x="27" y="-68.2" font-family="Panton" font-size="16.00" fill="#536366">x</text>
</g>
<!-- model -->
<g id="node6" class="node">
<title>model</title>
<ellipse fill="none" stroke="#536366" cx="177.68" cy="-72" rx="87.86" ry="43.68"/>
<text text-anchor="middle" x="177.68" y="-86.2" font-family="Panton" font-size="16.00" fill="#536366">your fancy</text>
<text text-anchor="middle" x="177.68" y="-68.2" font-family="Panton" font-size="16.00" fill="#536366">model</text>
<text text-anchor="middle" x="177.68" y="-50.2" font-family="Panton" font-size="16.00" fill="#536366"> with weights w</text>
</g>
<!-- x&#45;&gt;model -->
<g id="edge1" class="edge">
<title>x&#45;&gt;model</title>
<path fill="none" stroke="#536366" d="M54.24,-72C61.77,-72 70.45,-72 79.65,-72"/>
<polygon fill="#536366" stroke="#536366" points="79.8,-75.5 89.8,-72 79.8,-68.5 79.8,-75.5"/>
</g>
<!-- prediction -->
<g id="node2" class="node">
<title>prediction</title>
<text text-anchor="middle" x="343.36" y="-68.2" font-family="Panton" font-size="16.00" fill="#536366">prediction</text>
</g>
<!-- loss_function -->
<g id="node5" class="node">
<title>loss_function</title>
<polygon fill="none" stroke="#536366" points="496.36,-67 421.36,-67 421.36,-23 496.36,-23 496.36,-67"/>
<text text-anchor="middle" x="458.86" y="-50.2" font-family="Panton" font-size="16.00" fill="#536366">loss</text>
<text text-anchor="middle" x="458.86" y="-32.2" font-family="Panton" font-size="16.00" fill="#536366">function</text>
</g>
<!-- prediction&#45;&gt;loss_function -->
<g id="edge3" class="edge">
<title>prediction&#45;&gt;loss_function</title>
<path fill="none" stroke="#536366" d="M385.66,-62.18C394.04,-60.18 402.91,-58.07 411.46,-56.04"/>
<polygon fill="#536366" stroke="#536366" points="412.37,-59.42 421.29,-53.7 410.75,-52.61 412.37,-59.42"/>
</g>
<!-- y -->
<g id="node3" class="node">
<title>y</title>
<text text-anchor="middle" x="343.36" y="-14.2" font-family="Panton" font-size="16.00" fill="#536366">y</text>
</g>
<!-- y&#45;&gt;loss_function -->
<g id="edge5" class="edge">
<title>y&#45;&gt;loss_function</title>
<path fill="none" stroke="#536366" d="M370.4,-24.19C382.51,-27.08 397.3,-30.59 411.24,-33.91"/>
<polygon fill="#536366" stroke="#536366" points="410.65,-37.37 421.19,-36.28 412.27,-30.56 410.65,-37.37"/>
</g>
<!-- loss -->
<g id="node4" class="node">
<title>loss</title>
<text text-anchor="middle" x="559.36" y="-41.2" font-family="Panton bold" font-size="16.00" fill="#00aed2">loss</text>
</g>
<!-- loss_function&#45;&gt;loss -->
<g id="edge4" class="edge">
<title>loss_function&#45;&gt;loss</title>
<path fill="none" stroke="#536366" d="M496.54,-45C504.85,-45 513.67,-45 521.96,-45"/>
<polygon fill="#536366" stroke="#536366" points="522.11,-48.5 532.11,-45 522.11,-41.5 522.11,-48.5"/>
</g>
<!-- model&#45;&gt;prediction -->
<g id="edge2" class="edge">
<title>model&#45;&gt;prediction</title>
<path fill="none" stroke="#536366" d="M265.79,-72C274.49,-72 283.11,-72 291.25,-72"/>
<polygon fill="#536366" stroke="#536366" points="291.28,-75.5 301.28,-72 291.28,-68.5 291.28,-75.5"/>
</g>
</g>
</svg>
