<?xml version="1.0" encoding="UTF-8" standalone="no"?><svg xmlns="http://www.w3.org/2000/svg" xmlns:xlink="http://www.w3.org/1999/xlink" contentScriptType="application/ecmascript" contentStyleType="text/css" height="584px" preserveAspectRatio="none" style="width:957px;height:584px;" version="1.1" viewBox="0 0 957 584" width="957px" zoomAndPan="magnify"><defs/><g><polygon fill="#F4F4F4" points="379,4,379,4.2102,388.9375,3.5857,398.875,4.1933,408.8125,4.3997,418.75,3.2866,428.6875,3.9223,438.625,3.5735,448.5625,3.6165,458.5,3.9318,468.4375,3.3086,478.375,4.5536,488.3125,3.3697,498.25,3.8022,508.1875,4.4319,518.125,3.9142,528.0625,4.0682,538,3.9681,547.9375,4.1785,557.875,4.2391,567.8125,4.5857,577.75,4.6711,587.6875,4.6793,597.625,4.2546,607.5625,4.4636,617.5,4,618.2022,4,616.7788,14,618.1785,24,617.2035,34,618.0338,44,617.005,54,617.4315,64,618.2416,74,617.4513,84,617.6053,94,617.8386,104,617.9162,114,617.4961,123.9999,617.7872,133.9999,616.9276,143.9999,617.7844,153.9999,618.0482,163.9999,617.9445,173.9999,618.113,183.9999,617.0169,193.9999,616.8478,203.9999,616.8786,213.9999,617.4411,223.9999,617.3035,233.9999,618.1814,243.9999,617.3253,253.9999,617.1569,263.9999,617.7283,273.9999,616.8332,283.9999,616.9809,293.9999,618.149,303.9999,617.9357,313.9999,618.2345,323.9999,617.1782,333.9999,617.8192,343.9998,618.0904,353.9998,617.0276,363.9998,617.4041,373.9998,617.626,383.9998,618.1518,393.9998,617.4958,403.9998,617.9626,413.9998,616.9462,423.9998,616.8227,433.9998,618.0036,443.9998,616.7831,453.9998,618.009,463.9998,617.7066,473.9998,617.2321,483.9998,617.1462,493.9998,617.9588,503.9998,617.2007,513.9998,618.0919,523.9998,616.9473,533.9998,618.1174,543.9998,617.9843,553.9998,617.745,563.9998,617.5,573.9997,617.5,574.047,607.5625,574.7264,597.625,574.6133,587.6875,574.169,577.75,574.2679,567.8125,573.8695,557.875,574.7162,547.9375,574.1546,538,574.1723,528.0625,573.3914,518.125,573.5945,508.1875,574.5305,498.25,574.4295,488.3125,573.9568,478.375,573.6776,468.4375,573.7808,458.5,573.3136,448.5625,574.4145,438.625,574.7393,428.6875,574.5261,418.75,574.6947,408.8125,573.863,398.875,574.087,388.9375,573.6122,379,573.9997,379.284,573.9997,379.2468,563.9998,379.5524,553.9998,378.7703,543.9998,378.8656,533.9998,379.4435,523.9998,379.5673,513.9998,378.4875,503.9998,378.8061,493.9998,379.1493,483.9998,378.3892,473.9998,379.3534,463.9998,379.258,453.9998,378.8992,443.9998,379.1422,433.9998,379.7287,423.9998,378.6871,413.9998,379.315,403.9998,379.2856,393.9998,379.1158,383.9998,379.1409,373.9998,379.1135,363.9998,378.3758,353.9998,378.5992,343.9998,378.5385,333.9999,379.0638,323.9999,379.0881,313.9999,379.1617,303.9999,378.709,293.9999,378.9325,283.9999,378.8798,273.9999,379.5769,263.9999,379.4266,253.9999,378.5145,243.9999,378.9271,233.9999,378.4228,223.9999,379.2884,213.9999,379.6085,203.9999,379.5446,193.9999,378.5644,183.9999,379.464,173.9999,378.2572,163.9999,379.2002,153.9999,378.7007,143.9999,379.0967,133.9999,379.2403,123.9999,379.4721,114,378.2801,104,379.4755,94,379.1782,84,379.3553,74,379.7478,64,379.0055,54,379.1753,44,379.2134,34,379.1972,24,378.9992,14,379,4" style="stroke: #F4F4F4; stroke-width: 1.0;"/><text fill="#536366" font-family="Panton" font-size="20" font-weight="bold" lengthAdjust="spacingAndGlyphs" textLength="104" x="446.25" y="22.8">deployment</text><polygon fill="#D3D3D3" points="428,169.9999,428,170.07,430,169.8618,432,170.0644,434,170.1332,436,169.7621,438,169.9999,437.9223,169.9999,437.5735,179.9047,437.6165,189.8094,437.9318,199.7142,437.3086,209.619,438.5536,219.5237,437.3697,229.4285,437.8022,239.3332,438.4319,249.238,437.9142,259.1427,438.0682,269.0475,437.9681,278.9522,438.1785,288.857,438.2391,298.7618,438.5857,308.6665,438.6711,318.5713,438.6793,328.476,438.2546,338.3808,438.4636,348.2855,438.7022,358.1903,437.2788,368.095,438,377.9998,438,378.226,436,377.901,434,378.1777,432,377.8348,430,377.977,428,377.9998,428.7416,377.9998,427.9513,368.095,428.1053,358.1903,428.3386,348.2855,428.4162,338.3808,427.9961,328.476,428.2872,318.5713,427.4276,308.6665,428.2844,298.7618,428.5482,288.857,428.4445,278.9522,428.613,269.0475,427.5169,259.1427,427.3478,249.238,427.3786,239.3332,427.9411,229.4285,427.8035,219.5237,428.6814,209.619,427.8253,199.7142,427.6569,189.8094,428.2283,179.9047,428,169.9999" style="stroke: #536366; stroke-width: 1.0;"/><path d="M149,102 L149.2802,102 L148.4476,112.0526 L149.2577,122.1052 L149.5329,132.1578 L148.0488,142.2105 L148.8964,152.2631 L148.4313,162.3157 L148.4887,172.3683 L148.9091,182.421 L148.0782,192.4736 L149.7382,202.5262 L148.1596,212.5788 L148.7363,222.6315 L149.5759,232.6841 L148.8856,242.7367 L149.091,252.7894 L148.9574,262.842 L149.238,272.8946 L149.3188,282.9472 L149.7809,292.9999 L149.8947,303.0525 L149.9057,313.1051 L149.3395,323.1577 L149.6181,333.2104 L149.9363,343.263 L148.0384,353.3156 L149.9047,363.3682 L148.6047,373.4209 L149.7117,383.4735 L148.34,393.5261 L148.9087,403.5788 L149.9888,413.6314 L148.935,423.684 L149.1404,433.7366 L149.4515,443.7893 L149.555,453.8419 L148.9948,463.8945 L149.383,473.9471 L149,483.9998 " fill="none" style="stroke: #536366; stroke-width: 1.0; stroke-dasharray: 5.0,5.0;"/><path d="M433,102 L433.2802,102 L432.4476,112.0526 L433.2577,122.1052 L433.5329,132.1578 L432.0488,142.2105 L432.8964,152.2631 L432.4313,162.3157 L432.4887,172.3683 L432.9091,182.421 L432.0782,192.4736 L433.7382,202.5262 L432.1596,212.5788 L432.7363,222.6315 L433.5759,232.6841 L432.8856,242.7367 L433.091,252.7894 L432.9574,262.842 L433.238,272.8946 L433.3188,282.9472 L433.7809,292.9999 L433.8947,303.0525 L433.9057,313.1051 L433.3395,323.1577 L433.6181,333.2104 L433.9363,343.263 L432.0384,353.3156 L433.9047,363.3682 L432.6047,373.4209 L433.7117,383.4735 L432.34,393.5261 L432.9087,403.5788 L433.9888,413.6314 L432.935,423.684 L433.1404,433.7366 L433.4515,443.7893 L433.555,453.8419 L432.9948,463.8945 L433.383,473.9471 L433,483.9998 " fill="none" style="stroke: #536366; stroke-width: 1.0; stroke-dasharray: 5.0,5.0;"/><path d="M558.5,102 L558.7802,102 L557.9476,112.0526 L558.7577,122.1052 L559.0329,132.1578 L557.5488,142.2105 L558.3964,152.2631 L557.9313,162.3157 L557.9887,172.3683 L558.4091,182.421 L557.5782,192.4736 L559.2382,202.5262 L557.6596,212.5788 L558.2363,222.6315 L559.0759,232.6841 L558.3856,242.7367 L558.591,252.7894 L558.4574,262.842 L558.738,272.8946 L558.8188,282.9472 L559.2809,292.9999 L559.3947,303.0525 L559.4057,313.1051 L558.8395,323.1577 L559.1181,333.2104 L559.4363,343.263 L557.5384,353.3156 L559.4047,363.3682 L558.1047,373.4209 L559.2117,383.4735 L557.84,393.5261 L558.4087,403.5788 L559.4888,413.6314 L558.435,423.684 L558.6404,433.7366 L558.9515,443.7893 L559.055,453.8419 L558.4948,463.8945 L558.883,473.9471 L558.5,483.9998 " fill="none" style="stroke: #536366; stroke-width: 1.0; stroke-dasharray: 5.0,5.0;"/><path d="M887.5,102 L887.7802,102 L886.9476,112.0526 L887.7577,122.1052 L888.0329,132.1578 L886.5488,142.2105 L887.3964,152.2631 L886.9313,162.3157 L886.9887,172.3683 L887.4091,182.421 L886.5782,192.4736 L888.2382,202.5262 L886.6596,212.5788 L887.2363,222.6315 L888.0759,232.6841 L887.3856,242.7367 L887.591,252.7894 L887.4574,262.842 L887.738,272.8946 L887.8188,282.9472 L888.2809,292.9999 L888.3947,303.0525 L888.4057,313.1051 L887.8395,323.1577 L888.1181,333.2104 L888.4363,343.263 L886.5384,353.3156 L888.4047,363.3682 L887.1047,373.4209 L888.2117,383.4735 L886.84,393.5261 L887.4087,403.5788 L888.4888,413.6314 L887.435,423.684 L887.6404,433.7366 L887.9515,443.7893 L888.055,453.8419 L887.4948,463.8945 L887.883,473.9471 L887.5,483.9998 " fill="none" style="stroke: #536366; stroke-width: 1.0; stroke-dasharray: 5.0,5.0;"/><text fill="#536366" font-family="Panton" font-size="20" lengthAdjust="spacingAndGlyphs" textLength="42" x="125" y="96.8">User</text><polygon fill="#FFFFFF" points="157.0442,26.9459,155.8715,28.5482,154.4845,30.895,152.5008,32.4766,150.4163,33.3415,148.7542,33.4166,146.618,32.3349,144.6023,31.6283,143.0724,30.1936,142.2699,28.5511,141.7939,27.2433,141.3277,25.535,140.5709,24.065,141.1525,22.6298,141.662,21.0576,143.574,19.8141,144.9192,18.2008,146.5843,17.665,148.5637,17.2037,151.1021,17.4778,152.4924,18.1335,154.1089,18.4307,156.0743,20.4443,156.7595,22.5701,157.0571,24.0206,156.72,26.4108" style="stroke: #536366; stroke-width: 2.0;"/><path d="M149,33 L149.1868,33 L148.6317,38.4 L149.1718,43.8 L149.3553,49.2 L148.3659,54.6 L149,60 M136,41 L136,40.9309 L141.2,40.6209 L146.4,40.6591 L151.6,40.9394 L156.8,40.3854 L162,41 M149,60 L149.3719,60.3223 L145.9766,62.6331 L143.6672,65.8848 L141.4901,69.2514 L138.5424,71.95 L136,75 M149,60 L149.0458,60.0397 L151.5785,62.9814 L154.3199,66.1039 L156.9606,69.1392 L159.7934,72.3409 L162,75 " fill="none" style="stroke: #536366; stroke-width: 2.0;"/><text fill="#536366" font-family="Panton" font-size="20" lengthAdjust="spacingAndGlyphs" textLength="42" x="125" y="501.7998">User</text><polygon fill="#FFFFFF" points="157.0442,518.9457,155.8715,520.548,154.4845,522.8948,152.5008,524.4764,150.4163,525.3413,148.7542,525.4163,146.618,524.3347,144.6023,523.6281,143.0724,522.1933,142.2699,520.5509,141.7939,519.243,141.3277,517.5348,140.5709,516.0648,141.1525,514.6296,141.662,513.0574,143.574,511.8139,144.9192,510.2005,146.5843,509.6648,148.5637,509.2034,151.1021,509.4775,152.4924,510.1332,154.1089,510.4304,156.0743,512.4441,156.7595,514.5699,157.0571,516.0204,156.72,518.4106" style="stroke: #536366; stroke-width: 2.0;"/><path d="M149,524.9997 L149.1868,524.9997 L148.6317,530.3997 L149.1718,535.7997 L149.3553,541.1997 L148.3659,546.5997 L149,551.9997 M136,532.9997 L136,532.9307 L141.2,532.6206 L146.4,532.6589 L151.6,532.9392 L156.8,532.3852 L162,532.9997 M149,551.9997 L149.3719,552.3221 L145.9766,554.6328 L143.6672,557.8846 L141.4901,561.2512 L138.5424,563.9498 L136,566.9997 M149,551.9997 L149.0458,552.0395 L151.5785,554.9811 L154.3199,558.1037 L156.9606,561.139 L159.7934,564.3407 L162,566.9997 " fill="none" style="stroke: #536366; stroke-width: 2.0;"/><text fill="#00AED2" font-family="Panton" font-size="20" font-weight="bold" lengthAdjust="spacingAndGlyphs" textLength="22" x="383" y="96.8">TF</text><text fill="#00AED2" font-family="Panton" font-size="20" lengthAdjust="spacingAndGlyphs" textLength="0" x="410" y="96.8"/><text fill="#00AED2" font-family="Panton" font-size="20" font-weight="bold" lengthAdjust="spacingAndGlyphs" textLength="67" x="410" y="96.8">Serving</text><polygon fill="#D3D3D3" points="445.0663,64.9189,443.3073,67.3223,441.2268,70.8426,438.2512,73.215,435.1244,74.5123,432.6313,74.6249,429.4269,73.0024,426.4035,71.9424,424.1086,69.7904,422.9048,67.3266,422.1909,65.3649,421.4915,62.8026,420.3564,60.5976,421.2287,58.4447,421.9929,56.0864,424.8611,54.2212,426.8789,51.8012,429.3764,50.9975,432.3456,50.3055,436.1532,50.7167,438.2386,51.7002,440.6633,52.146,443.6115,55.1665,444.6392,58.3552,445.0857,60.5309,444.58,64.1162" style="stroke: #536366; stroke-width: 2.0;"/><path d="M421,76 L421,76.0934 L425.8,75.8158 L430.6,76.0859 L435.4,76.1776 L440.2,75.6829 L445,76 " fill="#D3D3D3" style="stroke: #536366; stroke-width: 2.0;"/><text fill="#00AED2" font-family="Panton" font-size="20" font-weight="bold" lengthAdjust="spacingAndGlyphs" textLength="22" x="383" y="501.7998">TF</text><text fill="#00AED2" font-family="Panton" font-size="20" lengthAdjust="spacingAndGlyphs" textLength="0" x="410" y="501.7998"/><text fill="#00AED2" font-family="Panton" font-size="20" font-weight="bold" lengthAdjust="spacingAndGlyphs" textLength="67" x="410" y="501.7998">Serving</text><polygon fill="#D3D3D3" points="445.0663,525.9186,443.3073,528.3221,441.2268,531.8423,438.2512,534.2147,435.1244,535.512,432.6313,535.6246,429.4269,534.0022,426.4035,532.9422,424.1086,530.7901,422.9048,528.3264,422.1909,526.3647,421.4915,523.8023,420.3564,521.5974,421.2287,519.4445,421.9929,517.0862,424.8611,515.221,426.8789,512.8009,429.3764,511.9973,432.3456,511.3053,436.1532,511.7164,438.2386,512.7,440.6633,513.1458,443.6115,516.1663,444.6392,519.355,445.0857,521.5307,444.58,525.116" style="stroke: #536366; stroke-width: 2.0;"/><path d="M421,536.9997 L421,537.0932 L425.8,536.8156 L430.6,537.0857 L435.4,537.1774 L440.2,536.6827 L445,536.9997 " fill="#D3D3D3" style="stroke: #536366; stroke-width: 2.0;"/><text fill="#536366" font-family="Panton" font-size="20" lengthAdjust="spacingAndGlyphs" textLength="103" x="504.5" y="96.8">File System</text><path d="M541,42 L541,42 L541.0651,42.067 L542.6716,40.1179 L544.6599,38.5616 L546.5238,36.8773 L547.979,34.7726 L550,33.25 L549.9952,33.2158 L551.7739,32.8122 L553.5766,32.5812 L555.3958,32.47 L557.1577,31.9456 L559,32 L559,32 L559.0339,32.2437 L560.7615,31.9725 L562.5879,32.4129 L564.4264,32.9401 L566.1948,32.9622 L568,33.25 L568.0211,33.2717 L569.7901,34.9898 L571.6553,36.8069 L573.4741,38.5762 L575.3815,40.4366 L577,42 L577.5965,42 L577.6038,47.2 L577.2263,52.4 L577.4121,57.6 L577.6242,62.8 L577,68 L577,68 L576.7766,67.7702 L575.4102,69.9662 L573.3081,71.4055 L571.7654,73.4201 L569.6466,74.8422 L568,76.75 L567.9958,76.7198 L566.2453,77.3264 L564.397,77.2285 L562.6064,77.5463 L560.8207,77.899 L559,78 L559,78 L559.0254,78.1832 L557.1998,77.7483 L555.4176,77.6264 L553.565,76.998 L551.8174,77.1252 L550,76.75 L550.1698,76.9247 L548.3377,75.1416 L546.5899,73.4453 L544.4503,71.346 L542.5979,69.5421 L541,68 L540.4476,68 L540.9477,62.8 L540.8253,57.6 L541.6057,52.4 L540.8447,47.2 L541,42 " fill="#D3D3D3" style="stroke: #536366; stroke-width: 1.5;"/><path d="M541,42 L541,42 L541.0651,42.067 L542.6716,43.6179 L544.6599,45.5616 L546.5238,47.3773 L547.979,48.7726 L550,50.75 L549.9952,50.7158 L551.7739,50.8122 L553.5766,51.0812 L555.3958,51.47 L557.1577,51.4456 L559,52 L559,52 L559.0339,52.2437 L560.7615,51.4725 L562.5879,51.4129 L564.4264,51.4401 L566.1948,50.9622 L568,50.75 L568.0211,50.7717 L569.7901,48.9898 L571.6553,47.3069 L573.4741,45.5762 L575.3815,43.9366 L577,42 " fill="none" style="stroke: #536366; stroke-width: 1.5;"/><text fill="#536366" font-family="Panton" font-size="20" lengthAdjust="spacingAndGlyphs" textLength="103" x="504.5" y="501.7998">File System</text><path d="M541,516.9997 L541,516.9997 L541.0651,517.0667 L542.6716,515.1177 L544.6599,513.5613 L546.5238,511.8771 L547.979,509.7724 L550,508.2497 L549.9952,508.2155 L551.7739,507.812 L553.5766,507.5809 L555.3958,507.4697 L557.1577,506.9454 L559,506.9997 L559,506.9997 L559.0339,507.2435 L560.7615,506.9723 L562.5879,507.4127 L564.4264,507.9399 L566.1948,507.962 L568,508.2497 L568.0211,508.2715 L569.7901,509.9896 L571.6553,511.8066 L573.4741,513.576 L575.3815,515.4364 L577,516.9997 L577.5965,516.9997 L577.6038,522.1997 L577.2263,527.3997 L577.4121,532.5997 L577.6242,537.7997 L577,542.9997 L577,542.9997 L576.7766,542.7699 L575.4102,544.966 L573.3081,546.4053 L571.7654,548.4199 L569.6466,549.842 L568,551.7497 L567.9958,551.7196 L566.2453,552.3262 L564.397,552.2283 L562.6064,552.5461 L560.8207,552.8988 L559,552.9997 L559,552.9997 L559.0254,553.183 L557.1998,552.748 L555.4176,552.6262 L553.565,551.9978 L551.8174,552.1249 L550,551.7497 L550.1698,551.9244 L548.3377,550.1414 L546.5899,548.4451 L544.4503,546.3458 L542.5979,544.5419 L541,542.9997 L540.4476,542.9997 L540.9477,537.7997 L540.8253,532.5997 L541.6057,527.3997 L540.8447,522.1997 L541,516.9997 " fill="#D3D3D3" style="stroke: #536366; stroke-width: 1.5;"/><path d="M541,516.9997 L541,516.9997 L541.0651,517.0667 L542.6716,518.6177 L544.6599,520.5613 L546.5238,522.3771 L547.979,523.7724 L550,525.7497 L549.9952,525.7155 L551.7739,525.812 L553.5766,526.0809 L555.3958,526.4697 L557.1577,526.4454 L559,526.9997 L559,526.9997 L559.0339,527.2435 L560.7615,526.4723 L562.5879,526.4127 L564.4264,526.4399 L566.1948,525.962 L568,525.7497 L568.0211,525.7715 L569.7901,523.9896 L571.6553,522.3066 L573.4741,520.576 L575.3815,518.9364 L577,516.9997 " fill="none" style="stroke: #536366; stroke-width: 1.5;"/><text fill="#536366" font-family="Panton" font-size="20" lengthAdjust="spacingAndGlyphs" textLength="122" x="823.5" y="96.8">Data Scientist</text><polygon fill="#FFFFFF" points="895.5442,26.9459,894.3715,28.5482,892.9845,30.895,891.0008,32.4766,888.9163,33.3415,887.2542,33.4166,885.118,32.3349,883.1023,31.6283,881.5724,30.1936,880.7699,28.5511,880.2939,27.2433,879.8277,25.535,879.0709,24.065,879.6525,22.6298,880.162,21.0576,882.074,19.8141,883.4192,18.2008,885.0843,17.665,887.0637,17.2037,889.6021,17.4778,890.9924,18.1335,892.6089,18.4307,894.5743,20.4443,895.2595,22.5701,895.5571,24.0206,895.22,26.4108" style="stroke: #536366; stroke-width: 2.0;"/><path d="M887.5,33 L887.6868,33 L887.1317,38.4 L887.6718,43.8 L887.8553,49.2 L886.8659,54.6 L887.5,60 M874.5,41 L874.5,40.9309 L879.7,40.6209 L884.9,40.6591 L890.1,40.9394 L895.3,40.3854 L900.5,41 M887.5,60 L887.8719,60.3223 L884.4766,62.6331 L882.1672,65.8848 L879.9901,69.2514 L877.0424,71.95 L874.5,75 M887.5,60 L887.5458,60.0397 L890.0785,62.9814 L892.8199,66.1039 L895.4606,69.1392 L898.2934,72.3409 L900.5,75 " fill="none" style="stroke: #536366; stroke-width: 2.0;"/><text fill="#536366" font-family="Panton" font-size="20" lengthAdjust="spacingAndGlyphs" textLength="122" x="823.5" y="501.7998">Data Scientist</text><polygon fill="#FFFFFF" points="895.5442,518.9457,894.3715,520.548,892.9845,522.8948,891.0008,524.4764,888.9163,525.3413,887.2542,525.4163,885.118,524.3347,883.1023,523.6281,881.5724,522.1933,880.7699,520.5509,880.2939,519.243,879.8277,517.5348,879.0709,516.0648,879.6525,514.6296,880.162,513.0574,882.074,511.8139,883.4192,510.2005,885.0843,509.6648,887.0637,509.2034,889.6021,509.4775,890.9924,510.1332,892.6089,510.4304,894.5743,512.4441,895.2595,514.5699,895.5571,516.0204,895.22,518.4106" style="stroke: #536366; stroke-width: 2.0;"/><path d="M887.5,524.9997 L887.6868,524.9997 L887.1317,530.3997 L887.6718,535.7997 L887.8553,541.1997 L886.8659,546.5997 L887.5,551.9997 M874.5,532.9997 L874.5,532.9307 L879.7,532.6206 L884.9,532.6589 L890.1,532.9392 L895.3,532.3852 L900.5,532.9997 M887.5,551.9997 L887.8719,552.3221 L884.4766,554.6328 L882.1672,557.8846 L879.9901,561.2512 L877.0424,563.9498 L874.5,566.9997 M887.5,551.9997 L887.5458,552.0395 L890.0785,554.9811 L892.8199,558.1037 L895.4606,561.139 L898.2934,564.3407 L900.5,566.9997 " fill="none" style="stroke: #536366; stroke-width: 2.0;"/><polygon fill="#D3D3D3" points="428,169.9999,428,170.07,430,169.8618,432,170.0644,434,170.1332,436,169.7621,438,169.9999,437.9223,169.9999,437.5735,179.9047,437.6165,189.8094,437.9318,199.7142,437.3086,209.619,438.5536,219.5237,437.3697,229.4285,437.8022,239.3332,438.4319,249.238,437.9142,259.1427,438.0682,269.0475,437.9681,278.9522,438.1785,288.857,438.2391,298.7618,438.5857,308.6665,438.6711,318.5713,438.6793,328.476,438.2546,338.3808,438.4636,348.2855,438.7022,358.1903,437.2788,368.095,438,377.9998,438,378.226,436,377.901,434,378.1777,432,377.8348,430,377.977,428,377.9998,428.7416,377.9998,427.9513,368.095,428.1053,358.1903,428.3386,348.2855,428.4162,338.3808,427.9961,328.476,428.2872,318.5713,427.4276,308.6665,428.2844,298.7618,428.5482,288.857,428.4445,278.9522,428.613,269.0475,427.5169,259.1427,427.3478,249.238,427.3786,239.3332,427.9411,229.4285,427.8035,219.5237,428.6814,209.619,427.8253,199.7142,427.6569,189.8094,428.2283,179.9047,428,169.9999" style="stroke: #536366; stroke-width: 1.0;"/><polygon fill="#00AED2" points="416,165.9999,416.026,166.065,417.9487,166.6717,420.0239,167.6598,422.0495,168.5236,423.9117,168.9791,426,169.9999,425.9904,169.9759,423.9472,170.6679,421.9525,171.4812,419.9916,172.3788,417.9144,172.986,416,173.9999,416.1305,174.1304,416.6514,173.0514,417.5534,172.3533,418.5018,171.7017,419.1798,170.7797,420,169.9999,420.0161,170.016,419.1925,169.1924,418.4421,168.442,417.6564,167.6563,416.938,166.938,416,165.9999" style="stroke: #00AED2; stroke-width: 1.0;"/><path d="M149,169.9999 L149,170.2802 L159.1111,169.4475 L169.2222,170.2576 L179.3333,170.5328 L189.4444,169.0487 L199.5556,169.8963 L209.6667,169.4313 L219.7778,169.4886 L229.8889,169.9091 L240,169.0781 L250.1111,170.7381 L260.2222,169.1596 L270.3333,169.7362 L280.4444,170.5759 L290.5556,169.8856 L300.6667,170.0909 L310.7778,169.9573 L320.8889,170.238 L331,170.3188 L341.1111,170.7809 L351.2222,170.8947 L361.3333,170.9056 L371.4444,170.3394 L381.5556,170.618 L391.6667,170.9362 L401.7778,169.0384 L411.8889,170.9046 L422,169.9999 " fill="none" style="stroke: #00AED2; stroke-width: 3.0;"/><text fill="#000000" font-family="Panton" font-size="20" lengthAdjust="spacingAndGlyphs" textLength="99" x="156" y="162.7999">send query</text><path d="M8,142 L8.1868,142 L7.6317,148.6 L8.1718,155.2 L8.3553,161.8 L7.3659,168.4 L8,175 L8,174.7927 L17.7143,173.8626 L27.4286,173.9773 L37.1429,174.8182 L46.8571,173.1563 L56.5714,176.4763 L66.2857,173.3192 L76,174.4726 L85.7143,176.1518 L95.4286,174.7712 L105.1429,175.1819 L114.8571,174.9148 L124.5714,175.476 L134.2857,175.6376 L144,175 L144.5206,175 L144.5965,170.4 L144.6038,165.8 L144.2263,161.2 L144.4121,156.6 L144,152 L144.4414,152.4413 L141.5467,149.5467 L140.4265,148.4264 L137.8136,145.8136 L136.3355,144.3355 L134,142 L134,140.6799 L124.3077,141.8173 L114.6154,143.9776 L104.9231,141.87 L95.2308,142.2808 L85.5385,142.903 L75.8462,143.1099 L66.1538,141.9895 L56.4615,142.7659 L46.7692,140.4735 L37.0769,142.7583 L27.3846,143.4618 L17.6923,143.1854 L8,142 " fill="#FFFFFF" style="stroke: #FFFFFF; stroke-width: 1.0;"/><path d="M134,142 L134.5449,142 L133.5706,144 L133.4203,146 L133.4476,148 L133.9477,150 L134,152 L134,151.8253 L136,152.6057 L138,151.8447 L140,151.695 L142,152.2029 L144,152 L143.5809,151.5808 L141.6737,149.6737 L140.4079,148.4078 L138.2738,146.2738 L136.4617,144.4616 L134,142 " fill="#FFFFFF" style="stroke: #FFFFFF; stroke-width: 1.0;"/><text fill="#536366" font-family="Panton" font-size="20" lengthAdjust="spacingAndGlyphs" textLength="115" x="14" y="165.7999">REST / gRPC</text><polygon fill="#00AED2" points="547,245.9999,547.026,246.0649,548.9487,246.6716,551.0239,247.6597,553.0495,248.5236,554.9117,248.9791,557,249.9999,556.9904,249.9758,554.9472,250.6679,552.9525,251.4812,550.9916,252.3788,548.9144,252.9859,547,253.9999,547.1305,254.1304,547.6514,253.0513,548.5534,252.3533,549.5018,251.7017,550.1798,250.7797,551,249.9999,551.0161,250.016,550.1925,249.1923,549.4421,248.442,548.6564,247.6562,547.938,246.9379,547,245.9999" style="stroke: #00AED2; stroke-width: 1.0;"/><path d="M438,249.9999 L438,250.2801 L447.5833,249.4474 L457.1667,250.2576 L466.75,250.5328 L476.3333,249.0487 L485.9167,249.8963 L495.5,249.4312 L505.0833,249.4885 L514.6667,249.909 L524.25,249.078 L533.8333,250.7381 L543.4167,249.1595 L553,249.9999 " fill="none" style="stroke: #00AED2; stroke-width: 3.0; stroke-dasharray: 2.0,2.0;"/><text fill="#000000" font-family="Panton" font-size="20" lengthAdjust="spacingAndGlyphs" textLength="97" x="445" y="242.7999">read model</text><path d="M564,185.9999 L564.5605,185.9999 L562.8951,195.5454 L564.5154,205.0908 L565.0658,214.6363 L562.0976,224.1817 L563.7928,233.7272 L562.8627,243.2727 L562.9773,252.8181 L563.8182,262.3636 L562.1563,271.909 L565.4764,281.4545 L564,290.9999 L564,289.3192 L573.8333,290.4726 L583.6667,292.1518 L593.5,290.7712 L603.3333,291.1819 L613.1667,290.9147 L623,291.476 L632.8333,291.6376 L642.6667,292.5618 L652.5,292.7894 L662.3333,292.8113 L672.1667,291.6789 L682,292.2362 L691.8333,292.8725 L701.6667,289.0768 L711.5,292.8093 L721.3333,290.2093 L731.1667,292.4234 L741,290.9999 L739.6799,290.9999 L740.8173,281.4999 L742.9776,271.9999 L740.87,262.4999 L741.2808,252.9999 L741.903,243.4999 L742.11,233.9999 L740.9896,224.4999 L741.7659,214.9999 L739.4736,205.4999 L741,195.9999 L741.1787,196.1787 L739.3446,194.3445 L737.2794,192.2793 L735.3853,190.3852 L732.6964,187.6963 L731,185.9999 L731,184.2608 L721.1765,184.3429 L711.3529,185.8429 L701.5294,185.4759 L691.7059,187.817 L681.8824,185.5341 L672.0588,185.0851 L662.2353,186.6086 L652.4118,184.2217 L642.5882,184.6156 L632.7647,187.7305 L622.9412,187.1617 L613.1176,187.9586 L603.2941,185.1418 L593.4706,186.8511 L583.6471,187.5744 L573.8235,184.7402 L564,185.9999 " fill="#FFFFFF" style="stroke: #FFFFFF; stroke-width: 1.0;"/><path d="M731,185.9999 L730.9148,185.9999 L731.112,187.9999 L731.5793,189.9999 L730.9963,191.9999 L731.4112,193.9999 L731,195.9999 L731,195.5077 L733,195.3979 L735,196.4476 L737,195.3627 L739,196.4523 L741,195.9999 L741.1299,196.1298 L738.8316,193.8315 L736.7776,191.7776 L735.2883,190.2883 L732.8119,187.8118 L731,185.9999 " fill="#FFFFFF" style="stroke: #FFFFFF; stroke-width: 1.0;"/><text fill="#536366" font-family="Panton" font-size="20" lengthAdjust="spacingAndGlyphs" textLength="133" x="570" y="209.7999">./models.config</text><text fill="#536366" font-family="Panton" font-size="20" lengthAdjust="spacingAndGlyphs" textLength="153" x="570" y="233.7999">./digit_classifier/1</text><text fill="#536366" font-family="Panton" font-size="20" lengthAdjust="spacingAndGlyphs" textLength="156" x="570" y="257.7999">./digit_classifier/2</text><text fill="#536366" font-family="Panton" font-size="20" lengthAdjust="spacingAndGlyphs" textLength="148" x="570" y="281.7998">./digit_matcher/1</text><path d="M438,326.9998 L438,327.0932 L446.4,326.8157 L454.8,327.0857 L463.2,327.1775 L471.6,326.6828 L480,326.9998 " fill="none" style="stroke: #00AED2; stroke-width: 3.0; stroke-dasharray: 2.0,2.0;"/><path d="M480,326.9998 L480.0934,326.9998 L479.8159,329.5998 L480.0859,332.1998 L480.1776,334.7998 L479.6829,337.3998 L480,339.9998 " fill="none" style="stroke: #00AED2; stroke-width: 3.0; stroke-dasharray: 2.0,2.0;"/><path d="M439,339.9998 L439,340.0932 L447.2,339.8157 L455.4,340.0857 L463.6,340.1775 L471.8,339.6828 L480,339.9998 " fill="none" style="stroke: #00AED2; stroke-width: 3.0; stroke-dasharray: 2.0,2.0;"/><polygon fill="#00AED2" points="449,335.9998,449.026,336.0649,446.9487,336.6716,445.0239,337.6596,443.0495,338.5235,440.9117,338.979,439,339.9998,438.9904,339.9758,440.9472,340.6678,442.9525,341.4811,444.9916,342.3787,446.9144,342.9858,449,343.9998,449.1305,344.1303,448.0514,343.0513,447.3534,342.3532,446.7018,341.7016,445.7798,340.7796,445,339.9998,445.0161,340.0159,445.7925,339.1923,446.6421,338.4419,447.4564,337.6562,448.338,336.9379,449,335.9998" style="stroke: #00AED2; stroke-width: 1.0;"/><text fill="#000000" font-family="Panton" font-size="20" lengthAdjust="spacingAndGlyphs" textLength="87" x="445" y="319.7998">run model</text><polygon fill="#00AED2" points="160,373.9998,160.026,374.0648,157.9487,374.6716,156.0239,375.6596,154.0495,376.5235,151.9117,376.979,150,377.9998,149.9904,377.9757,151.9472,378.6678,153.9525,379.4811,155.9916,380.3787,157.9144,380.9858,160,381.9998,160.1305,382.1303,159.0514,381.0512,158.3534,380.3532,157.7018,379.7016,156.7798,378.7796,156,377.9998,156.0161,378.0159,156.7925,377.1923,157.6421,376.4419,158.4564,375.6562,159.338,374.9378,160,373.9998" style="stroke: #00AED2; stroke-width: 1.0;"/><path d="M154,377.9998 L154,378.28 L163.9286,377.4474 L173.8571,378.2575 L183.7857,378.5327 L193.7143,377.0486 L203.6429,377.8962 L213.5714,377.4311 L223.5,377.4885 L233.4286,377.9089 L243.3571,377.078 L253.2857,378.738 L263.2143,377.1594 L273.1429,377.7361 L283.0714,378.5757 L293,377.8854 L302.9286,378.0908 L312.8571,377.9572 L322.7857,378.2378 L332.7143,378.3186 L342.6429,378.7807 L352.5714,378.8945 L362.5,378.9055 L372.4286,378.3393 L382.3571,378.6179 L392.2857,378.9361 L402.2143,377.0382 L412.1429,378.9045 L422.0714,377.6045 L432,377.9998 " fill="none" style="stroke: #00AED2; stroke-width: 3.0;"/><text fill="#000000" font-family="Panton" font-size="20" lengthAdjust="spacingAndGlyphs" textLength="135" x="166" y="370.7998">send prediction</text><polygon fill="#00AED2" points="570,436.9998,570.026,437.0648,567.9487,437.6715,566.0239,438.6596,564.0495,439.5235,561.9117,439.979,560,440.9998,559.9904,440.9757,561.9472,441.6678,563.9525,442.4811,565.9916,443.3787,567.9144,443.9858,570,444.9998,570.1305,445.1303,569.0514,444.0512,568.3534,443.3532,567.7018,442.7016,566.7798,441.7796,566,440.9998,566.0161,441.0159,566.7925,440.1922,567.6421,439.4419,568.4564,438.6561,569.338,437.9378,570,436.9998" style="stroke: #00AED2; stroke-width: 1.0;"/><path d="M564,440.9998 L564,441.28 L574.0781,440.4473 L584.1563,441.2575 L594.2344,441.5327 L604.3125,440.0486 L614.3906,440.8962 L624.4688,440.4311 L634.5469,440.4884 L644.625,440.9089 L654.7031,440.0779 L664.7813,441.738 L674.8594,440.1594 L684.9375,440.7361 L695.0156,441.5757 L705.0938,440.8854 L715.1719,441.0908 L725.25,440.9572 L735.3281,441.2378 L745.4063,441.3186 L755.4844,441.7807 L765.5625,441.8945 L775.6406,441.9054 L785.7188,441.3393 L795.7969,441.6179 L805.875,441.9361 L815.9531,440.0382 L826.0313,441.9045 L836.1094,440.6044 L846.1875,441.7115 L856.2656,440.3397 L866.3438,440.9084 L876.4219,441.9886 L886.5,440.9998 " fill="none" style="stroke: #00AED2; stroke-width: 3.0;"/><text fill="#000000" font-family="Panton" font-size="20" lengthAdjust="spacingAndGlyphs" textLength="244" x="576" y="433.7998">add/update/rollback models</text><!--MD5=[fd57cfa8d89adf293e7632eae9201801]
@startuml



skinparam shadowing false
skinparam DefaultFontName Panton
skinparam DefaultFontSize 20
skinparam handwritten true


skinparam FontSize 16


skinparam actor {
        BackgroundColor white
        BorderColor #536366
        FontColor  #536366
        }

skinparam note {
        BorderColor white
        BackgroundColor white
        FontColor #536366
}

skinparam entity {
        BackgroundColor lightgray
        BorderColor #536366
        FontColor  #00aed2
        }

skinparam database {
        BackgroundColor lightgray
        BorderColor #536366
        FontColor #536366
}

skinparam sequence {
        ArrowColor #00aed2
        ArrowThickness 3
        LifeLineBorderColor #536366
        LifeLineBAckgroundColor lightgray
        GroupBackgroundColor #f0f0f0
        GroupBorderColor #f0f0f0
        BoxBorderColor #f4f4f4
        BoxBackgroundColor #f4f4f4
        BoxFontColor #536366
}

skinparam BoxPadding 200


actor "User" as User
box "deployment"
entity "**TF** **Serving**" as TFServing
database "File System" as FileStorage
end box
actor "Data Scientist" as DataScientist

|||
User -> TFServing ++: send query
note left
        REST / gRPC
end note
TFServing - -> FileStorage: read model
note right
        ./models.config
        ./digit_classifier/1
        ./digit_classifier/2
        ./digit_matcher/1
end note
TFServing - -> TFServing: run model
User <- TFServing - -: send prediction
|||
FileStorage <- DataScientist: add/update/rollback models
|||

@enduml

PlantUML version 1.2019.13(Tue Dec 10 18:18:29 CET 2019)
(GPL source distribution)
Java Runtime: OpenJDK Runtime Environment
JVM: OpenJDK 64-Bit Server VM
Java Version: 11.0.6+10-suse-1.1-x8664
Operating System: Linux
Default Encoding: UTF-8
Language: en
Country: US
--></g></svg>