<?xml version="1.0" encoding="UTF-8" standalone="no"?>
<!DOCTYPE svg PUBLIC "-//W3C//DTD SVG 1.1//EN"
 "http://www.w3.org/Graphics/SVG/1.1/DTD/svg11.dtd">
<!-- Generated by graphviz version 2.42.1 (0)
 -->
<!-- Title: match Pages: 1 -->
<svg width="1271pt" height="156pt"
 viewBox="0.00 0.00 1270.84 156.00" xmlns="http://www.w3.org/2000/svg" xmlns:xlink="http://www.w3.org/1999/xlink">
<g id="graph0" class="graph" transform="scale(1 1) rotate(0) translate(4 152)">
<title>match</title>
<polygon fill="white" stroke="transparent" points="-4,4 -4,-152 1266.84,-152 1266.84,4 -4,4"/>
<!-- StatisticsGen -->
<g id="node1" class="node">
<title>StatisticsGen</title>
<ellipse fill="none" stroke="#00aed2" cx="242.99" cy="-72" rx="64.99" ry="18"/>
<text text-anchor="middle" x="242.99" y="-68.3" font-family="Panton bold" font-size="14.00" fill="#00aed2">StatisticsGen</text>
</g>
<!-- ExampleValidator -->
<g id="node3" class="node">
<title>ExampleValidator</title>
<ellipse fill="none" stroke="#00aed2" cx="423.28" cy="-126" rx="79.09" ry="18"/>
<text text-anchor="middle" x="423.28" y="-122.3" font-family="Panton bold" font-size="14.00" fill="#00aed2">ExampleValidator</text>
</g>
<!-- StatisticsGen&#45;&gt;ExampleValidator -->
<g id="edge3" class="edge">
<title>StatisticsGen&#45;&gt;ExampleValidator</title>
<path fill="none" stroke="#606060" d="M287.61,-85.21C311,-92.29 340.1,-101.11 365.27,-108.73"/>
<polygon fill="#606060" stroke="#606060" points="364.47,-112.15 375.05,-111.7 366.5,-105.45 364.47,-112.15"/>
</g>
<!-- SchemaGen -->
<g id="node4" class="node">
<title>SchemaGen</title>
<ellipse fill="none" stroke="#00aed2" cx="423.28" cy="-72" rx="59.29" ry="18"/>
<text text-anchor="middle" x="423.28" y="-68.3" font-family="Panton bold" font-size="14.00" fill="#00aed2">SchemaGen</text>
</g>
<!-- StatisticsGen&#45;&gt;SchemaGen -->
<g id="edge4" class="edge">
<title>StatisticsGen&#45;&gt;SchemaGen</title>
<path fill="none" stroke="#606060" d="M308.11,-72C322.95,-72 338.8,-72 353.82,-72"/>
<polygon fill="#606060" stroke="#606060" points="354.07,-75.5 364.07,-72 354.07,-68.5 354.07,-75.5"/>
</g>
<!-- ExampleGen -->
<g id="node2" class="node">
<title>ExampleGen</title>
<ellipse fill="none" stroke="#00aed2" cx="242.99" cy="-126" rx="59.59" ry="18"/>
<text text-anchor="middle" x="242.99" y="-122.3" font-family="Panton bold" font-size="14.00" fill="#00aed2">ExampleGen</text>
</g>
<!-- ExampleGen&#45;&gt;StatisticsGen -->
<g id="edge2" class="edge">
<title>ExampleGen&#45;&gt;StatisticsGen</title>
<path fill="none" stroke="#606060" d="M242.99,-107.79C242.99,-105.31 242.99,-102.83 242.99,-100.34"/>
<polygon fill="#606060" stroke="#606060" points="246.49,-100.14 242.99,-90.14 239.49,-100.14 246.49,-100.14"/>
</g>
<!-- Transform -->
<g id="node5" class="node">
<title>Transform</title>
<ellipse fill="none" stroke="#00aed2" cx="423.28" cy="-18" rx="51.19" ry="18"/>
<text text-anchor="middle" x="423.28" y="-14.3" font-family="Panton bold" font-size="14.00" fill="#00aed2">Transform</text>
</g>
<!-- ExampleGen&#45;&gt;Transform -->
<g id="edge6" class="edge">
<title>ExampleGen&#45;&gt;Transform</title>
<path fill="none" stroke="#606060" d="M284.95,-112.93C293.09,-109.22 301.21,-104.61 307.99,-99 330.22,-80.62 321.16,-62.63 343.99,-45 351.59,-39.13 360.56,-34.49 369.66,-30.83"/>
<polygon fill="#606060" stroke="#606060" points="370.95,-34.08 379.14,-27.36 368.54,-27.51 370.95,-34.08"/>
</g>
<!-- ExampleValidator&#45;&gt;SchemaGen -->
<g id="edge5" class="edge">
<title>ExampleValidator&#45;&gt;SchemaGen</title>
<path fill="none" stroke="#606060" d="M423.28,-97.59C423.28,-95.1 423.28,-92.62 423.28,-90.14"/>
<polygon fill="#606060" stroke="#606060" points="419.78,-97.79 423.28,-107.79 426.78,-97.79 419.78,-97.79"/>
</g>
<!-- SchemaGen&#45;&gt;Transform -->
<g id="edge7" class="edge">
<title>SchemaGen&#45;&gt;Transform</title>
<path fill="none" stroke="#606060" d="M423.28,-53.79C423.28,-51.31 423.28,-48.83 423.28,-46.34"/>
<polygon fill="#606060" stroke="#606060" points="426.78,-46.14 423.28,-36.14 419.78,-46.14 426.78,-46.14"/>
</g>
<!-- Trainer -->
<g id="node6" class="node">
<title>Trainer</title>
<ellipse fill="none" stroke="#00aed2" cx="576.92" cy="-18" rx="38.19" ry="18"/>
<text text-anchor="middle" x="576.92" y="-14.3" font-family="Panton bold" font-size="14.00" fill="#00aed2">Trainer</text>
</g>
<!-- Transform&#45;&gt;Trainer -->
<g id="edge8" class="edge">
<title>Transform&#45;&gt;Trainer</title>
<path fill="none" stroke="#606060" d="M474.78,-18C491.9,-18 510.97,-18 527.9,-18"/>
<polygon fill="#606060" stroke="#606060" points="528.12,-21.5 538.12,-18 528.12,-14.5 528.12,-21.5"/>
</g>
<!-- Evaluator -->
<g id="node7" class="node">
<title>Evaluator</title>
<ellipse fill="none" stroke="#00aed2" cx="699.36" cy="-18" rx="48.19" ry="18"/>
<text text-anchor="middle" x="699.36" y="-14.3" font-family="Panton bold" font-size="14.00" fill="#00aed2">Evaluator</text>
</g>
<!-- Trainer&#45;&gt;Evaluator -->
<g id="edge9" class="edge">
<title>Trainer&#45;&gt;Evaluator</title>
<path fill="none" stroke="#606060" d="M615.37,-18C623.51,-18 632.3,-18 641.01,-18"/>
<polygon fill="#606060" stroke="#606060" points="641.16,-21.5 651.16,-18 641.16,-14.5 641.16,-21.5"/>
</g>
<!-- ModelValidator -->
<g id="node8" class="node">
<title>ModelValidator</title>
<ellipse fill="none" stroke="#00aed2" cx="853.65" cy="-18" rx="70.39" ry="18"/>
<text text-anchor="middle" x="853.65" y="-14.3" font-family="Panton bold" font-size="14.00" fill="#00aed2">ModelValidator</text>
</g>
<!-- Evaluator&#45;&gt;ModelValidator -->
<g id="edge10" class="edge">
<title>Evaluator&#45;&gt;ModelValidator</title>
<path fill="none" stroke="#606060" d="M747.71,-18C755.81,-18 764.41,-18 773.08,-18"/>
<polygon fill="#606060" stroke="#606060" points="773.25,-21.5 783.25,-18 773.25,-14.5 773.25,-21.5"/>
</g>
<!-- Pusher -->
<g id="node9" class="node">
<title>Pusher</title>
<ellipse fill="none" stroke="#00aed2" cx="998.84" cy="-18" rx="38.99" ry="18"/>
<text text-anchor="middle" x="998.84" y="-14.3" font-family="Panton bold" font-size="14.00" fill="#00aed2">Pusher</text>
</g>
<!-- ModelValidator&#45;&gt;Pusher -->
<g id="edge11" class="edge">
<title>ModelValidator&#45;&gt;Pusher</title>
<path fill="none" stroke="#606060" d="M924.15,-18C932.77,-18 941.43,-18 949.62,-18"/>
<polygon fill="#606060" stroke="#606060" points="949.73,-21.5 959.73,-18 949.73,-14.5 949.73,-21.5"/>
</g>
<!-- server -->
<g id="node11" class="node">
<title>server</title>
<text text-anchor="middle" x="1168.34" y="-14.2" font-family="Panton" font-size="16.00" fill="#606060">TF Serving/TF Lite/TF JS</text>
</g>
<!-- Pusher&#45;&gt;server -->
<g id="edge12" class="edge">
<title>Pusher&#45;&gt;server</title>
<path fill="none" stroke="#606060" d="M1037.85,-18C1045.71,-18 1054.33,-18 1063.29,-18"/>
<polygon fill="#606060" stroke="#606060" points="1063.52,-21.5 1073.52,-18 1063.52,-14.5 1063.52,-21.5"/>
</g>
<!-- data -->
<g id="node10" class="node">
<title>data</title>
<text text-anchor="middle" x="71" y="-131.2" font-family="Panton" font-size="16.00" fill="#606060">Training/Validation</text>
<text text-anchor="middle" x="71" y="-113.2" font-family="Panton" font-size="16.00" fill="#606060">Data</text>
</g>
<!-- data&#45;&gt;ExampleGen -->
<g id="edge1" class="edge">
<title>data&#45;&gt;ExampleGen</title>
<path fill="none" stroke="#606060" d="M142.12,-126C152.35,-126 162.86,-126 173.06,-126"/>
<polygon fill="#606060" stroke="#606060" points="173.13,-129.5 183.13,-126 173.13,-122.5 173.13,-129.5"/>
</g>
</g>
</svg>
