<?xml version="1.0" encoding="UTF-8" standalone="no"?>
<!DOCTYPE svg PUBLIC "-//W3C//DTD SVG 1.1//EN"
 "http://www.w3.org/Graphics/SVG/1.1/DTD/svg11.dtd">
<!-- Generated by graphviz version 2.42.1 (0)
 -->
<!-- Title: match Pages: 1 -->
<svg width="1025pt" height="260pt"
 viewBox="0.00 0.00 1024.66 260.00" xmlns="http://www.w3.org/2000/svg" xmlns:xlink="http://www.w3.org/1999/xlink">
<g id="graph0" class="graph" transform="scale(1 1) rotate(0) translate(4 256)">
<title>match</title>
<polygon fill="white" stroke="transparent" points="-4,4 -4,-256 1020.66,-256 1020.66,4 -4,4"/>
<!-- StatisticsGen -->
<g id="node1" class="node">
<title>StatisticsGen</title>
<ellipse fill="none" stroke="#606060" cx="242.99" cy="-180" rx="64.99" ry="18"/>
<text text-anchor="middle" x="242.99" y="-176.3" font-family="Panton bold" font-size="14.00" fill="#606060">StatisticsGen</text>
</g>
<!-- ExampleGen -->
<g id="node2" class="node">
<title>ExampleGen</title>
<ellipse fill="none" stroke="#606060" cx="242.99" cy="-126" rx="59.59" ry="18"/>
<text text-anchor="middle" x="242.99" y="-122.3" font-family="Panton bold" font-size="14.00" fill="#606060">ExampleGen</text>
</g>
<!-- StatisticsGen&#45;&gt;ExampleGen -->
<g id="edge2" class="edge">
<title>StatisticsGen&#45;&gt;ExampleGen</title>
<path fill="none" stroke="#606060" d="M242.99,-151.59C242.99,-149.1 242.99,-146.62 242.99,-144.14"/>
<polygon fill="#606060" stroke="#606060" points="239.49,-151.79 242.99,-161.79 246.49,-151.79 239.49,-151.79"/>
</g>
<!-- ExampleValidator -->
<g id="node3" class="node">
<title>ExampleValidator</title>
<ellipse fill="none" stroke="#606060" cx="423.28" cy="-234" rx="79.09" ry="18"/>
<text text-anchor="middle" x="423.28" y="-230.3" font-family="Panton bold" font-size="14.00" fill="#606060">ExampleValidator</text>
</g>
<!-- StatisticsGen&#45;&gt;ExampleValidator -->
<g id="edge3" class="edge">
<title>StatisticsGen&#45;&gt;ExampleValidator</title>
<path fill="none" stroke="#606060" d="M287.61,-193.21C311,-200.29 340.1,-209.11 365.27,-216.73"/>
<polygon fill="#606060" stroke="#606060" points="364.47,-220.15 375.05,-219.7 366.5,-213.45 364.47,-220.15"/>
</g>
<!-- SchemaGen -->
<g id="node4" class="node">
<title>SchemaGen</title>
<ellipse fill="none" stroke="#606060" cx="423.28" cy="-180" rx="59.29" ry="18"/>
<text text-anchor="middle" x="423.28" y="-176.3" font-family="Panton bold" font-size="14.00" fill="#606060">SchemaGen</text>
</g>
<!-- StatisticsGen&#45;&gt;SchemaGen -->
<g id="edge4" class="edge">
<title>StatisticsGen&#45;&gt;SchemaGen</title>
<path fill="none" stroke="#606060" d="M308.11,-180C322.95,-180 338.8,-180 353.82,-180"/>
<polygon fill="#606060" stroke="#606060" points="354.07,-183.5 364.07,-180 354.07,-176.5 354.07,-183.5"/>
</g>
<!-- Transform -->
<g id="node5" class="node">
<title>Transform</title>
<ellipse fill="none" stroke="#606060" cx="423.28" cy="-126" rx="51.19" ry="18"/>
<text text-anchor="middle" x="423.28" y="-122.3" font-family="Panton bold" font-size="14.00" fill="#606060">Transform</text>
</g>
<!-- ExampleGen&#45;&gt;Transform -->
<g id="edge6" class="edge">
<title>ExampleGen&#45;&gt;Transform</title>
<path fill="none" stroke="#606060" d="M302.87,-126C321.78,-126 342.76,-126 361.79,-126"/>
<polygon fill="#606060" stroke="#606060" points="361.84,-129.5 371.84,-126 361.84,-122.5 361.84,-129.5"/>
</g>
<!-- ExampleValidator&#45;&gt;SchemaGen -->
<g id="edge5" class="edge">
<title>ExampleValidator&#45;&gt;SchemaGen</title>
<path fill="none" stroke="#606060" d="M423.28,-205.59C423.28,-203.1 423.28,-200.62 423.28,-198.14"/>
<polygon fill="#606060" stroke="#606060" points="419.78,-205.79 423.28,-215.79 426.78,-205.79 419.78,-205.79"/>
</g>
<!-- SchemaGen&#45;&gt;Transform -->
<g id="edge7" class="edge">
<title>SchemaGen&#45;&gt;Transform</title>
<path fill="none" stroke="#606060" d="M423.28,-161.79C423.28,-159.31 423.28,-156.83 423.28,-154.34"/>
<polygon fill="#606060" stroke="#606060" points="426.78,-154.14 423.28,-144.14 419.78,-154.14 426.78,-154.14"/>
</g>
<!-- Trainer -->
<g id="node6" class="node">
<title>Trainer</title>
<ellipse fill="none" stroke="#606060" cx="576.92" cy="-126" rx="38.19" ry="18"/>
<text text-anchor="middle" x="576.92" y="-122.3" font-family="Panton bold" font-size="14.00" fill="#606060">Trainer</text>
</g>
<!-- Transform&#45;&gt;Trainer -->
<g id="edge8" class="edge">
<title>Transform&#45;&gt;Trainer</title>
<path fill="none" stroke="#606060" d="M474.78,-126C491.9,-126 510.97,-126 527.9,-126"/>
<polygon fill="#606060" stroke="#606060" points="528.12,-129.5 538.12,-126 528.12,-122.5 528.12,-129.5"/>
</g>
<!-- Evaluator -->
<g id="node7" class="node">
<title>Evaluator</title>
<ellipse fill="none" stroke="#606060" cx="721.46" cy="-126" rx="48.19" ry="18"/>
<text text-anchor="middle" x="721.46" y="-122.3" font-family="Panton bold" font-size="14.00" fill="#606060">Evaluator</text>
</g>
<!-- Trainer&#45;&gt;Evaluator -->
<g id="edge9" class="edge">
<title>Trainer&#45;&gt;Evaluator</title>
<path fill="none" stroke="#606060" d="M615.37,-126C629.92,-126 646.91,-126 662.94,-126"/>
<polygon fill="#606060" stroke="#606060" points="663.3,-129.5 673.3,-126 663.3,-122.5 663.3,-129.5"/>
</g>
<!-- ModelValidator -->
<g id="node8" class="node">
<title>ModelValidator</title>
<ellipse fill="none" stroke="#606060" cx="721.46" cy="-72" rx="70.39" ry="18"/>
<text text-anchor="middle" x="721.46" y="-68.3" font-family="Panton bold" font-size="14.00" fill="#606060">ModelValidator</text>
</g>
<!-- Evaluator&#45;&gt;ModelValidator -->
<g id="edge10" class="edge">
<title>Evaluator&#45;&gt;ModelValidator</title>
<path fill="none" stroke="#606060" d="M721.46,-107.79C721.46,-105.31 721.46,-102.83 721.46,-100.34"/>
<polygon fill="#606060" stroke="#606060" points="724.96,-100.14 721.46,-90.14 717.96,-100.14 724.96,-100.14"/>
</g>
<!-- Pusher -->
<g id="node9" class="node">
<title>Pusher</title>
<ellipse fill="none" stroke="#606060" cx="922.16" cy="-72" rx="38.99" ry="18"/>
<text text-anchor="middle" x="922.16" y="-68.3" font-family="Panton bold" font-size="14.00" fill="#606060">Pusher</text>
</g>
<!-- ModelValidator&#45;&gt;Pusher -->
<g id="edge11" class="edge">
<title>ModelValidator&#45;&gt;Pusher</title>
<path fill="none" stroke="#606060" d="M791.68,-72C818.53,-72 848.62,-72 873.04,-72"/>
<polygon fill="#606060" stroke="#606060" points="873.13,-75.5 883.13,-72 873.12,-68.5 873.13,-75.5"/>
</g>
<!-- server -->
<g id="node11" class="node">
<title>server</title>
<text text-anchor="middle" x="922.16" y="-14.2" font-family="Panton" font-size="16.00" fill="#606060">TF Serving/TF Lite/TF JS</text>
</g>
<!-- Pusher&#45;&gt;server -->
<g id="edge12" class="edge">
<title>Pusher&#45;&gt;server</title>
<path fill="none" stroke="#606060" d="M922.16,-53.79C922.16,-51.31 922.16,-48.83 922.16,-46.34"/>
<polygon fill="#606060" stroke="#606060" points="925.66,-46.14 922.16,-36.14 918.66,-46.14 925.66,-46.14"/>
</g>
<!-- data -->
<g id="node10" class="node">
<title>data</title>
<text text-anchor="middle" x="71" y="-131.2" font-family="Panton" font-size="16.00" fill="#606060">Training/Validation</text>
<text text-anchor="middle" x="71" y="-113.2" font-family="Panton" font-size="16.00" fill="#606060">Data</text>
</g>
<!-- data&#45;&gt;ExampleGen -->
<g id="edge1" class="edge">
<title>data&#45;&gt;ExampleGen</title>
<path fill="none" stroke="#606060" d="M142.12,-126C152.35,-126 162.86,-126 173.06,-126"/>
<polygon fill="#606060" stroke="#606060" points="173.13,-129.5 183.13,-126 173.13,-122.5 173.13,-129.5"/>
</g>
</g>
</svg>
