<?xml version="1.0" encoding="UTF-8" standalone="no"?>
<!DOCTYPE svg PUBLIC "-//W3C//DTD SVG 1.1//EN"
 "http://www.w3.org/Graphics/SVG/1.1/DTD/svg11.dtd">
<!-- Generated by graphviz version 2.42.1 (0)
 -->
<!-- Title: match Pages: 1 -->
<svg width="421pt" height="100pt"
 viewBox="0.00 0.00 420.58 99.77" xmlns="http://www.w3.org/2000/svg" xmlns:xlink="http://www.w3.org/1999/xlink">
<g id="graph0" class="graph" transform="scale(1 1) rotate(0) translate(4 95.77)">
<title>match</title>
<polygon fill="white" stroke="transparent" points="-4,4 -4,-95.77 416.58,-95.77 416.58,4 -4,4"/>
<!-- digit1 -->
<g id="node1" class="node">
<title>digit1</title>
</g>
<!-- model1 -->
<g id="node3" class="node">
<title>model1</title>
<ellipse fill="none" stroke="#606060" cx="145.15" cy="-73.38" rx="55.31" ry="18.27"/>
<text text-anchor="middle" x="145.15" y="-69.58" font-family="Panton" font-size="16.00" fill="#606060">classifier</text>
</g>
<!-- digit1&#45;&gt;model1 -->
<g id="edge1" class="edge">
<title>digit1&#45;&gt;model1</title>
<path fill="none" stroke="#606060" d="M54.07,-73.38C61.75,-73.38 70.51,-73.38 79.49,-73.38"/>
<polygon fill="#606060" stroke="#606060" points="79.67,-76.88 89.67,-73.38 79.67,-69.88 79.67,-76.88"/>
</g>
<!-- digit2 -->
<g id="node2" class="node">
<title>digit2</title>
</g>
<!-- model2 -->
<g id="node4" class="node">
<title>model2</title>
<ellipse fill="none" stroke="#606060" cx="145.15" cy="-18.38" rx="55.31" ry="18.27"/>
<text text-anchor="middle" x="145.15" y="-14.58" font-family="Panton" font-size="16.00" fill="#606060">classifier</text>
</g>
<!-- digit2&#45;&gt;model2 -->
<g id="edge4" class="edge">
<title>digit2&#45;&gt;model2</title>
<path fill="none" stroke="#606060" d="M54.07,-18.38C61.75,-18.38 70.51,-18.38 79.49,-18.38"/>
<polygon fill="#606060" stroke="#606060" points="79.67,-21.88 89.67,-18.38 79.67,-14.88 79.67,-21.88"/>
</g>
<!-- merge -->
<g id="node5" class="node">
<title>merge</title>
<ellipse fill="none" stroke="#00ade2" cx="279.44" cy="-45.38" rx="43.27" ry="18.27"/>
<text text-anchor="middle" x="279.44" y="-41.58" font-family="Panton bold" font-size="16.00" fill="#00ade2">merge</text>
</g>
<!-- model1&#45;&gt;merge -->
<g id="edge2" class="edge">
<title>model1&#45;&gt;merge</title>
<path fill="none" stroke="#606060" d="M192.05,-63.67C204.53,-61.03 218.08,-58.16 230.67,-55.5"/>
<polygon fill="#606060" stroke="#606060" points="231.46,-58.91 240.51,-53.41 230.01,-52.06 231.46,-58.91"/>
</g>
<!-- model2&#45;&gt;merge -->
<g id="edge5" class="edge">
<title>model2&#45;&gt;merge</title>
<path fill="none" stroke="#606060" d="M192.79,-27.9C204.88,-30.37 217.92,-33.03 230.1,-35.52"/>
<polygon fill="#606060" stroke="#606060" points="229.58,-38.98 240.08,-37.55 230.98,-32.13 229.58,-38.98"/>
</g>
<!-- output -->
<g id="node6" class="node">
<title>output</title>
</g>
<!-- merge&#45;&gt;output -->
<g id="edge3" class="edge">
<title>merge&#45;&gt;output</title>
<path fill="none" stroke="#606060" d="M322.8,-45.38C331.27,-45.38 340.1,-45.38 348.34,-45.38"/>
<polygon fill="#606060" stroke="#606060" points="348.4,-48.88 358.4,-45.38 348.4,-41.88 348.4,-48.88"/>
</g>
</g>
</svg>
