<?xml version="1.0" encoding="UTF-8" standalone="no"?><svg xmlns="http://www.w3.org/2000/svg" xmlns:xlink="http://www.w3.org/1999/xlink" contentScriptType="application/ecmascript" contentStyleType="text/css" height="474px" preserveAspectRatio="none" style="width:631px;height:474px;" version="1.1" viewBox="0 0 631 474" width="631px" zoomAndPan="magnify"><defs><filter height="300%" id="f1372c64hzv2d1" width="300%" x="-1" y="-1"><feGaussianBlur result="blurOut" stdDeviation="2.0"/><feColorMatrix in="blurOut" result="blurOut2" type="matrix" values="0 0 0 0 0 0 0 0 0 0 0 0 0 0 0 0 0 0 .4 0"/><feOffset dx="4.0" dy="4.0" in="blurOut2" result="blurOut3"/><feBlend in="SourceGraphic" in2="blurOut3" mode="normal"/></filter></defs><g><polygon fill="#F8F8F8" filter="url(#f1372c64hzv2d1)" points="22.5,198.1998,22.5,198.41,32.0714,197.7855,41.6429,198.3931,51.2143,198.5995,60.7857,197.4864,70.3571,198.1221,79.9286,197.7733,89.5,198.1998,89.4511,198.0817,91.2591,198.911,92.9473,199.4514,94.8739,200.567,96.4907,200.9346,98.3388,201.861,98.2779,201.8357,99.2041,203.6838,99.7769,205.3856,100.5565,207.173,101.2579,208.928,102,210.6998,102.1785,210.6998,102.2391,221.0664,102.5857,231.433,102.6711,241.7997,102.6793,252.1663,102.2546,262.5329,102,272.8995,102.1428,272.9586,101.484,274.7569,100.3134,276.343,100.0123,278.2894,98.9798,279.9328,98.3388,281.7383,98.4069,281.9027,96.5079,282.3181,94.7946,283.1817,93.1301,284.1634,91.2616,284.6523,89.5,285.3995,89.5,285.5048,79.9286,285.7381,70.3571,285.8157,60.7857,285.3956,51.2143,285.6867,41.6429,284.8271,32.0714,285.6839,22.5,285.3995,22.5699,285.5683,20.7889,284.8042,19.0427,284.1238,17.1351,283.054,15.3457,282.2697,13.6612,281.7383,13.4698,281.6591,12.9108,279.9631,12.1362,278.1777,11.6743,276.522,10.6784,274.645,10,272.8995,9.6569,272.8995,10.2283,262.5329,9.3332,252.1663,9.4809,241.7997,10.649,231.433,10.4357,221.0664,10,210.6998,10.2262,210.7935,10.6331,208.891,11.5628,207.205,12.3785,205.4718,12.7835,203.5685,13.6612,201.861,13.6489,201.8314,15.445,201.1675,17.2798,200.5972,18.9639,199.663,20.7912,199.0745,22.5,198.1998" style="stroke: #383838; stroke-width: 1.5;"/><text fill="#000000" font-family="Panton" font-size="14" lengthAdjust="spacingAndGlyphs" textLength="72" x="20" y="221.3597">TensorFlow</text><text fill="#000000" font-family="Panton" font-size="14" lengthAdjust="spacingAndGlyphs" textLength="68" x="23" y="238.1597">Distributed</text><text fill="#000000" font-family="Panton" font-size="14" lengthAdjust="spacingAndGlyphs" textLength="61" x="23" y="254.9596">Execution</text><text fill="#000000" font-family="Panton" font-size="14" lengthAdjust="spacingAndGlyphs" textLength="42" x="23" y="271.7595">Engine</text><polygon fill="#F8F8F8" filter="url(#f1372c64hzv2d1)" points="164.5,223.3997,164.5,223.6099,173.7857,222.9854,183.0714,223.593,192.3571,223.7994,201.6429,222.6863,210.9286,223.322,220.2143,222.9732,229.5,223.3997,229.4511,223.2816,231.2591,224.1109,232.9473,224.6512,234.8739,225.7669,236.4907,226.1345,238.3388,227.0609,238.2779,227.0356,239.2041,228.8837,239.7769,230.5854,240.5565,232.3729,241.2579,234.1278,242,235.8997,242.0595,235.8997,242.0797,238.2597,242.1952,240.6197,242.2237,242.9796,242.2264,245.3396,242,247.6996,242.0784,247.7321,241.4105,249.5265,240.7518,251.3247,239.5812,252.9109,239.28,254.8572,238.3388,256.5385,238.301,256.4471,236.6392,257.4351,234.7402,257.8505,233.0268,258.7141,231.3624,259.6958,229.5,260.1996,229.5,260.1509,220.2143,260.3049,210.9286,260.5382,201.6429,260.6158,192.3571,260.1957,183.0714,260.4868,173.7857,259.6272,164.5,260.1996,164.5363,260.2872,162.8022,259.6362,161.0212,258.872,159.2749,258.1917,157.3673,257.1219,155.6612,256.5385,155.4603,256.4553,154.7376,254.6914,154.1786,252.9954,153.4039,251.2101,152.9421,249.5543,152,247.6996,151.9418,247.6996,151.8856,245.3396,152.0761,242.9796,151.7777,240.6197,151.827,238.2597,152,235.8997,152.1999,235.9825,152.8664,234.1875,153.6907,232.4578,154.0976,230.5553,155.0272,228.8693,155.6612,227.0609,155.7365,227.2427,157.3687,226.1831,159.1845,225.5669,160.9805,224.903,162.8154,224.3326,164.5,223.3997" style="stroke: #383838; stroke-width: 1.5;"/><text fill="#000000" font-family="Panton" font-size="14" lengthAdjust="spacingAndGlyphs" textLength="70" x="162" y="246.5596">Python API</text><polygon fill="#F8F8F8" filter="url(#f1372c64hzv2d1)" points="304.5,20,304.5,20.2102,314.8636,19.5857,325.2273,20.1933,335.5909,20.3997,345.9545,19.2866,356.3182,19.9223,366.6818,19.5735,377.0455,19.6165,387.4091,19.9318,397.7727,19.3086,408.1364,20.5536,418.5,20,418.4196,19.8059,420.2425,20.6713,422.0906,21.5975,423.7924,22.1703,425.5798,22.9499,427.3388,23.6612,427.329,23.6571,428.126,25.4517,428.8769,27.2272,429.7159,29.0392,430.4744,30.8178,431,32.5,431.2264,32.5,431.0849,34.86,431.1545,37.22,431.2341,39.58,430.7596,41.9399,431,44.2999,431.209,44.3865,430.1765,46.0299,429.6999,47.9036,428.6509,49.5401,428.05,51.3623,427.3388,53.1388,427.4334,53.3671,425.5649,53.856,423.8167,54.6357,422.0787,55.4397,420.3209,56.1959,418.5,56.7999,418.5,56.796,408.1364,57.0871,397.7727,56.2275,387.4091,57.0843,377.0455,57.3481,366.6818,57.2445,356.3182,57.413,345.9545,56.3168,335.5909,56.1477,325.2273,56.1785,314.8636,56.741,304.5,56.7999,304.4749,56.7394,302.8192,56.2775,300.9422,55.2817,299.1529,54.4976,297.4581,53.9413,295.6612,53.1388,295.4558,53.0537,294.7691,51.3048,294.3965,49.686,293.5986,47.891,292.9584,46.1614,292,44.2999,291.8927,44.2999,292.1064,41.9399,292.1968,39.58,291.8425,37.22,291.968,34.86,292,32.5,292.0388,32.5161,292.9329,30.8154,293.4632,28.9639,294.3392,27.2557,294.7584,25.3583,295.6612,23.6612,295.5748,23.4526,297.4932,23.084,299.1052,21.9759,301.0294,21.6212,302.7586,20.7959,304.5,20" style="stroke: #383838; stroke-width: 1.5;"/><text fill="#000000" font-family="Panton" font-size="14" font-weight="bold" lengthAdjust="spacingAndGlyphs" textLength="47" x="302" y="43.1599">tensors</text><text fill="#000000" font-family="Panton" font-size="14" lengthAdjust="spacingAndGlyphs" textLength="8" x="352" y="43.1599">+</text><text fill="#000000" font-family="Panton" font-size="14" font-weight="bold" lengthAdjust="spacingAndGlyphs" textLength="58" x="363" y="43.1599">gradients</text><path d="M242,241.7997 L242,241.9865 L244,241.4314 L246,241.9715 L248,242.1549 L250,241.1655 L252,241.7997 L252,241.7997 L251.97,241.7826 L252.8314,239.9578 L253.8441,238.2193 L254.962,236.5408 L255.7174,234.6557 L256.9805,233.0598 L257.2214,233.1096 L257.1207,230.9969 L257.7235,229.0297 L258.4121,227.0801 L258.6013,225.0274 L259.0532,223.0289 L259.0832,223.0332 L259.4098,220.4248 L259.873,217.8359 L260.2703,215.2376 L260.7934,212.6572 L260.9063,210.0185 L261.2027,210.0508 L261.5418,206.9723 L261.6897,203.8731 L262.1174,200.8044 L262.5583,197.737 L262.5835,194.6244 L262.2643,194.5957 L263.1929,191.2151 L263.0704,187.7399 L263.747,184.3367 L263.6007,180.8594 L264.1289,177.4427 L264.0986,177.4404 L265.0318,169.9994 L265.2557,162.5039 L265.8982,155.0406 L266.5758,147.5799 L267,140.0998 L267.1844,140.114 L267.5725,132.6311 L268.2757,125.1724 L268.469,117.6746 L269.4229,110.2352 L269.8711,102.7569 L270.1138,102.7787 L270.377,99.3383 L270.7606,95.9086 L270.5845,92.4286 L270.8187,88.9856 L271.4165,85.5752 L271.142,85.5453 L271.7259,82.4935 L272.0006,79.4081 L272.7239,76.3716 L272.6811,73.2516 L273.0938,70.1812 L272.9428,70.1597 L273.5648,67.5934 L273.5415,64.9352 L273.9771,62.3424 L274.8617,59.8135 L274.9468,57.1707 L275.1364,57.2099 L275.681,55.2306 L275.6358,53.1294 L276.3294,51.1809 L276.862,49.1991 L277.0195,47.1398 L276.8371,47.0358 L277.9786,45.3707 L279.0604,43.6716 L280.2595,42.0393 L281.0023,40.147 L282,38.4 L282,38.8111 L284,37.9077 L286,37.798 L288,38.8476 L290,37.7627 L292,38.4 " fill="none" style="stroke: #383838; stroke-width: 1.0;"/><polygon fill="#F8F8F8" filter="url(#f1372c64hzv2d1)" points="304.5,76.7999,304.5,77.0101,314.8333,76.3856,325.1667,76.9932,335.5,77.1996,345.8333,76.0865,356.1667,76.7222,366.5,76.3734,376.8333,76.4164,387.1667,76.7318,397.5,76.7999,397.4118,76.587,399.3384,77.7027,400.9551,78.0703,402.7781,78.9357,404.6262,79.8619,406.3388,80.4611,406.3124,80.4502,407.0921,82.2376,407.7935,83.9926,408.5905,85.7872,409.3414,87.5627,410,89.2999,410.1952,89.2999,410.2237,91.6599,410.2264,94.0199,410.0849,96.3799,410.1545,98.7399,410,101.0999,410.2163,101.1894,409.0457,102.7756,408.7445,104.7219,407.712,106.3653,407.2355,108.239,406.3388,109.9387,406.2757,109.7862,404.5623,110.6498,402.8979,111.6315,401.0293,112.1204,399.2812,112.9,397.5,113.5999,397.5,113.9385,387.1667,114.0161,376.8333,113.5959,366.5,113.8871,356.1667,113.0274,345.8333,113.8842,335.5,114.148,325.1667,114.0444,314.8333,114.2129,304.5,113.5999,304.4384,113.4511,302.649,112.6668,300.8852,111.944,299.1892,111.385,297.4039,110.6104,295.6612,109.9387,295.871,110.0256,294.8751,108.1486,294.0911,106.3594,293.5348,104.6645,292.5269,102.7826,292,101.0999,291.827,101.0999,292.2163,98.7399,292.1452,96.3799,292.2448,94.0199,291.8927,91.6599,292,89.2999,292.0983,89.3406,292.9141,87.6075,293.319,85.7041,294.1672,83.9844,294.9677,82.2449,295.6612,80.4611,295.7443,80.6618,297.4284,79.7276,299.2557,79.1391,300.8938,78.0938,302.6458,77.3236,304.5,76.7999" style="stroke: #383838; stroke-width: 1.5;"/><text fill="#000000" font-family="Panton" font-size="14" lengthAdjust="spacingAndGlyphs" textLength="98" x="302" y="99.9599">extended maths</text><path d="M242,241.7997 L242,241.9865 L244,241.4314 L246,241.9715 L248,242.1549 L250,241.1655 L252,241.7997 L252,241.7997 L251.9729,241.7782 L252.8474,240.4222 L253.8585,239.1743 L254.9645,238.0013 L255.7433,236.5697 L256.9805,235.5004 L257.2199,235.5571 L257.493,232.1146 L258.4652,228.8374 L259.5228,225.5804 L260.084,222.2061 L260.9063,218.8934 L260.9362,218.898 L261.2277,216.6723 L261.6556,214.4672 L262.0177,212.2522 L262.5054,210.0562 L262.5835,207.7982 L262.8794,207.8352 L263.1921,205.3589 L263.314,202.8588 L263.7152,200.3936 L264.1295,197.93 L264.1289,195.4146 L263.8102,195.3806 L265.003,190.0636 L265.1463,184.6347 L266.0875,179.2909 L266.207,173.8594 L267,168.4998 L266.9697,168.4965 L267.902,163.1518 L268.1269,157.7316 L268.7692,152.3559 L269.4465,146.9839 L269.8711,141.585 L270.0547,141.6079 L270.1785,139.108 L270.6159,136.6473 L270.5459,134.1233 L271.2328,131.6937 L271.4165,129.2013 L271.6574,129.2377 L271.9473,127.0118 L272.3568,124.8039 L272.2106,122.5121 L272.4717,120.2818 L273.0938,118.1061 L272.825,118.0426 L273.8534,114.7787 L274.5791,111.4432 L275.7439,108.2116 L276.1588,104.8026 L277.0195,101.4991 L276.8999,101.4045 L278.0952,100.3022 L278.7792,98.7956 L279.8268,97.5765 L281.2302,96.6386 L282,95.1999 L282,95.5872 L284,95.8528 L286,94.9139 L288,95.4836 L290,95.7247 L292,95.1999 " fill="none" style="stroke: #383838; stroke-width: 1.0;"/><polygon fill="#F8F8F8" filter="url(#f1372c64hzv2d1)" points="304.5,133.5999,304.5,133.81,314.5,133.1855,324.5,133.7931,334.5,133.9995,344.5,132.8865,354.5,133.5221,364.5,133.1734,374.5,133.2164,384.5,133.5317,394.5,132.9085,404.5,134.1535,414.5,132.9696,424.5,133.4021,434.5,133.5999,434.5551,133.7329,436.2568,134.3057,438.0442,135.0853,439.7992,135.7867,441.5938,136.5838,443.3388,137.261,443.4125,137.2915,444.2514,139.1035,445.01,140.8822,445.7447,142.651,446.3462,144.3646,447,146.0999,447.1545,146.0999,447.2341,148.4598,446.7596,150.8198,447.2262,153.1798,446.9012,155.5398,447,157.8998,447.1644,157.9679,446.1153,159.6044,445.5144,161.4266,445.0317,163.2977,444.0561,164.9646,443.3388,166.7386,443.3523,166.771,441.6143,167.5751,439.8564,168.3313,438.035,168.9341,436.3044,169.756,434.5,170.3998,434.5,169.8274,424.5,170.6842,414.5,170.948,404.5,170.8443,394.5,171.0128,384.5,169.9167,374.5,169.7476,364.5,169.7784,354.5,170.3409,344.5,170.2033,334.5,171.0812,324.5,170.2251,314.5,170.0567,304.5,170.3998,304.5291,170.4701,302.6472,169.4622,300.8982,168.7754,299.2795,168.4029,297.4845,167.605,295.6612,166.7386,295.8874,166.8323,294.8298,164.9298,294.295,163.2438,293.6463,161.5106,292.5868,159.6073,292,157.8998,291.968,157.8998,292.042,155.5398,292.2173,153.1798,291.9986,150.8198,292.1542,148.4598,292,146.0999,291.8295,146.0292,292.5237,144.2457,293.6196,142.6286,293.9759,140.7051,295.0857,139.0937,295.6612,137.261,295.6875,137.3247,297.3948,136.4463,299.1516,135.6876,301.023,135.2056,302.694,134.2399,304.5,133.5999" style="stroke: #383838; stroke-width: 1.5;"/><text fill="#000000" font-family="Panton" font-size="14" font-weight="bold" lengthAdjust="spacingAndGlyphs" textLength="18" x="302" y="156.7598">I/O</text><text fill="#000000" font-family="Panton" font-size="14" lengthAdjust="spacingAndGlyphs" textLength="23" x="323" y="156.7598">and</text><text fill="#000000" font-family="Panton" font-size="14" font-weight="bold" lengthAdjust="spacingAndGlyphs" textLength="88" x="349" y="156.7598">preprocessing</text><text fill="#000000" font-family="Panton" font-size="14" font-weight="bold" lengthAdjust="spacingAndGlyphs" textLength="40" x="500" y="128.5599">tf.data</text><path d="M447,151.9998 L447,152.1866 L449,151.6315 L451,152.1716 L453,152.3551 L455,151.3657 L457,151.9998 L457,151.9998 L456.9847,151.9689 L458.6972,150.9487 L460.4869,150.0846 L462.3303,149.3289 L463.9887,148.1994 L465.9063,147.5936 L466.1146,147.7245 L466.8878,145.5058 L468.2693,143.6693 L469.725,141.8795 L470.749,139.8183 L472,137.8999 L472.0257,137.916 L473.2067,135.9536 L474.5047,134.0646 L475.7462,132.1402 L477.0954,130.2834 L478.0938,128.2062 L478.226,128.4735 L480.0089,127.5955 L481.7064,126.5451 L483.5289,125.7471 L485.3571,124.9609 L487,123.7999 L487,123.1589 L489,124.403 L491,123.5364 L493,124.2744 L495,123.3599 L497,123.7999 " fill="none" style="stroke: #383838; stroke-width: 1.0;"/><text fill="#000000" font-family="Panton" font-size="14" lengthAdjust="spacingAndGlyphs" textLength="49" x="500" y="147.3598">tf.image</text><path d="M447,151.9998 L447,152.1866 L449,151.6315 L451,152.1716 L453,152.3551 L455,151.3657 L457,151.9998 L457,151.9998 L456.9897,151.9669 L459.9433,150.8789 L462.949,149.9572 L465.9909,149.1509 L468.9081,147.9466 L472,147.2998 L472.0736,147.5346 L474.9162,146.0925 L477.9737,145.336 L481.0574,144.663 L483.9886,143.5035 L487,142.5999 L487,142.6605 L489,142.5715 L491,142.7585 L493,142.8124 L495,143.1205 L497,142.5999 " fill="none" style="stroke: #383838; stroke-width: 1.0;"/><text fill="#000000" font-family="Panton" font-size="14" lengthAdjust="spacingAndGlyphs" textLength="56" x="500" y="166.1598">tf.strings</text><path d="M447,151.9998 L447,152.1866 L449,151.6315 L451,152.1716 L453,152.3551 L455,151.3657 L457,151.9998 L457,151.9998 L456.9897,151.9669 L459.9433,152.7589 L462.949,153.7172 L465.9909,154.7909 L468.9081,155.4666 L472,156.6998 L472.0736,156.9346 L474.9162,157.3725 L477.9737,158.4959 L481.0574,159.703 L483.9886,160.4234 L487,161.3998 L487,161.4604 L489,161.3714 L491,161.5585 L493,161.6123 L495,161.9204 L497,161.3998 " fill="none" style="stroke: #383838; stroke-width: 1.0;"/><text fill="#000000" font-family="Panton" font-size="14" lengthAdjust="spacingAndGlyphs" textLength="9" x="500" y="184.9597">...</text><path d="M447,151.9998 L447,152.1866 L449,151.6315 L451,152.1716 L453,152.3551 L455,151.3657 L457,151.9998 L457,151.9998 L456.9847,151.9689 L458.6972,152.7112 L460.4869,153.6095 L462.3303,154.6164 L463.9887,155.2494 L465.9063,156.406 L466.1146,156.537 L466.8878,158.1957 L468.2693,160.2368 L469.725,162.3244 L470.749,164.1407 L472,166.0998 L472.0257,166.1159 L473.2067,168.0309 L474.5047,170.0195 L475.7462,171.9726 L477.0954,173.9933 L478.0938,175.7935 L478.226,176.0608 L480.0089,176.9453 L481.7064,177.6574 L483.5289,178.6219 L485.3571,179.5982 L487,180.1997 L487,179.5587 L489,180.8028 L491,179.9361 L493,180.6742 L495,179.7597 L497,180.1997 " fill="none" style="stroke: #383838; stroke-width: 1.0;"/><path d="M242,241.7997 L242,241.9865 L244,241.4314 L246,241.9715 L248,242.1549 L250,241.1655 L252,241.7997 L252,241.7997 L251.9708,241.7811 L253.6212,238.8918 L255.4186,236.0958 L257.3182,233.3647 L258.8656,230.41 L260.9063,227.7684 L261.1464,227.8222 L261.2774,224.8308 L262.1095,221.9964 L263.0272,219.1812 L263.4472,216.2545 L264.1289,213.3864 L264.1588,213.3916 L264.6891,210.0866 L265.3555,206.8054 L265.9563,203.5126 L266.6822,200.2417 L267,196.8997 L267.2938,196.9509 L267.8716,193.6542 L268.2599,190.3245 L268.9256,187.0431 L269.6044,183.7639 L269.8711,180.413 L269.5583,180.343 L270.8099,177.6026 L271.0316,174.6314 L272.0362,171.8357 L272.2345,168.8593 L273.0938,166.031 L273.068,166.0147 L275.1533,163.4014 L276.638,160.4069 L278.477,157.6374 L280.3458,154.8867 L282,151.9998 L282,152.3698 L284,151.9963 L286,152.2551 L288,151.491 L290,152.2526 L292,151.9998 " fill="none" style="stroke: #383838; stroke-width: 1.0;"/><polygon fill="#F8F8F8" filter="url(#f1372c64hzv2d1)" points="304.5,199.5997,304.5,199.8099,314.8077,199.1854,325.1154,199.793,335.4231,199.9993,345.7308,198.8863,356.0385,199.522,366.3462,199.1732,376.6538,199.2162,386.9615,199.5315,397.2692,198.9083,407.5769,200.1533,417.8846,198.9694,428.1923,199.4019,438.5,199.5997,438.5551,199.7327,440.2568,200.3055,442.0442,201.0852,443.7992,201.7865,445.5938,202.5836,447.3388,203.2608,447.4125,203.2913,448.2514,205.1033,449.01,206.882,449.7447,208.6508,450.3462,210.3644,451,212.0997,451.1545,212.0997,451.2341,214.4597,450.7596,216.8196,451.2262,219.1796,450.9012,221.5396,451,223.8996,451.1644,223.9677,450.1153,225.6042,449.5144,227.4264,449.0317,229.2975,448.0561,230.9644,447.3388,232.7384,447.3523,232.7709,445.6143,233.5749,443.8564,234.3311,442.035,234.9339,440.3044,235.7558,438.5,236.3996,438.5,235.8272,428.1923,236.684,417.8846,236.9478,407.5769,236.8441,397.2692,237.0126,386.9615,235.9165,376.6538,235.7474,366.3462,235.7782,356.0385,236.3407,345.7308,236.2031,335.4231,237.081,325.1154,236.2249,314.8077,236.0565,304.5,236.3996,304.5291,236.4699,302.6472,235.462,300.8982,234.7753,299.2795,234.4027,297.4845,233.6048,295.6612,232.7384,295.8874,232.8321,294.8298,230.9296,294.295,229.2436,293.6463,227.5104,292.5868,225.6071,292,223.8996,291.968,223.8996,292.042,221.5396,292.2173,219.1796,291.9986,216.8196,292.1542,214.4597,292,212.0997,291.8295,212.029,292.5237,210.2455,293.6196,208.6284,293.9759,206.7049,295.0857,205.0935,295.6612,203.2608,295.6875,203.3245,297.3948,202.4461,299.1516,201.6874,301.023,201.2054,302.694,200.2397,304.5,199.5997" style="stroke: #383838; stroke-width: 1.5;"/><text fill="#000000" font-family="Panton" font-size="14" lengthAdjust="spacingAndGlyphs" textLength="139" x="302" y="222.7596">low-level deep learning</text><text fill="#000000" font-family="Panton" font-size="14" lengthAdjust="spacingAndGlyphs" textLength="29" x="504" y="203.9597">tf.nn</text><path d="M451,217.9996 L451,218.1865 L453,217.6313 L455,218.1714 L457,218.3549 L459,217.3655 L461,217.9996 L461,217.9996 L460.9817,217.9704 L463.8993,215.959 L466.9095,214.0952 L469.9839,212.334 L472.8368,210.2193 L476,208.5997 L476.1307,208.8082 L478.8513,206.4823 L481.9533,204.7652 L485.1019,203.1224 L487.9798,201.0474 L491,199.1997 L491,199.2604 L493,199.1713 L495,199.3584 L497,199.4123 L499,199.7203 L501,199.1997 " fill="none" style="stroke: #383838; stroke-width: 1.0;"/><text fill="#000000" font-family="Panton" font-size="14" lengthAdjust="spacingAndGlyphs" textLength="34" x="504" y="222.7596">tf.rnn</text><path d="M451,217.9996 L451,218.1865 L453,217.6313 L455,218.1714 L457,218.3549 L459,217.3655 L461,217.9996 L461,217.9996 L461,217.9651 L467,217.8101 L473,217.8292 L479,217.9693 L485,217.6924 L491,217.9996 L491,218.4918 L493,217.4394 L495,217.8238 L497,218.3836 L499,217.9234 L501,217.9996 " fill="none" style="stroke: #383838; stroke-width: 1.0;"/><text fill="#000000" font-family="Panton" font-size="14" lengthAdjust="spacingAndGlyphs" textLength="41" x="504" y="241.5595">tf.train</text><path d="M451,217.9996 L451,218.1865 L453,217.6313 L455,218.1714 L457,218.3549 L459,217.3655 L461,217.9996 L461,217.9996 L460.9817,217.9704 L463.8993,219.719 L466.9095,221.6152 L469.9839,223.6139 L472.8368,225.2592 L476,227.3996 L476.1307,227.6081 L478.8513,229.0422 L481.9533,231.0851 L485.1019,233.2022 L487.9798,234.8873 L491,236.7996 L491,236.8602 L493,236.7712 L495,236.9583 L497,237.0121 L499,237.3202 L501,236.7996 " fill="none" style="stroke: #383838; stroke-width: 1.0;"/><path d="M242,241.7997 L242,241.9865 L244,241.4314 L246,241.9715 L248,242.1549 L250,241.1655 L252,241.7997 L252,241.7997 L251.9785,241.7726 L254.8822,239.2712 L257.8941,236.9061 L260.9812,234.6359 L263.809,232.0389 L267,229.8996 L267.1529,230.0924 L269.8259,227.3002 L272.9454,225.0708 L276.1193,222.91 L278.9763,220.3498 L282,217.9996 L282,218.0603 L284,217.9712 L286,218.1583 L288,218.2122 L290,218.5202 L292,217.9996 " fill="none" style="stroke: #383838; stroke-width: 1.0;"/><polygon fill="#F8F8F8" filter="url(#f1372c64hzv2d1)" points="304.5,256.3996,304.5,256.6098,314.5,255.9853,324.5,256.5929,334.5,256.7993,344.5,255.6862,354.5,256.3219,364.5,255.9731,374.5,256.0161,384.5,256.3314,394.5,255.7082,404.5,256.9532,414.5,255.7693,424.5,256.2018,434.5,256.8315,444.5,256.3996,444.4891,256.3732,446.2765,257.1528,448.0315,257.8542,449.8261,258.6513,451.6016,259.4022,453.3388,260.0608,453.5192,260.1355,454.2777,261.9141,455.0125,263.6829,455.6139,265.3965,456.4105,267.191,457,268.8996,457.2341,268.8996,456.7596,271.2596,457.2262,273.6196,456.9012,275.9796,457.1779,278.3395,457,280.6995,456.8476,280.6364,456.2467,282.4586,455.7639,284.3297,454.7883,285.9966,454.1035,287.784,453.3388,289.5384,453.382,289.6426,451.6242,290.3988,449.8028,291.0016,448.0722,291.8235,446.1947,292.291,444.5,293.1995,444.5,293.4839,434.5,293.7477,424.5,293.6441,414.5,293.8125,404.5,292.7164,394.5,292.5473,384.5,292.5781,374.5,293.1406,364.5,293.003,354.5,293.8809,344.5,293.0248,334.5,292.8565,324.5,293.4278,314.5,292.5327,304.5,293.1995,304.4338,293.0397,302.815,292.6671,301.02,291.8692,299.2904,291.229,297.3879,290.1715,295.6612,289.5384,295.7595,289.5791,295.1108,287.8459,294.0512,285.9426,293.4349,284.2228,292.771,282.4834,292,280.6995,292.2173,280.6995,291.9986,278.3395,292.1542,275.9796,291.8154,273.6196,291.7742,271.2596,292,268.8996,292.1551,268.9638,292.5114,267.0404,293.6212,265.429,294.2603,263.6227,294.8464,261.7944,295.6612,260.0608,295.616,259.9518,297.4875,259.4698,299.1585,258.5041,301.04,258.0463,302.6617,256.9616,304.5,256.3996" style="stroke: #383838; stroke-width: 1.5;"/><text fill="#000000" font-family="Panton" font-size="14" font-weight="bold" lengthAdjust="spacingAndGlyphs" textLength="60" x="302" y="279.5595">high-level</text><text fill="#000000" font-family="Panton" font-size="14" lengthAdjust="spacingAndGlyphs" textLength="0" x="365" y="279.5595"/><text fill="#000000" font-family="Panton" font-size="14" font-weight="bold" lengthAdjust="spacingAndGlyphs" textLength="30" x="365" y="279.5595">deep</text><text fill="#000000" font-family="Panton" font-size="14" lengthAdjust="spacingAndGlyphs" textLength="0" x="398" y="279.5595"/><text fill="#000000" font-family="Panton" font-size="14" font-weight="bold" lengthAdjust="spacingAndGlyphs" textLength="49" x="398" y="279.5595">learning</text><text fill="#000000" font-family="Panton" font-size="14" font-weight="bold" lengthAdjust="spacingAndGlyphs" textLength="46" x="510" y="260.7596">tf.keras</text><path d="M457,274.7996 L457,274.9864 L459,274.4313 L461,274.9714 L463,275.1548 L465,274.1654 L467,274.7996 L467,274.7996 L466.9817,274.7703 L469.8993,272.7589 L472.9095,270.8951 L475.9839,269.1339 L478.8368,267.0192 L482,265.3996 L482.1307,265.6081 L484.8513,263.2822 L487.9533,261.5651 L491.1019,259.9223 L493.9798,257.8473 L497,255.9996 L497,256.0603 L499,255.9712 L501,256.1583 L503,256.2122 L505,256.5202 L507,255.9996 " fill="none" style="stroke: #383838; stroke-width: 1.0;"/><text fill="#000000" font-family="Panton" font-size="14" font-weight="bold" lengthAdjust="spacingAndGlyphs" textLength="71" x="510" y="279.5595">tf.estimator</text><path d="M457,274.7996 L457,274.9864 L459,274.4313 L461,274.9714 L463,275.1548 L465,274.1654 L467,274.7996 L467,274.7996 L467,274.765 L473,274.61 L479,274.6291 L485,274.7693 L491,274.4923 L497,274.7996 L497,275.2917 L499,274.2393 L501,274.6238 L503,275.1835 L505,274.7233 L507,274.7996 " fill="none" style="stroke: #383838; stroke-width: 1.0;"/><text fill="#000000" font-family="Panton" font-size="14" lengthAdjust="spacingAndGlyphs" textLength="109" x="510" y="298.3595">tf.feature_column</text><path d="M457,274.7996 L457,274.9864 L459,274.4313 L461,274.9714 L463,275.1548 L465,274.1654 L467,274.7996 L467,274.7996 L466.9817,274.7703 L469.8993,276.5189 L472.9095,278.4151 L475.9839,280.4139 L478.8368,282.0592 L482,284.1995 L482.1307,284.408 L484.8513,285.8421 L487.9533,287.885 L491.1019,290.0022 L493.9798,291.6872 L497,293.5995 L497,293.6601 L499,293.5711 L501,293.7582 L503,293.8121 L505,294.1201 L507,293.5995 " fill="none" style="stroke: #383838; stroke-width: 1.0;"/><path d="M242,241.7997 L242,241.9865 L244,241.4314 L246,241.9715 L248,242.1549 L250,241.1655 L252,241.7997 L252,241.7997 L251.9827,241.7698 L253.6863,242.6669 L255.4771,243.7146 L257.3286,244.8672 L258.971,245.6587 L260.9063,246.9559 L261.123,247.0723 L261.8782,249.0921 L263.2663,251.4518 L264.7316,253.853 L265.7477,256.0128 L267,258.2996 L267.0267,258.314 L268.2062,260.5616 L269.5074,262.8746 L270.7499,265.1561 L272.1043,267.4978 L273.0938,269.6433 L273.2432,269.9014 L275.0263,270.9358 L276.713,271.8038 L278.5407,272.9154 L280.3751,274.0384 L282,274.7996 L282,274.1585 L284,275.4027 L286,274.536 L288,275.2741 L290,274.3595 L292,274.7996 " fill="none" style="stroke: #383838; stroke-width: 1.0;"/><polygon fill="#F8F8F8" filter="url(#f1372c64hzv2d1)" points="304.5,313.1995,304.5,313.4097,314.2143,312.7852,323.9286,313.3928,333.6429,313.5992,343.3571,312.4861,353.0714,313.1218,362.7857,312.773,372.5,313.1995,372.4511,313.0814,374.2591,313.9108,375.9473,314.4511,377.8739,315.5667,379.4907,315.9344,381.3388,316.8607,381.2779,316.8355,382.2041,318.6836,382.7769,320.3853,383.5565,322.1727,384.2579,323.9277,385,325.6995,385.0595,325.6995,385.0797,328.0595,385.1952,330.4195,385.2237,332.7795,385.2264,335.1395,385,337.4995,385.0784,337.5319,384.4105,339.3264,383.7518,341.1246,382.5812,342.7108,382.28,344.6571,381.3388,346.3383,381.301,346.247,379.6392,347.2349,377.7402,347.6503,376.0268,348.5139,374.3624,349.4956,372.5,349.9995,372.5,349.9507,362.7857,350.1048,353.0714,350.3381,343.3571,350.4157,333.6429,349.9955,323.9286,350.2867,314.2143,349.427,304.5,349.9995,304.5363,350.087,302.8022,349.436,301.0212,348.6719,299.2749,347.9915,297.3673,346.9217,295.6612,346.3383,295.4603,346.2551,294.7376,344.4913,294.1786,342.7952,293.4039,341.0099,292.9421,339.3541,292,337.4995,291.9418,337.4995,291.8856,335.1395,292.0761,332.7795,291.7777,330.4195,291.827,328.0595,292,325.6995,292.1999,325.7823,292.8664,323.9873,293.6907,322.2577,294.0976,320.3552,295.0272,318.6692,295.6612,316.8607,295.7365,317.0425,297.3687,315.983,299.1845,315.3667,300.9805,314.7028,302.8154,314.1325,304.5,313.1995" style="stroke: #383838; stroke-width: 1.5;"/><text fill="#000000" font-family="Panton" font-size="14" font-weight="bold" lengthAdjust="spacingAndGlyphs" textLength="73" x="302" y="336.3595">deployment</text><path d="M242,241.7997 L242,241.9865 L244,241.4314 L246,241.9715 L248,242.1549 L250,241.1655 L252,241.7997 L252,241.7997 L251.9708,241.7811 L253.6212,244.5043 L255.4186,247.3208 L257.3182,250.2022 L258.8656,252.86 L260.9063,255.8309 L261.1464,255.8847 L261.2774,258.646 L262.1095,261.5645 L263.0272,264.5021 L263.4472,267.3281 L264.1289,270.2129 L264.1588,270.2181 L264.6891,273.5078 L265.3555,276.8212 L265.9563,280.1231 L266.6822,283.4469 L267,286.6996 L267.2938,286.7507 L267.8716,290.0487 L268.2599,293.3137 L268.9256,296.6269 L269.6044,299.9425 L269.8711,303.1863 L269.5583,303.1162 L270.8099,306.1286 L271.0316,308.9102 L272.0362,311.8673 L272.2345,314.6438 L273.0938,317.5683 L273.068,317.5519 L275.1533,320.5511 L276.638,323.1691 L278.477,326.0121 L280.3458,328.8739 L282,331.5995 L282,331.9695 L284,331.596 L286,331.8548 L288,331.0907 L290,331.8523 L292,331.5995 " fill="none" style="stroke: #383838; stroke-width: 1.0;"/><polygon fill="#F8F8F8" filter="url(#f1372c64hzv2d1)" points="304.5,369.9995,304.5,370.2096,314.5,369.5851,324.5,370.1927,334.5,370.3991,344.5,369.2861,354.5,369.9217,364.5,369.573,374.5,369.9995,374.4511,369.8813,376.2591,370.7107,377.9473,371.251,379.8739,372.3666,381.4907,372.7343,383.3388,373.6606,383.2779,373.6354,384.2041,375.4835,384.7769,377.1852,385.5565,378.9726,386.2579,380.7276,387,382.4995,387.0595,382.4995,387.0797,384.8594,387.1952,387.2194,387.2237,389.5794,387.2264,391.9394,387,394.2994,387.0784,394.3319,386.4105,396.1263,385.7518,397.9245,384.5812,399.5107,384.28,401.457,383.3388,403.1382,383.301,403.0469,381.6392,404.0348,379.7402,404.4502,378.0268,405.3138,376.3624,406.2955,374.5,406.7994,374.5,406.7506,364.5,406.9047,354.5,407.138,344.5,407.2156,334.5,406.7955,324.5,407.0866,314.5,406.227,304.5,406.7994,304.5363,406.887,302.8022,406.236,301.0212,405.4718,299.2749,404.7915,297.3673,403.7217,295.6612,403.1382,295.4603,403.055,294.7376,401.2912,294.1786,399.5952,293.4039,397.8098,292.9421,396.1541,292,394.2994,291.9418,394.2994,291.8856,391.9394,292.0761,389.5794,291.7777,387.2194,291.827,384.8594,292,382.4995,292.1999,382.5822,292.8664,380.7873,293.6907,379.0576,294.0976,377.1551,295.0272,375.4691,295.6612,373.6606,295.7365,373.8424,297.3687,372.7829,299.1845,372.1666,300.9805,371.5027,302.8154,370.9324,304.5,369.9995" style="stroke: #383838; stroke-width: 1.5;"/><text fill="#000000" font-family="Panton" font-size="14" lengthAdjust="spacingAndGlyphs" textLength="75" x="302" y="393.1594">visualization</text><path d="M242,241.7997 L242,241.9865 L244,241.4314 L246,241.9715 L248,242.1549 L250,241.1655 L252,241.7997 L252,241.7997 L251.9729,241.7782 L252.8474,242.9419 L253.8585,244.2136 L254.9645,245.5604 L255.7433,246.6484 L256.9805,248.0989 L257.2199,248.1555 L257.493,251.3558 L258.4652,254.7214 L259.5228,258.1072 L260.084,261.3757 L260.9063,264.7059 L260.9362,264.7104 L261.2277,266.9228 L261.6556,269.1558 L262.0177,271.3789 L262.5054,273.6209 L262.5835,275.8011 L262.8794,275.838 L263.1921,278.3152 L263.314,280.7685 L263.7152,283.2568 L264.1295,285.7466 L264.1289,288.1847 L263.8102,288.1507 L265.003,293.5997 L265.1463,298.9367 L266.0875,304.3588 L266.207,309.6932 L267,315.0995 L266.9697,315.0963 L267.902,320.5175 L268.1269,325.8632 L268.7692,331.2534 L269.4465,336.6473 L269.8711,342.0143 L270.0547,342.0372 L270.1785,344.4909 L270.6159,346.9836 L270.5459,349.413 L271.2328,351.9369 L271.4165,354.398 L271.6574,354.4344 L271.9473,356.6466 L272.3568,358.8768 L272.2106,361.023 L272.4717,363.2308 L273.0938,365.4932 L272.825,365.4297 L273.8534,368.8086 L274.5791,372.1159 L275.7439,375.5271 L276.1588,378.7609 L277.0195,382.1002 L276.8999,382.0056 L278.0952,383.423 L278.7792,384.4361 L279.8268,385.7366 L281.2302,387.3185 L282,388.3994 L282,388.7867 L284,389.0523 L286,388.1134 L288,388.6831 L290,388.9242 L292,388.3994 " fill="none" style="stroke: #383838; stroke-width: 1.0;"/><polygon fill="#F8F8F8" filter="url(#f1372c64hzv2d1)" points="304.5,426.7994,304.5,426.8694,305.3,426.6613,306.1,426.8638,306.9,426.9326,307.7,426.5616,308.5,426.7994,308.4901,426.7754,310.2134,427.4003,311.9866,428.1457,313.7946,428.9751,315.4829,429.5154,317.3388,430.4605,317.5093,430.5312,317.877,432.1479,318.7424,433.9708,319.6686,435.8189,320.2414,437.5207,321,439.2994,321.0227,439.2994,320.9894,441.6594,321.0595,444.0193,321.0797,446.3793,321.1952,448.7393,321,451.0993,321.2067,451.1849,320.477,452.9537,319.6139,454.6673,318.9461,456.4617,318.2873,458.2599,317.3388,459.9381,317.2468,459.716,315.6576,460.8793,313.7655,461.3113,312.1036,462.2992,310.2046,462.7146,308.5,463.5993,308.5,463.5765,307.7,463.8465,306.9,463.5831,306.1,463.6344,305.3,463.7122,304.5,463.5993,304.5531,463.7275,302.7317,462.8659,301.0011,462.2233,299.1237,461.2263,297.4652,460.758,295.6612,459.9381,295.83,460.0081,295.0658,458.2271,294.3855,456.4808,293.3157,454.5732,292.5314,452.7839,292,451.0993,291.7929,451.0993,291.9804,448.7393,291.9345,446.3793,292.2271,444.0193,291.9418,441.6594,292,439.2994,291.8944,439.2556,292.8025,437.5607,293.2591,435.6788,294.0368,433.9299,295.1288,432.3111,295.6612,430.4605,295.7167,430.5947,297.5226,429.9545,299.1557,428.897,301.0052,428.3621,302.8075,427.7134,304.5,426.7994" style="stroke: #383838; stroke-width: 1.5;"/><text fill="#000000" font-family="Panton" font-size="14" lengthAdjust="spacingAndGlyphs" textLength="9" x="302" y="449.9593">...</text><path d="M242,241.7997 L242,241.9865 L244,241.4314 L246,241.9715 L248,242.1549 L250,241.1655 L252,241.7997 L252,241.7997 L251.97,241.7826 L252.8314,243.4538 L253.8441,245.2112 L254.962,247.0286 L255.7174,248.6394 L256.9805,250.5395 L257.2214,250.5893 L257.1207,252.489 L257.7235,254.5341 L258.4121,256.5969 L258.6013,258.5565 L259.0532,260.5704 L259.0832,260.5747 L259.4098,263.1705 L259.873,265.7858 L260.2703,268.3917 L260.7934,271.0155 L260.9063,273.5809 L261.2027,273.6132 L261.5418,276.6924 L261.6897,279.7507 L262.1174,282.8396 L262.5583,285.9299 L262.5835,288.9749 L262.2643,288.9462 L263.1929,292.4382 L263.0704,295.8358 L263.747,299.3052 L263.6007,302.7005 L264.1289,306.1566 L264.0986,306.1543 L265.0318,313.6504 L265.2557,321.0921 L265.8982,328.5659 L266.5758,336.0425 L267,343.4995 L267.1844,343.5137 L267.5725,350.9679 L268.2757,358.4464 L268.469,365.8857 L269.4229,373.3835 L269.8711,380.8424 L270.1138,380.8642 L270.377,384.2964 L270.7606,387.7395 L270.5845,391.1322 L270.8187,394.5618 L271.4165,398.0241 L271.142,397.9942 L271.7259,401.1001 L272.0006,404.1723 L272.7239,407.2933 L272.6811,410.3309 L273.0938,413.4181 L272.9428,413.3966 L273.5648,416.0345 L273.5415,418.5805 L273.9771,421.1919 L274.8617,423.8672 L274.9468,426.4286 L275.1364,426.4678 L275.681,428.5008 L275.6358,430.412 L276.3294,432.4758 L276.862,434.5064 L277.0195,436.4595 L276.8371,436.3556 L277.9786,438.1864 L279.0604,439.9832 L280.2595,441.8468 L281.0023,443.4505 L282,445.1993 L282,445.6105 L284,444.7071 L286,444.5973 L288,445.647 L290,444.5621 L292,445.1993 " fill="none" style="stroke: #383838; stroke-width: 1.0;"/><path d="M102,241.7997 L102,241.9865 L104,241.4314 L106,241.9715 L108,242.1549 L110,241.1655 L112,241.7997 L112,241.7997 L112,241.7651 L118,241.6101 L124,241.6292 L130,241.7694 L136,241.4924 L142,241.7997 L142,242.2918 L144,241.2394 L146,241.6239 L148,242.1836 L150,241.7234 L152,241.7997 " fill="none" style="stroke: #383838; stroke-width: 1.0;"/><!--MD5=[732ac61439b95d94db9811021cedab14]
@startmindmap
skinparam monochrome true
skinparam handwritten true
skinparam DefaultFontSize 30
skinparam DefaultFontName Panton
+ TensorFlow\n Distributed\n Execution\n Engine
++ Python API
+++  <b>tensors</b> + <b>gradients</b>
+++  extended maths
+++  <b>I/O</b> and <b>preprocessing</b>
++++_ <b>tf.data</b>
++++_ tf.image
++++_ tf.strings
++++_ ...
+++  low-level deep learning
++++_ tf.nn
++++_ tf.rnn
++++_ tf.train
+++  <b>high-level</b> <b>deep</b> <b>learning</b>
++++_ <b>tf.keras</b>
++++_ <b>tf.estimator</b>
++++_ tf.feature_column
+++  <b>deployment</b>
+++  visualization
+++  ...
@endmindmap

PlantUML version 1.2019.13(Tue Dec 10 18:18:29 CET 2019)
(GPL source distribution)
Java Runtime: OpenJDK Runtime Environment
JVM: OpenJDK 64-Bit Server VM
Java Version: 11.0.5+10-suse-2.1-x8664
Operating System: Linux
Default Encoding: UTF-8
Language: en
Country: US
--></g></svg>