<?xml version="1.0" encoding="UTF-8" standalone="no"?>
<!DOCTYPE svg PUBLIC "-//W3C//DTD SVG 1.1//EN"
 "http://www.w3.org/Graphics/SVG/1.1/DTD/svg11.dtd">
<!-- Generated by graphviz version 2.42.1 (0)
 -->
<!-- Title: loss Pages: 1 -->
<svg width="838pt" height="355pt"
 viewBox="0.00 0.00 838.37 355.00" xmlns="http://www.w3.org/2000/svg" xmlns:xlink="http://www.w3.org/1999/xlink">
<g id="graph0" class="graph" transform="scale(1 1) rotate(0) translate(4 351)">
<title>loss</title>
<polygon fill="white" stroke="transparent" points="-4,4 -4,-351 834.37,-351 834.37,4 -4,4"/>
<!-- digit -->
<g id="node1" class="node">
<title>digit</title>
<image xlink:href="digit_0.png" width="462px" height="347px" preserveAspectRatio="xMinYMin meet" x="2.84217e-14" y="-347"/>
</g>
<!-- model -->
<g id="node2" class="node">
<title>model</title>
<ellipse fill="none" stroke="#536366" cx="583.14" cy="-173.5" rx="85.29" ry="18"/>
<text text-anchor="middle" x="583.14" y="-169.8" font-family="Times,serif" font-size="14.00" fill="#536366">our fancy model</text>
</g>
<!-- digit&#45;&gt;model -->
<g id="edge1" class="edge">
<title>digit&#45;&gt;model</title>
<path fill="none" stroke="#536366" d="M462.13,-173.5C470.99,-173.5 479.64,-173.5 487.98,-173.5"/>
<polygon fill="#536366" stroke="#536366" points="487.98,-177 497.98,-173.5 487.98,-170 487.98,-177"/>
</g>
<!-- predictions -->
<g id="node3" class="node">
<title>predictions</title>
<ellipse fill="none" stroke="#536366" cx="767.33" cy="-173.5" rx="63.09" ry="18"/>
<text text-anchor="middle" x="767.33" y="-169.8" font-family="Times,serif" font-size="14.00" fill="#536366">predictions</text>
</g>
<!-- model&#45;&gt;predictions -->
<g id="edge2" class="edge">
<title>model&#45;&gt;predictions</title>
<path fill="none" stroke="#536366" d="M668.3,-173.5C676.85,-173.5 685.49,-173.5 693.9,-173.5"/>
<polygon fill="#536366" stroke="#536366" points="694.03,-177 704.03,-173.5 694.03,-170 694.03,-177"/>
</g>
</g>
</svg>
