<?xml version="1.0" encoding="UTF-8" standalone="no"?>
<!DOCTYPE svg PUBLIC "-//W3C//DTD SVG 1.1//EN"
 "http://www.w3.org/Graphics/SVG/1.1/DTD/svg11.dtd">
<!-- Generated by graphviz version 2.42.1 (0)
 -->
<!-- Title: classify Pages: 1 -->
<svg width="266pt" height="314pt"
 viewBox="0.00 0.00 265.99 314.00" xmlns="http://www.w3.org/2000/svg" xmlns:xlink="http://www.w3.org/1999/xlink">
<g id="graph0" class="graph" transform="scale(1 1) rotate(0) translate(4 310)">
<title>classify</title>
<polygon fill="white" stroke="transparent" points="-4,4 -4,-310 261.99,-310 261.99,4 -4,4"/>
<!-- digit1 -->
<g id="node1" class="node">
<title>digit1</title>
</g>
<!-- model -->
<g id="node3" class="node">
<title>model</title>
<ellipse fill="none" stroke="black" cx="129" cy="-153" rx="38.99" ry="18"/>
<text text-anchor="middle" x="129" y="-149.3" font-family="Times,serif" font-size="14.00">model</text>
</g>
<!-- digit1&#45;&gt;model -->
<g id="edge1" class="edge">
<title>digit1&#45;&gt;model</title>
<path fill="none" stroke="black" d="M54.01,-212.93C68.33,-201.33 86.09,-186.95 100.62,-175.18"/>
<polygon fill="black" stroke="black" points="103.18,-177.6 108.75,-168.59 98.78,-172.17 103.18,-177.6"/>
</g>
<!-- digit2 -->
<g id="node2" class="node">
<title>digit2</title>
</g>
<!-- digit2&#45;&gt;model -->
<g id="edge2" class="edge">
<title>digit2&#45;&gt;model</title>
<path fill="none" stroke="black" d="M54.01,-93.07C68.33,-104.67 86.09,-119.05 100.62,-130.82"/>
<polygon fill="black" stroke="black" points="98.78,-133.83 108.75,-137.41 103.18,-128.4 98.78,-133.83"/>
</g>
<!-- output -->
<g id="node4" class="node">
<title>output</title>
</g>
<!-- model&#45;&gt;output -->
<g id="edge3" class="edge">
<title>model&#45;&gt;output</title>
<path fill="none" stroke="black" d="M168.09,-153C176.47,-153 185.33,-153 193.64,-153"/>
<polygon fill="black" stroke="black" points="193.8,-156.5 203.8,-153 193.8,-149.5 193.8,-156.5"/>
</g>
</g>
</svg>
