<?xml version="1.0" encoding="UTF-8" standalone="no"?>
<!DOCTYPE svg PUBLIC "-//W3C//DTD SVG 1.1//EN"
 "http://www.w3.org/Graphics/SVG/1.1/DTD/svg11.dtd">
<!-- Generated by graphviz version 2.42.1 (0)
 -->
<!-- Title: match Pages: 1 -->
<svg width="428pt" height="100pt"
 viewBox="0.00 0.00 427.65 99.77" xmlns="http://www.w3.org/2000/svg" xmlns:xlink="http://www.w3.org/1999/xlink">
<g id="graph0" class="graph" transform="scale(1 1) rotate(0) translate(4 95.77)">
<title>match</title>
<polygon fill="white" stroke="transparent" points="-4,4 -4,-95.77 423.65,-95.77 423.65,4 -4,4"/>
<!-- digit1 -->
<g id="node1" class="node">
<title>digit1</title>
</g>
<!-- model1 -->
<g id="node3" class="node">
<title>model1</title>
<ellipse fill="none" stroke="#536366" cx="148.69" cy="-73.38" rx="58.88" ry="18.27"/>
<text text-anchor="middle" x="148.69" y="-69.58" font-family="Panton" font-size="16.00" fill="#536366">our model</text>
</g>
<!-- digit1&#45;&gt;model1 -->
<g id="edge1" class="edge">
<title>digit1&#45;&gt;model1</title>
<path fill="none" stroke="#536366" d="M54.27,-73.38C61.87,-73.38 70.53,-73.38 79.46,-73.38"/>
<polygon fill="#536366" stroke="#536366" points="79.59,-76.88 89.59,-73.38 79.59,-69.88 79.59,-76.88"/>
</g>
<!-- digit2 -->
<g id="node2" class="node">
<title>digit2</title>
</g>
<!-- model2 -->
<g id="node4" class="node">
<title>model2</title>
<ellipse fill="none" stroke="#536366" cx="148.69" cy="-18.38" rx="58.88" ry="18.27"/>
<text text-anchor="middle" x="148.69" y="-14.58" font-family="Panton" font-size="16.00" fill="#536366">our model</text>
</g>
<!-- digit2&#45;&gt;model2 -->
<g id="edge4" class="edge">
<title>digit2&#45;&gt;model2</title>
<path fill="none" stroke="#536366" d="M54.27,-18.38C61.87,-18.38 70.53,-18.38 79.46,-18.38"/>
<polygon fill="#536366" stroke="#536366" points="79.59,-21.88 89.59,-18.38 79.59,-14.88 79.59,-21.88"/>
</g>
<!-- merge -->
<g id="node5" class="node">
<title>merge</title>
<ellipse fill="none" stroke="#00ade2" cx="286.51" cy="-45.38" rx="43.27" ry="18.27"/>
<text text-anchor="middle" x="286.51" y="-41.58" font-family="Panton bold" font-size="16.00" fill="#00ade2">merge</text>
</g>
<!-- model1&#45;&gt;merge -->
<g id="edge2" class="edge">
<title>model1&#45;&gt;merge</title>
<path fill="none" stroke="#536366" d="M198.34,-63.36C211.07,-60.73 224.79,-57.9 237.49,-55.28"/>
<polygon fill="#536366" stroke="#536366" points="238.33,-58.68 247.42,-53.24 236.92,-51.83 238.33,-58.68"/>
</g>
<!-- model2&#45;&gt;merge -->
<g id="edge5" class="edge">
<title>model2&#45;&gt;merge</title>
<path fill="none" stroke="#536366" d="M198.73,-28.13C211.32,-30.64 224.85,-33.33 237.39,-35.82"/>
<polygon fill="#536366" stroke="#536366" points="236.71,-39.25 247.2,-37.77 238.08,-32.39 236.71,-39.25"/>
</g>
<!-- output -->
<g id="node6" class="node">
<title>output</title>
</g>
<!-- merge&#45;&gt;output -->
<g id="edge3" class="edge">
<title>merge&#45;&gt;output</title>
<path fill="none" stroke="#536366" d="M329.87,-45.38C338.34,-45.38 347.17,-45.38 355.41,-45.38"/>
<polygon fill="#536366" stroke="#536366" points="355.47,-48.88 365.47,-45.38 355.47,-41.88 355.47,-48.88"/>
</g>
</g>
</svg>
