<?xml version="1.0" encoding="UTF-8" standalone="no"?>
<!DOCTYPE svg PUBLIC "-//W3C//DTD SVG 1.1//EN"
 "http://www.w3.org/Graphics/SVG/1.1/DTD/svg11.dtd">
<!-- Generated by graphviz version 2.42.1 (0)
 -->
<!-- Title: classify Pages: 1 -->
<svg width="289pt" height="206pt"
 viewBox="0.00 0.00 288.69 206.00" xmlns="http://www.w3.org/2000/svg" xmlns:xlink="http://www.w3.org/1999/xlink">
<g id="graph0" class="graph" transform="scale(1 1) rotate(0) translate(4 202)">
<title>classify</title>
<polygon fill="white" stroke="transparent" points="-4,4 -4,-202 284.69,-202 284.69,4 -4,4"/>
<!-- digit -->
<g id="node1" class="node">
<title>digit</title>
</g>
<!-- model -->
<g id="node2" class="node">
<title>model</title>
<ellipse fill="none" stroke="black" cx="151.69" cy="-180" rx="38.99" ry="18"/>
<text text-anchor="middle" x="151.69" y="-176.3" font-family="Times,serif" font-size="14.00">model</text>
</g>
<!-- output -->
<g id="node3" class="node">
<title>output</title>
</g>
<!-- model&#45;&gt;output -->
<g id="edge2" class="edge">
<title>model&#45;&gt;output</title>
<path fill="none" stroke="black" d="M190.78,-180C199.16,-180 208.02,-180 216.33,-180"/>
<polygon fill="black" stroke="black" points="216.49,-183.5 226.49,-180 216.49,-176.5 216.49,-183.5"/>
</g>
<!-- digit1 -->
<g id="node4" class="node">
<title>digit1</title>
<ellipse fill="none" stroke="black" cx="38.35" cy="-180" rx="38.19" ry="18"/>
<text text-anchor="middle" x="38.35" y="-176.3" font-family="Times,serif" font-size="14.00">digit1</text>
</g>
<!-- digit1&#45;&gt;model -->
<g id="edge1" class="edge">
<title>digit1&#45;&gt;model</title>
<path fill="none" stroke="black" d="M76.73,-180C84.91,-180 93.67,-180 102.21,-180"/>
<polygon fill="black" stroke="black" points="102.45,-183.5 112.45,-180 102.45,-176.5 102.45,-183.5"/>
</g>
</g>
</svg>
