<?xml version="1.0" encoding="UTF-8" standalone="no"?>
<!DOCTYPE svg PUBLIC "-//W3C//DTD SVG 1.1//EN"
 "http://www.w3.org/Graphics/SVG/1.1/DTD/svg11.dtd">
<!-- Generated by graphviz version 2.42.1 (0)
 -->
<!-- Title: stack Pages: 1 -->
<svg width="462pt" height="44pt"
 viewBox="0.00 0.00 462.00 44.00" xmlns="http://www.w3.org/2000/svg" xmlns:xlink="http://www.w3.org/1999/xlink">
<g id="graph0" class="graph" transform="scale(1 1) rotate(0) translate(4 40)">
<title>stack</title>
<polygon fill="white" stroke="transparent" points="-4,4 -4,-40 458,-40 458,4 -4,4"/>
<!-- x -->
<g id="node1" class="node">
<title>x</title>
<text text-anchor="middle" x="27" y="-15.5" font-family="Panton" font-size="10.00">x</text>
</g>
<!-- cnn1 -->
<g id="node3" class="node">
<title>cnn1</title>
<polygon fill="none" stroke="black" points="164,-36 90,-36 90,0 164,0 164,-36"/>
<text text-anchor="middle" x="127" y="-21" font-family="Panton" font-size="10.00">convolutional</text>
<text text-anchor="middle" x="127" y="-10" font-family="Panton" font-size="10.00">layer</text>
</g>
<!-- x&#45;&gt;cnn1 -->
<g id="edge1" class="edge">
<title>x&#45;&gt;cnn1</title>
<path fill="none" stroke="black" d="M54,-18C61.91,-18 70.85,-18 79.68,-18"/>
<polygon fill="black" stroke="black" points="79.91,-21.5 89.91,-18 79.91,-14.5 79.91,-21.5"/>
</g>
<!-- y -->
<g id="node2" class="node">
<title>y</title>
<text text-anchor="middle" x="427" y="-15.5" font-family="Panton" font-size="10.00">y</text>
</g>
<!-- cnn2 -->
<g id="node4" class="node">
<title>cnn2</title>
<polygon fill="none" stroke="black" points="274,-36 200,-36 200,0 274,0 274,-36"/>
<text text-anchor="middle" x="237" y="-21" font-family="Panton" font-size="10.00">convolutional</text>
<text text-anchor="middle" x="237" y="-10" font-family="Panton" font-size="10.00">layer</text>
</g>
<!-- cnn1&#45;&gt;cnn2 -->
<g id="edge2" class="edge">
<title>cnn1&#45;&gt;cnn2</title>
<path fill="none" stroke="black" d="M164.26,-18C172.37,-18 181.07,-18 189.52,-18"/>
<polygon fill="black" stroke="black" points="189.65,-21.5 199.65,-18 189.65,-14.5 189.65,-21.5"/>
</g>
<!-- dense -->
<g id="node5" class="node">
<title>dense</title>
<polygon fill="none" stroke="black" points="364,-36 310,-36 310,0 364,0 364,-36"/>
<text text-anchor="middle" x="337" y="-21" font-family="Panton" font-size="10.00">dense</text>
<text text-anchor="middle" x="337" y="-10" font-family="Panton" font-size="10.00">layer</text>
</g>
<!-- cnn2&#45;&gt;dense -->
<g id="edge3" class="edge">
<title>cnn2&#45;&gt;dense</title>
<path fill="none" stroke="black" d="M274.21,-18C282.49,-18 291.3,-18 299.59,-18"/>
<polygon fill="black" stroke="black" points="299.73,-21.5 309.73,-18 299.73,-14.5 299.73,-21.5"/>
</g>
<!-- dense&#45;&gt;y -->
<g id="edge4" class="edge">
<title>dense&#45;&gt;y</title>
<path fill="none" stroke="black" d="M364.4,-18C372.39,-18 381.31,-18 389.82,-18"/>
<polygon fill="black" stroke="black" points="389.92,-21.5 399.92,-18 389.92,-14.5 389.92,-21.5"/>
</g>
</g>
</svg>
