<?xml version="1.0" encoding="UTF-8" standalone="no"?>
<!DOCTYPE svg PUBLIC "-//W3C//DTD SVG 1.1//EN"
 "http://www.w3.org/Graphics/SVG/1.1/DTD/svg11.dtd">
<!-- Generated by graphviz version 2.42.1 (0)
 -->
<!-- Title: match Pages: 1 -->
<svg width="1541pt" height="106pt"
 viewBox="0.00 0.00 1541.41 106.00" xmlns="http://www.w3.org/2000/svg" xmlns:xlink="http://www.w3.org/1999/xlink">
<g id="graph0" class="graph" transform="scale(1 1) rotate(0) translate(4 102)">
<title>match</title>
<polygon fill="white" stroke="transparent" points="-4,4 -4,-102 1537.41,-102 1537.41,4 -4,4"/>
<!-- ExampleGen -->
<g id="node1" class="node">
<title>ExampleGen</title>
<ellipse fill="none" stroke="#00aed2" cx="254.38" cy="-22" rx="59.59" ry="18"/>
<text text-anchor="middle" x="254.38" y="-18.3" font-family="Panton bold" font-size="14.00" fill="#00aed2">ExampleGen</text>
</g>
<!-- StatisticsGen -->
<g id="node2" class="node">
<title>StatisticsGen</title>
<ellipse fill="none" stroke="#00aed2" cx="415.17" cy="-45" rx="64.99" ry="18"/>
<text text-anchor="middle" x="415.17" y="-41.3" font-family="Panton bold" font-size="14.00" fill="#00aed2">StatisticsGen</text>
</g>
<!-- ExampleGen&#45;&gt;StatisticsGen -->
<g id="edge2" class="edge">
<title>ExampleGen&#45;&gt;StatisticsGen</title>
<path fill="none" stroke="#606060" d="M308.7,-29.72C321,-31.5 334.23,-33.42 347.04,-35.28"/>
<polygon fill="#606060" stroke="#606060" points="346.79,-38.78 357.18,-36.75 347.79,-31.85 346.79,-38.78"/>
</g>
<!-- Transform -->
<g id="node5" class="node">
<title>Transform</title>
<ellipse fill="none" stroke="#00aed2" cx="721.8" cy="-22" rx="51.19" ry="18"/>
<text text-anchor="middle" x="721.8" y="-18.3" font-family="Panton bold" font-size="14.00" fill="#00aed2">Transform</text>
</g>
<!-- ExampleGen&#45;&gt;Transform -->
<g id="edge5" class="edge">
<title>ExampleGen&#45;&gt;Transform</title>
<path fill="none" stroke="#606060" d="M313.52,-19.16C325.63,-18.68 338.32,-18.25 350.18,-18 476.49,-15.34 508.14,-15.08 634.45,-18 642.86,-18.19 651.73,-18.5 660.45,-18.85"/>
<polygon fill="#606060" stroke="#606060" points="660.45,-22.35 670.59,-19.28 660.75,-15.36 660.45,-22.35"/>
</g>
<!-- SchemaGen -->
<g id="node4" class="node">
<title>SchemaGen</title>
<ellipse fill="none" stroke="#00aed2" cx="575.31" cy="-45" rx="59.29" ry="18"/>
<text text-anchor="middle" x="575.31" y="-41.3" font-family="Panton bold" font-size="14.00" fill="#00aed2">SchemaGen</text>
</g>
<!-- StatisticsGen&#45;&gt;SchemaGen -->
<g id="edge3" class="edge">
<title>StatisticsGen&#45;&gt;SchemaGen</title>
<path fill="none" stroke="#606060" d="M480.49,-45C488.88,-45 497.5,-45 505.95,-45"/>
<polygon fill="#606060" stroke="#606060" points="506.15,-48.5 516.15,-45 506.15,-41.5 506.15,-48.5"/>
</g>
<!-- ExampleValidator -->
<g id="node3" class="node">
<title>ExampleValidator</title>
<ellipse fill="none" stroke="#00aed2" cx="79.29" cy="-80" rx="79.09" ry="18"/>
<text text-anchor="middle" x="79.29" y="-76.3" font-family="Panton bold" font-size="14.00" fill="#00aed2">ExampleValidator</text>
</g>
<!-- SchemaGen&#45;&gt;Transform -->
<g id="edge4" class="edge">
<title>SchemaGen&#45;&gt;Transform</title>
<path fill="none" stroke="#606060" d="M628.06,-36.76C639.96,-34.87 652.66,-32.85 664.73,-30.93"/>
<polygon fill="#606060" stroke="#606060" points="665.36,-34.37 674.68,-29.34 664.25,-27.46 665.36,-34.37"/>
</g>
<!-- Trainer -->
<g id="node6" class="node">
<title>Trainer</title>
<ellipse fill="none" stroke="#00aed2" cx="847.49" cy="-22" rx="38.19" ry="18"/>
<text text-anchor="middle" x="847.49" y="-18.3" font-family="Panton bold" font-size="14.00" fill="#00aed2">Trainer</text>
</g>
<!-- Transform&#45;&gt;Trainer -->
<g id="edge6" class="edge">
<title>Transform&#45;&gt;Trainer</title>
<path fill="none" stroke="#606060" d="M773.47,-22C781.82,-22 790.45,-22 798.72,-22"/>
<polygon fill="#606060" stroke="#606060" points="798.97,-25.5 808.97,-22 798.97,-18.5 798.97,-25.5"/>
</g>
<!-- Evaluator -->
<g id="node7" class="node">
<title>Evaluator</title>
<ellipse fill="none" stroke="#00aed2" cx="969.93" cy="-22" rx="48.19" ry="18"/>
<text text-anchor="middle" x="969.93" y="-18.3" font-family="Panton bold" font-size="14.00" fill="#00aed2">Evaluator</text>
</g>
<!-- Trainer&#45;&gt;Evaluator -->
<g id="edge7" class="edge">
<title>Trainer&#45;&gt;Evaluator</title>
<path fill="none" stroke="#606060" d="M885.94,-22C894.08,-22 902.87,-22 911.58,-22"/>
<polygon fill="#606060" stroke="#606060" points="911.73,-25.5 921.73,-22 911.73,-18.5 911.73,-25.5"/>
</g>
<!-- ModelValidator -->
<g id="node8" class="node">
<title>ModelValidator</title>
<ellipse fill="none" stroke="#00aed2" cx="1124.22" cy="-22" rx="70.39" ry="18"/>
<text text-anchor="middle" x="1124.22" y="-18.3" font-family="Panton bold" font-size="14.00" fill="#00aed2">ModelValidator</text>
</g>
<!-- Evaluator&#45;&gt;ModelValidator -->
<g id="edge8" class="edge">
<title>Evaluator&#45;&gt;ModelValidator</title>
<path fill="none" stroke="#606060" d="M1018.28,-22C1026.38,-22 1034.98,-22 1043.65,-22"/>
<polygon fill="#606060" stroke="#606060" points="1043.82,-25.5 1053.82,-22 1043.82,-18.5 1043.82,-25.5"/>
</g>
<!-- Pusher -->
<g id="node9" class="node">
<title>Pusher</title>
<ellipse fill="none" stroke="#00aed2" cx="1269.41" cy="-22" rx="38.99" ry="18"/>
<text text-anchor="middle" x="1269.41" y="-18.3" font-family="Panton bold" font-size="14.00" fill="#00aed2">Pusher</text>
</g>
<!-- ModelValidator&#45;&gt;Pusher -->
<g id="edge9" class="edge">
<title>ModelValidator&#45;&gt;Pusher</title>
<path fill="none" stroke="#606060" d="M1194.72,-22C1203.34,-22 1212,-22 1220.19,-22"/>
<polygon fill="#606060" stroke="#606060" points="1220.3,-25.5 1230.3,-22 1220.3,-18.5 1220.3,-25.5"/>
</g>
<!-- server -->
<g id="node11" class="node">
<title>server</title>
<text text-anchor="middle" x="1438.91" y="-18.2" font-family="Panton" font-size="16.00" fill="#606060">TF Serving/TF Lite/TF JS</text>
</g>
<!-- Pusher&#45;&gt;server -->
<g id="edge10" class="edge">
<title>Pusher&#45;&gt;server</title>
<path fill="none" stroke="#606060" d="M1308.42,-22C1316.27,-22 1324.9,-22 1333.86,-22"/>
<polygon fill="#606060" stroke="#606060" points="1334.09,-25.5 1344.09,-22 1334.09,-18.5 1334.09,-25.5"/>
</g>
<!-- data -->
<g id="node10" class="node">
<title>data</title>
<text text-anchor="middle" x="79.29" y="-27.2" font-family="Panton" font-size="16.00" fill="#606060">Training/Validation</text>
<text text-anchor="middle" x="79.29" y="-9.2" font-family="Panton" font-size="16.00" fill="#606060">Data</text>
</g>
<!-- data&#45;&gt;ExampleGen -->
<g id="edge1" class="edge">
<title>data&#45;&gt;ExampleGen</title>
<path fill="none" stroke="#606060" d="M150.69,-22C161.8,-22 173.28,-22 184.35,-22"/>
<polygon fill="#606060" stroke="#606060" points="184.39,-25.5 194.39,-22 184.39,-18.5 184.39,-25.5"/>
</g>
</g>
</svg>
