<?xml version="1.0" encoding="UTF-8" standalone="no"?>
<!DOCTYPE svg PUBLIC "-//W3C//DTD SVG 1.1//EN"
 "http://www.w3.org/Graphics/SVG/1.1/DTD/svg11.dtd">
<!-- Generated by graphviz version 2.42.1 (0)
 -->
<!-- Title: loss Pages: 1 -->
<svg width="448pt" height="98pt"
 viewBox="0.00 0.00 448.28 98.00" xmlns="http://www.w3.org/2000/svg" xmlns:xlink="http://www.w3.org/1999/xlink">
<g id="graph0" class="graph" transform="scale(1 1) rotate(0) translate(4 94)">
<title>loss</title>
<polygon fill="white" stroke="transparent" points="-4,4 -4,-94 444.28,-94 444.28,4 -4,4"/>
<!-- digit1 -->
<g id="node1" class="node">
<title>digit1</title>
</g>
<!-- model1 -->
<g id="node2" class="node">
<title>model1</title>
<ellipse fill="none" stroke="#536366" cx="175.14" cy="-72" rx="85.29" ry="18"/>
<text text-anchor="middle" x="175.14" y="-68.3" font-family="Times,serif" font-size="14.00" fill="#536366">our fancy model</text>
</g>
<!-- digit1&#45;&gt;model1 -->
<g id="edge1" class="edge">
<title>digit1&#45;&gt;model1</title>
<path fill="none" stroke="#536366" d="M54.13,-72C61.72,-72 70.5,-72 79.77,-72"/>
<polygon fill="#536366" stroke="#536366" points="79.99,-75.5 89.99,-72 79.99,-68.5 79.99,-75.5"/>
</g>
<!-- merge -->
<g id="node5" class="node">
<title>merge</title>
<ellipse fill="none" stroke="#536366" cx="323.28" cy="-45" rx="27" ry="18"/>
<text text-anchor="middle" x="323.28" y="-41.3" font-family="Times,serif" font-size="14.00" fill="#536366">?</text>
</g>
<!-- model1&#45;&gt;merge -->
<g id="edge2" class="edge">
<title>model1&#45;&gt;merge</title>
<path fill="none" stroke="#536366" d="M239.82,-60.24C255.88,-57.27 272.55,-54.19 286.67,-51.58"/>
<polygon fill="#536366" stroke="#536366" points="287.72,-54.95 296.91,-49.69 286.45,-48.06 287.72,-54.95"/>
</g>
<!-- digit2 -->
<g id="node3" class="node">
<title>digit2</title>
</g>
<!-- model2 -->
<g id="node4" class="node">
<title>model2</title>
<ellipse fill="none" stroke="#536366" cx="175.14" cy="-18" rx="85.29" ry="18"/>
<text text-anchor="middle" x="175.14" y="-14.3" font-family="Times,serif" font-size="14.00" fill="#536366">our fancy model</text>
</g>
<!-- digit2&#45;&gt;model2 -->
<g id="edge4" class="edge">
<title>digit2&#45;&gt;model2</title>
<path fill="none" stroke="#536366" d="M54.13,-18C61.72,-18 70.5,-18 79.77,-18"/>
<polygon fill="#536366" stroke="#536366" points="79.99,-21.5 89.99,-18 79.99,-14.5 79.99,-21.5"/>
</g>
<!-- model2&#45;&gt;merge -->
<g id="edge5" class="edge">
<title>model2&#45;&gt;merge</title>
<path fill="none" stroke="#536366" d="M239.82,-29.76C255.88,-32.73 272.55,-35.81 286.67,-38.42"/>
<polygon fill="#536366" stroke="#536366" points="286.45,-41.94 296.91,-40.31 287.72,-35.05 286.45,-41.94"/>
</g>
<!-- predictions -->
<g id="node6" class="node">
<title>predictions</title>
</g>
<!-- merge&#45;&gt;predictions -->
<g id="edge3" class="edge">
<title>merge&#45;&gt;predictions</title>
<path fill="none" stroke="#536366" d="M350.69,-45C358.68,-45 367.6,-45 376.11,-45"/>
<polygon fill="#536366" stroke="#536366" points="376.2,-48.5 386.2,-45 376.2,-41.5 376.2,-48.5"/>
</g>
</g>
</svg>
