<?xml version="1.0" encoding="UTF-8" standalone="no"?>
<!DOCTYPE svg PUBLIC "-//W3C//DTD SVG 1.1//EN"
 "http://www.w3.org/Graphics/SVG/1.1/DTD/svg11.dtd">
<!-- Generated by graphviz version 2.42.1 (0)
 -->
<!-- Title: stack Pages: 1 -->
<svg width="533pt" height="52pt"
 viewBox="0.00 0.00 533.00 52.00" xmlns="http://www.w3.org/2000/svg" xmlns:xlink="http://www.w3.org/1999/xlink">
<g id="graph0" class="graph" transform="scale(1 1) rotate(0) translate(4 48)">
<title>stack</title>
<polygon fill="white" stroke="transparent" points="-4,4 -4,-48 529,-48 529,4 -4,4"/>
<!-- x -->
<g id="node1" class="node">
<title>x</title>
<text text-anchor="middle" x="27" y="-18.2" font-family="Panton" font-size="16.00" fill="#000000">x</text>
</g>
<!-- cnn1 -->
<g id="node3" class="node">
<title>cnn1</title>
<polygon fill="none" stroke="#000000" points="197,-44 90,-44 90,0 197,0 197,-44"/>
<text text-anchor="middle" x="143.5" y="-27.2" font-family="Panton" font-size="16.00" fill="#000000">convolutional</text>
<text text-anchor="middle" x="143.5" y="-9.2" font-family="Panton" font-size="16.00" fill="#000000">layer</text>
</g>
<!-- x&#45;&gt;cnn1 -->
<g id="edge1" class="edge">
<title>x&#45;&gt;cnn1</title>
<path fill="none" stroke="#000000" d="M54.27,-22C61.94,-22 70.68,-22 79.61,-22"/>
<polygon fill="#000000" stroke="#000000" points="79.71,-25.5 89.71,-22 79.71,-18.5 79.71,-25.5"/>
</g>
<!-- y -->
<g id="node2" class="node">
<title>y</title>
<text text-anchor="middle" x="498" y="-18.2" font-family="Panton" font-size="16.00" fill="#000000">y</text>
</g>
<!-- cnn2 -->
<g id="node4" class="node">
<title>cnn2</title>
<polygon fill="none" stroke="#000000" points="340,-44 233,-44 233,0 340,0 340,-44"/>
<text text-anchor="middle" x="286.5" y="-27.2" font-family="Panton" font-size="16.00" fill="#000000">convolutional</text>
<text text-anchor="middle" x="286.5" y="-9.2" font-family="Panton" font-size="16.00" fill="#000000">layer</text>
</g>
<!-- cnn1&#45;&gt;cnn2 -->
<g id="edge2" class="edge">
<title>cnn1&#45;&gt;cnn2</title>
<path fill="none" stroke="#000000" d="M197,-22C205.44,-22 214.26,-22 222.9,-22"/>
<polygon fill="#000000" stroke="#000000" points="222.95,-25.5 232.95,-22 222.95,-18.5 222.95,-25.5"/>
</g>
<!-- dense -->
<g id="node5" class="node">
<title>dense</title>
<polygon fill="none" stroke="#000000" points="435,-44 376,-44 376,0 435,0 435,-44"/>
<text text-anchor="middle" x="405.5" y="-27.2" font-family="Panton" font-size="16.00" fill="#000000">dense</text>
<text text-anchor="middle" x="405.5" y="-9.2" font-family="Panton" font-size="16.00" fill="#000000">layer</text>
</g>
<!-- cnn2&#45;&gt;dense -->
<g id="edge3" class="edge">
<title>cnn2&#45;&gt;dense</title>
<path fill="none" stroke="#000000" d="M340.18,-22C348.8,-22 357.58,-22 365.78,-22"/>
<polygon fill="#000000" stroke="#000000" points="365.79,-25.5 375.79,-22 365.79,-18.5 365.79,-25.5"/>
</g>
<!-- dense&#45;&gt;y -->
<g id="edge4" class="edge">
<title>dense&#45;&gt;y</title>
<path fill="none" stroke="#000000" d="M435.13,-22C443.23,-22 452.16,-22 460.65,-22"/>
<polygon fill="#000000" stroke="#000000" points="460.7,-25.5 470.7,-22 460.7,-18.5 460.7,-25.5"/>
</g>
</g>
</svg>
