<?xml version="1.0" encoding="UTF-8" standalone="no"?>
<!DOCTYPE svg PUBLIC "-//W3C//DTD SVG 1.1//EN"
 "http://www.w3.org/Graphics/SVG/1.1/DTD/svg11.dtd">
<!-- Generated by graphviz version 2.42.1 (0)
 -->
<!-- Title: loss Pages: 1 -->
<svg width="556pt" height="124pt"
 viewBox="0.00 0.00 556.18 123.84" xmlns="http://www.w3.org/2000/svg" xmlns:xlink="http://www.w3.org/1999/xlink">
<g id="graph0" class="graph" transform="scale(1 1) rotate(0) translate(4 119.84)">
<title>loss</title>
<polygon fill="white" stroke="transparent" points="-4,4 -4,-119.84 552.18,-119.84 552.18,4 -4,4"/>
<!-- x -->
<g id="node1" class="node">
<title>x</title>
<text text-anchor="middle" x="27" y="-68.2" font-family="Panton" font-size="16.00" fill="#536366">x</text>
</g>
<!-- model -->
<g id="node6" class="node">
<title>model</title>
<ellipse fill="none" stroke="#536366" cx="158.59" cy="-72" rx="68.68" ry="43.68"/>
<text text-anchor="middle" x="158.59" y="-86.2" font-family="Panton" font-size="16.00" fill="#536366">your fancy</text>
<text text-anchor="middle" x="158.59" y="-68.2" font-family="Panton" font-size="16.00" fill="#536366">model</text>
<text text-anchor="middle" x="158.59" y="-50.2" font-family="Panton" font-size="16.00" fill="#536366"> (weights w)</text>
</g>
<!-- x&#45;&gt;model -->
<g id="edge1" class="edge">
<title>x&#45;&gt;model</title>
<path fill="none" stroke="#536366" d="M54.22,-72C61.88,-72 70.67,-72 79.82,-72"/>
<polygon fill="#536366" stroke="#536366" points="79.85,-75.5 89.85,-72 79.85,-68.5 79.85,-75.5"/>
</g>
<!-- prediction -->
<g id="node2" class="node">
<title>prediction</title>
<text text-anchor="middle" x="305.18" y="-68.2" font-family="Panton" font-size="16.00" fill="#536366">prediction</text>
</g>
<!-- loss_function -->
<g id="node5" class="node">
<title>loss_function</title>
<polygon fill="none" stroke="#536366" points="458.18,-67 383.18,-67 383.18,-23 458.18,-23 458.18,-67"/>
<text text-anchor="middle" x="420.68" y="-50.2" font-family="Panton" font-size="16.00" fill="#536366">loss</text>
<text text-anchor="middle" x="420.68" y="-32.2" font-family="Panton" font-size="16.00" fill="#536366">function</text>
</g>
<!-- prediction&#45;&gt;loss_function -->
<g id="edge3" class="edge">
<title>prediction&#45;&gt;loss_function</title>
<path fill="none" stroke="#536366" d="M347.48,-62.18C355.86,-60.18 364.73,-58.07 373.27,-56.04"/>
<polygon fill="#536366" stroke="#536366" points="374.19,-59.42 383.11,-53.7 372.57,-52.61 374.19,-59.42"/>
</g>
<!-- y -->
<g id="node3" class="node">
<title>y</title>
<text text-anchor="middle" x="305.18" y="-14.2" font-family="Panton" font-size="16.00" fill="#536366">y</text>
</g>
<!-- y&#45;&gt;loss_function -->
<g id="edge5" class="edge">
<title>y&#45;&gt;loss_function</title>
<path fill="none" stroke="#536366" d="M332.22,-24.19C344.33,-27.08 359.11,-30.59 373.06,-33.91"/>
<polygon fill="#536366" stroke="#536366" points="372.47,-37.37 383.01,-36.28 374.09,-30.56 372.47,-37.37"/>
</g>
<!-- loss -->
<g id="node4" class="node">
<title>loss</title>
<text text-anchor="middle" x="521.18" y="-41.2" font-family="Panton bold" font-size="16.00" fill="#00aed2">loss</text>
</g>
<!-- loss_function&#45;&gt;loss -->
<g id="edge4" class="edge">
<title>loss_function&#45;&gt;loss</title>
<path fill="none" stroke="#536366" d="M458.36,-45C466.66,-45 475.48,-45 483.78,-45"/>
<polygon fill="#536366" stroke="#536366" points="483.93,-48.5 493.93,-45 483.93,-41.5 483.93,-48.5"/>
</g>
<!-- model&#45;&gt;prediction -->
<g id="edge2" class="edge">
<title>model&#45;&gt;prediction</title>
<path fill="none" stroke="#536366" d="M227.23,-72C235.81,-72 244.47,-72 252.74,-72"/>
<polygon fill="#536366" stroke="#536366" points="252.96,-75.5 262.96,-72 252.96,-68.5 252.96,-75.5"/>
</g>
</g>
</svg>
