<?xml version="1.0" encoding="UTF-8" standalone="no"?>
<!DOCTYPE svg PUBLIC "-//W3C//DTD SVG 1.1//EN"
 "http://www.w3.org/Graphics/SVG/1.1/DTD/svg11.dtd">
<!-- Generated by graphviz version 2.42.1 (0)
 -->
<!-- Title: match Pages: 1 -->
<svg width="837pt" height="286pt"
 viewBox="0.00 0.00 836.66 286.00" xmlns="http://www.w3.org/2000/svg" xmlns:xlink="http://www.w3.org/1999/xlink">
<g id="graph0" class="graph" transform="scale(1 1) rotate(0) translate(4 282)">
<title>match</title>
<polygon fill="white" stroke="transparent" points="-4,4 -4,-282 832.66,-282 832.66,4 -4,4"/>
<!-- StatisticsGen -->
<g id="node1" class="node">
<title>StatisticsGen</title>
<ellipse fill="none" stroke="#606060" cx="154.99" cy="-206" rx="64.99" ry="18"/>
<text text-anchor="middle" x="154.99" y="-202.3" font-family="Panton bold" font-size="14.00" fill="#606060">StatisticsGen</text>
</g>
<!-- ExampleGen -->
<g id="node2" class="node">
<title>ExampleGen</title>
<ellipse fill="none" stroke="#606060" cx="154.99" cy="-152" rx="59.59" ry="18"/>
<text text-anchor="middle" x="154.99" y="-148.3" font-family="Panton bold" font-size="14.00" fill="#606060">ExampleGen</text>
</g>
<!-- StatisticsGen&#45;&gt;ExampleGen -->
<g id="edge2" class="edge">
<title>StatisticsGen&#45;&gt;ExampleGen</title>
<path fill="none" stroke="#606060" d="M154.99,-177.59C154.99,-175.1 154.99,-172.62 154.99,-170.14"/>
<polygon fill="#606060" stroke="#606060" points="151.49,-177.79 154.99,-187.79 158.49,-177.79 151.49,-177.79"/>
</g>
<!-- ExampleValidator -->
<g id="node3" class="node">
<title>ExampleValidator</title>
<ellipse fill="none" stroke="#606060" cx="335.28" cy="-260" rx="79.09" ry="18"/>
<text text-anchor="middle" x="335.28" y="-256.3" font-family="Panton bold" font-size="14.00" fill="#606060">ExampleValidator</text>
</g>
<!-- StatisticsGen&#45;&gt;ExampleValidator -->
<g id="edge3" class="edge">
<title>StatisticsGen&#45;&gt;ExampleValidator</title>
<path fill="none" stroke="#606060" d="M199.61,-219.21C223,-226.29 252.1,-235.11 277.27,-242.73"/>
<polygon fill="#606060" stroke="#606060" points="276.47,-246.15 287.05,-245.7 278.5,-239.45 276.47,-246.15"/>
</g>
<!-- SchemaGen -->
<g id="node4" class="node">
<title>SchemaGen</title>
<ellipse fill="none" stroke="#606060" cx="335.28" cy="-206" rx="59.29" ry="18"/>
<text text-anchor="middle" x="335.28" y="-202.3" font-family="Panton bold" font-size="14.00" fill="#606060">SchemaGen</text>
</g>
<!-- StatisticsGen&#45;&gt;SchemaGen -->
<g id="edge4" class="edge">
<title>StatisticsGen&#45;&gt;SchemaGen</title>
<path fill="none" stroke="#606060" d="M220.11,-206C234.95,-206 250.8,-206 265.82,-206"/>
<polygon fill="#606060" stroke="#606060" points="266.07,-209.5 276.07,-206 266.07,-202.5 266.07,-209.5"/>
</g>
<!-- Transform -->
<g id="node5" class="node">
<title>Transform</title>
<ellipse fill="none" stroke="#606060" cx="335.28" cy="-152" rx="51.19" ry="18"/>
<text text-anchor="middle" x="335.28" y="-148.3" font-family="Panton bold" font-size="14.00" fill="#606060">Transform</text>
</g>
<!-- ExampleGen&#45;&gt;Transform -->
<g id="edge6" class="edge">
<title>ExampleGen&#45;&gt;Transform</title>
<path fill="none" stroke="#606060" d="M214.87,-152C233.78,-152 254.76,-152 273.79,-152"/>
<polygon fill="#606060" stroke="#606060" points="273.84,-155.5 283.84,-152 273.84,-148.5 273.84,-155.5"/>
</g>
<!-- ExampleValidator&#45;&gt;SchemaGen -->
<g id="edge5" class="edge">
<title>ExampleValidator&#45;&gt;SchemaGen</title>
<path fill="none" stroke="#606060" d="M335.28,-231.59C335.28,-229.1 335.28,-226.62 335.28,-224.14"/>
<polygon fill="#606060" stroke="#606060" points="331.78,-231.79 335.28,-241.79 338.78,-231.79 331.78,-231.79"/>
</g>
<!-- SchemaGen&#45;&gt;Transform -->
<g id="edge7" class="edge">
<title>SchemaGen&#45;&gt;Transform</title>
<path fill="none" stroke="#606060" d="M335.28,-187.79C335.28,-185.31 335.28,-182.83 335.28,-180.34"/>
<polygon fill="#606060" stroke="#606060" points="338.78,-180.14 335.28,-170.14 331.78,-180.14 338.78,-180.14"/>
</g>
<!-- Trainer -->
<g id="node6" class="node">
<title>Trainer</title>
<ellipse fill="none" stroke="#606060" cx="488.92" cy="-152" rx="38.19" ry="18"/>
<text text-anchor="middle" x="488.92" y="-148.3" font-family="Panton bold" font-size="14.00" fill="#606060">Trainer</text>
</g>
<!-- Transform&#45;&gt;Trainer -->
<g id="edge8" class="edge">
<title>Transform&#45;&gt;Trainer</title>
<path fill="none" stroke="#606060" d="M386.78,-152C403.9,-152 422.97,-152 439.9,-152"/>
<polygon fill="#606060" stroke="#606060" points="440.12,-155.5 450.12,-152 440.12,-148.5 440.12,-155.5"/>
</g>
<!-- Evaluator -->
<g id="node7" class="node">
<title>Evaluator</title>
<ellipse fill="none" stroke="#606060" cx="633.46" cy="-152" rx="48.19" ry="18"/>
<text text-anchor="middle" x="633.46" y="-148.3" font-family="Panton bold" font-size="14.00" fill="#606060">Evaluator</text>
</g>
<!-- Trainer&#45;&gt;Evaluator -->
<g id="edge9" class="edge">
<title>Trainer&#45;&gt;Evaluator</title>
<path fill="none" stroke="#606060" d="M527.37,-152C541.92,-152 558.91,-152 574.94,-152"/>
<polygon fill="#606060" stroke="#606060" points="575.3,-155.5 585.3,-152 575.3,-148.5 575.3,-155.5"/>
</g>
<!-- ModelValidator -->
<g id="node8" class="node">
<title>ModelValidator</title>
<ellipse fill="none" stroke="#606060" cx="633.46" cy="-98" rx="70.39" ry="18"/>
<text text-anchor="middle" x="633.46" y="-94.3" font-family="Panton bold" font-size="14.00" fill="#606060">ModelValidator</text>
</g>
<!-- Evaluator&#45;&gt;ModelValidator -->
<g id="edge10" class="edge">
<title>Evaluator&#45;&gt;ModelValidator</title>
<path fill="none" stroke="#606060" d="M633.46,-133.79C633.46,-131.31 633.46,-128.83 633.46,-126.34"/>
<polygon fill="#606060" stroke="#606060" points="636.96,-126.14 633.46,-116.14 629.96,-126.14 636.96,-126.14"/>
</g>
<!-- Pusher -->
<g id="node9" class="node">
<title>Pusher</title>
<ellipse fill="none" stroke="#606060" cx="784.16" cy="-98" rx="38.99" ry="18"/>
<text text-anchor="middle" x="784.16" y="-94.3" font-family="Panton bold" font-size="14.00" fill="#606060">Pusher</text>
</g>
<!-- ModelValidator&#45;&gt;Pusher -->
<g id="edge11" class="edge">
<title>ModelValidator&#45;&gt;Pusher</title>
<path fill="none" stroke="#606060" d="M704.02,-98C714.34,-98 724.79,-98 734.56,-98"/>
<polygon fill="#606060" stroke="#606060" points="734.86,-101.5 744.86,-98 734.86,-94.5 734.86,-101.5"/>
</g>
<!-- server -->
<g id="node11" class="node">
<title>server</title>
<text text-anchor="middle" x="784.16" y="-45.2" font-family="Panton" font-size="16.00" fill="#606060">TF Serving</text>
<text text-anchor="middle" x="784.16" y="-27.2" font-family="Panton" font-size="16.00" fill="#606060">TF Lite</text>
<text text-anchor="middle" x="784.16" y="-9.2" font-family="Panton" font-size="16.00" fill="#606060">TF.JS</text>
</g>
<!-- Pusher&#45;&gt;server -->
<g id="edge12" class="edge">
<title>Pusher&#45;&gt;server</title>
<path fill="none" stroke="#606060" d="M784.16,-79.79C784.16,-77.31 784.16,-74.83 784.16,-72.35"/>
<polygon fill="#606060" stroke="#606060" points="787.66,-72.14 784.16,-62.14 780.66,-72.14 787.66,-72.14"/>
</g>
<!-- data -->
<g id="node10" class="node">
<title>data</title>
<text text-anchor="middle" x="27" y="-148.2" font-family="Panton" font-size="16.00" fill="#606060">Data</text>
</g>
<!-- data&#45;&gt;ExampleGen -->
<g id="edge1" class="edge">
<title>data&#45;&gt;ExampleGen</title>
<path fill="none" stroke="#606060" d="M54.11,-152C63.27,-152 74.03,-152 85.05,-152"/>
<polygon fill="#606060" stroke="#606060" points="85.19,-155.5 95.19,-152 85.19,-148.5 85.19,-155.5"/>
</g>
</g>
</svg>
