<?xml version="1.0" encoding="UTF-8" standalone="no"?>
<!DOCTYPE svg PUBLIC "-//W3C//DTD SVG 1.1//EN"
 "http://www.w3.org/Graphics/SVG/1.1/DTD/svg11.dtd">
<!-- Generated by graphviz version 2.42.1 (0)
 -->
<!-- Title: loss Pages: 1 -->
<svg width="642pt" height="111pt"
 viewBox="0.00 0.00 642.40 111.11" xmlns="http://www.w3.org/2000/svg" xmlns:xlink="http://www.w3.org/1999/xlink">
<g id="graph0" class="graph" transform="scale(1 1) rotate(0) translate(4 107.11)">
<title>loss</title>
<polygon fill="white" stroke="transparent" points="-4,4 -4,-107.11 638.4,-107.11 638.4,4 -4,4"/>
<!-- x -->
<g id="node1" class="node">
<title>x</title>
<polygon fill="#f0f0f0" stroke="transparent" points="54,-90 0,-90 0,-54 54,-54 54,-90"/>
<text text-anchor="middle" x="27" y="-68.2" font-family="Panton" font-size="16.00" fill="white">x</text>
</g>
<!-- model -->
<g id="node6" class="node">
<title>model</title>
<ellipse fill="#f0f0f0" stroke="black" cx="186.17" cy="-72" rx="96.33" ry="31.23"/>
<text text-anchor="middle" x="186.17" y="-77.2" font-family="Panton" font-size="16.00" fill="white">your fancy model</text>
<text text-anchor="middle" x="186.17" y="-59.2" font-family="Panton" font-size="16.00" fill="white">(weights w)</text>
</g>
<!-- x&#45;&gt;model -->
<g id="edge1" class="edge">
<title>x&#45;&gt;model</title>
<path fill="none" stroke="#606060" d="M54.31,-72C61.81,-72 70.49,-72 79.72,-72"/>
<polygon fill="#606060" stroke="#606060" points="79.94,-75.5 89.94,-72 79.94,-68.5 79.94,-75.5"/>
</g>
<!-- prediction -->
<g id="node2" class="node">
<title>prediction</title>
<polygon fill="#f0f0f0" stroke="transparent" points="402.33,-90 318.33,-90 318.33,-54 402.33,-54 402.33,-90"/>
<text text-anchor="middle" x="360.33" y="-68.2" font-family="Panton" font-size="16.00" fill="white">prediction</text>
</g>
<!-- loss_function -->
<g id="node5" class="node">
<title>loss_function</title>
<ellipse fill="#f0f0f0" stroke="black" cx="491.37" cy="-45" rx="53.07" ry="31.23"/>
<text text-anchor="middle" x="491.37" y="-50.2" font-family="Panton" font-size="16.00" fill="white">loss</text>
<text text-anchor="middle" x="491.37" y="-32.2" font-family="Panton" font-size="16.00" fill="white">function</text>
</g>
<!-- prediction&#45;&gt;loss_function -->
<g id="edge3" class="edge">
<title>prediction&#45;&gt;loss_function</title>
<path fill="none" stroke="#606060" d="M402.51,-63.38C411.6,-61.48 421.4,-59.43 431.05,-57.41"/>
<polygon fill="#606060" stroke="#606060" points="431.93,-60.8 441,-55.33 430.5,-53.95 431.93,-60.8"/>
</g>
<!-- y -->
<g id="node3" class="node">
<title>y</title>
<polygon fill="#f0f0f0" stroke="transparent" points="387.33,-36 333.33,-36 333.33,0 387.33,0 387.33,-36"/>
<text text-anchor="middle" x="360.33" y="-14.2" font-family="Panton" font-size="16.00" fill="white">y</text>
</g>
<!-- y&#45;&gt;loss_function -->
<g id="edge5" class="edge">
<title>y&#45;&gt;loss_function</title>
<path fill="none" stroke="#606060" d="M387.44,-23.46C400.07,-26.11 415.78,-29.39 431.09,-32.6"/>
<polygon fill="#606060" stroke="#606060" points="430.56,-36.06 441.06,-34.68 431.99,-29.21 430.56,-36.06"/>
</g>
<!-- loss -->
<g id="node4" class="node">
<title>loss</title>
<polygon fill="#f0f0f0" stroke="transparent" points="634.4,-63 580.4,-63 580.4,-27 634.4,-27 634.4,-63"/>
<text text-anchor="middle" x="607.4" y="-41.2" font-family="Panton bold" font-size="16.00" fill="#00aed2">loss</text>
</g>
<!-- loss_function&#45;&gt;loss -->
<g id="edge4" class="edge">
<title>loss_function&#45;&gt;loss</title>
<path fill="none" stroke="#606060" d="M544.71,-45C553.26,-45 561.95,-45 570,-45"/>
<polygon fill="#606060" stroke="#606060" points="570.16,-48.5 580.16,-45 570.16,-41.5 570.16,-48.5"/>
</g>
<!-- model&#45;&gt;prediction -->
<g id="edge2" class="edge">
<title>model&#45;&gt;prediction</title>
<path fill="none" stroke="#606060" d="M282.56,-72C291.2,-72 299.7,-72 307.73,-72"/>
<polygon fill="#606060" stroke="#606060" points="307.97,-75.5 317.97,-72 307.97,-68.5 307.97,-75.5"/>
</g>
</g>
</svg>
