<?xml version="1.0" encoding="UTF-8" standalone="no"?>
<!DOCTYPE svg PUBLIC "-//W3C//DTD SVG 1.1//EN"
 "http://www.w3.org/Graphics/SVG/1.1/DTD/svg11.dtd">
<!-- Generated by graphviz version 2.42.1 (0)
 -->
<!-- Title: classify Pages: 1 -->
<svg width="266pt" height="350pt"
 viewBox="0.00 0.00 265.99 350.00" xmlns="http://www.w3.org/2000/svg" xmlns:xlink="http://www.w3.org/1999/xlink">
<g id="graph0" class="graph" transform="scale(1 1) rotate(0) translate(4 346)">
<title>classify</title>
<polygon fill="white" stroke="transparent" points="-4,4 -4,-346 261.99,-346 261.99,4 -4,4"/>
<!-- digit1 -->
<g id="node1" class="node">
<title>digit1</title>
</g>
<!-- model -->
<g id="node3" class="node">
<title>model</title>
<ellipse fill="none" stroke="black" cx="129" cy="-108" rx="38.99" ry="18"/>
<text text-anchor="middle" x="129" y="-104.3" font-family="Times,serif" font-size="14.00">model</text>
</g>
<!-- digit1&#45;&gt;model -->
<g id="edge1" class="edge">
<title>digit1&#45;&gt;model</title>
<path fill="none" stroke="black" d="M54.01,-174.59C68.95,-161.14 87.64,-144.32 102.49,-130.95"/>
<polygon fill="black" stroke="black" points="105.21,-133.22 110.3,-123.92 100.53,-128.01 105.21,-133.22"/>
</g>
<!-- digit2 -->
<g id="node2" class="node">
<title>digit2</title>
</g>
<!-- digit2&#45;&gt;model -->
<g id="edge2" class="edge">
<title>digit2&#45;&gt;model</title>
<path fill="none" stroke="black" d="M48.24,-36.21C63.83,-50.25 85.5,-69.75 102.32,-84.89"/>
<polygon fill="black" stroke="black" points="100.36,-87.84 110.14,-91.93 105.05,-82.63 100.36,-87.84"/>
</g>
<!-- output -->
<g id="node4" class="node">
<title>output</title>
</g>
<!-- model&#45;&gt;output -->
<g id="edge3" class="edge">
<title>model&#45;&gt;output</title>
<path fill="none" stroke="black" d="M168.09,-108C176.47,-108 185.33,-108 193.64,-108"/>
<polygon fill="black" stroke="black" points="193.8,-111.5 203.8,-108 193.8,-104.5 193.8,-111.5"/>
</g>
</g>
</svg>
