<?xml version="1.0" encoding="UTF-8" standalone="no"?>
<!DOCTYPE svg PUBLIC "-//W3C//DTD SVG 1.1//EN"
 "http://www.w3.org/Graphics/SVG/1.1/DTD/svg11.dtd">
<!-- Generated by graphviz version 2.42.1 (0)
 -->
<!-- Title: match Pages: 1 -->
<svg width="851pt" height="300pt"
 viewBox="0.00 0.00 850.90 300.00" xmlns="http://www.w3.org/2000/svg" xmlns:xlink="http://www.w3.org/1999/xlink">
<g id="graph0" class="graph" transform="scale(1 1) rotate(0) translate(4 296)">
<title>match</title>
<polygon fill="white" stroke="transparent" points="-4,4 -4,-296 846.9,-296 846.9,4 -4,4"/>
<!-- tfrecords -->
<g id="node1" class="node">
<title>tfrecords</title>
<text text-anchor="middle" x="58" y="-270.2" font-family="Panton" font-size="16.00" fill="#606060">TFRecord files</text>
</g>
<!-- generate -->
<g id="node9" class="node">
<title>generate</title>
<ellipse fill="none" stroke="#00aed2" cx="210.69" cy="-220" rx="58.88" ry="31.23"/>
<text text-anchor="middle" x="210.69" y="-225.2" font-family="Panton bold" font-size="16.00" fill="#00aed2">generate</text>
<text text-anchor="middle" x="210.69" y="-207.2" font-family="Panton bold" font-size="16.00" fill="#00aed2">statistics</text>
</g>
<!-- tfrecords&#45;&gt;generate -->
<g id="edge1" class="edge">
<title>tfrecords&#45;&gt;generate</title>
<path fill="none" stroke="#606060" d="M109.6,-255.87C123.21,-250.99 138.04,-245.68 152.01,-240.67"/>
<polygon fill="#606060" stroke="#606060" points="153.29,-243.93 161.52,-237.26 150.93,-237.34 153.29,-243.93"/>
</g>
<!-- dataframe -->
<g id="node2" class="node">
<title>dataframe</title>
<text text-anchor="middle" x="58" y="-216.2" font-family="Panton" font-size="16.00" fill="#606060">DataFrame</text>
</g>
<!-- dataframe&#45;&gt;generate -->
<g id="edge2" class="edge">
<title>dataframe&#45;&gt;generate</title>
<path fill="none" stroke="#606060" d="M104.21,-220C116.05,-220 129.07,-220 141.8,-220"/>
<polygon fill="#606060" stroke="#606060" points="141.93,-223.5 151.93,-220 141.93,-216.5 141.93,-223.5"/>
</g>
<!-- csv -->
<g id="node3" class="node">
<title>csv</title>
<text text-anchor="middle" x="58" y="-162.2" font-family="Panton" font-size="16.00" fill="#606060">CSV File</text>
</g>
<!-- csv&#45;&gt;generate -->
<g id="edge3" class="edge">
<title>csv&#45;&gt;generate</title>
<path fill="none" stroke="#606060" d="M95.09,-178.93C112.15,-185.05 132.93,-192.49 152.09,-199.36"/>
<polygon fill="#606060" stroke="#606060" points="151.04,-202.7 161.64,-202.78 153.4,-196.11 151.04,-202.7"/>
</g>
<!-- tfrecords2 -->
<g id="node4" class="node">
<title>tfrecords2</title>
<text text-anchor="middle" x="635.76" y="-122.2" font-family="Panton" font-size="16.00" fill="#606060">TFRecord files</text>
</g>
<!-- validate -->
<g id="node12" class="node">
<title>validate</title>
<ellipse fill="none" stroke="#00aed2" cx="786.33" cy="-99" rx="56.64" ry="31.23"/>
<text text-anchor="middle" x="786.33" y="-104.2" font-family="Panton bold" font-size="16.00" fill="#00aed2">validate</text>
<text text-anchor="middle" x="786.33" y="-86.2" font-family="Panton bold" font-size="16.00" fill="#00aed2">new data</text>
</g>
<!-- tfrecords2&#45;&gt;validate -->
<g id="edge9" class="edge">
<title>tfrecords2&#45;&gt;validate</title>
<path fill="none" stroke="#606060" d="M693.78,-115.64C703.03,-113.96 712.66,-112.21 722.06,-110.5"/>
<polygon fill="#606060" stroke="#606060" points="722.91,-113.9 732.12,-108.67 721.66,-107.01 722.91,-113.9"/>
</g>
<!-- dataframe2 -->
<g id="node5" class="node">
<title>dataframe2</title>
<text text-anchor="middle" x="635.76" y="-68.2" font-family="Panton" font-size="16.00" fill="#606060">DataFrame</text>
</g>
<!-- dataframe2&#45;&gt;validate -->
<g id="edge10" class="edge">
<title>dataframe2&#45;&gt;validate</title>
<path fill="none" stroke="#606060" d="M682.14,-80.25C694.79,-82.55 708.76,-85.09 722.23,-87.53"/>
<polygon fill="#606060" stroke="#606060" points="721.94,-91.04 732.41,-89.38 723.19,-84.15 721.94,-91.04"/>
</g>
<!-- csv2 -->
<g id="node6" class="node">
<title>csv2</title>
<text text-anchor="middle" x="635.76" y="-14.2" font-family="Panton" font-size="16.00" fill="#606060">CSV File</text>
</g>
<!-- csv2&#45;&gt;validate -->
<g id="edge11" class="edge">
<title>csv2&#45;&gt;validate</title>
<path fill="none" stroke="#606060" d="M672.88,-34.51C679.87,-37.87 687.08,-41.46 693.76,-45 708.75,-52.95 724.78,-62.15 739.17,-70.68"/>
<polygon fill="#606060" stroke="#606060" points="737.51,-73.77 747.9,-75.89 741.1,-67.76 737.51,-73.77"/>
</g>
<!-- statistics -->
<g id="node7" class="node">
<title>statistics</title>
<text text-anchor="middle" x="346.88" y="-216.2" font-family="Panton bold" font-size="16.00" fill="#606060">statistics</text>
</g>
<!-- visualize -->
<g id="node10" class="node">
<title>visualize</title>
<ellipse fill="none" stroke="#00aed2" cx="483.07" cy="-260" rx="58.88" ry="31.23"/>
<text text-anchor="middle" x="483.07" y="-265.2" font-family="Panton bold" font-size="16.00" fill="#00aed2">visualize</text>
<text text-anchor="middle" x="483.07" y="-247.2" font-family="Panton bold" font-size="16.00" fill="#00aed2">statistics</text>
</g>
<!-- statistics&#45;&gt;visualize -->
<g id="edge5" class="edge">
<title>statistics&#45;&gt;visualize</title>
<path fill="none" stroke="#606060" d="M388.51,-232.11C399.01,-235.24 410.54,-238.68 421.81,-242.04"/>
<polygon fill="#606060" stroke="#606060" points="421.03,-245.46 431.61,-244.96 423.03,-238.75 421.03,-245.46"/>
</g>
<!-- infer -->
<g id="node11" class="node">
<title>infer</title>
<ellipse fill="none" stroke="#00aed2" cx="483.07" cy="-180" rx="50.82" ry="31.23"/>
<text text-anchor="middle" x="483.07" y="-185.2" font-family="Panton bold" font-size="16.00" fill="#00aed2">infer</text>
<text text-anchor="middle" x="483.07" y="-167.2" font-family="Panton bold" font-size="16.00" fill="#00aed2">schema</text>
</g>
<!-- statistics&#45;&gt;infer -->
<g id="edge6" class="edge">
<title>statistics&#45;&gt;infer</title>
<path fill="none" stroke="#606060" d="M388.51,-207.89C400.68,-204.26 414.23,-200.22 427.16,-196.37"/>
<polygon fill="#606060" stroke="#606060" points="428.31,-199.68 436.89,-193.47 426.31,-192.97 428.31,-199.68"/>
</g>
<!-- schema -->
<g id="node8" class="node">
<title>schema</title>
<text text-anchor="middle" x="635.76" y="-176.2" font-family="Panton bold" font-size="16.00" fill="#606060">schema</text>
</g>
<!-- schema&#45;&gt;validate -->
<g id="edge8" class="edge">
<title>schema&#45;&gt;validate</title>
<path fill="none" stroke="#606060" d="M671.97,-163.93C679.24,-160.45 686.79,-156.69 693.76,-153 708.75,-145.05 724.78,-135.85 739.17,-127.32"/>
<polygon fill="#606060" stroke="#606060" points="741.1,-130.24 747.9,-122.11 737.51,-124.23 741.1,-130.24"/>
</g>
<!-- generate&#45;&gt;statistics -->
<g id="edge4" class="edge">
<title>generate&#45;&gt;statistics</title>
<path fill="none" stroke="#606060" d="M269.77,-220C278.13,-220 286.69,-220 294.91,-220"/>
<polygon fill="#606060" stroke="#606060" points="295.09,-223.5 305.09,-220 295.09,-216.5 295.09,-223.5"/>
</g>
<!-- infer&#45;&gt;schema -->
<g id="edge7" class="edge">
<title>infer&#45;&gt;schema</title>
<path fill="none" stroke="#606060" d="M534.25,-180C551.97,-180 571.8,-180 589.13,-180"/>
<polygon fill="#606060" stroke="#606060" points="589.55,-183.5 599.55,-180 589.55,-176.5 589.55,-183.5"/>
</g>
</g>
</svg>
