<?xml version="1.0" encoding="UTF-8" standalone="no"?>
<!DOCTYPE svg PUBLIC "-//W3C//DTD SVG 1.1//EN"
 "http://www.w3.org/Graphics/SVG/1.1/DTD/svg11.dtd">
<!-- Generated by graphviz version 2.42.1 (0)
 -->
<!-- Title: test Pages: 1 -->
<svg width="170pt" height="332pt"
 viewBox="0.00 0.00 170.00 332.00" xmlns="http://www.w3.org/2000/svg" xmlns:xlink="http://www.w3.org/1999/xlink">
<g id="graph0" class="graph" transform="scale(1 1) rotate(0) translate(4 328)">
<title>test</title>
<polygon fill="white" stroke="transparent" points="-4,4 -4,-328 166,-328 166,4 -4,4"/>
<!-- x -->
<g id="node1" class="node">
<title>x</title>
<polygon fill="none" stroke="black" points="54,-324 0,-324 0,-288 54,-288 54,-324"/>
<text text-anchor="middle" x="27" y="-302.3" font-family="Times,serif" font-size="14.00">x</text>
</g>
<!-- add -->
<g id="node7" class="node">
<title>add</title>
<ellipse fill="lightgray" stroke="lightgray" cx="63" cy="-234" rx="27.9" ry="18"/>
<text text-anchor="middle" x="63" y="-230.3" font-family="Times,serif" font-size="14.00">add</text>
</g>
<!-- x&#45;&gt;add -->
<g id="edge1" class="edge">
<title>x&#45;&gt;add</title>
<path fill="none" stroke="black" d="M35.9,-287.7C40.1,-279.52 45.2,-269.6 49.84,-260.58"/>
<polygon fill="black" stroke="black" points="52.99,-262.12 54.45,-251.62 46.77,-258.91 52.99,-262.12"/>
</g>
<!-- w -->
<g id="node2" class="node">
<title>w</title>
<polygon fill="none" stroke="black" points="126,-324 72,-324 72,-288 126,-288 126,-324"/>
<text text-anchor="middle" x="99" y="-302.3" font-family="Times,serif" font-size="14.00">w</text>
</g>
<!-- w&#45;&gt;add -->
<g id="edge2" class="edge">
<title>w&#45;&gt;add</title>
<path fill="none" stroke="black" d="M90.1,-287.7C85.9,-279.52 80.8,-269.6 76.16,-260.58"/>
<polygon fill="black" stroke="black" points="79.23,-258.91 71.55,-251.62 73.01,-262.12 79.23,-258.91"/>
</g>
<!-- s -->
<g id="node3" class="node">
<title>s</title>
<polygon fill="none" stroke="black" points="90,-180 36,-180 36,-144 90,-144 90,-180"/>
<text text-anchor="middle" x="63" y="-158.3" font-family="Times,serif" font-size="14.00">s</text>
</g>
<!-- mult -->
<g id="node6" class="node">
<title>mult</title>
<ellipse fill="lightgray" stroke="lightgray" cx="99" cy="-90" rx="32.49" ry="18"/>
<text text-anchor="middle" x="99" y="-86.3" font-family="Times,serif" font-size="14.00">mult</text>
</g>
<!-- s&#45;&gt;mult -->
<g id="edge4" class="edge">
<title>s&#45;&gt;mult</title>
<path fill="none" stroke="black" d="M71.9,-143.7C76.1,-135.52 81.2,-125.6 85.84,-116.58"/>
<polygon fill="black" stroke="black" points="88.99,-118.12 90.45,-107.62 82.77,-114.91 88.99,-118.12"/>
</g>
<!-- b -->
<g id="node4" class="node">
<title>b</title>
<polygon fill="none" stroke="black" points="162,-180 108,-180 108,-144 162,-144 162,-180"/>
<text text-anchor="middle" x="135" y="-158.3" font-family="Times,serif" font-size="14.00">b</text>
</g>
<!-- b&#45;&gt;mult -->
<g id="edge5" class="edge">
<title>b&#45;&gt;mult</title>
<path fill="none" stroke="black" d="M126.1,-143.7C121.9,-135.52 116.8,-125.6 112.16,-116.58"/>
<polygon fill="black" stroke="black" points="115.23,-114.91 107.55,-107.62 109.01,-118.12 115.23,-114.91"/>
</g>
<!-- y -->
<g id="node5" class="node">
<title>y</title>
<polygon fill="none" stroke="black" points="126,-36 72,-36 72,0 126,0 126,-36"/>
<text text-anchor="middle" x="99" y="-14.3" font-family="Times,serif" font-size="14.00">y</text>
</g>
<!-- mult&#45;&gt;y -->
<g id="edge6" class="edge">
<title>mult&#45;&gt;y</title>
<path fill="none" stroke="black" d="M99,-71.7C99,-63.98 99,-54.71 99,-46.11"/>
<polygon fill="black" stroke="black" points="102.5,-46.1 99,-36.1 95.5,-46.1 102.5,-46.1"/>
</g>
<!-- add&#45;&gt;s -->
<g id="edge3" class="edge">
<title>add&#45;&gt;s</title>
<path fill="none" stroke="black" d="M63,-215.7C63,-207.98 63,-198.71 63,-190.11"/>
<polygon fill="black" stroke="black" points="66.5,-190.1 63,-180.1 59.5,-190.1 66.5,-190.1"/>
</g>
</g>
</svg>
