<?xml version="1.0" encoding="UTF-8" standalone="no"?>
<!DOCTYPE svg PUBLIC "-//W3C//DTD SVG 1.1//EN"
 "http://www.w3.org/Graphics/SVG/1.1/DTD/svg11.dtd">
<!-- Generated by graphviz version 2.42.1 (0)
 -->
<!-- Title: loss Pages: 1 -->
<svg width="611pt" height="111pt"
 viewBox="0.00 0.00 611.33 111.11" xmlns="http://www.w3.org/2000/svg" xmlns:xlink="http://www.w3.org/1999/xlink">
<g id="graph0" class="graph" transform="scale(1 1) rotate(0) translate(4 107.11)">
<title>loss</title>
<polygon fill="white" stroke="transparent" points="-4,4 -4,-107.11 607.33,-107.11 607.33,4 -4,4"/>
<!-- x -->
<g id="node1" class="node">
<title>x</title>
<text text-anchor="middle" x="27" y="-68.2" font-family="Panton" font-size="16.00" fill="#606060">x</text>
</g>
<!-- model -->
<g id="node6" class="node">
<title>model</title>
<ellipse fill="none" stroke="#606060" cx="186.17" cy="-72" rx="96.33" ry="31.23"/>
<text text-anchor="middle" x="186.17" y="-77.2" font-family="Panton" font-size="16.00" fill="#606060">your fancy model</text>
<text text-anchor="middle" x="186.17" y="-59.2" font-family="Panton" font-size="16.00" fill="#606060">(weights w)</text>
</g>
<!-- x&#45;&gt;model -->
<g id="edge1" class="edge">
<title>x&#45;&gt;model</title>
<path fill="none" stroke="#606060" d="M54.31,-72C61.81,-72 70.49,-72 79.72,-72"/>
<polygon fill="#606060" stroke="#606060" points="79.94,-75.5 89.94,-72 79.94,-68.5 79.94,-75.5"/>
</g>
<!-- prediction -->
<g id="node2" class="node">
<title>prediction</title>
<text text-anchor="middle" x="360.33" y="-68.2" font-family="Panton" font-size="16.00" fill="#606060">prediction</text>
</g>
<!-- loss_function -->
<g id="node5" class="node">
<title>loss_function</title>
<polygon fill="none" stroke="#606060" points="513.33,-67 438.33,-67 438.33,-23 513.33,-23 513.33,-67"/>
<text text-anchor="middle" x="475.83" y="-50.2" font-family="Panton" font-size="16.00" fill="#606060">loss</text>
<text text-anchor="middle" x="475.83" y="-32.2" font-family="Panton" font-size="16.00" fill="#606060">function</text>
</g>
<!-- prediction&#45;&gt;loss_function -->
<g id="edge3" class="edge">
<title>prediction&#45;&gt;loss_function</title>
<path fill="none" stroke="#606060" d="M402.63,-62.18C411.01,-60.18 419.88,-58.07 428.43,-56.04"/>
<polygon fill="#606060" stroke="#606060" points="429.34,-59.42 438.26,-53.7 427.72,-52.61 429.34,-59.42"/>
</g>
<!-- y -->
<g id="node3" class="node">
<title>y</title>
<text text-anchor="middle" x="360.33" y="-14.2" font-family="Panton" font-size="16.00" fill="#606060">y</text>
</g>
<!-- y&#45;&gt;loss_function -->
<g id="edge5" class="edge">
<title>y&#45;&gt;loss_function</title>
<path fill="none" stroke="#606060" d="M387.37,-24.19C399.49,-27.08 414.27,-30.59 428.21,-33.91"/>
<polygon fill="#606060" stroke="#606060" points="427.62,-37.37 438.16,-36.28 429.24,-30.56 427.62,-37.37"/>
</g>
<!-- loss -->
<g id="node4" class="node">
<title>loss</title>
<text text-anchor="middle" x="576.33" y="-41.2" font-family="Panton bold" font-size="16.00" fill="#00aed2">loss</text>
</g>
<!-- loss_function&#45;&gt;loss -->
<g id="edge4" class="edge">
<title>loss_function&#45;&gt;loss</title>
<path fill="none" stroke="#606060" d="M513.51,-45C521.82,-45 530.64,-45 538.93,-45"/>
<polygon fill="#606060" stroke="#606060" points="539.08,-48.5 549.08,-45 539.08,-41.5 539.08,-48.5"/>
</g>
<!-- model&#45;&gt;prediction -->
<g id="edge2" class="edge">
<title>model&#45;&gt;prediction</title>
<path fill="none" stroke="#606060" d="M282.56,-72C291.2,-72 299.7,-72 307.73,-72"/>
<polygon fill="#606060" stroke="#606060" points="307.97,-75.5 317.97,-72 307.97,-68.5 307.97,-75.5"/>
</g>
</g>
</svg>
