<?xml version="1.0" encoding="UTF-8" standalone="no"?>
<!DOCTYPE svg PUBLIC "-//W3C//DTD SVG 1.1//EN"
 "http://www.w3.org/Graphics/SVG/1.1/DTD/svg11.dtd">
<!-- Generated by graphviz version 2.42.1 (0)
 -->
<!-- Title: classify Pages: 1 -->
<svg width="266pt" height="602pt"
 viewBox="0.00 0.00 265.99 602.00" xmlns="http://www.w3.org/2000/svg" xmlns:xlink="http://www.w3.org/1999/xlink">
<g id="graph0" class="graph" transform="scale(1 1) rotate(0) translate(4 598)">
<title>classify</title>
<polygon fill="white" stroke="transparent" points="-4,4 -4,-598 261.99,-598 261.99,4 -4,4"/>
<!-- digit1 -->
<g id="node1" class="node">
<title>digit1</title>
</g>
<!-- model -->
<g id="node3" class="node">
<title>model</title>
<ellipse fill="none" stroke="black" cx="129" cy="-297" rx="38.99" ry="18"/>
<text text-anchor="middle" x="129" y="-293.3" font-family="Times,serif" font-size="14.00">model</text>
</g>
<!-- digit1&#45;&gt;model -->
<g id="edge1" class="edge">
<title>digit1&#45;&gt;model</title>
<path fill="none" stroke="black" d="M54.01,-410.2C72.07,-382.56 95.61,-346.55 111.23,-322.65"/>
<polygon fill="black" stroke="black" points="114.26,-324.41 116.8,-314.12 108.4,-320.58 114.26,-324.41"/>
</g>
<!-- digit2 -->
<g id="node2" class="node">
<title>digit2</title>
</g>
<!-- digit2&#45;&gt;model -->
<g id="edge2" class="edge">
<title>digit2&#45;&gt;model</title>
<path fill="none" stroke="black" d="M54.01,-183.8C72.07,-211.44 95.61,-247.45 111.23,-271.35"/>
<polygon fill="black" stroke="black" points="108.4,-273.42 116.8,-279.88 114.26,-269.59 108.4,-273.42"/>
</g>
<!-- output -->
<g id="node4" class="node">
<title>output</title>
</g>
<!-- model&#45;&gt;output -->
<g id="edge3" class="edge">
<title>model&#45;&gt;output</title>
<path fill="none" stroke="black" d="M168.09,-297C176.47,-297 185.33,-297 193.64,-297"/>
<polygon fill="black" stroke="black" points="193.8,-300.5 203.8,-297 193.8,-293.5 193.8,-300.5"/>
</g>
</g>
</svg>
