<?xml version="1.0" encoding="UTF-8" standalone="no"?><svg xmlns="http://www.w3.org/2000/svg" xmlns:xlink="http://www.w3.org/1999/xlink" contentScriptType="application/ecmascript" contentStyleType="text/css" height="498px" preserveAspectRatio="none" style="width:631px;height:498px;" version="1.1" viewBox="0 0 631 498" width="631px" zoomAndPan="magnify"><defs><filter height="300%" id="fwajhenawo1d6" width="300%" x="-1" y="-1"><feGaussianBlur result="blurOut" stdDeviation="2.0"/><feColorMatrix in="blurOut" result="blurOut2" type="matrix" values="0 0 0 0 0 0 0 0 0 0 0 0 0 0 0 0 0 0 .4 0"/><feOffset dx="4.0" dy="4.0" in="blurOut2" result="blurOut3"/><feBlend in="SourceGraphic" in2="blurOut3" mode="normal"/></filter></defs><g><polygon fill="#F8F8F8" filter="url(#fwajhenawo1d6)" points="22.5,210.0998,22.5,210.31,32.0714,209.6855,41.6429,210.2931,51.2143,210.4995,60.7857,209.3864,70.3571,210.0221,79.9286,209.6733,89.5,210.0998,89.4511,209.9817,91.2591,210.8111,92.9473,211.3514,94.8739,212.467,96.4907,212.8346,98.3388,213.761,98.2779,213.7357,99.2041,215.5838,99.7769,217.2856,100.5565,219.073,101.2579,220.828,102,222.5998,102.1785,222.5998,102.2391,232.9664,102.5857,243.333,102.6711,253.6997,102.6793,264.0663,102.2546,274.4329,102,284.7995,102.1428,284.8587,101.484,286.6569,100.3134,288.2431,100.0123,290.1894,98.9798,291.8328,98.3388,293.6383,98.4069,293.8027,96.5079,294.2181,94.7946,295.0817,93.1301,296.0634,91.2616,296.5523,89.5,297.2995,89.5,297.4048,79.9286,297.6381,70.3571,297.7157,60.7857,297.2956,51.2143,297.5867,41.6429,296.7271,32.0714,297.5839,22.5,297.2995,22.5699,297.4683,20.7889,296.7042,19.0427,296.0238,17.1351,294.954,15.3457,294.1697,13.6612,293.6383,13.4698,293.5591,12.9108,291.8631,12.1362,290.0777,11.6743,288.422,10.6784,286.545,10,284.7995,9.6569,284.7995,10.2283,274.4329,9.3332,264.0663,9.4809,253.6997,10.649,243.333,10.4357,232.9664,10,222.5998,10.2262,222.6935,10.6331,220.791,11.5628,219.105,12.3785,217.3718,12.7835,215.4685,13.6612,213.761,13.6489,213.7315,15.445,213.0675,17.2798,212.4972,18.9639,211.563,20.7912,210.9745,22.5,210.0998" style="stroke: #383838; stroke-width: 1.5;"/><text fill="#000000" font-family="Panton" font-size="14" lengthAdjust="spacingAndGlyphs" textLength="72" x="20" y="233.2598">TensorFlow</text><text fill="#000000" font-family="Panton" font-size="14" lengthAdjust="spacingAndGlyphs" textLength="68" x="23" y="250.0597">Distributed</text><text fill="#000000" font-family="Panton" font-size="14" lengthAdjust="spacingAndGlyphs" textLength="61" x="23" y="266.8596">Execution</text><text fill="#000000" font-family="Panton" font-size="14" lengthAdjust="spacingAndGlyphs" textLength="42" x="23" y="283.6595">Engine</text><polygon fill="#F8F8F8" filter="url(#fwajhenawo1d6)" points="164.5,20,164.5,20.0701,173.3,19.8619,182.1,20.0644,190.9,20.1332,199.7,19.7622,208.5,20,208.4901,19.9761,210.2134,20.6009,211.9866,21.3464,213.7946,22.1757,215.4829,22.716,217.3388,23.6612,217.5093,23.7318,217.877,25.3485,218.7424,27.1715,219.6686,29.0196,220.2414,30.7213,221,32.5,221.0227,32.5,220.9894,34.86,221.0595,37.22,221.0797,39.58,221.1952,41.9399,221,44.2999,221.2067,44.3855,220.477,46.1543,219.6139,47.8679,218.9461,49.6624,218.2873,51.4606,217.3388,53.1388,217.2468,52.9167,215.6576,54.0799,213.7655,54.5119,212.1036,55.4999,210.2046,55.9152,208.5,56.7999,208.5,56.7771,199.7,57.0471,190.9,56.7837,182.1,56.835,173.3,56.9128,164.5,56.7999,164.5531,56.9281,162.7317,56.0665,161.0011,55.4239,159.1237,54.4269,157.4652,53.9586,155.6612,53.1388,155.83,53.2087,155.0658,51.4277,154.3855,49.6814,153.3157,47.7738,152.5314,45.9845,152,44.2999,151.7929,44.2999,151.9804,41.9399,151.9345,39.58,152.2271,37.22,151.9418,34.86,152,32.5,151.8944,32.4562,152.8025,30.7614,153.2591,28.8794,154.0368,27.1305,155.1288,25.5117,155.6612,23.6612,155.7167,23.7953,157.5226,23.1551,159.1557,22.0976,161.0052,21.5628,162.8075,20.9141,164.5,20" style="stroke: #383838; stroke-width: 1.5;"/><text fill="#000000" font-family="Panton" font-size="14" lengthAdjust="spacingAndGlyphs" textLength="49" x="162" y="43.1599">C++ API</text><path d="M102,253.6997 L102,253.8865 L104,253.3314 L106,253.8715 L108,254.0549 L110,253.0655 L112,253.6997 L112,253.6997 L111.9696,253.6833 L112.8292,251.7596 L113.8421,249.9184 L114.9616,248.1346 L115.7138,246.1531 L116.9805,244.4485 L117.222,244.4956 L117.1201,242.2713 L117.7233,240.1845 L118.4125,238.1146 L118.6013,235.947 L119.0532,233.8307 L119.0833,233.8347 L119.4098,231.0745 L119.8731,228.3326 L120.2704,225.5819 L120.7936,222.8481 L120.9063,220.0591 L121.2029,220.0896 L121.542,216.8311 L121.6897,213.5528 L122.1176,210.3034 L122.5585,207.0553 L122.5835,203.7644 L122.2641,203.7373 L123.1931,200.1526 L123.0704,196.4785 L123.7471,192.8724 L123.6006,189.1963 L124.1289,185.5775 L124.0985,185.5753 L125.0319,177.6958 L125.2557,169.7649 L125.8982,161.8643 L126.5759,153.9663 L127,146.0498 L127.1845,146.0632 L127.5725,138.1442 L128.2758,130.248 L128.4689,122.3148 L129.4229,114.4368 L129.8711,106.5221 L130.1139,106.5428 L130.377,102.9015 L130.7607,99.2704 L130.5844,95.5918 L130.8186,91.948 L131.4165,88.3352 L131.1418,88.3069 L131.7259,85.0736 L132.0005,81.8084 L132.7241,78.5894 L132.6811,75.2915 L133.0938,72.0405 L132.9426,72.0202 L133.5649,69.2997 L133.5412,66.4924 L133.9769,63.7468 L134.862,61.0617 L134.9468,58.2689 L135.1368,58.306 L135.6817,56.2079 L135.6355,53.9944 L136.3297,51.9254 L136.8625,49.825 L137.0195,47.6511 L136.8347,47.5516 L137.9781,45.7807 L139.061,43.9772 L140.2629,42.2377 L141.0023,40.2493 L142,38.4 L142,38.8111 L144,37.9077 L146,37.798 L148,38.8476 L150,37.7627 L152,38.4 " fill="none" style="stroke: #383838; stroke-width: 1.0;"/><polygon fill="#F8F8F8" filter="url(#fwajhenawo1d6)" points="164.5,76.7999,164.5,77.0101,174.1,76.3856,183.7,76.9932,193.3,77.1996,202.9,76.0865,212.5,76.7999,212.4901,76.776,214.2134,77.4008,215.9866,78.1463,217.7946,78.9756,219.4829,79.5159,221.3388,80.4611,221.5093,80.5317,221.877,82.1485,222.7424,83.9714,223.6686,85.8195,224.2414,87.5212,225,89.2999,225.0227,89.2999,224.9894,91.6599,225.0595,94.0199,225.0797,96.3799,225.1952,98.7399,225,101.0999,225.2067,101.1855,224.477,102.9543,223.6139,104.6679,222.9461,106.4623,222.2873,108.2605,221.3388,109.9387,221.2468,109.7166,219.6576,110.8799,217.7655,111.3118,216.1036,112.2998,214.2046,112.7152,212.5,113.5999,212.5,113.5314,202.9,114.3415,193.3,113.5511,183.7,113.7052,174.1,113.9385,164.5,113.5999,164.5531,113.728,162.7317,112.8664,161.0011,112.2238,159.1237,111.2269,157.4652,110.7585,155.6612,109.9387,155.83,110.0086,155.0658,108.2276,154.3855,106.4814,153.3157,104.5738,152.5314,102.7844,152,101.0999,151.7929,101.0999,151.9804,98.7399,151.9345,96.3799,152.2271,94.0199,151.9418,91.6599,152,89.2999,151.8944,89.2562,152.8025,87.5613,153.2591,85.6793,154.0368,83.9304,155.1288,82.3116,155.6612,80.4611,155.7167,80.5953,157.5226,79.9551,159.1557,78.8975,161.0052,78.3627,162.8075,77.714,164.5,76.7999" style="stroke: #383838; stroke-width: 1.5;"/><text fill="#000000" font-family="Panton" font-size="14" lengthAdjust="spacingAndGlyphs" textLength="53" x="162" y="99.9599">Java API</text><path d="M102,253.6997 L102,253.8865 L104,253.3314 L106,253.8715 L108,254.0549 L110,253.0655 L112,253.6997 L112,253.6997 L111.9721,253.6793 L112.8431,252.2257 L113.8546,250.8748 L114.9638,249.5955 L115.7363,248.0699 L116.9805,246.8891 L117.2209,246.9417 L117.492,243.2383 L118.4649,239.6883 L119.5235,236.1571 L120.0839,232.5169 L120.9063,228.9341 L120.9363,228.9383 L121.2276,226.5329 L121.6557,224.1467 L122.0179,221.7513 L122.5058,219.3735 L122.5835,216.9382 L122.8798,216.9724 L123.1925,214.2951 L123.3141,211.5957 L123.7154,208.9285 L124.1299,206.2629 L124.1289,203.5493 L123.8099,203.5179 L125.0032,197.759 L125.1462,191.8966 L126.0877,186.1129 L126.2068,180.2481 L127,174.4498 L126.9697,174.4468 L127.9022,168.6622 L128.1269,162.8078 L128.7692,156.9946 L129.4466,151.1849 L129.8711,145.3502 L130.0549,145.3714 L130.1785,142.6722 L130.6161,140.0093 L130.5456,137.2877 L131.233,134.6536 L131.4165,131.9613 L131.6578,131.995 L131.9476,129.5895 L132.3572,127.2007 L132.2102,124.7341 L132.4712,122.3245 L133.0938,119.9655 L132.8239,119.9065 L133.8533,116.3689 L134.5787,112.7648 L135.7451,109.2571 L136.1585,105.5849 L137.0195,102.0104 L136.8965,101.9204 L138.0975,100.7082 L138.7725,99.1113 L139.8216,97.7879 L141.2367,96.7323 L142,95.1999 L142,95.5872 L144,95.8528 L146,94.9139 L148,95.4836 L150,95.7247 L152,95.1999 " fill="none" style="stroke: #383838; stroke-width: 1.0;"/><polygon fill="#F8F8F8" filter="url(#fwajhenawo1d6)" points="164.5,133.5999,164.5,133.6699,171.7,133.4617,178.9,133.6643,186.1,133.7331,193.3,133.3621,200.5,133.5999,200.4901,133.5759,202.2134,134.2007,203.9866,134.9462,205.7946,135.7756,207.4829,136.3159,209.3388,137.261,209.5093,137.3316,209.877,138.9484,210.7424,140.7713,211.6686,142.6194,212.2414,144.3211,213,146.0999,213.0227,146.0999,212.9894,148.4598,213.0595,150.8198,213.0797,153.1798,213.1952,155.5398,213,157.8998,213.2067,157.9854,212.477,159.7542,211.6139,161.4678,210.9461,163.2622,210.2873,165.0604,209.3388,166.7386,209.2468,166.5165,207.6576,167.6798,205.7655,168.1118,204.1036,169.0997,202.2046,169.5151,200.5,170.3998,200.5,170.3769,193.3,170.647,186.1,170.3835,178.9,170.4349,171.7,170.5127,164.5,170.3998,164.5531,170.528,162.7317,169.6663,161.0011,169.0238,159.1237,168.0268,157.4652,167.5584,155.6612,166.7386,155.83,166.8085,155.0658,165.0276,154.3855,163.2813,153.3157,161.3737,152.5314,159.5844,152,157.8998,151.7929,157.8998,151.9804,155.5398,151.9345,153.1798,152.2271,150.8198,151.9418,148.4598,152,146.0999,151.8944,146.0561,152.8025,144.3612,153.2591,142.4793,154.0368,140.7303,155.1288,139.1116,155.6612,137.261,155.7167,137.3952,157.5226,136.755,159.1557,135.6975,161.0052,135.1626,162.8075,134.5139,164.5,133.5999" style="stroke: #383838; stroke-width: 1.5;"/><text fill="#000000" font-family="Panton" font-size="14" lengthAdjust="spacingAndGlyphs" textLength="41" x="162" y="156.7598">Go API</text><path d="M102,253.6997 L102,253.8865 L104,253.3314 L106,253.8715 L108,254.0549 L110,253.0655 L112,253.6997 L112,253.6997 L111.9699,253.6828 L113.6159,250.4289 L115.4138,247.2601 L117.3173,244.1505 L118.857,240.8369 L120.9063,237.8091 L121.1476,237.8568 L121.276,234.4971 L122.1091,231.2769 L123.0282,228.0736 L123.447,224.7714 L124.1289,221.5212 L124.1589,221.5258 L124.6891,217.7847 L125.3558,214.0647 L125.9566,210.3345 L126.6831,206.6236 L127,202.8497 L127.2948,202.8951 L127.8726,199.1613 L128.2603,195.3984 L128.9263,191.6782 L129.6054,187.96 L129.8711,184.1783 L129.5567,184.1161 L130.8115,180.9792 L131.0309,177.6376 L132.0374,174.4516 L132.2334,171.1053 L133.0938,167.8904 L133.0672,167.8755 L135.1625,164.8734 L136.6374,161.5236 L138.4783,158.3789 L140.35,155.2515 L142,151.9998 L142,152.3698 L144,151.9963 L146,152.2551 L148,151.491 L150,152.2526 L152,151.9998 " fill="none" style="stroke: #383838; stroke-width: 1.0;"/><polygon fill="#F8F8F8" filter="url(#fwajhenawo1d6)" points="164.5,190.3998,164.5,190.4698,165.3,190.2617,166.1,190.4642,166.9,190.533,167.7,190.162,168.5,190.3998,168.4901,190.3758,170.2134,191.0007,171.9866,191.7461,173.7946,192.5755,175.4829,193.1158,177.3388,194.0609,177.5093,194.1316,177.877,195.7483,178.7424,197.5713,179.6686,199.4193,180.2414,201.1211,181,202.8998,181.0227,202.8998,180.9894,205.2598,181.0595,207.6198,181.0797,209.9797,181.1952,212.3397,181,214.6997,181.2067,214.7853,180.477,216.5541,179.6139,218.2677,178.9461,220.0621,178.2873,221.8604,177.3388,223.5385,177.2468,223.3164,175.6576,224.4797,173.7655,224.9117,172.1036,225.8996,170.2046,226.315,168.5,227.1997,168.5,227.1769,167.7,227.4469,166.9,227.1835,166.1,227.2348,165.3,227.3126,164.5,227.1997,164.5531,227.3279,162.7317,226.4663,161.0011,225.8237,159.1237,224.8267,157.4652,224.3584,155.6612,223.5385,155.83,223.6085,155.0658,221.8275,154.3855,220.0812,153.3157,218.1736,152.5314,216.3843,152,214.6997,151.7929,214.6997,151.9804,212.3397,151.9345,209.9797,152.2271,207.6198,151.9418,205.2598,152,202.8998,151.8944,202.856,152.8025,201.1611,153.2591,199.2792,154.0368,197.5303,155.1288,195.9115,155.6612,194.0609,155.7167,194.1951,157.5226,193.5549,159.1557,192.4974,161.0052,191.9625,162.8075,191.3138,164.5,190.3998" style="stroke: #383838; stroke-width: 1.5;"/><text fill="#000000" font-family="Panton" font-size="14" lengthAdjust="spacingAndGlyphs" textLength="9" x="162" y="213.5597">...</text><path d="M102,253.6997 L102,253.8865 L104,253.3314 L106,253.8715 L108,254.0549 L110,253.0655 L112,253.6997 L112,253.6997 L111.9786,253.6725 L113.664,252.1476 L115.457,250.7595 L117.325,249.4665 L118.9349,247.8458 L120.9063,246.684 L121.1351,246.7744 L121.8644,243.4943 L123.262,240.478 L124.7411,237.4939 L125.7458,234.3226 L127,231.2497 L127.0282,231.2608 L128.2055,228.1576 L129.5113,225.1051 L130.7551,222.0281 L132.1171,218.9978 L133.0938,215.8154 L133.2783,216.0496 L135.0618,214.6494 L136.7263,213.098 L138.565,211.7678 L140.4119,210.448 L142,208.7997 L142,208.1587 L144,209.4029 L146,208.5362 L148,209.2742 L150,208.3597 L152,208.7997 " fill="none" style="stroke: #383838; stroke-width: 1.0;"/><polygon fill="#F8F8F8" filter="url(#fwajhenawo1d6)" points="164.5,247.1997,164.5,247.4099,173.7857,246.7854,183.0714,247.393,192.3571,247.5994,201.6429,246.4863,210.9286,247.122,220.2143,246.7732,229.5,247.1997,229.4511,247.0816,231.2591,247.911,232.9473,248.4513,234.8739,249.5669,236.4907,249.9345,238.3388,250.8609,238.2779,250.8356,239.2041,252.6837,239.7769,254.3855,240.5565,256.1729,241.2579,257.9279,242,259.6997,242.0595,259.6997,242.0797,262.0597,242.1952,264.4197,242.2237,266.7797,242.2264,269.1396,242,271.4996,242.0784,271.5321,241.4105,273.3265,240.7518,275.1247,239.5812,276.7109,239.28,278.6573,238.3388,280.3385,238.301,280.2472,236.6392,281.2351,234.7402,281.6505,233.0268,282.5141,231.3624,283.4958,229.5,283.9996,229.5,283.9509,220.2143,284.1049,210.9286,284.3383,201.6429,284.4159,192.3571,283.9957,183.0714,284.2868,173.7857,283.4272,164.5,283.9996,164.5363,284.0872,162.8022,283.4362,161.0212,282.6721,159.2749,281.9917,157.3673,280.9219,155.6612,280.3385,155.4603,280.2553,154.7376,278.4914,154.1786,276.7954,153.4039,275.0101,152.9421,273.3543,152,271.4996,151.9418,271.4996,151.8856,269.1396,152.0761,266.7797,151.7777,264.4197,151.827,262.0597,152,259.6997,152.1999,259.7825,152.8664,257.9875,153.6907,256.2579,154.0976,254.3554,155.0272,252.6694,155.6612,250.8609,155.7365,251.0427,157.3687,249.9832,159.1845,249.3669,160.9805,248.703,162.8154,248.1327,164.5,247.1997" style="stroke: #383838; stroke-width: 1.5;"/><text fill="#000000" font-family="Panton" font-size="14" lengthAdjust="spacingAndGlyphs" textLength="70" x="162" y="270.3596">Python API</text><polygon fill="#F8F8F8" filter="url(#fwajhenawo1d6)" points="304.5,43.8,304.5,44.0102,314.8636,43.3857,325.2273,43.9933,335.5909,44.1997,345.9545,43.0866,356.3182,43.7223,366.6818,43.3735,377.0455,43.4165,387.4091,43.7319,397.7727,43.1086,408.1364,44.3537,418.5,43.8,418.4196,43.6059,420.2425,44.4713,422.0906,45.3975,423.7924,45.9703,425.5798,46.75,427.3388,47.4612,427.329,47.4571,428.126,49.2517,428.8769,51.0272,429.7159,52.8392,430.4744,54.6179,431,56.3,431.2264,56.3,431.0849,58.66,431.1545,61.02,431.2341,63.38,430.7596,65.74,431,68.0999,431.209,68.1865,430.1765,69.8299,429.6999,71.7036,428.6509,73.3401,428.05,75.1623,427.3388,76.9388,427.4334,77.1672,425.5649,77.656,423.8167,78.4357,422.0787,79.2398,420.3209,79.9959,418.5,80.5999,418.5,80.596,408.1364,80.8872,397.7727,80.0275,387.4091,80.8843,377.0455,81.1481,366.6818,81.0445,356.3182,81.213,345.9545,80.1169,335.5909,79.9478,325.2273,79.9785,314.8636,80.5411,304.5,80.5999,304.4749,80.5394,302.8192,80.0776,300.9422,79.0817,299.1529,78.2976,297.4581,77.7413,295.6612,76.9388,295.4558,76.8537,294.7691,75.1048,294.3965,73.486,293.5986,71.6911,292.9584,69.9614,292,68.0999,291.8927,68.0999,292.1064,65.74,292.1968,63.38,291.8425,61.02,291.968,58.66,292,56.3,292.0388,56.3161,292.9329,54.6154,293.4632,52.7639,294.3392,51.0557,294.7584,49.1583,295.6612,47.4612,295.5748,47.2526,297.4932,46.884,299.1052,45.7759,301.0294,45.4212,302.7586,44.5959,304.5,43.8" style="stroke: #383838; stroke-width: 1.5;"/><text fill="#000000" font-family="Panton" font-size="14" font-weight="bold" lengthAdjust="spacingAndGlyphs" textLength="47" x="302" y="66.96">tensors</text><text fill="#000000" font-family="Panton" font-size="14" lengthAdjust="spacingAndGlyphs" textLength="8" x="352" y="66.96">+</text><text fill="#000000" font-family="Panton" font-size="14" font-weight="bold" lengthAdjust="spacingAndGlyphs" textLength="58" x="363" y="66.96">gradients</text><path d="M242,265.5997 L242,265.7865 L244,265.2314 L246,265.7715 L248,265.9549 L250,264.9655 L252,265.5997 L252,265.5997 L251.97,265.5826 L252.8314,263.7579 L253.8441,262.0193 L254.962,260.3408 L255.7174,258.4557 L256.9805,256.8598 L257.2214,256.9096 L257.1207,254.797 L257.7235,252.8297 L258.4121,250.8801 L258.6013,248.8274 L259.0532,246.8289 L259.0832,246.8332 L259.4098,244.2248 L259.873,241.6359 L260.2703,239.0376 L260.7934,236.4573 L260.9063,233.8185 L261.2027,233.8508 L261.5418,230.7724 L261.6897,227.6731 L262.1174,224.6044 L262.5583,221.5371 L262.5835,218.4244 L262.2643,218.3957 L263.1929,215.0151 L263.0704,211.54 L263.747,208.1367 L263.6007,204.6594 L264.1289,201.2427 L264.0986,201.2404 L265.0318,193.7994 L265.2557,186.3039 L265.8982,178.8406 L266.5758,171.3799 L267,163.8998 L267.1844,163.914 L267.5725,156.4311 L268.2757,148.9724 L268.469,141.4746 L269.4229,134.0352 L269.8711,126.5569 L270.1138,126.5787 L270.377,123.1383 L270.7606,119.7086 L270.5845,116.2287 L270.8187,112.7856 L271.4165,109.3752 L271.142,109.3453 L271.7259,106.2936 L272.0006,103.2081 L272.7239,100.1716 L272.6811,97.0516 L273.0938,93.9812 L272.9428,93.9597 L273.5648,91.3934 L273.5415,88.7352 L273.9771,86.1424 L274.8617,83.6135 L274.9468,80.9708 L275.1364,81.0099 L275.681,79.0306 L275.6358,76.9294 L276.3294,74.9809 L276.862,72.9991 L277.0195,70.9398 L276.8371,70.8359 L277.9786,69.1708 L279.0604,67.4716 L280.2595,65.8393 L281.0023,63.947 L282,62.2 L282,62.6112 L284,61.7077 L286,61.598 L288,62.6476 L290,61.5627 L292,62.2 " fill="none" style="stroke: #383838; stroke-width: 1.0;"/><polygon fill="#F8F8F8" filter="url(#fwajhenawo1d6)" points="304.5,100.5999,304.5,100.8101,314.8333,100.1856,325.1667,100.7932,335.5,100.9996,345.8333,99.8866,356.1667,100.5222,366.5,100.1735,376.8333,100.2164,387.1667,100.5318,397.5,100.5999,397.4118,100.387,399.3384,101.5027,400.9551,101.8703,402.7781,102.7357,404.6262,103.6619,406.3388,104.2611,406.3124,104.2502,407.0921,106.0376,407.7935,107.7926,408.5905,109.5872,409.3414,111.3627,410,113.0999,410.1952,113.0999,410.2237,115.4599,410.2264,117.8199,410.0849,120.1799,410.1545,122.5399,410,124.8999,410.2163,124.9894,409.0457,126.5756,408.7445,128.522,407.712,130.1654,407.2355,132.039,406.3388,133.7387,406.2757,133.5863,404.5623,134.4498,402.8979,135.4316,401.0293,135.9204,399.2812,136.7001,397.5,137.3999,397.5,137.7385,387.1667,137.8161,376.8333,137.396,366.5,137.6871,356.1667,136.8275,345.8333,137.6843,335.5,137.9481,325.1667,137.8444,314.8333,138.0129,304.5,137.3999,304.4384,137.2511,302.649,136.4668,300.8852,135.744,299.1892,135.185,297.4039,134.4104,295.6612,133.7387,295.871,133.8256,294.8751,131.9487,294.0911,130.1594,293.5348,128.4645,292.5269,126.5826,292,124.8999,291.827,124.8999,292.2163,122.5399,292.1452,120.1799,292.2448,117.8199,291.8927,115.4599,292,113.0999,292.0983,113.1407,292.9141,111.4075,293.319,109.5042,294.1672,107.7844,294.9677,106.0449,295.6612,104.2611,295.7443,104.4618,297.4284,103.5276,299.2557,102.9391,300.8938,101.8939,302.6458,101.1236,304.5,100.5999" style="stroke: #383838; stroke-width: 1.5;"/><text fill="#000000" font-family="Panton" font-size="14" lengthAdjust="spacingAndGlyphs" textLength="98" x="302" y="123.7599">extended maths</text><path d="M242,265.5997 L242,265.7865 L244,265.2314 L246,265.7715 L248,265.9549 L250,264.9655 L252,265.5997 L252,265.5997 L251.9729,265.5782 L252.8474,264.2223 L253.8585,262.9743 L254.9645,261.8014 L255.7433,260.3697 L256.9805,259.3005 L257.2199,259.3571 L257.493,255.9146 L258.4652,252.6374 L259.5228,249.3804 L260.084,246.0061 L260.9063,242.6935 L260.9362,242.698 L261.2277,240.4723 L261.6556,238.2672 L262.0177,236.0522 L262.5054,233.8562 L262.5835,231.5983 L262.8794,231.6352 L263.1921,229.1589 L263.314,226.6588 L263.7152,224.1936 L264.1295,221.73 L264.1289,219.2146 L263.8102,219.1806 L265.003,213.8636 L265.1463,208.4347 L266.0875,203.0909 L266.207,197.6594 L267,192.2998 L266.9697,192.2966 L267.902,186.9518 L268.1269,181.5316 L268.7692,176.1559 L269.4465,170.7839 L269.8711,165.385 L270.0547,165.4079 L270.1785,162.908 L270.6159,160.4473 L270.5459,157.9233 L271.2328,155.4937 L271.4165,153.0013 L271.6574,153.0377 L271.9473,150.8118 L272.3568,148.604 L272.2106,146.3121 L272.4717,144.0818 L273.0938,141.9061 L272.825,141.8426 L273.8534,138.5787 L274.5791,135.2432 L275.7439,132.0116 L276.1588,128.6027 L277.0195,125.2991 L276.8999,125.2046 L278.0952,124.1022 L278.7792,122.5956 L279.8268,121.3765 L281.2302,120.4386 L282,118.9999 L282,119.3872 L284,119.6528 L286,118.7139 L288,119.2836 L290,119.5247 L292,118.9999 " fill="none" style="stroke: #383838; stroke-width: 1.0;"/><polygon fill="#F8F8F8" filter="url(#fwajhenawo1d6)" points="304.5,157.3999,304.5,157.6101,314.5,156.9856,324.5,157.5932,334.5,157.7996,344.5,156.6865,354.5,157.3222,364.5,156.9734,374.5,157.0164,384.5,157.3317,394.5,156.7085,404.5,157.9535,414.5,156.7696,424.5,157.2021,434.5,157.3999,434.5551,157.5329,436.2568,158.1057,438.0442,158.8854,439.7992,159.5867,441.5938,160.3838,443.3388,161.061,443.4125,161.0915,444.2514,162.9035,445.01,164.6822,445.7447,166.451,446.3462,168.1646,447,169.8999,447.1545,169.8999,447.2341,172.2599,446.7596,174.6198,447.2262,176.9798,446.9012,179.3398,447,181.6998,447.1644,181.7679,446.1153,183.4044,445.5144,185.2266,445.0317,187.0977,444.0561,188.7646,443.3388,190.5386,443.3523,190.5711,441.6143,191.3752,439.8564,192.1313,438.035,192.7341,436.3044,193.556,434.5,194.1998,434.5,193.6274,424.5,194.4842,414.5,194.748,404.5,194.6443,394.5,194.8128,384.5,193.7167,374.5,193.5476,364.5,193.5784,354.5,194.1409,344.5,194.0033,334.5,194.8812,324.5,194.0251,314.5,193.8567,304.5,194.1998,304.5291,194.2701,302.6472,193.2622,300.8982,192.5755,299.2795,192.203,297.4845,191.405,295.6612,190.5386,295.8874,190.6323,294.8298,188.7298,294.295,187.0438,293.6463,185.3106,292.5868,183.4073,292,181.6998,291.968,181.6998,292.042,179.3398,292.2173,176.9798,291.9986,174.6198,292.1542,172.2599,292,169.8999,291.8295,169.8292,292.5237,168.0457,293.6196,166.4286,293.9759,164.5051,295.0857,162.8937,295.6612,161.061,295.6875,161.1247,297.3948,160.2463,299.1516,159.4876,301.023,159.0056,302.694,158.0399,304.5,157.3999" style="stroke: #383838; stroke-width: 1.5;"/><text fill="#000000" font-family="Panton" font-size="14" font-weight="bold" lengthAdjust="spacingAndGlyphs" textLength="18" x="302" y="180.5598">I/O</text><text fill="#000000" font-family="Panton" font-size="14" lengthAdjust="spacingAndGlyphs" textLength="23" x="323" y="180.5598">and</text><text fill="#000000" font-family="Panton" font-size="14" font-weight="bold" lengthAdjust="spacingAndGlyphs" textLength="88" x="349" y="180.5598">preprocessing</text><text fill="#000000" font-family="Panton" font-size="14" font-weight="bold" lengthAdjust="spacingAndGlyphs" textLength="40" x="500" y="152.3599">tf.data</text><path d="M447,175.7998 L447,175.9867 L449,175.4316 L451,175.9716 L453,176.1551 L455,175.1657 L457,175.7998 L457,175.7998 L456.9847,175.7689 L458.6972,174.7487 L460.4869,173.8846 L462.3303,173.1289 L463.9887,171.9994 L465.9063,171.3936 L466.1146,171.5246 L466.8878,169.3058 L468.2693,167.4693 L469.725,165.6795 L470.749,163.6183 L472,161.6999 L472.0257,161.716 L473.2067,159.7536 L474.5047,157.8646 L475.7462,155.9402 L477.0954,154.0835 L478.0938,152.0062 L478.226,152.2735 L480.0089,151.3955 L481.7064,150.3451 L483.5289,149.5471 L485.3571,148.7609 L487,147.5999 L487,146.9589 L489,148.2031 L491,147.3364 L493,148.0744 L495,147.1599 L497,147.5999 " fill="none" style="stroke: #383838; stroke-width: 1.0;"/><text fill="#000000" font-family="Panton" font-size="14" lengthAdjust="spacingAndGlyphs" textLength="49" x="500" y="171.1599">tf.image</text><path d="M447,175.7998 L447,175.9867 L449,175.4316 L451,175.9716 L453,176.1551 L455,175.1657 L457,175.7998 L457,175.7998 L456.9897,175.7669 L459.9433,174.679 L462.949,173.7572 L465.9909,172.9509 L468.9081,171.7466 L472,171.0999 L472.0736,171.3347 L474.9162,169.8925 L477.9737,169.136 L481.0574,168.4631 L483.9886,167.3035 L487,166.3999 L487,166.4605 L489,166.3715 L491,166.5586 L493,166.6124 L495,166.9205 L497,166.3999 " fill="none" style="stroke: #383838; stroke-width: 1.0;"/><text fill="#000000" font-family="Panton" font-size="14" lengthAdjust="spacingAndGlyphs" textLength="56" x="500" y="189.9598">tf.strings</text><path d="M447,175.7998 L447,175.9867 L449,175.4316 L451,175.9716 L453,176.1551 L455,175.1657 L457,175.7998 L457,175.7998 L456.9897,175.7669 L459.9433,176.559 L462.949,177.5172 L465.9909,178.5909 L468.9081,179.2666 L472,180.4998 L472.0736,180.7346 L474.9162,181.1725 L477.9737,182.2959 L481.0574,183.503 L483.9886,184.2234 L487,185.1998 L487,185.2605 L489,185.1714 L491,185.3585 L493,185.4124 L495,185.7204 L497,185.1998 " fill="none" style="stroke: #383838; stroke-width: 1.0;"/><text fill="#000000" font-family="Panton" font-size="14" lengthAdjust="spacingAndGlyphs" textLength="9" x="500" y="208.7597">...</text><path d="M447,175.7998 L447,175.9867 L449,175.4316 L451,175.9716 L453,176.1551 L455,175.1657 L457,175.7998 L457,175.7998 L456.9847,175.7689 L458.6972,176.5112 L460.4869,177.4096 L462.3303,178.4164 L463.9887,179.0494 L465.9063,180.2061 L466.1146,180.337 L466.8878,181.9957 L468.2693,184.0368 L469.725,186.1245 L470.749,187.9407 L472,189.8998 L472.0257,189.9159 L473.2067,191.831 L474.5047,193.8195 L475.7462,195.7726 L477.0954,197.7933 L478.0938,199.5935 L478.226,199.8608 L480.0089,200.7453 L481.7064,201.4574 L483.5289,202.4219 L485.3571,203.3982 L487,203.9997 L487,203.3587 L489,204.6028 L491,203.7362 L493,204.4742 L495,203.5597 L497,203.9997 " fill="none" style="stroke: #383838; stroke-width: 1.0;"/><path d="M242,265.5997 L242,265.7865 L244,265.2314 L246,265.7715 L248,265.9549 L250,264.9655 L252,265.5997 L252,265.5997 L251.9708,265.5812 L253.6212,262.6918 L255.4186,259.8958 L257.3182,257.1647 L258.8656,254.21 L260.9063,251.5684 L261.1464,251.6222 L261.2774,248.6308 L262.1095,245.7964 L263.0272,242.9812 L263.4472,240.0545 L264.1289,237.1864 L264.1588,237.1916 L264.6891,233.8867 L265.3555,230.6054 L265.9563,227.3127 L266.6822,224.0417 L267,220.6998 L267.2938,220.7509 L267.8716,217.4542 L268.2599,214.1245 L268.9256,210.8431 L269.6044,207.5639 L269.8711,204.2131 L269.5583,204.143 L270.8099,201.4026 L271.0316,198.4314 L272.0362,195.6357 L272.2345,192.6594 L273.0938,189.8311 L273.068,189.8147 L275.1533,187.2014 L276.638,184.207 L278.477,181.4374 L280.3458,178.6867 L282,175.7998 L282,176.1698 L284,175.7964 L286,176.0551 L288,175.291 L290,176.0526 L292,175.7998 " fill="none" style="stroke: #383838; stroke-width: 1.0;"/><polygon fill="#F8F8F8" filter="url(#fwajhenawo1d6)" points="304.5,223.3997,304.5,223.6099,314.8077,222.9854,325.1154,223.593,335.4231,223.7994,345.7308,222.6863,356.0385,223.322,366.3462,222.9732,376.6538,223.0162,386.9615,223.3315,397.2692,222.7083,407.5769,223.9533,417.8846,222.7694,428.1923,223.2019,438.5,223.3997,438.5551,223.5327,440.2568,224.1055,442.0442,224.8852,443.7992,225.5865,445.5938,226.3836,447.3388,227.0609,447.4125,227.0914,448.2514,228.9033,449.01,230.682,449.7447,232.4508,450.3462,234.1644,451,235.8997,451.1545,235.8997,451.2341,238.2597,450.7596,240.6197,451.2262,242.9796,450.9012,245.3396,451,247.6996,451.1644,247.7677,450.1153,249.4042,449.5144,251.2264,449.0317,253.0975,448.0561,254.7645,447.3388,256.5385,447.3523,256.5709,445.6143,257.375,443.8564,258.1311,442.035,258.7339,440.3044,259.5558,438.5,260.1996,438.5,259.6272,428.1923,260.484,417.8846,260.7478,407.5769,260.6441,397.2692,260.8126,386.9615,259.7165,376.6538,259.5474,366.3462,259.5782,356.0385,260.1407,345.7308,260.0031,335.4231,260.881,325.1154,260.0249,314.8077,259.8566,304.5,260.1996,304.5291,260.2699,302.6472,259.262,300.8982,258.5753,299.2795,258.2028,297.4845,257.4049,295.6612,256.5385,295.8874,256.6321,294.8298,254.7296,294.295,253.0436,293.6463,251.3105,292.5868,249.4071,292,247.6996,291.968,247.6996,292.042,245.3396,292.2173,242.9796,291.9986,240.6197,292.1542,238.2597,292,235.8997,291.8295,235.829,292.5237,234.0455,293.6196,232.4284,293.9759,230.5049,295.0857,228.8935,295.6612,227.0609,295.6875,227.1245,297.3948,226.2461,299.1516,225.4874,301.023,225.0054,302.694,224.0397,304.5,223.3997" style="stroke: #383838; stroke-width: 1.5;"/><text fill="#000000" font-family="Panton" font-size="14" lengthAdjust="spacingAndGlyphs" textLength="139" x="302" y="246.5596">low-level deep learning</text><text fill="#000000" font-family="Panton" font-size="14" lengthAdjust="spacingAndGlyphs" textLength="29" x="504" y="227.7597">tf.nn</text><path d="M451,241.7997 L451,241.9865 L453,241.4314 L455,241.9715 L457,242.1549 L459,241.1655 L461,241.7997 L461,241.7997 L460.9817,241.7704 L463.8993,239.759 L466.9095,237.8952 L469.9839,236.134 L472.8368,234.0193 L476,232.3997 L476.1307,232.6082 L478.8513,230.2823 L481.9533,228.5652 L485.1019,226.9224 L487.9798,224.8474 L491,222.9997 L491,223.0604 L493,222.9713 L495,223.1584 L497,223.2123 L499,223.5203 L501,222.9997 " fill="none" style="stroke: #383838; stroke-width: 1.0;"/><text fill="#000000" font-family="Panton" font-size="14" lengthAdjust="spacingAndGlyphs" textLength="34" x="504" y="246.5596">tf.rnn</text><path d="M451,241.7997 L451,241.9865 L453,241.4314 L455,241.9715 L457,242.1549 L459,241.1655 L461,241.7997 L461,241.7997 L461,241.7651 L467,241.6101 L473,241.6292 L479,241.7694 L485,241.4924 L491,241.7997 L491,242.2918 L493,241.2394 L495,241.6239 L497,242.1836 L499,241.7234 L501,241.7997 " fill="none" style="stroke: #383838; stroke-width: 1.0;"/><text fill="#000000" font-family="Panton" font-size="14" lengthAdjust="spacingAndGlyphs" textLength="41" x="504" y="265.3596">tf.train</text><path d="M451,241.7997 L451,241.9865 L453,241.4314 L455,241.9715 L457,242.1549 L459,241.1655 L461,241.7997 L461,241.7997 L460.9817,241.7704 L463.8993,243.519 L466.9095,245.4152 L469.9839,247.414 L472.8368,249.0592 L476,251.1996 L476.1307,251.4081 L478.8513,252.8422 L481.9533,254.8851 L485.1019,257.0023 L487.9798,258.6873 L491,260.5996 L491,260.6602 L493,260.5712 L495,260.7583 L497,260.8121 L499,261.1202 L501,260.5996 " fill="none" style="stroke: #383838; stroke-width: 1.0;"/><path d="M242,265.5997 L242,265.7865 L244,265.2314 L246,265.7715 L248,265.9549 L250,264.9655 L252,265.5997 L252,265.5997 L251.9785,265.5726 L254.8822,263.0712 L257.8941,260.7061 L260.9812,258.4359 L263.809,255.8389 L267,253.6997 L267.1529,253.8924 L269.8259,251.1002 L272.9454,248.8708 L276.1193,246.7101 L278.9763,244.1498 L282,241.7997 L282,241.8603 L284,241.7713 L286,241.9583 L288,242.0122 L290,242.3203 L292,241.7997 " fill="none" style="stroke: #383838; stroke-width: 1.0;"/><polygon fill="#F8F8F8" filter="url(#fwajhenawo1d6)" points="304.5,280.1996,304.5,280.4098,314.5,279.7853,324.5,280.3929,334.5,280.5993,344.5,279.4862,354.5,280.1219,364.5,279.7731,374.5,279.8161,384.5,280.1315,394.5,279.5082,404.5,280.7533,414.5,279.5693,424.5,280.0018,434.5,280.6316,444.5,280.1996,444.4891,280.1732,446.2765,280.9529,448.0315,281.6542,449.8261,282.4513,451.6016,283.2022,453.3388,283.8608,453.5192,283.9355,454.2777,285.7141,455.0125,287.483,455.6139,289.1966,456.4105,290.991,457,292.6996,457.2341,292.6996,456.7596,295.0596,457.2262,297.4196,456.9012,299.7796,457.1779,302.1396,457,304.4995,456.8476,304.4364,456.2467,306.2586,455.7639,308.1297,454.7883,309.7966,454.1035,311.584,453.3388,313.3384,453.382,313.4427,451.6242,314.1988,449.8028,314.8016,448.0722,315.6235,446.1947,316.091,444.5,316.9995,444.5,317.2839,434.5,317.5477,424.5,317.4441,414.5,317.6126,404.5,316.5165,394.5,316.3474,384.5,316.3781,374.5,316.9407,364.5,316.803,354.5,317.681,344.5,316.8249,334.5,316.6565,324.5,317.2278,314.5,316.3327,304.5,316.9995,304.4338,316.8397,302.815,316.4672,301.02,315.6692,299.2904,315.029,297.3879,313.9715,295.6612,313.3384,295.7595,313.3791,295.1108,311.6459,294.0512,309.7426,293.4349,308.0228,292.771,306.2834,292,304.4995,292.2173,304.4995,291.9986,302.1396,292.1542,299.7796,291.8154,297.4196,291.7742,295.0596,292,292.6996,292.1551,292.7639,292.5114,290.8404,293.6212,289.229,294.2603,287.4227,294.8464,285.5944,295.6612,283.8608,295.616,283.7518,297.4875,283.2698,299.1585,282.3041,301.04,281.8464,302.6617,280.7616,304.5,280.1996" style="stroke: #383838; stroke-width: 1.5;"/><text fill="#000000" font-family="Panton" font-size="14" font-weight="bold" lengthAdjust="spacingAndGlyphs" textLength="60" x="302" y="303.3596">high-level</text><text fill="#000000" font-family="Panton" font-size="14" lengthAdjust="spacingAndGlyphs" textLength="0" x="365" y="303.3596"/><text fill="#000000" font-family="Panton" font-size="14" font-weight="bold" lengthAdjust="spacingAndGlyphs" textLength="30" x="365" y="303.3596">deep</text><text fill="#000000" font-family="Panton" font-size="14" lengthAdjust="spacingAndGlyphs" textLength="0" x="398" y="303.3596"/><text fill="#000000" font-family="Panton" font-size="14" font-weight="bold" lengthAdjust="spacingAndGlyphs" textLength="49" x="398" y="303.3596">learning</text><text fill="#000000" font-family="Panton" font-size="14" font-weight="bold" lengthAdjust="spacingAndGlyphs" textLength="46" x="510" y="284.5596">tf.keras</text><path d="M457,298.5996 L457,298.7864 L459,298.2313 L461,298.7714 L463,298.9548 L465,297.9655 L467,298.5996 L467,298.5996 L466.9817,298.5703 L469.8993,296.559 L472.9095,294.6952 L475.9839,292.9339 L478.8368,290.8192 L482,289.1996 L482.1307,289.4081 L484.8513,287.0823 L487.9533,285.3651 L491.1019,283.7223 L493.9798,281.6473 L497,279.7997 L497,279.8603 L499,279.7713 L501,279.9583 L503,280.0122 L505,280.3203 L507,279.7997 " fill="none" style="stroke: #383838; stroke-width: 1.0;"/><text fill="#000000" font-family="Panton" font-size="14" font-weight="bold" lengthAdjust="spacingAndGlyphs" textLength="71" x="510" y="303.3596">tf.estimator</text><path d="M457,298.5996 L457,298.7864 L459,298.2313 L461,298.7714 L463,298.9548 L465,297.9655 L467,298.5996 L467,298.5996 L467,298.565 L473,298.41 L479,298.4291 L485,298.5693 L491,298.2923 L497,298.5996 L497,299.0917 L499,298.0393 L501,298.4238 L503,298.9835 L505,298.5233 L507,298.5996 " fill="none" style="stroke: #383838; stroke-width: 1.0;"/><text fill="#000000" font-family="Panton" font-size="14" lengthAdjust="spacingAndGlyphs" textLength="109" x="510" y="322.1595">tf.feature_column</text><path d="M457,298.5996 L457,298.7864 L459,298.2313 L461,298.7714 L463,298.9548 L465,297.9655 L467,298.5996 L467,298.5996 L466.9817,298.5703 L469.8993,300.319 L472.9095,302.2151 L475.9839,304.2139 L478.8368,305.8592 L482,307.9995 L482.1307,308.208 L484.8513,309.6422 L487.9533,311.685 L491.1019,313.8022 L493.9798,315.4872 L497,317.3995 L497,317.4602 L499,317.3711 L501,317.5582 L503,317.6121 L505,317.9201 L507,317.3995 " fill="none" style="stroke: #383838; stroke-width: 1.0;"/><path d="M242,265.5997 L242,265.7865 L244,265.2314 L246,265.7715 L248,265.9549 L250,264.9655 L252,265.5997 L252,265.5997 L251.9827,265.5698 L253.6863,266.4669 L255.4771,267.5147 L257.3286,268.6672 L258.971,269.4587 L260.9063,270.7559 L261.123,270.8724 L261.8782,272.8921 L263.2663,275.2518 L264.7316,277.653 L265.7477,279.8128 L267,282.0996 L267.0267,282.114 L268.2062,284.3616 L269.5074,286.6747 L270.7499,288.9562 L272.1043,291.2978 L273.0938,293.4433 L273.2432,293.7015 L275.0263,294.7359 L276.713,295.6038 L278.5407,296.7154 L280.3751,297.8384 L282,298.5996 L282,297.9585 L284,299.2027 L286,298.336 L288,299.0741 L290,298.1596 L292,298.5996 " fill="none" style="stroke: #383838; stroke-width: 1.0;"/><polygon fill="#F8F8F8" filter="url(#fwajhenawo1d6)" points="304.5,336.9995,304.5,337.2097,314.2143,336.5852,323.9286,337.1928,333.6429,337.3992,343.3571,336.2861,353.0714,336.9218,362.7857,336.573,372.5,336.9995,372.4511,336.8814,374.2591,337.7108,375.9473,338.2511,377.8739,339.3667,379.4907,339.7344,381.3388,340.6607,381.2779,340.6355,382.2041,342.4836,382.7769,344.1853,383.5565,345.9727,384.2579,347.7277,385,349.4995,385.0595,349.4995,385.0797,351.8595,385.1952,354.2195,385.2237,356.5795,385.2264,358.9395,385,361.2995,385.0784,361.3319,384.4105,363.1264,383.7518,364.9246,382.5812,366.5108,382.28,368.4571,381.3388,370.1383,381.301,370.047,379.6392,371.0349,377.7402,371.4503,376.0268,372.3139,374.3624,373.2956,372.5,373.7995,372.5,373.7507,362.7857,373.9048,353.0714,374.1381,343.3571,374.2157,333.6429,373.7956,323.9286,374.0867,314.2143,373.2271,304.5,373.7995,304.5363,373.887,302.8022,373.2361,301.0212,372.4719,299.2749,371.7916,297.3673,370.7218,295.6612,370.1383,295.4603,370.0551,294.7376,368.2913,294.1786,366.5953,293.4039,364.8099,292.9421,363.1542,292,361.2995,291.9418,361.2995,291.8856,358.9395,292.0761,356.5795,291.7777,354.2195,291.827,351.8595,292,349.4995,292.1999,349.5823,292.8664,347.7873,293.6907,346.0577,294.0976,344.1552,295.0272,342.4692,295.6612,340.6607,295.7365,340.8425,297.3687,339.783,299.1845,339.1667,300.9805,338.5028,302.8154,337.9325,304.5,336.9995" style="stroke: #383838; stroke-width: 1.5;"/><text fill="#000000" font-family="Panton" font-size="14" font-weight="bold" lengthAdjust="spacingAndGlyphs" textLength="73" x="302" y="360.1595">deployment</text><path d="M242,265.5997 L242,265.7865 L244,265.2314 L246,265.7715 L248,265.9549 L250,264.9655 L252,265.5997 L252,265.5997 L251.9708,265.5812 L253.6212,268.3043 L255.4186,271.1208 L257.3182,274.0022 L258.8656,276.66 L260.9063,279.6309 L261.1464,279.6847 L261.2774,282.446 L262.1095,285.3645 L263.0272,288.3021 L263.4472,291.1282 L264.1289,294.0129 L264.1588,294.0181 L264.6891,297.3078 L265.3555,300.6212 L265.9563,303.9231 L266.6822,307.2469 L267,310.4996 L267.2938,310.5508 L267.8716,313.8487 L268.2599,317.1137 L268.9256,320.4269 L269.6044,323.7425 L269.8711,326.9863 L269.5583,326.9162 L270.8099,329.9286 L271.0316,332.7103 L272.0362,335.6674 L272.2345,338.4438 L273.0938,341.3683 L273.068,341.352 L275.1533,344.3512 L276.638,346.9692 L278.477,349.8121 L280.3458,352.6739 L282,355.3995 L282,355.7695 L284,355.396 L286,355.6548 L288,354.8907 L290,355.6523 L292,355.3995 " fill="none" style="stroke: #383838; stroke-width: 1.0;"/><polygon fill="#F8F8F8" filter="url(#fwajhenawo1d6)" points="304.5,393.7995,304.5,394.0097,314.5,393.3851,324.5,393.9928,334.5,394.1991,344.5,393.0861,354.5,393.7218,364.5,393.373,374.5,393.7995,374.4511,393.6814,376.2591,394.5107,377.9473,395.051,379.8739,396.1667,381.4907,396.5343,383.3388,397.4606,383.2779,397.4354,384.2041,399.2835,384.7769,400.9852,385.5565,402.7726,386.2579,404.5276,387,406.2995,387.0595,406.2995,387.0797,408.6595,387.1952,411.0194,387.2237,413.3794,387.2264,415.7394,387,418.0994,387.0784,418.1319,386.4105,419.9263,385.7518,421.7245,384.5812,423.3107,384.28,425.257,383.3388,426.9382,383.301,426.8469,381.6392,427.8349,379.7402,428.2502,378.0268,429.1138,376.3624,430.0955,374.5,430.5994,374.5,430.5507,364.5,430.7047,354.5,430.938,344.5,431.0156,334.5,430.5955,324.5,430.8866,314.5,430.027,304.5,430.5994,304.5363,430.687,302.8022,430.036,301.0212,429.2718,299.2749,428.5915,297.3673,427.5217,295.6612,426.9382,295.4603,426.855,294.7376,425.0912,294.1786,423.3952,293.4039,421.6099,292.9421,419.9541,292,418.0994,291.9418,418.0994,291.8856,415.7394,292.0761,413.3794,291.7777,411.0194,291.827,408.6595,292,406.2995,292.1999,406.3822,292.8664,404.5873,293.6907,402.8576,294.0976,400.9551,295.0272,399.2691,295.6612,397.4606,295.7365,397.6425,297.3687,396.5829,299.1845,395.9666,300.9805,395.3027,302.8154,394.7324,304.5,393.7995" style="stroke: #383838; stroke-width: 1.5;"/><text fill="#000000" font-family="Panton" font-size="14" lengthAdjust="spacingAndGlyphs" textLength="75" x="302" y="416.9594">visualization</text><path d="M242,265.5997 L242,265.7865 L244,265.2314 L246,265.7715 L248,265.9549 L250,264.9655 L252,265.5997 L252,265.5997 L251.9729,265.5782 L252.8474,266.7419 L253.8585,268.0136 L254.9645,269.3604 L255.7433,270.4485 L256.9805,271.8989 L257.2199,271.9555 L257.493,275.1558 L258.4652,278.5215 L259.5228,281.9072 L260.084,285.1757 L260.9063,288.5059 L260.9362,288.5104 L261.2277,290.7228 L261.6556,292.9558 L262.0177,295.1789 L262.5054,297.4209 L262.5835,299.6011 L262.8794,299.638 L263.1921,302.1152 L263.314,304.5686 L263.7152,307.0568 L264.1295,309.5467 L264.1289,311.9848 L263.8102,311.9508 L265.003,317.3997 L265.1463,322.7367 L266.0875,328.1588 L266.207,333.4933 L267,338.8996 L266.9697,338.8963 L267.902,344.3175 L268.1269,349.6632 L268.7692,355.0534 L269.4465,360.4474 L269.8711,365.8144 L270.0547,365.8373 L270.1785,368.2909 L270.6159,370.7836 L270.5459,373.213 L271.2328,375.7369 L271.4165,378.198 L271.6574,378.2344 L271.9473,380.4466 L272.3568,382.6768 L272.2106,384.823 L272.4717,387.0309 L273.0938,389.2932 L272.825,389.2297 L273.8534,392.6086 L274.5791,395.9159 L275.7439,399.3271 L276.1588,402.561 L277.0195,405.9002 L276.8999,405.8057 L278.0952,407.223 L278.7792,408.2361 L279.8268,409.5367 L281.2302,411.1185 L282,412.1994 L282,412.5867 L284,412.8523 L286,411.9134 L288,412.4832 L290,412.7242 L292,412.1994 " fill="none" style="stroke: #383838; stroke-width: 1.0;"/><polygon fill="#F8F8F8" filter="url(#fwajhenawo1d6)" points="304.5,450.5994,304.5,450.6695,305.3,450.4613,306.1,450.6638,306.9,450.7326,307.7,450.3616,308.5,450.5994,308.4901,450.5755,310.2134,451.2003,311.9866,451.9458,313.7946,452.7751,315.4829,453.3154,317.3388,454.2606,317.5093,454.3312,317.877,455.9479,318.7424,457.7709,319.6686,459.619,320.2414,461.3207,321,463.0994,321.0227,463.0994,320.9894,465.4594,321.0595,467.8194,321.0797,470.1794,321.1952,472.5393,321,474.8993,321.2067,474.9849,320.477,476.7537,319.6139,478.4673,318.9461,480.2618,318.2873,482.06,317.3388,483.7382,317.2468,483.5161,315.6576,484.6793,313.7655,485.1113,312.1036,486.0992,310.2046,486.5146,308.5,487.3993,308.5,487.3765,307.7,487.6465,306.9,487.3831,306.1,487.4344,305.3,487.5122,304.5,487.3993,304.5531,487.5275,302.7317,486.6659,301.0011,486.0233,299.1237,485.0263,297.4652,484.558,295.6612,483.7382,295.83,483.8081,295.0658,482.0271,294.3855,480.2808,293.3157,478.3732,292.5314,476.5839,292,474.8993,291.7929,474.8993,291.9804,472.5393,291.9345,470.1794,292.2271,467.8194,291.9418,465.4594,292,463.0994,291.8944,463.0556,292.8025,461.3607,293.2591,459.4788,294.0368,457.7299,295.1288,456.1111,295.6612,454.2606,295.7167,454.3947,297.5226,453.7545,299.1557,452.697,301.0052,452.1622,302.8075,451.5135,304.5,450.5994" style="stroke: #383838; stroke-width: 1.5;"/><text fill="#000000" font-family="Panton" font-size="14" lengthAdjust="spacingAndGlyphs" textLength="9" x="302" y="473.7593">...</text><path d="M242,265.5997 L242,265.7865 L244,265.2314 L246,265.7715 L248,265.9549 L250,264.9655 L252,265.5997 L252,265.5997 L251.97,265.5826 L252.8314,267.2538 L253.8441,269.0112 L254.962,270.8286 L255.7174,272.4394 L256.9805,274.3395 L257.2214,274.3893 L257.1207,276.289 L257.7235,278.3341 L258.4121,280.3969 L258.6013,282.3565 L259.0532,284.3704 L259.0832,284.3747 L259.4098,286.9705 L259.873,289.5858 L260.2703,292.1917 L260.7934,294.8155 L260.9063,297.3809 L261.2027,297.4132 L261.5418,300.4924 L261.6897,303.5507 L262.1174,306.6396 L262.5583,309.7299 L262.5835,312.7749 L262.2643,312.7462 L263.1929,316.2382 L263.0704,319.6358 L263.747,323.1052 L263.6007,326.5006 L264.1289,329.9566 L264.0986,329.9543 L265.0318,337.4505 L265.2557,344.8921 L265.8982,352.3659 L266.5758,359.8425 L267,367.2995 L267.1844,367.3137 L267.5725,374.768 L268.2757,382.2465 L268.469,389.6858 L269.4229,397.1835 L269.8711,404.6424 L270.1138,404.6643 L270.377,408.0965 L270.7606,411.5395 L270.5845,414.9322 L270.8187,418.3618 L271.4165,421.8241 L271.142,421.7942 L271.7259,424.9001 L272.0006,427.9723 L272.7239,431.0934 L272.6811,434.1309 L273.0938,437.2182 L272.9428,437.1967 L273.5648,439.8345 L273.5415,442.3805 L273.9771,444.9919 L274.8617,447.6672 L274.9468,450.2286 L275.1364,450.2678 L275.681,452.3008 L275.6358,454.212 L276.3294,456.2759 L276.862,458.3064 L277.0195,460.2595 L276.8371,460.1556 L277.9786,461.9864 L279.0604,463.7832 L280.2595,465.6468 L281.0023,467.2505 L282,468.9994 L282,469.4105 L284,468.5071 L286,468.3974 L288,469.447 L290,468.3621 L292,468.9994 " fill="none" style="stroke: #383838; stroke-width: 1.0;"/><path d="M102,253.6997 L102,253.8865 L104,253.3314 L106,253.8715 L108,254.0549 L110,253.0655 L112,253.6997 L112,253.6997 L111.9873,253.6676 L114.9301,254.7135 L117.9372,255.9212 L120.9888,257.2415 L123.8867,258.174 L127,259.6497 L127.0907,259.8784 L129.8967,260.5793 L132.9676,261.948 L136.0708,263.3981 L138.9859,264.3742 L142,265.5997 L142,265.6603 L144,265.5713 L146,265.7584 L148,265.8122 L150,266.1203 L152,265.5997 " fill="none" style="stroke: #383838; stroke-width: 1.0;"/><!--MD5=[a9f03ce3c492af2b9542ec8eb7f2f4e4]
@startmindmap
skinparam monochrome true
skinparam handwritten true
skinparam DefaultFontSize 30
skinparam DefaultFontName Panton
+ TensorFlow\n Distributed\n Execution\n Engine
++ C++ API
++ Java API
++ Go API
++ ...
++ Python API
+++  <b>tensors</b> + <b>gradients</b>
+++  extended maths
+++  <b>I/O</b> and <b>preprocessing</b>
++++_ <b>tf.data</b>
++++_ tf.image
++++_ tf.strings
++++_ ...
+++  low-level deep learning
++++_ tf.nn
++++_ tf.rnn
++++_ tf.train
+++  <b>high-level</b> <b>deep</b> <b>learning</b>
++++_ <b>tf.keras</b>
++++_ <b>tf.estimator</b>
++++_ tf.feature_column
+++  <b>deployment</b>
+++  visualization
+++  ...
@endmindmap

PlantUML version 1.2019.13(Tue Dec 10 18:18:29 CET 2019)
(GPL source distribution)
Java Runtime: OpenJDK Runtime Environment
JVM: OpenJDK 64-Bit Server VM
Java Version: 11.0.5+10-suse-2.1-x8664
Operating System: Linux
Default Encoding: UTF-8
Language: en
Country: US
--></g></svg>