<?xml version="1.0" encoding="UTF-8" standalone="no"?>
<!DOCTYPE svg PUBLIC "-//W3C//DTD SVG 1.1//EN"
 "http://www.w3.org/Graphics/SVG/1.1/DTD/svg11.dtd">
<!-- Generated by graphviz version 2.42.1 (0)
 -->
<!-- Title: loss Pages: 1 -->
<svg width="867pt" height="377pt"
 viewBox="0.00 0.00 867.11 377.11" xmlns="http://www.w3.org/2000/svg" xmlns:xlink="http://www.w3.org/1999/xlink">
<g id="graph0" class="graph" transform="scale(1 1) rotate(0) translate(4 373.11)">
<title>loss</title>
<polygon fill="white" stroke="transparent" points="-4,4 -4,-373.11 863.11,-373.11 863.11,4 -4,4"/>
<!-- digit -->
<g id="node1" class="node">
<title>digit</title>
<ellipse fill="none" stroke="#536366" cx="245.37" cy="-184.55" rx="245.23" ry="184.61"/>
<image xlink:href="digit_0.svg" width="461px" height="346px" preserveAspectRatio="xMinYMin meet" x="14.8661" y="-357.555"/>
</g>
<!-- model -->
<g id="node2" class="node">
<title>model</title>
<ellipse fill="none" stroke="#536366" cx="611.87" cy="-184.55" rx="85.29" ry="18"/>
<text text-anchor="middle" x="611.87" y="-180.85" font-family="Times,serif" font-size="14.00" fill="#536366">our fancy model</text>
</g>
<!-- digit&#45;&gt;model -->
<g id="edge1" class="edge">
<title>digit&#45;&gt;model</title>
<path fill="none" stroke="#536366" d="M490.76,-184.55C499.5,-184.55 508.02,-184.55 516.24,-184.55"/>
<polygon fill="#536366" stroke="#536366" points="516.46,-188.05 526.46,-184.55 516.46,-181.05 516.46,-188.05"/>
</g>
<!-- predictions -->
<g id="node3" class="node">
<title>predictions</title>
<ellipse fill="none" stroke="#536366" cx="796.06" cy="-184.55" rx="63.09" ry="18"/>
<text text-anchor="middle" x="796.06" y="-180.85" font-family="Times,serif" font-size="14.00" fill="#536366">predictions</text>
</g>
<!-- model&#45;&gt;predictions -->
<g id="edge2" class="edge">
<title>model&#45;&gt;predictions</title>
<path fill="none" stroke="#536366" d="M697.04,-184.55C705.59,-184.55 714.22,-184.55 722.63,-184.55"/>
<polygon fill="#536366" stroke="#536366" points="722.76,-188.05 732.76,-184.55 722.76,-181.05 722.76,-188.05"/>
</g>
</g>
</svg>
