<?xml version="1.0" encoding="UTF-8" standalone="no"?>
<!DOCTYPE svg PUBLIC "-//W3C//DTD SVG 1.1//EN"
 "http://www.w3.org/Graphics/SVG/1.1/DTD/svg11.dtd">
<!-- Generated by graphviz version 2.42.1 (0)
 -->
<!-- Title: stack Pages: 1 -->
<svg width="367pt" height="565pt"
 viewBox="0.00 0.00 367.00 565.00" xmlns="http://www.w3.org/2000/svg" xmlns:xlink="http://www.w3.org/1999/xlink">
<g id="graph0" class="graph" transform="scale(1 1) rotate(0) translate(4 561)">
<title>stack</title>
<polygon fill="white" stroke="transparent" points="-4,4 -4,-561 363,-561 363,4 -4,4"/>
<!-- image_1 -->
<g id="node1" class="node">
<title>image_1</title>
<text text-anchor="middle" x="42" y="-14.2" font-family="Panton" font-size="16.00" fill="#606060">image_1</text>
</g>
<!-- image_2 -->
<g id="node2" class="node">
<title>image_2</title>
<text text-anchor="middle" x="42" y="-68.2" font-family="Panton" font-size="16.00" fill="#606060">image_2</text>
</g>
<!-- probs_1 -->
<g id="node3" class="node">
<title>probs_1</title>
<text text-anchor="middle" x="42" y="-122.2" font-family="Panton" font-size="16.00" fill="#606060">probs_1</text>
</g>
<!-- probs_2 -->
<g id="node4" class="node">
<title>probs_2</title>
<text text-anchor="middle" x="42" y="-176.2" font-family="Panton" font-size="16.00" fill="#606060">probs_2</text>
</g>
<!-- prediction -->
<g id="node5" class="node">
<title>prediction</title>
<text text-anchor="middle" x="42" y="-230.2" font-family="Panton" font-size="16.00" fill="#606060">prediction</text>
</g>
<!-- classifier_1 -->
<g id="node6" class="node">
<title>classifier_1</title>
<polygon fill="none" stroke="#606060" points="81,-306 3,-306 3,-270 81,-270 81,-306"/>
<text text-anchor="middle" x="42" y="-284.2" font-family="Panton" font-size="16.00" fill="#606060">classifier</text>
</g>
<!-- classifier_2 -->
<g id="node7" class="node">
<title>classifier_2</title>
<polygon fill="none" stroke="#606060" points="81,-360 3,-360 3,-324 81,-324 81,-360"/>
<text text-anchor="middle" x="42" y="-338.2" font-family="Panton" font-size="16.00" fill="#606060">classifier</text>
</g>
<!-- merger -->
<g id="node8" class="node">
<title>merger</title>
<polygon fill="none" stroke="#606060" points="71.5,-422 12.5,-422 12.5,-378 71.5,-378 71.5,-422"/>
<text text-anchor="middle" x="42" y="-405.2" font-family="Panton" font-size="16.00" fill="#606060">dense</text>
<text text-anchor="middle" x="42" y="-387.2" font-family="Panton" font-size="16.00" fill="#606060">layer</text>
</g>
<!-- x1 -->
<g id="node9" class="node">
<title>x1</title>
<polygon fill="none" stroke="#606060" points="69,-530 15,-530 15,-494 69,-494 69,-530"/>
<text text-anchor="middle" x="42" y="-508.2" font-family="Panton" font-size="16.00" fill="#606060">x1</text>
</g>
<!-- cnn1 -->
<g id="node10" class="node">
<title>cnn1</title>
<polygon fill="none" stroke="#606060" points="174,-530 120,-530 120,-494 174,-494 174,-530"/>
<text text-anchor="middle" x="147" y="-508.2" font-family="Panton" font-size="16.00" fill="#606060">cnn1</text>
</g>
<!-- x1&#45;&gt;cnn1 -->
<g id="edge1" class="edge">
<title>x1&#45;&gt;cnn1</title>
<path fill="none" stroke="#606060" d="M69.26,-512C81.49,-512 96.24,-512 109.52,-512"/>
<polygon fill="#606060" stroke="#606060" points="109.79,-515.5 119.79,-512 109.79,-508.5 109.79,-515.5"/>
</g>
<!-- dense -->
<g id="node11" class="node">
<title>dense</title>
<polygon fill="none" stroke="#606060" points="269,-503 210,-503 210,-467 269,-467 269,-503"/>
<text text-anchor="middle" x="239.5" y="-481.2" font-family="Panton" font-size="16.00" fill="#606060">dense</text>
</g>
<!-- cnn1&#45;&gt;dense -->
<g id="edge2" class="edge">
<title>cnn1&#45;&gt;dense</title>
<path fill="none" stroke="#606060" d="M174.18,-504.19C182.29,-501.77 191.41,-499.05 200.18,-496.43"/>
<polygon fill="#606060" stroke="#606060" points="201.27,-499.76 209.85,-493.55 199.26,-493.05 201.27,-499.76"/>
</g>
<!-- y1 -->
<g id="node14" class="node">
<title>y1</title>
<polygon fill="none" stroke="#606060" points="359,-557 305,-557 305,-521 359,-521 359,-557"/>
<text text-anchor="middle" x="332" y="-535.2" font-family="Panton" font-size="16.00" fill="#606060">y1</text>
</g>
<!-- dense&#45;&gt;y1 -->
<g id="edge5" class="edge">
<title>dense&#45;&gt;y1</title>
<path fill="none" stroke="#606060" d="M269.13,-502.09C277.68,-507.18 287.14,-512.83 296.04,-518.14"/>
<polygon fill="#606060" stroke="#606060" points="294.32,-521.19 304.7,-523.31 297.91,-515.18 294.32,-521.19"/>
</g>
<!-- y2 -->
<g id="node15" class="node">
<title>y2</title>
<polygon fill="none" stroke="#606060" points="359,-503 305,-503 305,-467 359,-467 359,-503"/>
<text text-anchor="middle" x="332" y="-481.2" font-family="Panton" font-size="16.00" fill="#606060">y2</text>
</g>
<!-- dense&#45;&gt;y2 -->
<g id="edge6" class="edge">
<title>dense&#45;&gt;y2</title>
<path fill="none" stroke="#606060" d="M269.13,-485C277.23,-485 286.16,-485 294.65,-485"/>
<polygon fill="#606060" stroke="#606060" points="294.7,-488.5 304.7,-485 294.7,-481.5 294.7,-488.5"/>
</g>
<!-- y3 -->
<g id="node16" class="node">
<title>y3</title>
<polygon fill="none" stroke="#606060" points="359,-449 305,-449 305,-413 359,-413 359,-449"/>
<text text-anchor="middle" x="332" y="-427.2" font-family="Panton" font-size="16.00" fill="#606060">y3</text>
</g>
<!-- dense&#45;&gt;y3 -->
<g id="edge7" class="edge">
<title>dense&#45;&gt;y3</title>
<path fill="none" stroke="#606060" d="M269.13,-467.91C277.68,-462.82 287.14,-457.17 296.04,-451.86"/>
<polygon fill="#606060" stroke="#606060" points="297.91,-454.82 304.7,-446.69 294.32,-448.81 297.91,-454.82"/>
</g>
<!-- x2 -->
<g id="node12" class="node">
<title>x2</title>
<polygon fill="none" stroke="#606060" points="69,-476 15,-476 15,-440 69,-440 69,-476"/>
<text text-anchor="middle" x="42" y="-454.2" font-family="Panton" font-size="16.00" fill="#606060">x2</text>
</g>
<!-- cnn2 -->
<g id="node13" class="node">
<title>cnn2</title>
<polygon fill="none" stroke="#606060" points="174,-476 120,-476 120,-440 174,-440 174,-476"/>
<text text-anchor="middle" x="147" y="-454.2" font-family="Panton" font-size="16.00" fill="#606060">cnn2</text>
</g>
<!-- x2&#45;&gt;cnn2 -->
<g id="edge3" class="edge">
<title>x2&#45;&gt;cnn2</title>
<path fill="none" stroke="#606060" d="M69.26,-458C81.49,-458 96.24,-458 109.52,-458"/>
<polygon fill="#606060" stroke="#606060" points="109.79,-461.5 119.79,-458 109.79,-454.5 109.79,-461.5"/>
</g>
<!-- cnn2&#45;&gt;dense -->
<g id="edge4" class="edge">
<title>cnn2&#45;&gt;dense</title>
<path fill="none" stroke="#606060" d="M174.18,-465.81C182.29,-468.23 191.41,-470.95 200.18,-473.57"/>
<polygon fill="#606060" stroke="#606060" points="199.26,-476.95 209.85,-476.45 201.27,-470.24 199.26,-476.95"/>
</g>
</g>
</svg>
