<?xml version="1.0" encoding="UTF-8" standalone="no"?>
<!DOCTYPE svg PUBLIC "-//W3C//DTD SVG 1.1//EN"
 "http://www.w3.org/Graphics/SVG/1.1/DTD/svg11.dtd">
<!-- Generated by graphviz version 2.42.1 (0)
 -->
<!-- Title: test Pages: 1 -->
<svg width="182pt" height="356pt"
 viewBox="0.00 0.00 182.00 356.17" xmlns="http://www.w3.org/2000/svg" xmlns:xlink="http://www.w3.org/1999/xlink">
<g id="graph0" class="graph" transform="scale(1 1) rotate(0) translate(4 352.17)">
<title>test</title>
<polygon fill="white" stroke="transparent" points="-4,4 -4,-352.17 178,-352.17 178,4 -4,4"/>
<!-- x -->
<g id="node1" class="node">
<title>x</title>
<polygon fill="none" stroke="black" points="54,-348.17 0,-348.17 0,-312.17 54,-312.17 54,-348.17"/>
<text text-anchor="middle" x="27" y="-323.97" font-family="Panton" font-size="24.00">x</text>
</g>
<!-- mult -->
<g id="node6" class="node">
<title>mult</title>
<ellipse fill="lightgray" stroke="lightgray" cx="67" cy="-252.12" rx="44.6" ry="24.08"/>
<text text-anchor="middle" x="67" y="-245.92" font-family="Panton" font-size="24.00">mult</text>
</g>
<!-- x&#45;&gt;mult -->
<g id="edge1" class="edge">
<title>x&#45;&gt;mult</title>
<path fill="none" stroke="black" d="M36.08,-311.91C40.33,-303.83 45.53,-293.94 50.45,-284.59"/>
<polygon fill="black" stroke="black" points="53.67,-285.99 55.22,-275.51 47.47,-282.73 53.67,-285.99"/>
</g>
<!-- alpha -->
<g id="node2" class="node">
<title>alpha</title>
<polygon fill="none" stroke="black" points="144,-348.17 72,-348.17 72,-312.17 144,-312.17 144,-348.17"/>
<text text-anchor="middle" x="108" y="-323.97" font-family="Panton" font-size="24.00">alpha</text>
</g>
<!-- alpha&#45;&gt;mult -->
<g id="edge2" class="edge">
<title>alpha&#45;&gt;mult</title>
<path fill="none" stroke="black" d="M98.7,-311.91C94.34,-303.83 89,-293.94 83.96,-284.59"/>
<polygon fill="black" stroke="black" points="86.9,-282.65 79.07,-275.51 80.74,-285.97 86.9,-282.65"/>
</g>
<!-- p -->
<g id="node3" class="node">
<title>p</title>
<polygon fill="none" stroke="black" points="94,-192.08 40,-192.08 40,-156.08 94,-156.08 94,-192.08"/>
<text text-anchor="middle" x="67" y="-167.88" font-family="Panton" font-size="24.00">p</text>
</g>
<!-- add -->
<g id="node7" class="node">
<title>add</title>
<ellipse fill="lightgray" stroke="lightgray" cx="105" cy="-96.04" rx="38.37" ry="24.08"/>
<text text-anchor="middle" x="105" y="-89.84" font-family="Panton" font-size="24.00">add</text>
</g>
<!-- p&#45;&gt;add -->
<g id="edge4" class="edge">
<title>p&#45;&gt;add</title>
<path fill="none" stroke="black" d="M75.62,-155.83C79.7,-147.68 84.69,-137.69 89.39,-128.28"/>
<polygon fill="black" stroke="black" points="92.62,-129.65 93.95,-119.14 86.35,-126.53 92.62,-129.65"/>
</g>
<!-- beta -->
<g id="node4" class="node">
<title>beta</title>
<polygon fill="none" stroke="black" points="174,-192.08 112,-192.08 112,-156.08 174,-156.08 174,-192.08"/>
<text text-anchor="middle" x="143" y="-167.88" font-family="Panton" font-size="24.00">beta</text>
</g>
<!-- beta&#45;&gt;add -->
<g id="edge5" class="edge">
<title>beta&#45;&gt;add</title>
<path fill="none" stroke="black" d="M134.38,-155.83C130.3,-147.68 125.31,-137.69 120.61,-128.28"/>
<polygon fill="black" stroke="black" points="123.65,-126.53 116.05,-119.14 117.38,-129.65 123.65,-126.53"/>
</g>
<!-- y -->
<g id="node5" class="node">
<title>y</title>
<polygon fill="none" stroke="black" points="132,-36 78,-36 78,0 132,0 132,-36"/>
<text text-anchor="middle" x="105" y="-11.8" font-family="Panton" font-size="24.00">y</text>
</g>
<!-- mult&#45;&gt;p -->
<g id="edge3" class="edge">
<title>mult&#45;&gt;p</title>
<path fill="none" stroke="black" d="M67,-227.9C67,-219.79 67,-210.62 67,-202.22"/>
<polygon fill="black" stroke="black" points="70.5,-202.14 67,-192.14 63.5,-202.14 70.5,-202.14"/>
</g>
<!-- add&#45;&gt;y -->
<g id="edge6" class="edge">
<title>add&#45;&gt;y</title>
<path fill="none" stroke="black" d="M105,-71.81C105,-63.71 105,-54.54 105,-46.14"/>
<polygon fill="black" stroke="black" points="108.5,-46.05 105,-36.05 101.5,-46.05 108.5,-46.05"/>
</g>
</g>
</svg>
