<?xml version="1.0" encoding="UTF-8" standalone="no"?>
<!DOCTYPE svg PUBLIC "-//W3C//DTD SVG 1.1//EN"
 "http://www.w3.org/Graphics/SVG/1.1/DTD/svg11.dtd">
<!-- Generated by graphviz version 2.42.1 (0)
 -->
<!-- Title: match Pages: 1 -->
<svg width="490pt" height="114pt"
 viewBox="0.00 0.00 490.35 114.00" xmlns="http://www.w3.org/2000/svg" xmlns:xlink="http://www.w3.org/1999/xlink">
<g id="graph0" class="graph" transform="scale(1 1) rotate(0) translate(4 110)">
<title>match</title>
<polygon fill="white" stroke="transparent" points="-4,4 -4,-110 486.35,-110 486.35,4 -4,4"/>
<!-- digit1 -->
<g id="node1" class="node">
<title>digit1</title>
<text text-anchor="middle" x="27" y="-89.2" font-family="Panton" font-size="16.00" fill="#536366">first</text>
<text text-anchor="middle" x="27" y="-71.2" font-family="Panton" font-size="16.00" fill="#536366">digit</text>
</g>
<!-- model1 -->
<g id="node3" class="node">
<title>model1</title>
<ellipse fill="none" stroke="#536366" cx="163.54" cy="-82" rx="73.58" ry="18.27"/>
<text text-anchor="middle" x="163.54" y="-78.2" font-family="Panton" font-size="16.00" fill="#536366">our classifier</text>
</g>
<!-- digit1&#45;&gt;model1 -->
<g id="edge1" class="edge">
<title>digit1&#45;&gt;model1</title>
<path fill="none" stroke="#536366" d="M54.26,-83.61C61.9,-83.5 70.68,-83.37 79.86,-83.23"/>
<polygon fill="#536366" stroke="#536366" points="80,-86.73 89.95,-83.08 79.9,-79.73 80,-86.73"/>
</g>
<!-- digit2 -->
<g id="node2" class="node">
<title>digit2</title>
<text text-anchor="middle" x="27" y="-27.2" font-family="Panton" font-size="16.00" fill="#536366">first</text>
<text text-anchor="middle" x="27" y="-9.2" font-family="Panton" font-size="16.00" fill="#536366">digit</text>
</g>
<!-- model2 -->
<g id="node4" class="node">
<title>model2</title>
<ellipse fill="none" stroke="#536366" cx="163.54" cy="-25" rx="73.58" ry="18.27"/>
<text text-anchor="middle" x="163.54" y="-21.2" font-family="Panton" font-size="16.00" fill="#536366">our classifier</text>
</g>
<!-- digit2&#45;&gt;model2 -->
<g id="edge4" class="edge">
<title>digit2&#45;&gt;model2</title>
<path fill="none" stroke="#536366" d="M54.26,-22.59C61.95,-22.76 70.8,-22.95 80.06,-23.16"/>
<polygon fill="#536366" stroke="#536366" points="80.15,-26.66 90.23,-23.39 80.31,-19.67 80.15,-26.66"/>
</g>
<!-- merge -->
<g id="node5" class="node">
<title>merge</title>
<ellipse fill="none" stroke="#00ade2" cx="316.21" cy="-52" rx="43.27" ry="18.27"/>
<text text-anchor="middle" x="316.21" y="-48.2" font-family="Panton bold" font-size="16.00" fill="#00ade2">merge</text>
</g>
<!-- model1&#45;&gt;merge -->
<g id="edge2" class="edge">
<title>model1&#45;&gt;merge</title>
<path fill="none" stroke="#536366" d="M221.5,-70.66C236.39,-67.69 252.3,-64.53 266.7,-61.66"/>
<polygon fill="#536366" stroke="#536366" points="267.76,-65.02 276.88,-59.63 266.39,-58.15 267.76,-65.02"/>
</g>
<!-- model2&#45;&gt;merge -->
<g id="edge5" class="edge">
<title>model2&#45;&gt;merge</title>
<path fill="none" stroke="#536366" d="M223.66,-35.59C237.72,-38.11 252.57,-40.77 266.12,-43.2"/>
<polygon fill="#536366" stroke="#536366" points="265.74,-46.69 276.2,-45.01 266.97,-39.8 265.74,-46.69"/>
</g>
<!-- output -->
<g id="node6" class="node">
<title>output</title>
<text text-anchor="middle" x="438.85" y="-57.2" font-family="Panton" font-size="16.00" fill="#536366">matching</text>
<text text-anchor="middle" x="438.85" y="-39.2" font-family="Panton" font-size="16.00" fill="#536366">probability</text>
</g>
<!-- merge&#45;&gt;output -->
<g id="edge3" class="edge">
<title>merge&#45;&gt;output</title>
<path fill="none" stroke="#536366" d="M359.4,-52C367.62,-52 376.32,-52 384.83,-52"/>
<polygon fill="#536366" stroke="#536366" points="385.07,-55.5 395.06,-52 385.06,-48.5 385.07,-55.5"/>
</g>
</g>
</svg>
