<?xml version="1.0" encoding="UTF-8" standalone="no"?>
<!DOCTYPE svg PUBLIC "-//W3C//DTD SVG 1.1//EN"
 "http://www.w3.org/Graphics/SVG/1.1/DTD/svg11.dtd">
<!-- Generated by graphviz version 2.42.1 (0)
 -->
<!-- Title: match Pages: 1 -->
<svg width="1139pt" height="206pt"
 viewBox="0.00 0.00 1138.65 206.00" xmlns="http://www.w3.org/2000/svg" xmlns:xlink="http://www.w3.org/1999/xlink">
<g id="graph0" class="graph" transform="scale(1 1) rotate(0) translate(4 202)">
<title>match</title>
<polygon fill="white" stroke="transparent" points="-4,4 -4,-202 1134.65,-202 1134.65,4 -4,4"/>
<!-- StatisticsGen -->
<g id="node1" class="node">
<title>StatisticsGen</title>
<ellipse fill="none" stroke="#00aed2" cx="242.99" cy="-126" rx="64.99" ry="18"/>
<text text-anchor="middle" x="242.99" y="-122.3" font-family="Panton bold" font-size="14.00" fill="#00aed2">StatisticsGen</text>
</g>
<!-- ExampleGen -->
<g id="node2" class="node">
<title>ExampleGen</title>
<ellipse fill="none" stroke="#00aed2" cx="242.99" cy="-72" rx="59.59" ry="18"/>
<text text-anchor="middle" x="242.99" y="-68.3" font-family="Panton bold" font-size="14.00" fill="#00aed2">ExampleGen</text>
</g>
<!-- StatisticsGen&#45;&gt;ExampleGen -->
<g id="edge2" class="edge">
<title>StatisticsGen&#45;&gt;ExampleGen</title>
<path fill="none" stroke="#606060" d="M242.99,-97.59C242.99,-95.1 242.99,-92.62 242.99,-90.14"/>
<polygon fill="#606060" stroke="#606060" points="239.49,-97.79 242.99,-107.79 246.49,-97.79 239.49,-97.79"/>
</g>
<!-- ExampleValidator -->
<g id="node3" class="node">
<title>ExampleValidator</title>
<ellipse fill="none" stroke="#00aed2" cx="423.28" cy="-180" rx="79.09" ry="18"/>
<text text-anchor="middle" x="423.28" y="-176.3" font-family="Panton bold" font-size="14.00" fill="#00aed2">ExampleValidator</text>
</g>
<!-- StatisticsGen&#45;&gt;ExampleValidator -->
<g id="edge3" class="edge">
<title>StatisticsGen&#45;&gt;ExampleValidator</title>
<path fill="none" stroke="#606060" d="M287.61,-139.21C311,-146.29 340.1,-155.11 365.27,-162.73"/>
<polygon fill="#606060" stroke="#606060" points="364.47,-166.15 375.05,-165.7 366.5,-159.45 364.47,-166.15"/>
</g>
<!-- SchemaGen -->
<g id="node4" class="node">
<title>SchemaGen</title>
<ellipse fill="none" stroke="#00aed2" cx="423.28" cy="-126" rx="59.29" ry="18"/>
<text text-anchor="middle" x="423.28" y="-122.3" font-family="Panton bold" font-size="14.00" fill="#00aed2">SchemaGen</text>
</g>
<!-- StatisticsGen&#45;&gt;SchemaGen -->
<g id="edge4" class="edge">
<title>StatisticsGen&#45;&gt;SchemaGen</title>
<path fill="none" stroke="#606060" d="M308.11,-126C322.95,-126 338.8,-126 353.82,-126"/>
<polygon fill="#606060" stroke="#606060" points="354.07,-129.5 364.07,-126 354.07,-122.5 354.07,-129.5"/>
</g>
<!-- Transform -->
<g id="node5" class="node">
<title>Transform</title>
<ellipse fill="none" stroke="#00aed2" cx="423.28" cy="-72" rx="51.19" ry="18"/>
<text text-anchor="middle" x="423.28" y="-68.3" font-family="Panton bold" font-size="14.00" fill="#00aed2">Transform</text>
</g>
<!-- ExampleGen&#45;&gt;Transform -->
<g id="edge6" class="edge">
<title>ExampleGen&#45;&gt;Transform</title>
<path fill="none" stroke="#606060" d="M302.87,-72C321.78,-72 342.76,-72 361.79,-72"/>
<polygon fill="#606060" stroke="#606060" points="361.84,-75.5 371.84,-72 361.84,-68.5 361.84,-75.5"/>
</g>
<!-- ExampleValidator&#45;&gt;SchemaGen -->
<g id="edge5" class="edge">
<title>ExampleValidator&#45;&gt;SchemaGen</title>
<path fill="none" stroke="#606060" d="M423.28,-151.59C423.28,-149.1 423.28,-146.62 423.28,-144.14"/>
<polygon fill="#606060" stroke="#606060" points="419.78,-151.79 423.28,-161.79 426.78,-151.79 419.78,-151.79"/>
</g>
<!-- SchemaGen&#45;&gt;Transform -->
<g id="edge7" class="edge">
<title>SchemaGen&#45;&gt;Transform</title>
<path fill="none" stroke="#606060" d="M423.28,-107.79C423.28,-105.31 423.28,-102.83 423.28,-100.34"/>
<polygon fill="#606060" stroke="#606060" points="426.78,-100.14 423.28,-90.14 419.78,-100.14 426.78,-100.14"/>
</g>
<!-- Trainer -->
<g id="node6" class="node">
<title>Trainer</title>
<ellipse fill="none" stroke="#00aed2" cx="576.92" cy="-72" rx="38.19" ry="18"/>
<text text-anchor="middle" x="576.92" y="-68.3" font-family="Panton bold" font-size="14.00" fill="#00aed2">Trainer</text>
</g>
<!-- Transform&#45;&gt;Trainer -->
<g id="edge8" class="edge">
<title>Transform&#45;&gt;Trainer</title>
<path fill="none" stroke="#606060" d="M474.78,-72C491.9,-72 510.97,-72 527.9,-72"/>
<polygon fill="#606060" stroke="#606060" points="528.12,-75.5 538.12,-72 528.12,-68.5 528.12,-75.5"/>
</g>
<!-- Evaluator -->
<g id="node7" class="node">
<title>Evaluator</title>
<ellipse fill="none" stroke="#00aed2" cx="721.46" cy="-72" rx="48.19" ry="18"/>
<text text-anchor="middle" x="721.46" y="-68.3" font-family="Panton bold" font-size="14.00" fill="#00aed2">Evaluator</text>
</g>
<!-- Trainer&#45;&gt;Evaluator -->
<g id="edge9" class="edge">
<title>Trainer&#45;&gt;Evaluator</title>
<path fill="none" stroke="#606060" d="M615.37,-72C629.92,-72 646.91,-72 662.94,-72"/>
<polygon fill="#606060" stroke="#606060" points="663.3,-75.5 673.3,-72 663.3,-68.5 663.3,-75.5"/>
</g>
<!-- ModelValidator -->
<g id="node8" class="node">
<title>ModelValidator</title>
<ellipse fill="none" stroke="#00aed2" cx="721.46" cy="-18" rx="70.39" ry="18"/>
<text text-anchor="middle" x="721.46" y="-14.3" font-family="Panton bold" font-size="14.00" fill="#00aed2">ModelValidator</text>
</g>
<!-- Evaluator&#45;&gt;ModelValidator -->
<g id="edge10" class="edge">
<title>Evaluator&#45;&gt;ModelValidator</title>
<path fill="none" stroke="#606060" d="M721.46,-53.79C721.46,-51.31 721.46,-48.83 721.46,-46.34"/>
<polygon fill="#606060" stroke="#606060" points="724.96,-46.14 721.46,-36.14 717.96,-46.14 724.96,-46.14"/>
</g>
<!-- Pusher -->
<g id="node9" class="node">
<title>Pusher</title>
<ellipse fill="none" stroke="#00aed2" cx="866.65" cy="-18" rx="38.99" ry="18"/>
<text text-anchor="middle" x="866.65" y="-14.3" font-family="Panton bold" font-size="14.00" fill="#00aed2">Pusher</text>
</g>
<!-- ModelValidator&#45;&gt;Pusher -->
<g id="edge11" class="edge">
<title>ModelValidator&#45;&gt;Pusher</title>
<path fill="none" stroke="#606060" d="M791.96,-18C800.58,-18 809.23,-18 817.43,-18"/>
<polygon fill="#606060" stroke="#606060" points="817.53,-21.5 827.53,-18 817.53,-14.5 817.53,-21.5"/>
</g>
<!-- server -->
<g id="node11" class="node">
<title>server</title>
<text text-anchor="middle" x="1036.15" y="-14.2" font-family="Panton" font-size="16.00" fill="#606060">TF Serving/TF Lite/TF JS</text>
</g>
<!-- Pusher&#45;&gt;server -->
<g id="edge12" class="edge">
<title>Pusher&#45;&gt;server</title>
<path fill="none" stroke="#606060" d="M905.66,-18C913.51,-18 922.14,-18 931.1,-18"/>
<polygon fill="#606060" stroke="#606060" points="931.33,-21.5 941.33,-18 931.33,-14.5 931.33,-21.5"/>
</g>
<!-- data -->
<g id="node10" class="node">
<title>data</title>
<text text-anchor="middle" x="71" y="-77.2" font-family="Panton" font-size="16.00" fill="#606060">Training/Validation</text>
<text text-anchor="middle" x="71" y="-59.2" font-family="Panton" font-size="16.00" fill="#606060">Data</text>
</g>
<!-- data&#45;&gt;ExampleGen -->
<g id="edge1" class="edge">
<title>data&#45;&gt;ExampleGen</title>
<path fill="none" stroke="#606060" d="M142.12,-72C152.35,-72 162.86,-72 173.06,-72"/>
<polygon fill="#606060" stroke="#606060" points="173.13,-75.5 183.13,-72 173.13,-68.5 173.13,-75.5"/>
</g>
</g>
</svg>
