<?xml version="1.0" encoding="UTF-8" standalone="no"?>
<!DOCTYPE svg PUBLIC "-//W3C//DTD SVG 1.1//EN"
 "http://www.w3.org/Graphics/SVG/1.1/DTD/svg11.dtd">
<!-- Generated by graphviz version 2.42.1 (0)
 -->
<!-- Title: loss Pages: 1 -->
<svg width="867pt" height="432pt"
 viewBox="0.00 0.00 867.11 431.55" xmlns="http://www.w3.org/2000/svg" xmlns:xlink="http://www.w3.org/1999/xlink">
<g id="graph0" class="graph" transform="scale(1 1) rotate(0) translate(4 427.55)">
<title>loss</title>
<polygon fill="white" stroke="transparent" points="-4,4 -4,-427.55 863.11,-427.55 863.11,4 -4,4"/>
<!-- digit -->
<g id="node1" class="node">
<title>digit</title>
<ellipse fill="none" stroke="#536366" cx="245.37" cy="-18" rx="32.49" ry="18"/>
<text text-anchor="middle" x="245.37" y="-14.3" font-family="Times,serif" font-size="14.00" fill="#536366">digit</text>
</g>
<!-- model -->
<g id="node3" class="node">
<title>model</title>
<ellipse fill="none" stroke="#536366" cx="611.87" cy="-18" rx="85.29" ry="18"/>
<text text-anchor="middle" x="611.87" y="-14.3" font-family="Times,serif" font-size="14.00" fill="#536366">our fancy model</text>
</g>
<!-- digit&#45;&gt;model -->
<g id="edge1" class="edge">
<title>digit&#45;&gt;model</title>
<path fill="none" stroke="#536366" d="M278.08,-18C330.62,-18 437.74,-18 516.32,-18"/>
<polygon fill="#536366" stroke="#536366" points="516.72,-21.5 526.72,-18 516.72,-14.5 516.72,-21.5"/>
</g>
<!-- imgnode -->
<g id="node2" class="node">
<title>imgnode</title>
<ellipse fill="none" stroke="#536366" cx="245.37" cy="-239" rx="245.23" ry="184.61"/>
<image xlink:href="../img/digit_0.svg" width="461px" height="346px" preserveAspectRatio="xMinYMin meet" x="14.8661" y="-412"/>
</g>
<!-- predictions -->
<g id="node4" class="node">
<title>predictions</title>
<ellipse fill="none" stroke="#536366" cx="796.06" cy="-18" rx="63.09" ry="18"/>
<text text-anchor="middle" x="796.06" y="-14.3" font-family="Times,serif" font-size="14.00" fill="#536366">predictions</text>
</g>
<!-- model&#45;&gt;predictions -->
<g id="edge2" class="edge">
<title>model&#45;&gt;predictions</title>
<path fill="none" stroke="#536366" d="M697.04,-18C705.59,-18 714.22,-18 722.63,-18"/>
<polygon fill="#536366" stroke="#536366" points="722.76,-21.5 732.76,-18 722.76,-14.5 722.76,-21.5"/>
</g>
</g>
</svg>
