<?xml version="1.0" encoding="UTF-8" standalone="no"?>
<!DOCTYPE svg PUBLIC "-//W3C//DTD SVG 1.1//EN"
 "http://www.w3.org/Graphics/SVG/1.1/DTD/svg11.dtd">
<!-- Generated by graphviz version 2.42.1 (0)
 -->
<!-- Title: stack Pages: 1 -->
<svg width="641pt" height="60pt"
 viewBox="0.00 0.00 641.00 60.00" xmlns="http://www.w3.org/2000/svg" xmlns:xlink="http://www.w3.org/1999/xlink">
<g id="graph0" class="graph" transform="scale(1 1) rotate(0) translate(4 56)">
<title>stack</title>
<polygon fill="white" stroke="transparent" points="-4,4 -4,-56 637,-56 637,4 -4,4"/>
<!-- x -->
<g id="node1" class="node">
<title>x</title>
<text text-anchor="middle" x="27" y="-21" font-family="Panton" font-size="20.00">x</text>
</g>
<!-- cnn1 -->
<g id="node3" class="node">
<title>cnn1</title>
<polygon fill="none" stroke="black" points="222,-52 90,-52 90,0 222,0 222,-52"/>
<text text-anchor="middle" x="156" y="-32" font-family="Panton" font-size="20.00">convolutional</text>
<text text-anchor="middle" x="156" y="-10" font-family="Panton" font-size="20.00">layer 1</text>
</g>
<!-- x&#45;&gt;cnn1 -->
<g id="edge1" class="edge">
<title>x&#45;&gt;cnn1</title>
<path fill="none" stroke="black" d="M54.01,-26C61.73,-26 70.62,-26 79.84,-26"/>
<polygon fill="black" stroke="black" points="79.94,-29.5 89.94,-26 79.94,-22.5 79.94,-29.5"/>
</g>
<!-- y -->
<g id="node2" class="node">
<title>y</title>
<text text-anchor="middle" x="606" y="-21" font-family="Panton" font-size="20.00">y</text>
</g>
<!-- cnn2 -->
<g id="node4" class="node">
<title>cnn2</title>
<polygon fill="none" stroke="black" points="390,-52 258,-52 258,0 390,0 390,-52"/>
<text text-anchor="middle" x="324" y="-32" font-family="Panton" font-size="20.00">convolutional</text>
<text text-anchor="middle" x="324" y="-10" font-family="Panton" font-size="20.00">layer 2</text>
</g>
<!-- cnn1&#45;&gt;cnn2 -->
<g id="edge2" class="edge">
<title>cnn1&#45;&gt;cnn2</title>
<path fill="none" stroke="black" d="M222.13,-26C230.46,-26 239.04,-26 247.52,-26"/>
<polygon fill="black" stroke="black" points="247.78,-29.5 257.78,-26 247.78,-22.5 247.78,-29.5"/>
</g>
<!-- dense -->
<g id="node5" class="node">
<title>dense</title>
<polygon fill="none" stroke="black" points="543,-44 426,-44 426,-8 543,-8 543,-44"/>
<text text-anchor="middle" x="484.5" y="-21" font-family="Panton" font-size="20.00">dense layer</text>
</g>
<!-- cnn2&#45;&gt;dense -->
<g id="edge3" class="edge">
<title>cnn2&#45;&gt;dense</title>
<path fill="none" stroke="black" d="M390.38,-26C398.75,-26 407.33,-26 415.73,-26"/>
<polygon fill="black" stroke="black" points="415.87,-29.5 425.87,-26 415.87,-22.5 415.87,-29.5"/>
</g>
<!-- dense&#45;&gt;y -->
<g id="edge4" class="edge">
<title>dense&#45;&gt;y</title>
<path fill="none" stroke="black" d="M543.15,-26C551.86,-26 560.64,-26 568.73,-26"/>
<polygon fill="black" stroke="black" points="568.91,-29.5 578.91,-26 568.91,-22.5 568.91,-29.5"/>
</g>
</g>
</svg>
