<?xml version="1.0" encoding="UTF-8" standalone="no"?><svg xmlns="http://www.w3.org/2000/svg" xmlns:xlink="http://www.w3.org/1999/xlink" contentScriptType="application/ecmascript" contentStyleType="text/css" height="509px" preserveAspectRatio="none" style="width:957px;height:509px;" version="1.1" viewBox="0 0 957 509" width="957px" zoomAndPan="magnify"><defs/><g><polygon fill="#F4F4F4" points="379,4,379,4.2102,388.9375,3.5857,398.875,4.1933,408.8125,4.3997,418.75,3.2866,428.6875,3.9223,438.625,3.5735,448.5625,3.6165,458.5,3.9318,468.4375,3.3086,478.375,4.5536,488.3125,3.3697,498.25,3.8022,508.1875,4.4319,518.125,3.9142,528.0625,4.0682,538,3.9681,547.9375,4.1785,557.875,4.2391,567.8125,4.5857,577.75,4.6711,587.6875,4.6793,597.625,4.2546,607.5625,4.4636,617.5,4,618.2022,4,616.7788,14.102,618.1785,24.2041,617.2035,34.3061,618.0338,44.4081,617.005,54.5102,617.4315,64.6122,618.2416,74.7142,617.4513,84.8163,617.6053,94.9183,617.8386,105.0204,617.9162,115.1224,617.4961,125.2244,617.7872,135.3265,616.9276,145.4285,617.7844,155.5305,618.0482,165.6326,617.9445,175.7346,618.113,185.8366,617.0169,195.9387,616.8478,206.0407,616.8786,216.1427,617.4411,226.2448,617.3035,236.3468,618.1814,246.4489,617.3253,256.5509,617.1569,266.6529,617.7283,276.755,616.8332,286.857,616.9809,296.959,618.149,307.0611,617.9357,317.1631,618.2345,327.2651,617.1782,337.3672,617.8192,347.4692,618.0904,357.5712,617.0276,367.6733,617.4041,377.7753,617.626,387.8774,618.1518,397.9794,617.4958,408.0814,617.9626,418.1835,616.9462,428.2855,616.8227,438.3875,618.0036,448.4896,616.7831,458.5916,618.009,468.6936,617.7066,478.7957,617.2321,488.8977,617.5,498.9997,617.5,498.646,607.5625,499.4585,597.625,498.7004,587.6875,499.5916,577.75,498.447,567.8125,499.6172,557.875,499.4841,547.9375,499.2447,538,499.047,528.0625,499.7264,518.125,499.6133,508.1875,499.169,498.25,499.2679,488.3125,498.8695,478.375,499.7162,468.4375,499.1546,458.5,499.1723,448.5625,498.3914,438.625,498.5945,428.6875,499.5305,418.75,499.4295,408.8125,498.9568,398.875,498.6776,388.9375,498.7808,379,498.9997,378.3138,498.9997,379.4147,488.8977,379.7396,478.7957,379.5264,468.6936,379.6949,458.5916,378.8633,448.4896,379.0872,438.3875,378.6124,428.2855,379.284,418.1835,379.2468,408.0814,379.5524,397.9794,378.7703,387.8774,378.8656,377.7753,379.4435,367.6733,379.5673,357.5712,378.4875,347.4692,378.8061,337.3672,379.1493,327.2651,378.3892,317.1631,379.3534,307.0611,379.258,296.959,378.8992,286.857,379.1422,276.755,379.7287,266.6529,378.6871,256.5509,379.315,246.4489,379.2856,236.3468,379.1158,226.2448,379.1409,216.1427,379.1135,206.0407,378.3758,195.9387,378.5992,185.8366,378.5385,175.7346,379.0638,165.6326,379.0881,155.5305,379.1617,145.4285,378.709,135.3265,378.9325,125.2244,378.8798,115.1224,379.5769,105.0204,379.4266,94.9183,378.5145,84.8163,378.9271,74.7142,378.4228,64.6122,379.2884,54.5102,379.6085,44.4081,379.5446,34.3061,378.5644,24.2041,379.464,14.102,379,4" style="stroke: #F4F4F4; stroke-width: 1.0;"/><text fill="#536366" font-family="Panton" font-size="20" font-weight="bold" lengthAdjust="spacingAndGlyphs" textLength="104" x="446.25" y="22.8">deployment</text><polygon fill="#D3D3D3" points="428,144.9999,428,145.07,430,144.8618,432,145.0644,434,145.1332,436,144.7621,438,144.9999,437.9223,144.9999,437.5735,154.9047,437.6165,164.8094,437.9318,174.7142,437.3086,184.619,438.5536,194.5237,437.3697,204.4285,437.8022,214.3332,438.4319,224.238,437.9142,234.1427,438.0682,244.0475,437.9681,253.9522,438.1785,263.857,438.2391,273.7618,438.5857,283.6665,438.6711,293.5713,438.6793,303.476,438.2546,313.3808,438.4636,323.2855,438.7022,333.1903,437.2788,343.095,438,352.9998,438,353.226,436,352.901,434,353.1777,432,352.8348,430,352.977,428,352.9998,428.7416,352.9998,427.9513,343.095,428.1053,333.1903,428.3386,323.2855,428.4162,313.3808,427.9961,303.476,428.2872,293.5713,427.4276,283.6665,428.2844,273.7618,428.5482,263.857,428.4445,253.9522,428.613,244.0475,427.5169,234.1427,427.3478,224.238,427.3786,214.3332,427.9411,204.4285,427.8035,194.5237,428.6814,184.619,427.8253,174.7142,427.6569,164.8094,428.2283,154.9047,428,144.9999" style="stroke: #536366; stroke-width: 1.0;"/><path d="M149,102 L149.2802,102 L148.4476,111.9032 L149.2577,121.8064 L149.5329,131.7096 L148.0488,141.6128 L148.8964,151.5161 L148.4313,161.4193 L148.4887,171.3225 L148.9091,181.2257 L148.0782,191.1289 L149.7382,201.0322 L148.1596,210.9354 L148.7363,220.8386 L149.5759,230.7418 L148.8856,240.645 L149.091,250.5483 L148.9574,260.4515 L149.238,270.3547 L149.3188,280.2579 L149.7809,290.1611 L149.8947,300.0644 L149.9057,309.9676 L149.3395,319.8708 L149.6181,329.774 L149.9363,339.6772 L148.0384,349.5805 L149.9047,359.4837 L148.6047,369.3869 L149.7117,379.2901 L148.34,389.1933 L148.9087,399.0966 L149,408.9998 " fill="none" style="stroke: #536366; stroke-width: 1.0; stroke-dasharray: 5.0,5.0;"/><path d="M433,102 L433.2802,102 L432.4476,111.9032 L433.2577,121.8064 L433.5329,131.7096 L432.0488,141.6128 L432.8964,151.5161 L432.4313,161.4193 L432.4887,171.3225 L432.9091,181.2257 L432.0782,191.1289 L433.7382,201.0322 L432.1596,210.9354 L432.7363,220.8386 L433.5759,230.7418 L432.8856,240.645 L433.091,250.5483 L432.9574,260.4515 L433.238,270.3547 L433.3188,280.2579 L433.7809,290.1611 L433.8947,300.0644 L433.9057,309.9676 L433.3395,319.8708 L433.6181,329.774 L433.9363,339.6772 L432.0384,349.5805 L433.9047,359.4837 L432.6047,369.3869 L433.7117,379.2901 L432.34,389.1933 L432.9087,399.0966 L433,408.9998 " fill="none" style="stroke: #536366; stroke-width: 1.0; stroke-dasharray: 5.0,5.0;"/><path d="M558.5,102 L558.7802,102 L557.9476,111.9032 L558.7577,121.8064 L559.0329,131.7096 L557.5488,141.6128 L558.3964,151.5161 L557.9313,161.4193 L557.9887,171.3225 L558.4091,181.2257 L557.5782,191.1289 L559.2382,201.0322 L557.6596,210.9354 L558.2363,220.8386 L559.0759,230.7418 L558.3856,240.645 L558.591,250.5483 L558.4574,260.4515 L558.738,270.3547 L558.8188,280.2579 L559.2809,290.1611 L559.3947,300.0644 L559.4057,309.9676 L558.8395,319.8708 L559.1181,329.774 L559.4363,339.6772 L557.5384,349.5805 L559.4047,359.4837 L558.1047,369.3869 L559.2117,379.2901 L557.84,389.1933 L558.4087,399.0966 L558.5,408.9998 " fill="none" style="stroke: #536366; stroke-width: 1.0; stroke-dasharray: 5.0,5.0;"/><path d="M887.5,102 L887.7802,102 L886.9476,111.9032 L887.7577,121.8064 L888.0329,131.7096 L886.5488,141.6128 L887.3964,151.5161 L886.9313,161.4193 L886.9887,171.3225 L887.4091,181.2257 L886.5782,191.1289 L888.2382,201.0322 L886.6596,210.9354 L887.2363,220.8386 L888.0759,230.7418 L887.3856,240.645 L887.591,250.5483 L887.4574,260.4515 L887.738,270.3547 L887.8188,280.2579 L888.2809,290.1611 L888.3947,300.0644 L888.4057,309.9676 L887.8395,319.8708 L888.1181,329.774 L888.4363,339.6772 L886.5384,349.5805 L888.4047,359.4837 L887.1047,369.3869 L888.2117,379.2901 L886.84,389.1933 L887.4087,399.0966 L887.5,408.9998 " fill="none" style="stroke: #536366; stroke-width: 1.0; stroke-dasharray: 5.0,5.0;"/><text fill="#536366" font-family="Panton" font-size="20" lengthAdjust="spacingAndGlyphs" textLength="42" x="125" y="96.8">User</text><polygon fill="#FFFFFF" points="157.0442,26.9459,155.8715,28.5482,154.4845,30.895,152.5008,32.4766,150.4163,33.3415,148.7542,33.4166,146.618,32.3349,144.6023,31.6283,143.0724,30.1936,142.2699,28.5511,141.7939,27.2433,141.3277,25.535,140.5709,24.065,141.1525,22.6298,141.662,21.0576,143.574,19.8141,144.9192,18.2008,146.5843,17.665,148.5637,17.2037,151.1021,17.4778,152.4924,18.1335,154.1089,18.4307,156.0743,20.4443,156.7595,22.5701,157.0571,24.0206,156.72,26.4108" style="stroke: #536366; stroke-width: 2.0;"/><path d="M149,33 L149.1868,33 L148.6317,38.4 L149.1718,43.8 L149.3553,49.2 L148.3659,54.6 L149,60 M136,41 L136,40.9309 L141.2,40.6209 L146.4,40.6591 L151.6,40.9394 L156.8,40.3854 L162,41 M149,60 L149.3719,60.3223 L145.9766,62.6331 L143.6672,65.8848 L141.4901,69.2514 L138.5424,71.95 L136,75 M149,60 L149.0458,60.0397 L151.5785,62.9814 L154.3199,66.1039 L156.9606,69.1392 L159.7934,72.3409 L162,75 " fill="none" style="stroke: #536366; stroke-width: 2.0;"/><text fill="#536366" font-family="Panton" font-size="20" lengthAdjust="spacingAndGlyphs" textLength="42" x="125" y="426.7998">User</text><polygon fill="#FFFFFF" points="157.0442,443.9457,155.8715,445.548,154.4845,447.8948,152.5008,449.4764,150.4163,450.3413,148.7542,450.4163,146.618,449.3347,144.6023,448.6281,143.0724,447.1933,142.2699,445.5509,141.7939,444.243,141.3277,442.5348,140.5709,441.0648,141.1525,439.6296,141.662,438.0574,143.574,436.8139,144.9192,435.2005,146.5843,434.6648,148.5637,434.2034,151.1021,434.4775,152.4924,435.1332,154.1089,435.4304,156.0743,437.4441,156.7595,439.5699,157.0571,441.0204,156.72,443.4106" style="stroke: #536366; stroke-width: 2.0;"/><path d="M149,449.9997 L149.1868,449.9997 L148.6317,455.3997 L149.1718,460.7997 L149.3553,466.1997 L148.3659,471.5997 L149,476.9997 M136,457.9997 L136,457.9307 L141.2,457.6206 L146.4,457.6589 L151.6,457.9392 L156.8,457.3852 L162,457.9997 M149,476.9997 L149.3719,477.3221 L145.9766,479.6328 L143.6672,482.8846 L141.4901,486.2512 L138.5424,488.9498 L136,491.9997 M149,476.9997 L149.0458,477.0395 L151.5785,479.9811 L154.3199,483.1037 L156.9606,486.139 L159.7934,489.3407 L162,491.9997 " fill="none" style="stroke: #536366; stroke-width: 2.0;"/><text fill="#00AED2" font-family="Panton" font-size="20" font-weight="bold" lengthAdjust="spacingAndGlyphs" textLength="22" x="383" y="96.8">TF</text><text fill="#00AED2" font-family="Panton" font-size="20" lengthAdjust="spacingAndGlyphs" textLength="0" x="410" y="96.8"/><text fill="#00AED2" font-family="Panton" font-size="20" font-weight="bold" lengthAdjust="spacingAndGlyphs" textLength="67" x="410" y="96.8">Serving</text><polygon fill="#D3D3D3" points="445.0663,64.9189,443.3073,67.3223,441.2268,70.8426,438.2512,73.215,435.1244,74.5123,432.6313,74.6249,429.4269,73.0024,426.4035,71.9424,424.1086,69.7904,422.9048,67.3266,422.1909,65.3649,421.4915,62.8026,420.3564,60.5976,421.2287,58.4447,421.9929,56.0864,424.8611,54.2212,426.8789,51.8012,429.3764,50.9975,432.3456,50.3055,436.1532,50.7167,438.2386,51.7002,440.6633,52.146,443.6115,55.1665,444.6392,58.3552,445.0857,60.5309,444.58,64.1162" style="stroke: #536366; stroke-width: 2.0;"/><path d="M421,76 L421,76.0934 L425.8,75.8158 L430.6,76.0859 L435.4,76.1776 L440.2,75.6829 L445,76 " fill="#D3D3D3" style="stroke: #536366; stroke-width: 2.0;"/><text fill="#00AED2" font-family="Panton" font-size="20" font-weight="bold" lengthAdjust="spacingAndGlyphs" textLength="22" x="383" y="426.7998">TF</text><text fill="#00AED2" font-family="Panton" font-size="20" lengthAdjust="spacingAndGlyphs" textLength="0" x="410" y="426.7998"/><text fill="#00AED2" font-family="Panton" font-size="20" font-weight="bold" lengthAdjust="spacingAndGlyphs" textLength="67" x="410" y="426.7998">Serving</text><polygon fill="#D3D3D3" points="445.0663,450.9186,443.3073,453.3221,441.2268,456.8423,438.2512,459.2147,435.1244,460.512,432.6313,460.6246,429.4269,459.0022,426.4035,457.9422,424.1086,455.7901,422.9048,453.3264,422.1909,451.3647,421.4915,448.8023,420.3564,446.5974,421.2287,444.4445,421.9929,442.0862,424.8611,440.221,426.8789,437.8009,429.3764,436.9973,432.3456,436.3053,436.1532,436.7164,438.2386,437.7,440.6633,438.1458,443.6115,441.1663,444.6392,444.355,445.0857,446.5307,444.58,450.116" style="stroke: #536366; stroke-width: 2.0;"/><path d="M421,461.9997 L421,462.0932 L425.8,461.8156 L430.6,462.0857 L435.4,462.1774 L440.2,461.6827 L445,461.9997 " fill="#D3D3D3" style="stroke: #536366; stroke-width: 2.0;"/><text fill="#536366" font-family="Panton" font-size="20" lengthAdjust="spacingAndGlyphs" textLength="103" x="504.5" y="96.8">File System</text><path d="M541,42 L541,42 L541.0651,42.067 L542.6716,40.1179 L544.6599,38.5616 L546.5238,36.8773 L547.979,34.7726 L550,33.25 L549.9952,33.2158 L551.7739,32.8122 L553.5766,32.5812 L555.3958,32.47 L557.1577,31.9456 L559,32 L559,32 L559.0339,32.2437 L560.7615,31.9725 L562.5879,32.4129 L564.4264,32.9401 L566.1948,32.9622 L568,33.25 L568.0211,33.2717 L569.7901,34.9898 L571.6553,36.8069 L573.4741,38.5762 L575.3815,40.4366 L577,42 L577.5965,42 L577.6038,47.2 L577.2263,52.4 L577.4121,57.6 L577.6242,62.8 L577,68 L577,68 L576.7766,67.7702 L575.4102,69.9662 L573.3081,71.4055 L571.7654,73.4201 L569.6466,74.8422 L568,76.75 L567.9958,76.7198 L566.2453,77.3264 L564.397,77.2285 L562.6064,77.5463 L560.8207,77.899 L559,78 L559,78 L559.0254,78.1832 L557.1998,77.7483 L555.4176,77.6264 L553.565,76.998 L551.8174,77.1252 L550,76.75 L550.1698,76.9247 L548.3377,75.1416 L546.5899,73.4453 L544.4503,71.346 L542.5979,69.5421 L541,68 L540.4476,68 L540.9477,62.8 L540.8253,57.6 L541.6057,52.4 L540.8447,47.2 L541,42 " fill="#D3D3D3" style="stroke: #536366; stroke-width: 1.5;"/><path d="M541,42 L541,42 L541.0651,42.067 L542.6716,43.6179 L544.6599,45.5616 L546.5238,47.3773 L547.979,48.7726 L550,50.75 L549.9952,50.7158 L551.7739,50.8122 L553.5766,51.0812 L555.3958,51.47 L557.1577,51.4456 L559,52 L559,52 L559.0339,52.2437 L560.7615,51.4725 L562.5879,51.4129 L564.4264,51.4401 L566.1948,50.9622 L568,50.75 L568.0211,50.7717 L569.7901,48.9898 L571.6553,47.3069 L573.4741,45.5762 L575.3815,43.9366 L577,42 " fill="none" style="stroke: #536366; stroke-width: 1.5;"/><text fill="#536366" font-family="Panton" font-size="20" lengthAdjust="spacingAndGlyphs" textLength="103" x="504.5" y="426.7998">File System</text><path d="M541,441.9997 L541,441.9997 L541.0651,442.0667 L542.6716,440.1177 L544.6599,438.5613 L546.5238,436.8771 L547.979,434.7724 L550,433.2497 L549.9952,433.2155 L551.7739,432.812 L553.5766,432.5809 L555.3958,432.4697 L557.1577,431.9454 L559,431.9997 L559,431.9997 L559.0339,432.2435 L560.7615,431.9723 L562.5879,432.4127 L564.4264,432.9399 L566.1948,432.962 L568,433.2497 L568.0211,433.2715 L569.7901,434.9896 L571.6553,436.8066 L573.4741,438.576 L575.3815,440.4364 L577,441.9997 L577.5965,441.9997 L577.6038,447.1997 L577.2263,452.3997 L577.4121,457.5997 L577.6242,462.7997 L577,467.9997 L577,467.9997 L576.7766,467.7699 L575.4102,469.966 L573.3081,471.4053 L571.7654,473.4199 L569.6466,474.842 L568,476.7497 L567.9958,476.7196 L566.2453,477.3262 L564.397,477.2283 L562.6064,477.5461 L560.8207,477.8988 L559,477.9997 L559,477.9997 L559.0254,478.183 L557.1998,477.748 L555.4176,477.6262 L553.565,476.9978 L551.8174,477.1249 L550,476.7497 L550.1698,476.9244 L548.3377,475.1414 L546.5899,473.4451 L544.4503,471.3458 L542.5979,469.5419 L541,467.9997 L540.4476,467.9997 L540.9477,462.7997 L540.8253,457.5997 L541.6057,452.3997 L540.8447,447.1997 L541,441.9997 " fill="#D3D3D3" style="stroke: #536366; stroke-width: 1.5;"/><path d="M541,441.9997 L541,441.9997 L541.0651,442.0667 L542.6716,443.6177 L544.6599,445.5613 L546.5238,447.3771 L547.979,448.7724 L550,450.7497 L549.9952,450.7155 L551.7739,450.812 L553.5766,451.0809 L555.3958,451.4697 L557.1577,451.4454 L559,451.9997 L559,451.9997 L559.0339,452.2435 L560.7615,451.4723 L562.5879,451.4127 L564.4264,451.4399 L566.1948,450.962 L568,450.7497 L568.0211,450.7715 L569.7901,448.9896 L571.6553,447.3066 L573.4741,445.576 L575.3815,443.9364 L577,441.9997 " fill="none" style="stroke: #536366; stroke-width: 1.5;"/><text fill="#536366" font-family="Panton" font-size="20" lengthAdjust="spacingAndGlyphs" textLength="122" x="823.5" y="96.8">Data Scientist</text><polygon fill="#FFFFFF" points="895.5442,26.9459,894.3715,28.5482,892.9845,30.895,891.0008,32.4766,888.9163,33.3415,887.2542,33.4166,885.118,32.3349,883.1023,31.6283,881.5724,30.1936,880.7699,28.5511,880.2939,27.2433,879.8277,25.535,879.0709,24.065,879.6525,22.6298,880.162,21.0576,882.074,19.8141,883.4192,18.2008,885.0843,17.665,887.0637,17.2037,889.6021,17.4778,890.9924,18.1335,892.6089,18.4307,894.5743,20.4443,895.2595,22.5701,895.5571,24.0206,895.22,26.4108" style="stroke: #536366; stroke-width: 2.0;"/><path d="M887.5,33 L887.6868,33 L887.1317,38.4 L887.6718,43.8 L887.8553,49.2 L886.8659,54.6 L887.5,60 M874.5,41 L874.5,40.9309 L879.7,40.6209 L884.9,40.6591 L890.1,40.9394 L895.3,40.3854 L900.5,41 M887.5,60 L887.8719,60.3223 L884.4766,62.6331 L882.1672,65.8848 L879.9901,69.2514 L877.0424,71.95 L874.5,75 M887.5,60 L887.5458,60.0397 L890.0785,62.9814 L892.8199,66.1039 L895.4606,69.1392 L898.2934,72.3409 L900.5,75 " fill="none" style="stroke: #536366; stroke-width: 2.0;"/><text fill="#536366" font-family="Panton" font-size="20" lengthAdjust="spacingAndGlyphs" textLength="122" x="823.5" y="426.7998">Data Scientist</text><polygon fill="#FFFFFF" points="895.5442,443.9457,894.3715,445.548,892.9845,447.8948,891.0008,449.4764,888.9163,450.3413,887.2542,450.4163,885.118,449.3347,883.1023,448.6281,881.5724,447.1933,880.7699,445.5509,880.2939,444.243,879.8277,442.5348,879.0709,441.0648,879.6525,439.6296,880.162,438.0574,882.074,436.8139,883.4192,435.2005,885.0843,434.6648,887.0637,434.2034,889.6021,434.4775,890.9924,435.1332,892.6089,435.4304,894.5743,437.4441,895.2595,439.5699,895.5571,441.0204,895.22,443.4106" style="stroke: #536366; stroke-width: 2.0;"/><path d="M887.5,449.9997 L887.6868,449.9997 L887.1317,455.3997 L887.6718,460.7997 L887.8553,466.1997 L886.8659,471.5997 L887.5,476.9997 M874.5,457.9997 L874.5,457.9307 L879.7,457.6206 L884.9,457.6589 L890.1,457.9392 L895.3,457.3852 L900.5,457.9997 M887.5,476.9997 L887.8719,477.3221 L884.4766,479.6328 L882.1672,482.8846 L879.9901,486.2512 L877.0424,488.9498 L874.5,491.9997 M887.5,476.9997 L887.5458,477.0395 L890.0785,479.9811 L892.8199,483.1037 L895.4606,486.139 L898.2934,489.3407 L900.5,491.9997 " fill="none" style="stroke: #536366; stroke-width: 2.0;"/><polygon fill="#D3D3D3" points="428,144.9999,428,145.07,430,144.8618,432,145.0644,434,145.1332,436,144.7621,438,144.9999,437.9223,144.9999,437.5735,154.9047,437.6165,164.8094,437.9318,174.7142,437.3086,184.619,438.5536,194.5237,437.3697,204.4285,437.8022,214.3332,438.4319,224.238,437.9142,234.1427,438.0682,244.0475,437.9681,253.9522,438.1785,263.857,438.2391,273.7618,438.5857,283.6665,438.6711,293.5713,438.6793,303.476,438.2546,313.3808,438.4636,323.2855,438.7022,333.1903,437.2788,343.095,438,352.9998,438,353.226,436,352.901,434,353.1777,432,352.8348,430,352.977,428,352.9998,428.7416,352.9998,427.9513,343.095,428.1053,333.1903,428.3386,323.2855,428.4162,313.3808,427.9961,303.476,428.2872,293.5713,427.4276,283.6665,428.2844,273.7618,428.5482,263.857,428.4445,253.9522,428.613,244.0475,427.5169,234.1427,427.3478,224.238,427.3786,214.3332,427.9411,204.4285,427.8035,194.5237,428.6814,184.619,427.8253,174.7142,427.6569,164.8094,428.2283,154.9047,428,144.9999" style="stroke: #536366; stroke-width: 1.0;"/><polygon fill="#00AED2" points="416,140.9999,416.026,141.065,417.9487,141.6717,420.0239,142.6598,422.0495,143.5236,423.9117,143.9791,426,144.9999,425.9904,144.9759,423.9472,145.6679,421.9525,146.4812,419.9916,147.3788,417.9144,147.986,416,148.9999,416.1305,149.1304,416.6514,148.0514,417.5534,147.3533,418.5018,146.7017,419.1798,145.7797,420,144.9999,420.0161,145.016,419.1925,144.1924,418.4421,143.442,417.6564,142.6563,416.938,141.938,416,140.9999" style="stroke: #00AED2; stroke-width: 1.0;"/><path d="M149,144.9999 L149,145.2802 L159.1111,144.4475 L169.2222,145.2576 L179.3333,145.5328 L189.4444,144.0487 L199.5556,144.8963 L209.6667,144.4313 L219.7778,144.4886 L229.8889,144.9091 L240,144.0781 L250.1111,145.7381 L260.2222,144.1596 L270.3333,144.7362 L280.4444,145.5759 L290.5556,144.8856 L300.6667,145.0909 L310.7778,144.9573 L320.8889,145.238 L331,145.3188 L341.1111,145.7809 L351.2222,145.8947 L361.3333,145.9056 L371.4444,145.3394 L381.5556,145.618 L391.6667,145.9362 L401.7778,144.0384 L411.8889,145.9046 L422,144.9999 " fill="none" style="stroke: #00AED2; stroke-width: 3.0;"/><text fill="#000000" font-family="Panton" font-size="20" lengthAdjust="spacingAndGlyphs" textLength="99" x="156" y="137.7999">send query</text><path d="M8,117 L8.1868,117 L7.6317,123.6 L8.1718,130.2 L8.3553,136.8 L7.3659,143.4 L8,150 L8,149.7927 L17.7143,148.8626 L27.4286,148.9773 L37.1429,149.8182 L46.8571,148.1563 L56.5714,151.4763 L66.2857,148.3192 L76,149.4726 L85.7143,151.1518 L95.4286,149.7712 L105.1429,150.1819 L114.8571,149.9148 L124.5714,150.476 L134.2857,150.6376 L144,150 L144.5206,150 L144.5965,145.4 L144.6038,140.8 L144.2263,136.2 L144.4121,131.6 L144,127 L144.4414,127.4413 L141.5467,124.5467 L140.4265,123.4264 L137.8136,120.8136 L136.3355,119.3355 L134,117 L134,115.6799 L124.3077,116.8173 L114.6154,118.9776 L104.9231,116.87 L95.2308,117.2808 L85.5385,117.903 L75.8462,118.1099 L66.1538,116.9895 L56.4615,117.7659 L46.7692,115.4735 L37.0769,117.7583 L27.3846,118.4618 L17.6923,118.1854 L8,117 " fill="#FFFFFF" style="stroke: #FFFFFF; stroke-width: 1.0;"/><path d="M134,117 L134.5449,117 L133.5706,119 L133.4203,121 L133.4476,123 L133.9477,125 L134,127 L134,126.8253 L136,127.6057 L138,126.8447 L140,126.695 L142,127.2029 L144,127 L143.5809,126.5808 L141.6737,124.6737 L140.4079,123.4078 L138.2738,121.2738 L136.4617,119.4616 L134,117 " fill="#FFFFFF" style="stroke: #FFFFFF; stroke-width: 1.0;"/><text fill="#536366" font-family="Panton" font-size="20" lengthAdjust="spacingAndGlyphs" textLength="115" x="14" y="140.7999">REST / gRPC</text><polygon fill="#00AED2" points="547,220.9999,547.026,221.0649,548.9487,221.6716,551.0239,222.6597,553.0495,223.5236,554.9117,223.9791,557,224.9999,556.9904,224.9758,554.9472,225.6679,552.9525,226.4812,550.9916,227.3788,548.9144,227.9859,547,228.9999,547.1305,229.1304,547.6514,228.0513,548.5534,227.3533,549.5018,226.7017,550.1798,225.7797,551,224.9999,551.0161,225.016,550.1925,224.1923,549.4421,223.442,548.6564,222.6562,547.938,221.9379,547,220.9999" style="stroke: #00AED2; stroke-width: 1.0;"/><path d="M438,224.9999 L438,225.2801 L447.5833,224.4474 L457.1667,225.2576 L466.75,225.5328 L476.3333,224.0487 L485.9167,224.8963 L495.5,224.4312 L505.0833,224.4885 L514.6667,224.909 L524.25,224.078 L533.8333,225.7381 L543.4167,224.1595 L553,224.9999 " fill="none" style="stroke: #00AED2; stroke-width: 3.0; stroke-dasharray: 2.0,2.0;"/><text fill="#000000" font-family="Panton" font-size="20" lengthAdjust="spacingAndGlyphs" textLength="97" x="445" y="217.7999">read model</text><path d="M564,160.9999 L564.5605,160.9999 L562.8951,170.5454 L564.5154,180.0908 L565.0658,189.6363 L562.0976,199.1817 L563.7928,208.7272 L562.8627,218.2727 L562.9773,227.8181 L563.8182,237.3636 L562.1563,246.909 L565.4764,256.4545 L564,265.9999 L564,264.3192 L573.8333,265.4726 L583.6667,267.1518 L593.5,265.7712 L603.3333,266.1819 L613.1667,265.9147 L623,266.476 L632.8333,266.6376 L642.6667,267.5618 L652.5,267.7894 L662.3333,267.8113 L672.1667,266.6789 L682,267.2362 L691.8333,267.8725 L701.6667,264.0768 L711.5,267.8093 L721.3333,265.2093 L731.1667,267.4234 L741,265.9999 L739.6799,265.9999 L740.8173,256.4999 L742.9776,246.9999 L740.87,237.4999 L741.2808,227.9999 L741.903,218.4999 L742.11,208.9999 L740.9896,199.4999 L741.7659,189.9999 L739.4736,180.4999 L741,170.9999 L741.1787,171.1787 L739.3446,169.3445 L737.2794,167.2793 L735.3853,165.3852 L732.6964,162.6963 L731,160.9999 L731,159.2608 L721.1765,159.3429 L711.3529,160.8429 L701.5294,160.4759 L691.7059,162.817 L681.8824,160.5341 L672.0588,160.0851 L662.2353,161.6086 L652.4118,159.2217 L642.5882,159.6156 L632.7647,162.7305 L622.9412,162.1617 L613.1176,162.9586 L603.2941,160.1418 L593.4706,161.8511 L583.6471,162.5744 L573.8235,159.7402 L564,160.9999 " fill="#FFFFFF" style="stroke: #FFFFFF; stroke-width: 1.0;"/><path d="M731,160.9999 L730.9148,160.9999 L731.112,162.9999 L731.5793,164.9999 L730.9963,166.9999 L731.4112,168.9999 L731,170.9999 L731,170.5077 L733,170.3979 L735,171.4476 L737,170.3627 L739,171.4523 L741,170.9999 L741.1299,171.1298 L738.8316,168.8315 L736.7776,166.7776 L735.2883,165.2883 L732.8119,162.8118 L731,160.9999 " fill="#FFFFFF" style="stroke: #FFFFFF; stroke-width: 1.0;"/><text fill="#536366" font-family="Panton" font-size="20" lengthAdjust="spacingAndGlyphs" textLength="133" x="570" y="184.7999">./models.config</text><text fill="#536366" font-family="Panton" font-size="20" lengthAdjust="spacingAndGlyphs" textLength="153" x="570" y="208.7999">./digit_classifier/1</text><text fill="#536366" font-family="Panton" font-size="20" lengthAdjust="spacingAndGlyphs" textLength="156" x="570" y="232.7999">./digit_classifier/2</text><text fill="#536366" font-family="Panton" font-size="20" lengthAdjust="spacingAndGlyphs" textLength="148" x="570" y="256.7998">./digit_matcher/1</text><path d="M438,301.9998 L438,302.0932 L446.4,301.8157 L454.8,302.0857 L463.2,302.1775 L471.6,301.6828 L480,301.9998 " fill="none" style="stroke: #00AED2; stroke-width: 3.0; stroke-dasharray: 2.0,2.0;"/><path d="M480,301.9998 L480.0934,301.9998 L479.8159,304.5998 L480.0859,307.1998 L480.1776,309.7998 L479.6829,312.3998 L480,314.9998 " fill="none" style="stroke: #00AED2; stroke-width: 3.0; stroke-dasharray: 2.0,2.0;"/><path d="M439,314.9998 L439,315.0932 L447.2,314.8157 L455.4,315.0857 L463.6,315.1775 L471.8,314.6828 L480,314.9998 " fill="none" style="stroke: #00AED2; stroke-width: 3.0; stroke-dasharray: 2.0,2.0;"/><polygon fill="#00AED2" points="449,310.9998,449.026,311.0649,446.9487,311.6716,445.0239,312.6596,443.0495,313.5235,440.9117,313.979,439,314.9998,438.9904,314.9758,440.9472,315.6678,442.9525,316.4811,444.9916,317.3787,446.9144,317.9858,449,318.9998,449.1305,319.1303,448.0514,318.0513,447.3534,317.3532,446.7018,316.7016,445.7798,315.7796,445,314.9998,445.0161,315.0159,445.7925,314.1923,446.6421,313.4419,447.4564,312.6562,448.338,311.9379,449,310.9998" style="stroke: #00AED2; stroke-width: 1.0;"/><text fill="#000000" font-family="Panton" font-size="20" lengthAdjust="spacingAndGlyphs" textLength="87" x="445" y="294.7998">run model</text><polygon fill="#00AED2" points="160,348.9998,160.026,349.0648,157.9487,349.6716,156.0239,350.6596,154.0495,351.5235,151.9117,351.979,150,352.9998,149.9904,352.9757,151.9472,353.6678,153.9525,354.4811,155.9916,355.3787,157.9144,355.9858,160,356.9998,160.1305,357.1303,159.0514,356.0512,158.3534,355.3532,157.7018,354.7016,156.7798,353.7796,156,352.9998,156.0161,353.0159,156.7925,352.1923,157.6421,351.4419,158.4564,350.6562,159.338,349.9378,160,348.9998" style="stroke: #00AED2; stroke-width: 1.0;"/><path d="M154,352.9998 L154,353.28 L163.9286,352.4474 L173.8571,353.2575 L183.7857,353.5327 L193.7143,352.0486 L203.6429,352.8962 L213.5714,352.4311 L223.5,352.4885 L233.4286,352.9089 L243.3571,352.078 L253.2857,353.738 L263.2143,352.1594 L273.1429,352.7361 L283.0714,353.5757 L293,352.8854 L302.9286,353.0908 L312.8571,352.9572 L322.7857,353.2378 L332.7143,353.3186 L342.6429,353.7807 L352.5714,353.8945 L362.5,353.9055 L372.4286,353.3393 L382.3571,353.6179 L392.2857,353.9361 L402.2143,352.0382 L412.1429,353.9045 L422.0714,352.6045 L432,352.9998 " fill="none" style="stroke: #00AED2; stroke-width: 3.0;"/><text fill="#000000" font-family="Panton" font-size="20" lengthAdjust="spacingAndGlyphs" textLength="135" x="166" y="345.7998">send prediction</text><polygon fill="#00AED2" points="570,386.9998,570.026,387.0648,567.9487,387.6715,566.0239,388.6596,564.0495,389.5235,561.9117,389.979,560,390.9998,559.9904,390.9757,561.9472,391.6678,563.9525,392.4811,565.9916,393.3787,567.9144,393.9858,570,394.9998,570.1305,395.1303,569.0514,394.0512,568.3534,393.3532,567.7018,392.7016,566.7798,391.7796,566,390.9998,566.0161,391.0159,566.7925,390.1922,567.6421,389.4419,568.4564,388.6561,569.338,387.9378,570,386.9998" style="stroke: #00AED2; stroke-width: 1.0;"/><path d="M564,390.9998 L564,391.28 L574.0781,390.4473 L584.1563,391.2575 L594.2344,391.5327 L604.3125,390.0486 L614.3906,390.8962 L624.4688,390.4311 L634.5469,390.4884 L644.625,390.9089 L654.7031,390.0779 L664.7813,391.738 L674.8594,390.1594 L684.9375,390.7361 L695.0156,391.5757 L705.0938,390.8854 L715.1719,391.0908 L725.25,390.9572 L735.3281,391.2378 L745.4063,391.3186 L755.4844,391.7807 L765.5625,391.8945 L775.6406,391.9054 L785.7188,391.3393 L795.7969,391.6179 L805.875,391.9361 L815.9531,390.0382 L826.0313,391.9045 L836.1094,390.6044 L846.1875,391.7115 L856.2656,390.3397 L866.3438,390.9084 L876.4219,391.9886 L886.5,390.9998 " fill="none" style="stroke: #00AED2; stroke-width: 3.0;"/><text fill="#000000" font-family="Panton" font-size="20" lengthAdjust="spacingAndGlyphs" textLength="244" x="576" y="383.7998">add/update/rollback models</text><!--MD5=[108357d4b92eefc44c25ba09297c7c71]
@startuml



skinparam shadowing false
skinparam DefaultFontName Panton
skinparam DefaultFontSize 20
skinparam handwritten true


skinparam FontSize 16


skinparam actor {
        BackgroundColor white
        BorderColor #536366
        FontColor  #536366
        }

skinparam note {
        BorderColor white
        BackgroundColor white
        FontColor #536366
}

skinparam entity {
        BackgroundColor lightgray
        BorderColor #536366
        FontColor  #00aed2
        }

skinparam database {
        BackgroundColor lightgray
        BorderColor #536366
        FontColor #536366
}

skinparam sequence {
        ArrowColor #00aed2
        ArrowThickness 3
        LifeLineBorderColor #536366
        LifeLineBAckgroundColor lightgray
        GroupBackgroundColor #f0f0f0
        GroupBorderColor #f0f0f0
        BoxBorderColor #f4f4f4
        BoxBackgroundColor #f4f4f4
        BoxFontColor #536366
}

skinparam BoxPadding 200


actor "User" as User
box "deployment"
entity "**TF** **Serving**" as TFServing
database "File System" as FileStorage
end box
actor "Data Scientist" as DataScientist

User -> TFServing ++: send query
note left
        REST / gRPC
end note
TFServing - -> FileStorage: read model
note right
        ./models.config
        ./digit_classifier/1
        ./digit_classifier/2
        ./digit_matcher/1
end note
TFServing - -> TFServing: run model
User <- TFServing - -: send prediction
FileStorage <- DataScientist: add/update/rollback models

@enduml

PlantUML version 1.2019.13(Tue Dec 10 18:18:29 CET 2019)
(GPL source distribution)
Java Runtime: OpenJDK Runtime Environment
JVM: OpenJDK 64-Bit Server VM
Java Version: 11.0.6+10-suse-1.1-x8664
Operating System: Linux
Default Encoding: UTF-8
Language: en
Country: US
--></g></svg>