<?xml version="1.0" encoding="UTF-8" standalone="no"?>
<!DOCTYPE svg PUBLIC "-//W3C//DTD SVG 1.1//EN"
 "http://www.w3.org/Graphics/SVG/1.1/DTD/svg11.dtd">
<!-- Generated by graphviz version 2.42.1 (0)
 -->
<!-- Title: match Pages: 1 -->
<svg width="580pt" height="341pt"
 viewBox="0.00 0.00 579.93 340.87" xmlns="http://www.w3.org/2000/svg" xmlns:xlink="http://www.w3.org/1999/xlink">
<g id="graph0" class="graph" transform="scale(1 1) rotate(0) translate(4 336.87)">
<title>match</title>
<polygon fill="white" stroke="transparent" points="-4,4 -4,-336.87 575.93,-336.87 575.93,4 -4,4"/>
<!-- generate -->
<g id="node1" class="node">
<title>generate</title>
<ellipse fill="none" stroke="#00aed2" cx="209.98" cy="-260.87" rx="57.97" ry="26.74"/>
<text text-anchor="middle" x="209.98" y="-264.67" font-family="Times,serif" font-size="14.00" fill="#00aed2">generate</text>
<text text-anchor="middle" x="209.98" y="-249.67" font-family="Times,serif" font-size="14.00" fill="#00aed2">statistics</text>
</g>
<!-- statistics -->
<g id="node11" class="node">
<title>statistics</title>
<text text-anchor="middle" x="361.97" y="-257.07" font-family="Panton bold" font-size="16.00" fill="#606060">statistics</text>
</g>
<!-- generate&#45;&gt;statistics -->
<g id="edge4" class="edge">
<title>generate&#45;&gt;statistics</title>
<path fill="none" stroke="#606060" d="M268.11,-260.87C281.97,-260.87 296.68,-260.87 310.22,-260.87"/>
<polygon fill="#606060" stroke="#606060" points="310.31,-264.37 320.31,-260.87 310.31,-257.37 310.31,-264.37"/>
</g>
<!-- visualize -->
<g id="node2" class="node">
<title>visualize</title>
<ellipse fill="none" stroke="#00aed2" cx="361.97" cy="-26.87" rx="57.97" ry="26.74"/>
<text text-anchor="middle" x="361.97" y="-30.67" font-family="Times,serif" font-size="14.00" fill="#00aed2">visualize</text>
<text text-anchor="middle" x="361.97" y="-15.67" font-family="Times,serif" font-size="14.00" fill="#00aed2">statistics</text>
</g>
<!-- infer -->
<g id="node3" class="node">
<title>infer</title>
<ellipse fill="none" stroke="#00aed2" cx="513.95" cy="-264.87" rx="50.41" ry="26.74"/>
<text text-anchor="middle" x="513.95" y="-268.67" font-family="Times,serif" font-size="14.00" fill="#00aed2">infer</text>
<text text-anchor="middle" x="513.95" y="-253.67" font-family="Times,serif" font-size="14.00" fill="#00aed2">schema</text>
</g>
<!-- schema -->
<g id="node12" class="node">
<title>schema</title>
<text text-anchor="middle" x="513.95" y="-198.07" font-family="Panton bold" font-size="16.00" fill="#606060">schema</text>
</g>
<!-- infer&#45;&gt;schema -->
<g id="edge7" class="edge">
<title>infer&#45;&gt;schema</title>
<path fill="none" stroke="#606060" d="M513.95,-237.93C513.95,-235.32 513.95,-232.72 513.95,-230.12"/>
<polygon fill="#606060" stroke="#606060" points="517.45,-230.08 513.95,-220.08 510.45,-230.08 517.45,-230.08"/>
</g>
<!-- validate -->
<g id="node4" class="node">
<title>validate</title>
<ellipse fill="none" stroke="#00aed2" cx="513.95" cy="-138.87" rx="57.97" ry="26.74"/>
<text text-anchor="middle" x="513.95" y="-142.67" font-family="Times,serif" font-size="14.00" fill="#00aed2">validate</text>
<text text-anchor="middle" x="513.95" y="-127.67" font-family="Times,serif" font-size="14.00" fill="#00aed2">new data</text>
</g>
<!-- tfrecords -->
<g id="node5" class="node">
<title>tfrecords</title>
<text text-anchor="middle" x="58" y="-311.07" font-family="Panton" font-size="16.00" fill="#606060">TFRecord files</text>
</g>
<!-- tfrecords&#45;&gt;generate -->
<g id="edge1" class="edge">
<title>tfrecords&#45;&gt;generate</title>
<path fill="none" stroke="#606060" d="M109.36,-296.74C123.74,-291.56 139.48,-285.89 154.12,-280.62"/>
<polygon fill="#606060" stroke="#606060" points="155.33,-283.91 163.55,-277.23 152.95,-277.32 155.33,-283.91"/>
</g>
<!-- dataframe -->
<g id="node6" class="node">
<title>dataframe</title>
<text text-anchor="middle" x="58" y="-257.07" font-family="Panton" font-size="16.00" fill="#606060">DataFrame</text>
</g>
<!-- dataframe&#45;&gt;generate -->
<g id="edge2" class="edge">
<title>dataframe&#45;&gt;generate</title>
<path fill="none" stroke="#606060" d="M104.41,-260.87C116.18,-260.87 129.1,-260.87 141.73,-260.87"/>
<polygon fill="#606060" stroke="#606060" points="141.77,-264.37 151.77,-260.87 141.77,-257.37 141.77,-264.37"/>
</g>
<!-- csv -->
<g id="node7" class="node">
<title>csv</title>
<text text-anchor="middle" x="58" y="-203.07" font-family="Panton" font-size="16.00" fill="#606060">CSV File</text>
</g>
<!-- csv&#45;&gt;generate -->
<g id="edge3" class="edge">
<title>csv&#45;&gt;generate</title>
<path fill="none" stroke="#606060" d="M95.31,-219.94C112.96,-226.3 134.56,-234.08 154.17,-241.14"/>
<polygon fill="#606060" stroke="#606060" points="153.02,-244.44 163.61,-244.53 155.39,-237.85 153.02,-244.44"/>
</g>
<!-- tfrecords2 -->
<g id="node8" class="node">
<title>tfrecords2</title>
<text text-anchor="middle" x="361.97" y="-194.07" font-family="Panton" font-size="16.00" fill="#606060">TFRecord files</text>
</g>
<!-- tfrecords2&#45;&gt;validate -->
<g id="edge9" class="edge">
<title>tfrecords2&#45;&gt;validate</title>
<path fill="none" stroke="#606060" d="M408.78,-179.85C424.84,-173.53 443.01,-166.38 459.63,-159.84"/>
<polygon fill="#606060" stroke="#606060" points="461.19,-162.99 469.21,-156.08 458.62,-156.48 461.19,-162.99"/>
</g>
<!-- dataframe2 -->
<g id="node9" class="node">
<title>dataframe2</title>
<text text-anchor="middle" x="361.97" y="-140.07" font-family="Panton" font-size="16.00" fill="#606060">DataFrame</text>
</g>
<!-- dataframe2&#45;&gt;validate -->
<g id="edge10" class="edge">
<title>dataframe2&#45;&gt;validate</title>
<path fill="none" stroke="#606060" d="M408.37,-142.36C420.21,-141.96 433.22,-141.53 445.92,-141.1"/>
<polygon fill="#606060" stroke="#606060" points="446.13,-144.6 456.01,-140.77 445.9,-137.6 446.13,-144.6"/>
</g>
<!-- csv2 -->
<g id="node10" class="node">
<title>csv2</title>
<text text-anchor="middle" x="361.97" y="-86.07" font-family="Panton" font-size="16.00" fill="#606060">CSV File</text>
</g>
<!-- csv2&#45;&gt;validate -->
<g id="edge11" class="edge">
<title>csv2&#45;&gt;validate</title>
<path fill="none" stroke="#606060" d="M399.27,-101.73C416.48,-107.35 437.43,-114.2 456.63,-120.47"/>
<polygon fill="#606060" stroke="#606060" points="455.59,-123.81 466.19,-123.59 457.77,-117.16 455.59,-123.81"/>
</g>
<!-- statistics&#45;&gt;visualize -->
<g id="edge5" class="edge">
<title>statistics&#45;&gt;visualize</title>
<path fill="none" stroke="#606060" d="M311.47,-240.96C301.29,-234.52 291.9,-226.28 285.97,-215.87 270.12,-188.07 270.12,-99.67 285.97,-71.87 292.88,-59.75 304.48,-50.56 316.56,-43.75"/>
<polygon fill="#606060" stroke="#606060" points="309.74,-244 320.16,-245.95 313.23,-237.93 309.74,-244"/>
</g>
<!-- statistics&#45;&gt;infer -->
<g id="edge6" class="edge">
<title>statistics&#45;&gt;infer</title>
<path fill="none" stroke="#606060" d="M403.55,-261.95C418.93,-262.36 436.76,-262.84 453.52,-263.29"/>
<polygon fill="#606060" stroke="#606060" points="453.69,-266.79 463.78,-263.56 453.88,-259.79 453.69,-266.79"/>
</g>
<!-- schema&#45;&gt;validate -->
<g id="edge8" class="edge">
<title>schema&#45;&gt;validate</title>
<path fill="none" stroke="#606060" d="M513.95,-183.62C513.95,-181.14 513.95,-178.65 513.95,-176.16"/>
<polygon fill="#606060" stroke="#606060" points="517.45,-175.94 513.95,-165.94 510.45,-175.94 517.45,-175.94"/>
</g>
</g>
</svg>
