<?xml version="1.0" encoding="UTF-8" standalone="no"?>
<!DOCTYPE svg PUBLIC "-//W3C//DTD SVG 1.1//EN"
 "http://www.w3.org/Graphics/SVG/1.1/DTD/svg11.dtd">
<!-- Generated by graphviz version 2.42.1 (0)
 -->
<!-- Title: match Pages: 1 -->
<svg width="1581pt" height="107pt"
 viewBox="0.00 0.00 1580.72 107.00" xmlns="http://www.w3.org/2000/svg" xmlns:xlink="http://www.w3.org/1999/xlink">
<g id="graph0" class="graph" transform="scale(1 1) rotate(0) translate(4 103)">
<title>match</title>
<polygon fill="white" stroke="transparent" points="-4,4 -4,-103 1576.72,-103 1576.72,4 -4,4"/>
<!-- ExampleGen -->
<g id="node1" class="node">
<title>ExampleGen</title>
<ellipse fill="none" stroke="#00aed2" cx="237.79" cy="-22" rx="59.59" ry="18"/>
<text text-anchor="middle" x="237.79" y="-18.3" font-family="Panton bold" font-size="14.00" fill="#00aed2">ExampleGen</text>
</g>
<!-- StatisticsGen -->
<g id="node2" class="node">
<title>StatisticsGen</title>
<ellipse fill="none" stroke="#00aed2" cx="398.58" cy="-45" rx="64.99" ry="18"/>
<text text-anchor="middle" x="398.58" y="-41.3" font-family="Panton bold" font-size="14.00" fill="#00aed2">StatisticsGen</text>
</g>
<!-- ExampleGen&#45;&gt;StatisticsGen -->
<g id="edge2" class="edge">
<title>ExampleGen&#45;&gt;StatisticsGen</title>
<path fill="none" stroke="#606060" d="M292.11,-29.72C304.41,-31.5 317.65,-33.42 330.45,-35.28"/>
<polygon fill="#606060" stroke="#606060" points="330.2,-38.78 340.6,-36.75 331.2,-31.85 330.2,-38.78"/>
</g>
<!-- Transform -->
<g id="node5" class="node">
<title>Transform</title>
<ellipse fill="none" stroke="#00aed2" cx="733.16" cy="-18" rx="51.19" ry="18"/>
<text text-anchor="middle" x="733.16" y="-14.3" font-family="Panton bold" font-size="14.00" fill="#00aed2">Transform</text>
</g>
<!-- ExampleGen&#45;&gt;Transform -->
<g id="edge5" class="edge">
<title>ExampleGen&#45;&gt;Transform</title>
<path fill="none" stroke="#606060" d="M296.94,-19.16C309.05,-18.68 321.73,-18.25 333.59,-18 453.43,-15.47 593.58,-16.37 671.68,-17.21"/>
<polygon fill="#606060" stroke="#606060" points="671.78,-20.71 681.82,-17.32 671.86,-13.71 671.78,-20.71"/>
</g>
<!-- ExampleValidator -->
<g id="node3" class="node">
<title>ExampleValidator</title>
<ellipse fill="none" stroke="#00aed2" cx="733.16" cy="-81" rx="79.09" ry="18"/>
<text text-anchor="middle" x="733.16" y="-77.3" font-family="Panton bold" font-size="14.00" fill="#00aed2">ExampleValidator</text>
</g>
<!-- StatisticsGen&#45;&gt;ExampleValidator -->
<g id="edge11" class="edge">
<title>StatisticsGen&#45;&gt;ExampleValidator</title>
<path fill="none" stroke="#606060" d="M441.46,-58.56C459.2,-63.71 480.2,-69.05 499.58,-72 546.92,-79.21 600.28,-81.68 643.94,-82.24"/>
<polygon fill="#606060" stroke="#606060" points="643.92,-85.74 653.95,-82.34 643.99,-78.74 643.92,-85.74"/>
</g>
<!-- SchemaGen -->
<g id="node4" class="node">
<title>SchemaGen</title>
<ellipse fill="none" stroke="#00aed2" cx="558.72" cy="-45" rx="59.29" ry="18"/>
<text text-anchor="middle" x="558.72" y="-41.3" font-family="Panton bold" font-size="14.00" fill="#00aed2">SchemaGen</text>
</g>
<!-- StatisticsGen&#45;&gt;SchemaGen -->
<g id="edge3" class="edge">
<title>StatisticsGen&#45;&gt;SchemaGen</title>
<path fill="none" stroke="#606060" d="M463.9,-45C472.29,-45 480.91,-45 489.37,-45"/>
<polygon fill="#606060" stroke="#606060" points="489.57,-48.5 499.57,-45 489.57,-41.5 489.57,-48.5"/>
</g>
<!-- SchemaGen&#45;&gt;ExampleValidator -->
<g id="edge12" class="edge">
<title>SchemaGen&#45;&gt;ExampleValidator</title>
<path fill="none" stroke="#606060" d="M608.22,-55.12C625.61,-58.76 645.56,-62.92 664.29,-66.83"/>
<polygon fill="#606060" stroke="#606060" points="663.75,-70.29 674.25,-68.91 665.18,-63.44 663.75,-70.29"/>
</g>
<!-- SchemaGen&#45;&gt;Transform -->
<g id="edge4" class="edge">
<title>SchemaGen&#45;&gt;Transform</title>
<path fill="none" stroke="#606060" d="M611.93,-36.83C632.2,-33.65 655.47,-30.01 676.09,-26.78"/>
<polygon fill="#606060" stroke="#606060" points="676.65,-30.24 685.98,-25.23 675.56,-23.32 676.65,-30.24"/>
</g>
<!-- Trainer -->
<g id="node6" class="node">
<title>Trainer</title>
<ellipse fill="none" stroke="#00aed2" cx="886.8" cy="-18" rx="38.19" ry="18"/>
<text text-anchor="middle" x="886.8" y="-14.3" font-family="Panton bold" font-size="14.00" fill="#00aed2">Trainer</text>
</g>
<!-- Transform&#45;&gt;Trainer -->
<g id="edge6" class="edge">
<title>Transform&#45;&gt;Trainer</title>
<path fill="none" stroke="#606060" d="M784.65,-18C801.78,-18 820.85,-18 837.77,-18"/>
<polygon fill="#606060" stroke="#606060" points="838,-21.5 848,-18 838,-14.5 838,-21.5"/>
</g>
<!-- Evaluator -->
<g id="node7" class="node">
<title>Evaluator</title>
<ellipse fill="none" stroke="#00aed2" cx="1009.24" cy="-18" rx="48.19" ry="18"/>
<text text-anchor="middle" x="1009.24" y="-14.3" font-family="Panton bold" font-size="14.00" fill="#00aed2">Evaluator</text>
</g>
<!-- Trainer&#45;&gt;Evaluator -->
<g id="edge7" class="edge">
<title>Trainer&#45;&gt;Evaluator</title>
<path fill="none" stroke="#606060" d="M925.25,-18C933.39,-18 942.18,-18 950.89,-18"/>
<polygon fill="#606060" stroke="#606060" points="951.03,-21.5 961.03,-18 951.03,-14.5 951.03,-21.5"/>
</g>
<!-- ModelValidator -->
<g id="node8" class="node">
<title>ModelValidator</title>
<ellipse fill="none" stroke="#00aed2" cx="1163.53" cy="-18" rx="70.39" ry="18"/>
<text text-anchor="middle" x="1163.53" y="-14.3" font-family="Panton bold" font-size="14.00" fill="#00aed2">ModelValidator</text>
</g>
<!-- Evaluator&#45;&gt;ModelValidator -->
<g id="edge8" class="edge">
<title>Evaluator&#45;&gt;ModelValidator</title>
<path fill="none" stroke="#606060" d="M1057.59,-18C1065.69,-18 1074.29,-18 1082.96,-18"/>
<polygon fill="#606060" stroke="#606060" points="1083.13,-21.5 1093.13,-18 1083.13,-14.5 1083.13,-21.5"/>
</g>
<!-- Pusher -->
<g id="node9" class="node">
<title>Pusher</title>
<ellipse fill="none" stroke="#00aed2" cx="1308.72" cy="-18" rx="38.99" ry="18"/>
<text text-anchor="middle" x="1308.72" y="-14.3" font-family="Panton bold" font-size="14.00" fill="#00aed2">Pusher</text>
</g>
<!-- ModelValidator&#45;&gt;Pusher -->
<g id="edge9" class="edge">
<title>ModelValidator&#45;&gt;Pusher</title>
<path fill="none" stroke="#606060" d="M1234.03,-18C1242.65,-18 1251.31,-18 1259.5,-18"/>
<polygon fill="#606060" stroke="#606060" points="1259.61,-21.5 1269.61,-18 1259.61,-14.5 1259.61,-21.5"/>
</g>
<!-- server -->
<g id="node11" class="node">
<title>server</title>
<text text-anchor="middle" x="1478.22" y="-14.2" font-family="Panton" font-size="16.00" fill="#606060">TF Serving/TF Lite/TF JS</text>
</g>
<!-- Pusher&#45;&gt;server -->
<g id="edge10" class="edge">
<title>Pusher&#45;&gt;server</title>
<path fill="none" stroke="#606060" d="M1347.73,-18C1355.58,-18 1364.21,-18 1373.17,-18"/>
<polygon fill="#606060" stroke="#606060" points="1373.4,-21.5 1383.4,-18 1373.4,-14.5 1373.4,-21.5"/>
</g>
<!-- data -->
<g id="node10" class="node">
<title>data</title>
<text text-anchor="middle" x="71" y="-27.2" font-family="Panton" font-size="16.00" fill="#606060">Training/Validation</text>
<text text-anchor="middle" x="71" y="-9.2" font-family="Panton" font-size="16.00" fill="#606060">Data</text>
</g>
<!-- data&#45;&gt;ExampleGen -->
<g id="edge1" class="edge">
<title>data&#45;&gt;ExampleGen</title>
<path fill="none" stroke="#606060" d="M142.37,-22C150.76,-22 159.33,-22 167.71,-22"/>
<polygon fill="#606060" stroke="#606060" points="167.81,-25.5 177.81,-22 167.81,-18.5 167.81,-25.5"/>
</g>
</g>
</svg>
