<?xml version="1.0" encoding="UTF-8" standalone="no"?>
<!DOCTYPE svg PUBLIC "-//W3C//DTD SVG 1.1//EN"
 "http://www.w3.org/Graphics/SVG/1.1/DTD/svg11.dtd">
<!-- Generated by graphviz version 2.42.1 (0)
 -->
<!-- Title: match Pages: 1 -->
<svg width="583pt" height="326pt"
 viewBox="0.00 0.00 582.76 326.00" xmlns="http://www.w3.org/2000/svg" xmlns:xlink="http://www.w3.org/1999/xlink">
<g id="graph0" class="graph" transform="scale(1 1) rotate(0) translate(4 322)">
<title>match</title>
<polygon fill="white" stroke="transparent" points="-4,4 -4,-322 578.76,-322 578.76,4 -4,4"/>
<!-- tfrecords -->
<g id="node1" class="node">
<title>tfrecords</title>
<text text-anchor="middle" x="58" y="-296.2" font-family="Panton" font-size="16.00" fill="#606060">TFRecord files</text>
</g>
<!-- generate -->
<g id="node9" class="node">
<title>generate</title>
<ellipse fill="none" stroke="#00aed2" cx="210.69" cy="-246" rx="58.88" ry="31.23"/>
<text text-anchor="middle" x="210.69" y="-251.2" font-family="Panton bold" font-size="16.00" fill="#00aed2">generate</text>
<text text-anchor="middle" x="210.69" y="-233.2" font-family="Panton bold" font-size="16.00" fill="#00aed2">statistics</text>
</g>
<!-- tfrecords&#45;&gt;generate -->
<g id="edge1" class="edge">
<title>tfrecords&#45;&gt;generate</title>
<path fill="none" stroke="#606060" d="M109.6,-281.87C123.21,-276.99 138.04,-271.68 152.01,-266.67"/>
<polygon fill="#606060" stroke="#606060" points="153.29,-269.93 161.52,-263.26 150.93,-263.34 153.29,-269.93"/>
</g>
<!-- dataframe -->
<g id="node2" class="node">
<title>dataframe</title>
<text text-anchor="middle" x="58" y="-242.2" font-family="Panton" font-size="16.00" fill="#606060">DataFrame</text>
</g>
<!-- dataframe&#45;&gt;generate -->
<g id="edge2" class="edge">
<title>dataframe&#45;&gt;generate</title>
<path fill="none" stroke="#606060" d="M104.21,-246C116.05,-246 129.07,-246 141.8,-246"/>
<polygon fill="#606060" stroke="#606060" points="141.93,-249.5 151.93,-246 141.93,-242.5 141.93,-249.5"/>
</g>
<!-- csv -->
<g id="node3" class="node">
<title>csv</title>
<text text-anchor="middle" x="58" y="-188.2" font-family="Panton" font-size="16.00" fill="#606060">CSV File</text>
</g>
<!-- csv&#45;&gt;generate -->
<g id="edge3" class="edge">
<title>csv&#45;&gt;generate</title>
<path fill="none" stroke="#606060" d="M95.09,-204.93C112.15,-211.05 132.93,-218.49 152.09,-225.36"/>
<polygon fill="#606060" stroke="#606060" points="151.04,-228.7 161.64,-228.78 153.4,-222.11 151.04,-228.7"/>
</g>
<!-- tfrecords2 -->
<g id="node4" class="node">
<title>tfrecords2</title>
<text text-anchor="middle" x="363.38" y="-122.2" font-family="Panton" font-size="16.00" fill="#606060">TFRecord files</text>
</g>
<!-- validate -->
<g id="node12" class="node">
<title>validate</title>
<ellipse fill="none" stroke="#00aed2" cx="516.07" cy="-72" rx="56.64" ry="31.23"/>
<text text-anchor="middle" x="516.07" y="-77.2" font-family="Panton bold" font-size="16.00" fill="#00aed2">validate</text>
<text text-anchor="middle" x="516.07" y="-59.2" font-family="Panton bold" font-size="16.00" fill="#00aed2">new data</text>
</g>
<!-- tfrecords2&#45;&gt;validate -->
<g id="edge9" class="edge">
<title>tfrecords2&#45;&gt;validate</title>
<path fill="none" stroke="#606060" d="M414.98,-107.87C428.94,-102.86 444.18,-97.4 458.46,-92.29"/>
<polygon fill="#606060" stroke="#606060" points="459.93,-95.48 468.17,-88.81 457.57,-88.89 459.93,-95.48"/>
</g>
<!-- dataframe2 -->
<g id="node5" class="node">
<title>dataframe2</title>
<text text-anchor="middle" x="363.38" y="-68.2" font-family="Panton" font-size="16.00" fill="#606060">DataFrame</text>
</g>
<!-- dataframe2&#45;&gt;validate -->
<g id="edge10" class="edge">
<title>dataframe2&#45;&gt;validate</title>
<path fill="none" stroke="#606060" d="M409.59,-72C422.1,-72 435.93,-72 449.34,-72"/>
<polygon fill="#606060" stroke="#606060" points="449.49,-75.5 459.49,-72 449.49,-68.5 449.49,-75.5"/>
</g>
<!-- csv2 -->
<g id="node6" class="node">
<title>csv2</title>
<text text-anchor="middle" x="363.38" y="-14.2" font-family="Panton" font-size="16.00" fill="#606060">CSV File</text>
</g>
<!-- csv2&#45;&gt;validate -->
<g id="edge11" class="edge">
<title>csv2&#45;&gt;validate</title>
<path fill="none" stroke="#606060" d="M400.47,-30.93C417.83,-37.15 439.04,-44.75 458.47,-51.72"/>
<polygon fill="#606060" stroke="#606060" points="457.55,-55.11 468.14,-55.18 459.91,-48.52 457.55,-55.11"/>
</g>
<!-- statistics -->
<g id="node7" class="node">
<title>statistics</title>
<text text-anchor="middle" x="363.38" y="-242.2" font-family="Panton bold" font-size="16.00" fill="#606060">statistics</text>
</g>
<!-- visualize -->
<g id="node10" class="node">
<title>visualize</title>
<ellipse fill="none" stroke="#00aed2" cx="516.07" cy="-286" rx="58.88" ry="31.23"/>
<text text-anchor="middle" x="516.07" y="-291.2" font-family="Panton bold" font-size="16.00" fill="#00aed2">visualize</text>
<text text-anchor="middle" x="516.07" y="-273.2" font-family="Panton bold" font-size="16.00" fill="#00aed2">statistics</text>
</g>
<!-- statistics&#45;&gt;visualize -->
<g id="edge5" class="edge">
<title>statistics&#45;&gt;visualize</title>
<path fill="none" stroke="#606060" d="M405.16,-256.82C419.96,-260.75 437.02,-265.28 453.23,-269.59"/>
<polygon fill="#606060" stroke="#606060" points="452.62,-273.04 463.18,-272.23 454.41,-266.28 452.62,-273.04"/>
</g>
<!-- infer -->
<g id="node11" class="node">
<title>infer</title>
<ellipse fill="none" stroke="#00aed2" cx="516.07" cy="-206" rx="50.82" ry="31.23"/>
<text text-anchor="middle" x="516.07" y="-211.2" font-family="Panton bold" font-size="16.00" fill="#00aed2">infer</text>
<text text-anchor="middle" x="516.07" y="-193.2" font-family="Panton bold" font-size="16.00" fill="#00aed2">schema</text>
</g>
<!-- statistics&#45;&gt;infer -->
<g id="edge6" class="edge">
<title>statistics&#45;&gt;infer</title>
<path fill="none" stroke="#606060" d="M405.16,-235.18C421.85,-230.74 441.44,-225.55 459.41,-220.77"/>
<polygon fill="#606060" stroke="#606060" points="460.44,-224.12 469.21,-218.17 458.64,-217.36 460.44,-224.12"/>
</g>
<!-- schema -->
<g id="node8" class="node">
<title>schema</title>
<text text-anchor="middle" x="516.07" y="-135.2" font-family="Panton bold" font-size="16.00" fill="#606060">schema</text>
</g>
<!-- schema&#45;&gt;validate -->
<g id="edge8" class="edge">
<title>schema&#45;&gt;validate</title>
<path fill="none" stroke="#606060" d="M516.07,-120.79C516.07,-118.31 516.07,-115.83 516.07,-113.35"/>
<polygon fill="#606060" stroke="#606060" points="519.57,-113.14 516.07,-103.14 512.57,-113.14 519.57,-113.14"/>
</g>
<!-- generate&#45;&gt;statistics -->
<g id="edge4" class="edge">
<title>generate&#45;&gt;statistics</title>
<path fill="none" stroke="#606060" d="M269.52,-246C283.41,-246 298.14,-246 311.68,-246"/>
<polygon fill="#606060" stroke="#606060" points="311.76,-249.5 321.76,-246 311.76,-242.5 311.76,-249.5"/>
</g>
<!-- infer&#45;&gt;schema -->
<g id="edge7" class="edge">
<title>infer&#45;&gt;schema</title>
<path fill="none" stroke="#606060" d="M516.07,-174.65C516.07,-172.17 516.07,-169.7 516.07,-167.23"/>
<polygon fill="#606060" stroke="#606060" points="519.57,-167.06 516.07,-157.06 512.57,-167.06 519.57,-167.06"/>
</g>
</g>
</svg>
