<?xml version="1.0" encoding="UTF-8" standalone="no"?><svg xmlns="http://www.w3.org/2000/svg" xmlns:xlink="http://www.w3.org/1999/xlink" contentScriptType="application/ecmascript" contentStyleType="text/css" height="503px" preserveAspectRatio="none" style="width:841px;height:503px;" version="1.1" viewBox="0 0 841 503" width="841px" zoomAndPan="magnify"><defs/><g><rect fill="#F4F4F4" height="488.9997" style="stroke: #F4F4F4; stroke-width: 1.0;" width="239.5" x="262" y="4"/><text fill="#536366" font-family="Panton" font-size="20" font-weight="bold" lengthAdjust="spacingAndGlyphs" textLength="104" x="329.75" y="22.8">deployment</text><rect fill="#D3D3D3" height="204.9999" style="stroke: #536366; stroke-width: 1.0;" width="10" x="311" y="141.9999"/><line style="stroke: #536366; stroke-width: 1.0; stroke-dasharray: 5.0,5.0;" x1="32" x2="32" y1="102" y2="402.9998"/><line style="stroke: #536366; stroke-width: 1.0; stroke-dasharray: 5.0,5.0;" x1="316" x2="316" y1="102" y2="402.9998"/><line style="stroke: #536366; stroke-width: 1.0; stroke-dasharray: 5.0,5.0;" x1="441.5" x2="441.5" y1="102" y2="402.9998"/><line style="stroke: #536366; stroke-width: 1.0; stroke-dasharray: 5.0,5.0;" x1="771.5" x2="771.5" y1="102" y2="402.9998"/><text fill="#536366" font-family="Panton" font-size="20" lengthAdjust="spacingAndGlyphs" textLength="42" x="8" y="96.8">User</text><ellipse cx="32" cy="25" fill="#FFFFFF" rx="8" ry="8" style="stroke: #536366; stroke-width: 2.0;"/><path d="M32,33 L32,60 M19,41 L45,41 M32,60 L19,75 M32,60 L45,75 " fill="none" style="stroke: #536366; stroke-width: 2.0;"/><text fill="#536366" font-family="Panton" font-size="20" lengthAdjust="spacingAndGlyphs" textLength="42" x="8" y="420.7998">User</text><ellipse cx="32" cy="435.9997" fill="#FFFFFF" rx="8" ry="8" style="stroke: #536366; stroke-width: 2.0;"/><path d="M32,443.9997 L32,470.9997 M19,451.9997 L45,451.9997 M32,470.9997 L19,485.9997 M32,470.9997 L45,485.9997 " fill="none" style="stroke: #536366; stroke-width: 2.0;"/><text fill="#00AED2" font-family="Panton" font-size="20" font-weight="bold" lengthAdjust="spacingAndGlyphs" textLength="22" x="266" y="96.8">TF</text><text fill="#00AED2" font-family="Panton" font-size="20" lengthAdjust="spacingAndGlyphs" textLength="0" x="293" y="96.8"/><text fill="#00AED2" font-family="Panton" font-size="20" font-weight="bold" lengthAdjust="spacingAndGlyphs" textLength="67" x="293" y="96.8">Serving</text><ellipse cx="316" cy="62" fill="#D3D3D3" rx="12" ry="12" style="stroke: #536366; stroke-width: 2.0;"/><line style="stroke: #536366; stroke-width: 2.0;" x1="304" x2="328" y1="76" y2="76"/><text fill="#00AED2" font-family="Panton" font-size="20" font-weight="bold" lengthAdjust="spacingAndGlyphs" textLength="22" x="266" y="420.7998">TF</text><text fill="#00AED2" font-family="Panton" font-size="20" lengthAdjust="spacingAndGlyphs" textLength="0" x="293" y="420.7998"/><text fill="#00AED2" font-family="Panton" font-size="20" font-weight="bold" lengthAdjust="spacingAndGlyphs" textLength="67" x="293" y="420.7998">Serving</text><ellipse cx="316" cy="441.9997" fill="#D3D3D3" rx="12" ry="12" style="stroke: #536366; stroke-width: 2.0;"/><line style="stroke: #536366; stroke-width: 2.0;" x1="304" x2="328" y1="455.9997" y2="455.9997"/><text fill="#536366" font-family="Panton" font-size="20" lengthAdjust="spacingAndGlyphs" textLength="105" x="386.5" y="96.8">File Storage</text><path d="M424,42 C424,32 442,32 442,32 C442,32 460,32 460,42 L460,68 C460,78 442,78 442,78 C442,78 424,78 424,68 L424,42 " fill="#D3D3D3" style="stroke: #536366; stroke-width: 1.5;"/><path d="M424,42 C424,52 442,52 442,52 C442,52 460,52 460,42 " fill="none" style="stroke: #536366; stroke-width: 1.5;"/><text fill="#536366" font-family="Panton" font-size="20" lengthAdjust="spacingAndGlyphs" textLength="105" x="386.5" y="420.7998">File Storage</text><path d="M424,435.9997 C424,425.9997 442,425.9997 442,425.9997 C442,425.9997 460,425.9997 460,435.9997 L460,461.9997 C460,471.9997 442,471.9997 442,471.9997 C442,471.9997 424,471.9997 424,461.9997 L424,435.9997 " fill="#D3D3D3" style="stroke: #536366; stroke-width: 1.5;"/><path d="M424,435.9997 C424,445.9997 442,445.9997 442,445.9997 C442,445.9997 460,445.9997 460,435.9997 " fill="none" style="stroke: #536366; stroke-width: 1.5;"/><text fill="#536366" font-family="Panton" font-size="20" lengthAdjust="spacingAndGlyphs" textLength="122" x="707.5" y="96.8">Data Scientist</text><ellipse cx="771.5" cy="25" fill="#FFFFFF" rx="8" ry="8" style="stroke: #536366; stroke-width: 2.0;"/><path d="M771.5,33 L771.5,60 M758.5,41 L784.5,41 M771.5,60 L758.5,75 M771.5,60 L784.5,75 " fill="none" style="stroke: #536366; stroke-width: 2.0;"/><text fill="#536366" font-family="Panton" font-size="20" lengthAdjust="spacingAndGlyphs" textLength="122" x="707.5" y="420.7998">Data Scientist</text><ellipse cx="771.5" cy="435.9997" fill="#FFFFFF" rx="8" ry="8" style="stroke: #536366; stroke-width: 2.0;"/><path d="M771.5,443.9997 L771.5,470.9997 M758.5,451.9997 L784.5,451.9997 M771.5,470.9997 L758.5,485.9997 M771.5,470.9997 L784.5,485.9997 " fill="none" style="stroke: #536366; stroke-width: 2.0;"/><rect fill="#D3D3D3" height="204.9999" style="stroke: #536366; stroke-width: 1.0;" width="10" x="311" y="141.9999"/><polygon fill="#00AED2" points="299,137.9999,309,141.9999,299,145.9999,303,141.9999" style="stroke: #00AED2; stroke-width: 1.0;"/><line style="stroke: #00AED2; stroke-width: 3.0;" x1="32" x2="305" y1="141.9999" y2="141.9999"/><text fill="#000000" font-family="Panton" font-size="20" lengthAdjust="spacingAndGlyphs" textLength="210" x="39" y="134.7999">query via REST or gRPC</text><polygon fill="#00AED2" points="430,214.9999,440,218.9999,430,222.9999,434,218.9999" style="stroke: #00AED2; stroke-width: 1.0;"/><line style="stroke: #00AED2; stroke-width: 3.0; stroke-dasharray: 2.0,2.0;" x1="321" x2="436" y1="218.9999" y2="218.9999"/><text fill="#000000" font-family="Panton" font-size="20" lengthAdjust="spacingAndGlyphs" textLength="97" x="328" y="211.7999">read model</text><path d="M447,154.9999 L447,259.9999 L722,259.9999 L722,164.9999 L712,154.9999 L447,154.9999 " fill="#FFFFFF" style="stroke: #FFFFFF; stroke-width: 1.0;"/><path d="M712,154.9999 L712,164.9999 L722,164.9999 L712,154.9999 " fill="#FFFFFF" style="stroke: #FFFFFF; stroke-width: 1.0;"/><text fill="#536366" font-family="Panton" font-size="20" lengthAdjust="spacingAndGlyphs" textLength="231" x="453" y="178.7999">model_path/models.config</text><text fill="#536366" font-family="Panton" font-size="20" lengthAdjust="spacingAndGlyphs" textLength="251" x="453" y="202.7999">model_path/digit_classifier/1</text><text fill="#536366" font-family="Panton" font-size="20" lengthAdjust="spacingAndGlyphs" textLength="254" x="453" y="226.7999">model_path/digit_classifier/2</text><text fill="#536366" font-family="Panton" font-size="20" lengthAdjust="spacingAndGlyphs" textLength="246" x="453" y="250.7998">model_path/digit_matcher/1</text><line style="stroke: #00AED2; stroke-width: 3.0; stroke-dasharray: 2.0,2.0;" x1="321" x2="363" y1="295.9998" y2="295.9998"/><line style="stroke: #00AED2; stroke-width: 3.0; stroke-dasharray: 2.0,2.0;" x1="363" x2="363" y1="295.9998" y2="308.9998"/><line style="stroke: #00AED2; stroke-width: 3.0; stroke-dasharray: 2.0,2.0;" x1="322" x2="363" y1="308.9998" y2="308.9998"/><polygon fill="#00AED2" points="332,304.9998,322,308.9998,332,312.9998,328,308.9998" style="stroke: #00AED2; stroke-width: 1.0;"/><text fill="#000000" font-family="Panton" font-size="20" lengthAdjust="spacingAndGlyphs" textLength="87" x="328" y="288.7998">run model</text><polygon fill="#00AED2" points="43,342.9998,33,346.9998,43,350.9998,39,346.9998" style="stroke: #00AED2; stroke-width: 1.0;"/><line style="stroke: #00AED2; stroke-width: 3.0;" x1="37" x2="315" y1="346.9998" y2="346.9998"/><text fill="#000000" font-family="Panton" font-size="20" lengthAdjust="spacingAndGlyphs" textLength="146" x="49" y="339.7998">return prediction</text><polygon fill="#00AED2" points="453,380.9998,443,384.9998,453,388.9998,449,384.9998" style="stroke: #00AED2; stroke-width: 1.0;"/><line style="stroke: #00AED2; stroke-width: 3.0;" x1="447" x2="770.5" y1="384.9998" y2="384.9998"/><text fill="#000000" font-family="Panton" font-size="20" lengthAdjust="spacingAndGlyphs" textLength="244" x="459" y="377.7998">add/update/rollback models</text><!--MD5=[4ae6a312b3567dbac7a65ccf65e6caa5]
@startuml
skinparam shadowing false
skinparam DefaultFontName Panton
skinparam DefaultFontSize 20

skinparam actor {
        BackgroundColor white
        BorderColor #536366
        FontColor  #536366
        }

skinparam note {
        BorderColor white
        BackgroundColor white
        FontColor #536366
}

skinparam entity {
        BackgroundColor lightgray
        BorderColor #536366
        FontColor  #00aed2
        }

skinparam database {
        BackgroundColor lightgray
        BorderColor #536366
        FontColor #536366
}

skinparam sequence {
        ArrowColor #00aed2
        ArrowThickness 3
        LifeLineBorderColor #536366
        LifeLineBAckgroundColor lightgray
        GroupBackgroundColor #f0f0f0
        GroupBorderColor #f0f0f0
        BoxBorderColor #f4f4f4
        BoxBackgroundColor #f4f4f4
        BoxFontColor #536366
}

skinparam BoxPadding 200


actor "User" as User
box "deployment"
entity "**TF** **Serving**" as TFServing
database "File Storage" as FileStorage
end box
actor "Data Scientist" as DataScientist

User -> TFServing ++: query via REST or gRPC
TFServing - -> FileStorage: read model
note right
        model_path/models.config
        model_path/digit_classifier/1
        model_path/digit_classifier/2
        model_path/digit_matcher/1
end note
TFServing - -> TFServing: run model
User <- TFServing - -: return prediction
FileStorage <- DataScientist: add/update/rollback models

@enduml

PlantUML version 1.2019.13(Tue Dec 10 18:18:29 CET 2019)
(GPL source distribution)
Java Runtime: OpenJDK Runtime Environment
JVM: OpenJDK 64-Bit Server VM
Java Version: 11.0.6+10-suse-1.1-x8664
Operating System: Linux
Default Encoding: UTF-8
Language: en
Country: US
--></g></svg>