<?xml version="1.0" encoding="UTF-8" standalone="no"?>
<!DOCTYPE svg PUBLIC "-//W3C//DTD SVG 1.1//EN"
 "http://www.w3.org/Graphics/SVG/1.1/DTD/svg11.dtd">
<!-- Generated by graphviz version 2.42.1 (0)
 -->
<!-- Title: match Pages: 1 -->
<svg width="580pt" height="340pt"
 viewBox="0.00 0.00 579.90 340.00" xmlns="http://www.w3.org/2000/svg" xmlns:xlink="http://www.w3.org/1999/xlink">
<g id="graph0" class="graph" transform="scale(1 1) rotate(0) translate(4 336)">
<title>match</title>
<polygon fill="white" stroke="transparent" points="-4,4 -4,-336 575.9,-336 575.9,4 -4,4"/>
<!-- tfrecords -->
<g id="node1" class="node">
<title>tfrecords</title>
<text text-anchor="middle" x="58" y="-310.2" font-family="Panton" font-size="16.00" fill="#606060">TFRecord files</text>
</g>
<!-- generate -->
<g id="node9" class="node">
<title>generate</title>
<ellipse fill="none" stroke="#00aed2" cx="210.69" cy="-260" rx="58.88" ry="31.23"/>
<text text-anchor="middle" x="210.69" y="-265.2" font-family="Panton bold" font-size="16.00" fill="#00aed2">generate</text>
<text text-anchor="middle" x="210.69" y="-247.2" font-family="Panton bold" font-size="16.00" fill="#00aed2">statistics</text>
</g>
<!-- tfrecords&#45;&gt;generate -->
<g id="edge1" class="edge">
<title>tfrecords&#45;&gt;generate</title>
<path fill="none" stroke="#606060" d="M109.6,-295.87C123.21,-290.99 138.04,-285.68 152.01,-280.67"/>
<polygon fill="#606060" stroke="#606060" points="153.29,-283.93 161.52,-277.26 150.93,-277.34 153.29,-283.93"/>
</g>
<!-- dataframe -->
<g id="node2" class="node">
<title>dataframe</title>
<text text-anchor="middle" x="58" y="-256.2" font-family="Panton" font-size="16.00" fill="#606060">DataFrame</text>
</g>
<!-- dataframe&#45;&gt;generate -->
<g id="edge2" class="edge">
<title>dataframe&#45;&gt;generate</title>
<path fill="none" stroke="#606060" d="M104.21,-260C116.05,-260 129.07,-260 141.8,-260"/>
<polygon fill="#606060" stroke="#606060" points="141.93,-263.5 151.93,-260 141.93,-256.5 141.93,-263.5"/>
</g>
<!-- csv -->
<g id="node3" class="node">
<title>csv</title>
<text text-anchor="middle" x="58" y="-202.2" font-family="Panton" font-size="16.00" fill="#606060">CSV File</text>
</g>
<!-- csv&#45;&gt;generate -->
<g id="edge3" class="edge">
<title>csv&#45;&gt;generate</title>
<path fill="none" stroke="#606060" d="M95.09,-218.93C112.15,-225.05 132.93,-232.49 152.09,-239.36"/>
<polygon fill="#606060" stroke="#606060" points="151.04,-242.7 161.64,-242.78 153.4,-236.11 151.04,-242.7"/>
</g>
<!-- tfrecords2 -->
<g id="node4" class="node">
<title>tfrecords2</title>
<text text-anchor="middle" x="364.07" y="-122.2" font-family="Panton" font-size="16.00" fill="#606060">TFRecord files</text>
</g>
<!-- validate -->
<g id="node12" class="node">
<title>validate</title>
<ellipse fill="none" stroke="#00aed2" cx="515.33" cy="-99" rx="56.64" ry="31.23"/>
<text text-anchor="middle" x="515.33" y="-104.2" font-family="Panton bold" font-size="16.00" fill="#00aed2">validate</text>
<text text-anchor="middle" x="515.33" y="-86.2" font-family="Panton bold" font-size="16.00" fill="#00aed2">new data</text>
</g>
<!-- tfrecords2&#45;&gt;validate -->
<g id="edge9" class="edge">
<title>tfrecords2&#45;&gt;validate</title>
<path fill="none" stroke="#606060" d="M422.35,-115.64C431.87,-113.92 441.79,-112.12 451.43,-110.38"/>
<polygon fill="#606060" stroke="#606060" points="452.15,-113.81 461.36,-108.58 450.9,-106.92 452.15,-113.81"/>
</g>
<!-- dataframe2 -->
<g id="node5" class="node">
<title>dataframe2</title>
<text text-anchor="middle" x="364.07" y="-68.2" font-family="Panton" font-size="16.00" fill="#606060">DataFrame</text>
</g>
<!-- dataframe2&#45;&gt;validate -->
<g id="edge10" class="edge">
<title>dataframe2&#45;&gt;validate</title>
<path fill="none" stroke="#606060" d="M410.26,-80.17C423.24,-82.52 437.63,-85.13 451.47,-87.63"/>
<polygon fill="#606060" stroke="#606060" points="450.96,-91.09 461.43,-89.43 452.21,-84.21 450.96,-91.09"/>
</g>
<!-- csv2 -->
<g id="node6" class="node">
<title>csv2</title>
<text text-anchor="middle" x="364.07" y="-14.2" font-family="Panton" font-size="16.00" fill="#606060">CSV File</text>
</g>
<!-- csv2&#45;&gt;validate -->
<g id="edge11" class="edge">
<title>csv2&#45;&gt;validate</title>
<path fill="none" stroke="#606060" d="M401.33,-34.33C408.5,-37.73 415.91,-41.39 422.76,-45 437.77,-52.91 453.8,-62.11 468.19,-70.64"/>
<polygon fill="#606060" stroke="#606060" points="466.54,-73.73 476.92,-75.85 470.13,-67.72 466.54,-73.73"/>
</g>
<!-- statistics -->
<g id="node7" class="node">
<title>statistics</title>
<text text-anchor="middle" x="364.07" y="-256.2" font-family="Panton bold" font-size="16.00" fill="#606060">statistics</text>
</g>
<!-- visualize -->
<g id="node10" class="node">
<title>visualize</title>
<ellipse fill="none" stroke="#00aed2" cx="364.07" cy="-193" rx="58.88" ry="31.23"/>
<text text-anchor="middle" x="364.07" y="-198.2" font-family="Panton bold" font-size="16.00" fill="#00aed2">visualize</text>
<text text-anchor="middle" x="364.07" y="-180.2" font-family="Panton bold" font-size="16.00" fill="#00aed2">statistics</text>
</g>
<!-- statistics&#45;&gt;visualize -->
<g id="edge5" class="edge">
<title>statistics&#45;&gt;visualize</title>
<path fill="none" stroke="#606060" d="M364.07,-241.79C364.07,-239.31 364.07,-236.83 364.07,-234.35"/>
<polygon fill="#606060" stroke="#606060" points="367.57,-234.14 364.07,-224.14 360.57,-234.14 367.57,-234.14"/>
</g>
<!-- infer -->
<g id="node11" class="node">
<title>infer</title>
<ellipse fill="none" stroke="#00aed2" cx="515.33" cy="-253" rx="50.82" ry="31.23"/>
<text text-anchor="middle" x="515.33" y="-258.2" font-family="Panton bold" font-size="16.00" fill="#00aed2">infer</text>
<text text-anchor="middle" x="515.33" y="-240.2" font-family="Panton bold" font-size="16.00" fill="#00aed2">schema</text>
</g>
<!-- statistics&#45;&gt;infer -->
<g id="edge6" class="edge">
<title>statistics&#45;&gt;infer</title>
<path fill="none" stroke="#606060" d="M405.86,-258.09C420.87,-257.38 438.19,-256.57 454.53,-255.8"/>
<polygon fill="#606060" stroke="#606060" points="454.72,-259.3 464.55,-255.33 454.4,-252.31 454.72,-259.3"/>
</g>
<!-- schema -->
<g id="node8" class="node">
<title>schema</title>
<text text-anchor="middle" x="515.33" y="-175.2" font-family="Panton bold" font-size="16.00" fill="#606060">schema</text>
</g>
<!-- schema&#45;&gt;validate -->
<g id="edge8" class="edge">
<title>schema&#45;&gt;validate</title>
<path fill="none" stroke="#606060" d="M515.33,-160.72C515.33,-154.05 515.33,-147.39 515.33,-140.72"/>
<polygon fill="#606060" stroke="#606060" points="518.83,-140.25 515.33,-130.25 511.83,-140.25 518.83,-140.25"/>
</g>
<!-- generate&#45;&gt;statistics -->
<g id="edge4" class="edge">
<title>generate&#45;&gt;statistics</title>
<path fill="none" stroke="#606060" d="M269.78,-260C283.74,-260 298.53,-260 312.13,-260"/>
<polygon fill="#606060" stroke="#606060" points="312.27,-263.5 322.27,-260 312.27,-256.5 312.27,-263.5"/>
</g>
<!-- infer&#45;&gt;schema -->
<g id="edge7" class="edge">
<title>infer&#45;&gt;schema</title>
<path fill="none" stroke="#606060" d="M515.33,-221.62C515.33,-216.92 515.33,-212.21 515.33,-207.51"/>
<polygon fill="#606060" stroke="#606060" points="518.83,-207.21 515.33,-197.21 511.83,-207.21 518.83,-207.21"/>
</g>
</g>
</svg>
