<?xml version="1.0" encoding="UTF-8" standalone="no"?>
<!DOCTYPE svg PUBLIC "-//W3C//DTD SVG 1.1//EN"
 "http://www.w3.org/Graphics/SVG/1.1/DTD/svg11.dtd">
<!-- Generated by graphviz version 2.42.1 (0)
 -->
<!-- Title: stack Pages: 1 -->
<svg width="667pt" height="150pt"
 viewBox="0.00 0.00 666.84 150.23" xmlns="http://www.w3.org/2000/svg" xmlns:xlink="http://www.w3.org/1999/xlink">
<g id="graph0" class="graph" transform="scale(1 1) rotate(0) translate(4 146.23)">
<title>stack</title>
<polygon fill="white" stroke="transparent" points="-4,4 -4,-146.23 662.84,-146.23 662.84,4 -4,4"/>
<!-- image_1 -->
<g id="node1" class="node">
<title>image_1</title>
<text text-anchor="middle" x="37.5" y="-107.31" font-family="Panton" font-size="16.00" fill="#606060">image_1</text>
</g>
<!-- classifier_1 -->
<g id="node6" class="node">
<title>classifier_1</title>
<ellipse fill="none" stroke="#606060" cx="176.76" cy="-111.11" rx="65.52" ry="31.23"/>
<text text-anchor="middle" x="176.76" y="-116.31" font-family="Panton" font-size="16.00" fill="#606060">pre&#45;trained</text>
<text text-anchor="middle" x="176.76" y="-98.31" font-family="Panton" font-size="16.00" fill="#606060">classifier</text>
</g>
<!-- image_1&#45;&gt;classifier_1 -->
<g id="edge1" class="edge">
<title>image_1&#45;&gt;classifier_1</title>
<path fill="none" stroke="#606060" d="M73.85,-111.11C82.19,-111.11 91.4,-111.11 100.76,-111.11"/>
<polygon fill="#606060" stroke="#606060" points="100.96,-114.61 110.96,-111.11 100.96,-107.61 100.96,-114.61"/>
</g>
<!-- image_2 -->
<g id="node2" class="node">
<title>image_2</title>
<text text-anchor="middle" x="37.5" y="-27.31" font-family="Panton" font-size="16.00" fill="#606060">image_2</text>
</g>
<!-- classifier_2 -->
<g id="node7" class="node">
<title>classifier_2</title>
<ellipse fill="none" stroke="#606060" cx="176.76" cy="-31.11" rx="65.52" ry="31.23"/>
<text text-anchor="middle" x="176.76" y="-36.31" font-family="Panton" font-size="16.00" fill="#606060">pre&#45;trained</text>
<text text-anchor="middle" x="176.76" y="-18.31" font-family="Panton" font-size="16.00" fill="#606060">classifier</text>
</g>
<!-- image_2&#45;&gt;classifier_2 -->
<g id="edge4" class="edge">
<title>image_2&#45;&gt;classifier_2</title>
<path fill="none" stroke="#606060" d="M75.28,-31.11C83.25,-31.11 91.94,-31.11 100.78,-31.11"/>
<polygon fill="#606060" stroke="#606060" points="100.79,-34.61 110.79,-31.11 100.79,-27.61 100.79,-34.61"/>
</g>
<!-- probs_1 -->
<g id="node3" class="node">
<title>probs_1</title>
<text text-anchor="middle" x="315.02" y="-100.31" font-family="Panton" font-size="16.00" fill="#606060">probs_1</text>
</g>
<!-- lambda -->
<g id="node8" class="node">
<title>lambda</title>
<ellipse fill="none" stroke="#00aed2" cx="463.18" cy="-71.11" rx="75.82" ry="43.68"/>
<text text-anchor="middle" x="463.18" y="-85.31" font-family="Panton bold" font-size="16.00" fill="#00aed2">lambda layer</text>
<text text-anchor="middle" x="463.18" y="-67.31" font-family="Panton bold" font-size="16.00" fill="#00aed2">or</text>
<text text-anchor="middle" x="463.18" y="-49.31" font-family="Panton bold" font-size="16.00" fill="#00aed2">dense layer</text>
</g>
<!-- probs_1&#45;&gt;lambda -->
<g id="edge3" class="edge">
<title>probs_1&#45;&gt;lambda</title>
<path fill="none" stroke="#606060" d="M350.29,-96.38C360.08,-94.17 371.18,-91.66 382.49,-89.11"/>
<polygon fill="#606060" stroke="#606060" points="383.47,-92.47 392.45,-86.86 381.93,-85.64 383.47,-92.47"/>
</g>
<!-- probs_2 -->
<g id="node4" class="node">
<title>probs_2</title>
<text text-anchor="middle" x="315.02" y="-40.31" font-family="Panton" font-size="16.00" fill="#606060">probs_2</text>
</g>
<!-- probs_2&#45;&gt;lambda -->
<g id="edge6" class="edge">
<title>probs_2&#45;&gt;lambda</title>
<path fill="none" stroke="#606060" d="M351.78,-50.72C360.65,-52.36 370.53,-54.18 380.62,-56.05"/>
<polygon fill="#606060" stroke="#606060" points="380.3,-59.54 390.76,-57.92 381.57,-52.66 380.3,-59.54"/>
</g>
<!-- prediction -->
<g id="node5" class="node">
<title>prediction</title>
<text text-anchor="middle" x="616.84" y="-67.31" font-family="Panton" font-size="16.00" fill="#606060">prediction</text>
</g>
<!-- classifier_1&#45;&gt;probs_1 -->
<g id="edge2" class="edge">
<title>classifier_1&#45;&gt;probs_1</title>
<path fill="none" stroke="#606060" d="M242.3,-107.8C251.49,-107.32 260.78,-106.85 269.47,-106.4"/>
<polygon fill="#606060" stroke="#606060" points="269.94,-109.88 279.74,-105.87 269.58,-102.89 269.94,-109.88"/>
</g>
<!-- classifier_2&#45;&gt;probs_2 -->
<g id="edge5" class="edge">
<title>classifier_2&#45;&gt;probs_2</title>
<path fill="none" stroke="#606060" d="M241.5,-37.19C250.47,-38.05 259.53,-38.91 268.07,-39.73"/>
<polygon fill="#606060" stroke="#606060" points="267.9,-43.23 278.19,-40.69 268.57,-36.26 267.9,-43.23"/>
</g>
<!-- lambda&#45;&gt;prediction -->
<g id="edge7" class="edge">
<title>lambda&#45;&gt;prediction</title>
<path fill="none" stroke="#606060" d="M539.12,-71.11C547.73,-71.11 556.35,-71.11 564.54,-71.11"/>
<polygon fill="#606060" stroke="#606060" points="564.66,-74.61 574.66,-71.11 564.66,-67.61 564.66,-74.61"/>
</g>
</g>
</svg>
