<?xml version="1.0" encoding="UTF-8" standalone="no"?>
<!DOCTYPE svg PUBLIC "-//W3C//DTD SVG 1.1//EN"
 "http://www.w3.org/Graphics/SVG/1.1/DTD/svg11.dtd">
<!-- Generated by graphviz version 2.42.1 (0)
 -->
<!-- Title: stack Pages: 1 -->
<svg width="856pt" height="44pt"
 viewBox="0.00 0.00 856.00 44.00" xmlns="http://www.w3.org/2000/svg" xmlns:xlink="http://www.w3.org/1999/xlink">
<g id="graph0" class="graph" transform="scale(1 1) rotate(0) translate(4 40)">
<title>stack</title>
<polygon fill="white" stroke="transparent" points="-4,4 -4,-40 852,-40 852,4 -4,4"/>
<!-- x -->
<g id="node1" class="node">
<title>x</title>
<text text-anchor="middle" x="27" y="-11.8" font-family="Panton" font-size="24.00">x</text>
</g>
<!-- cnn1 -->
<g id="node3" class="node">
<title>cnn1</title>
<polygon fill="none" stroke="black" points="317,-36 90,-36 90,0 317,0 317,-36"/>
<text text-anchor="middle" x="203.5" y="-11.8" font-family="Panton" font-size="24.00">convolutional layer 1</text>
</g>
<!-- x&#45;&gt;cnn1 -->
<g id="edge1" class="edge">
<title>x&#45;&gt;cnn1</title>
<path fill="none" stroke="black" d="M54.12,-18C61.67,-18 70.45,-18 79.9,-18"/>
<polygon fill="black" stroke="black" points="79.95,-21.5 89.95,-18 79.95,-14.5 79.95,-21.5"/>
</g>
<!-- y -->
<g id="node2" class="node">
<title>y</title>
<text text-anchor="middle" x="821" y="-11.8" font-family="Panton" font-size="24.00">y</text>
</g>
<!-- cnn2 -->
<g id="node4" class="node">
<title>cnn2</title>
<polygon fill="none" stroke="black" points="584,-36 353,-36 353,0 584,0 584,-36"/>
<text text-anchor="middle" x="468.5" y="-11.8" font-family="Panton" font-size="24.00">convolutional layer 2</text>
</g>
<!-- cnn1&#45;&gt;cnn2 -->
<g id="edge2" class="edge">
<title>cnn1&#45;&gt;cnn2</title>
<path fill="none" stroke="black" d="M317.18,-18C325.7,-18 334.32,-18 342.91,-18"/>
<polygon fill="black" stroke="black" points="342.96,-21.5 352.96,-18 342.96,-14.5 342.96,-21.5"/>
</g>
<!-- dense -->
<g id="node5" class="node">
<title>dense</title>
<polygon fill="none" stroke="black" points="758,-36 620,-36 620,0 758,0 758,-36"/>
<text text-anchor="middle" x="689" y="-11.8" font-family="Panton" font-size="24.00">dense layer</text>
</g>
<!-- cnn2&#45;&gt;dense -->
<g id="edge3" class="edge">
<title>cnn2&#45;&gt;dense</title>
<path fill="none" stroke="black" d="M584.19,-18C592.83,-18 601.43,-18 609.77,-18"/>
<polygon fill="black" stroke="black" points="609.79,-21.5 619.79,-18 609.79,-14.5 609.79,-21.5"/>
</g>
<!-- dense&#45;&gt;y -->
<g id="edge4" class="edge">
<title>dense&#45;&gt;y</title>
<path fill="none" stroke="black" d="M758.05,-18C766.93,-18 775.74,-18 783.81,-18"/>
<polygon fill="black" stroke="black" points="783.93,-21.5 793.93,-18 783.93,-14.5 783.93,-21.5"/>
</g>
</g>
</svg>
