<?xml version="1.0" encoding="UTF-8" standalone="no"?>
<!DOCTYPE svg PUBLIC "-//W3C//DTD SVG 1.1//EN"
 "http://www.w3.org/Graphics/SVG/1.1/DTD/svg11.dtd">
<!-- Generated by graphviz version 2.42.1 (0)
 -->
<!-- Title: loss Pages: 1 -->
<svg width="500pt" height="124pt"
 viewBox="0.00 0.00 499.61 123.84" xmlns="http://www.w3.org/2000/svg" xmlns:xlink="http://www.w3.org/1999/xlink">
<g id="graph0" class="graph" transform="scale(1 1) rotate(0) translate(4 119.84)">
<title>loss</title>
<polygon fill="white" stroke="transparent" points="-4,4 -4,-119.84 495.61,-119.84 495.61,4 -4,4"/>
<!-- x -->
<g id="node1" class="node">
<title>x</title>
<text text-anchor="middle" x="27" y="-68.2" font-family="Panton" font-size="16.00" fill="#536366">x</text>
</g>
<!-- model -->
<g id="node6" class="node">
<title>model</title>
<ellipse fill="none" stroke="#536366" cx="130.31" cy="-72" rx="40.11" ry="43.68"/>
<text text-anchor="middle" x="130.31" y="-86.2" font-family="Panton" font-size="16.00" fill="#536366">your</text>
<text text-anchor="middle" x="130.31" y="-68.2" font-family="Panton" font-size="16.00" fill="#536366">fancy</text>
<text text-anchor="middle" x="130.31" y="-50.2" font-family="Panton" font-size="16.00" fill="#536366">model</text>
</g>
<!-- x&#45;&gt;model -->
<g id="edge1" class="edge">
<title>x&#45;&gt;model</title>
<path fill="none" stroke="#536366" d="M54.09,-72C61.93,-72 70.8,-72 79.63,-72"/>
<polygon fill="#536366" stroke="#536366" points="79.92,-75.5 89.92,-72 79.92,-68.5 79.92,-75.5"/>
</g>
<!-- prediction -->
<g id="node2" class="node">
<title>prediction</title>
<text text-anchor="middle" x="248.61" y="-68.2" font-family="Panton" font-size="16.00" fill="#536366">prediction</text>
</g>
<!-- loss_function -->
<g id="node5" class="node">
<title>loss_function</title>
<polygon fill="none" stroke="#536366" points="401.61,-67 326.61,-67 326.61,-23 401.61,-23 401.61,-67"/>
<text text-anchor="middle" x="364.11" y="-50.2" font-family="Panton" font-size="16.00" fill="#536366">loss</text>
<text text-anchor="middle" x="364.11" y="-32.2" font-family="Panton" font-size="16.00" fill="#536366">function</text>
</g>
<!-- prediction&#45;&gt;loss_function -->
<g id="edge3" class="edge">
<title>prediction&#45;&gt;loss_function</title>
<path fill="none" stroke="#536366" d="M290.91,-62.18C299.29,-60.18 308.16,-58.07 316.7,-56.04"/>
<polygon fill="#536366" stroke="#536366" points="317.62,-59.42 326.54,-53.7 316,-52.61 317.62,-59.42"/>
</g>
<!-- y -->
<g id="node3" class="node">
<title>y</title>
<text text-anchor="middle" x="248.61" y="-14.2" font-family="Panton" font-size="16.00" fill="#536366">y</text>
</g>
<!-- y&#45;&gt;loss_function -->
<g id="edge5" class="edge">
<title>y&#45;&gt;loss_function</title>
<path fill="none" stroke="#536366" d="M275.65,-24.19C287.76,-27.08 302.55,-30.59 316.49,-33.91"/>
<polygon fill="#536366" stroke="#536366" points="315.9,-37.37 326.44,-36.28 317.52,-30.56 315.9,-37.37"/>
</g>
<!-- loss -->
<g id="node4" class="node">
<title>loss</title>
<text text-anchor="middle" x="464.61" y="-41.2" font-family="Panton bold" font-size="16.00" fill="#00aed2">loss</text>
</g>
<!-- loss_function&#45;&gt;loss -->
<g id="edge4" class="edge">
<title>loss_function&#45;&gt;loss</title>
<path fill="none" stroke="#536366" d="M401.79,-45C410.1,-45 418.91,-45 427.21,-45"/>
<polygon fill="#536366" stroke="#536366" points="427.36,-48.5 437.36,-45 427.36,-41.5 427.36,-48.5"/>
</g>
<!-- model&#45;&gt;prediction -->
<g id="edge2" class="edge">
<title>model&#45;&gt;prediction</title>
<path fill="none" stroke="#536366" d="M170.68,-72C178.83,-72 187.54,-72 196.05,-72"/>
<polygon fill="#536366" stroke="#536366" points="196.29,-75.5 206.29,-72 196.29,-68.5 196.29,-75.5"/>
</g>
</g>
</svg>
