<?xml version="1.0" encoding="UTF-8" standalone="no"?><svg xmlns="http://www.w3.org/2000/svg" xmlns:xlink="http://www.w3.org/1999/xlink" contentScriptType="application/ecmascript" contentStyleType="text/css" height="522px" preserveAspectRatio="none" style="width:781px;height:522px;" version="1.1" viewBox="0 0 781 522" width="781px" zoomAndPan="magnify"><defs><filter height="300%" id="f1a633muer5xpp" width="300%" x="-1" y="-1"><feGaussianBlur result="blurOut" stdDeviation="2.0"/><feColorMatrix in="blurOut" result="blurOut2" type="matrix" values="0 0 0 0 0 0 0 0 0 0 0 0 0 0 0 0 0 0 .4 0"/><feOffset dx="4.0" dy="4.0" in="blurOut2" result="blurOut3"/><feBlend in="SourceGraphic" in2="blurOut3" mode="normal"/></filter></defs><g><polygon fill="#FFA500" filter="url(#f1a633muer5xpp)" points="271.5,221.9998,271.5,222.21,281.0714,221.5855,290.6429,222.1931,300.2143,222.3995,309.7857,221.2864,319.3571,221.9221,328.9286,221.5733,338.5,221.9998,338.4511,221.8817,340.2591,222.7111,341.9473,223.2514,343.8739,224.367,345.4907,224.7346,347.3388,225.661,347.2779,225.6358,348.2041,227.4838,348.7769,229.1856,349.5565,230.973,350.2579,232.728,351,234.4998,351.1785,234.4998,351.2391,244.8664,351.5857,255.2331,351.6711,265.5997,351.6793,275.9663,351.2546,286.3329,351,296.6995,351.1428,296.7587,350.484,298.5569,349.3134,300.1431,349.0123,302.0894,347.9798,303.7328,347.3388,305.5384,347.4069,305.7028,345.5079,306.1181,343.7946,306.9817,342.1301,307.9634,340.2616,308.4523,338.5,309.1995,338.5,309.3048,328.9286,309.5382,319.3571,309.6158,309.7857,309.1956,300.2143,309.4867,290.6429,308.6271,281.0714,309.4839,271.5,309.1995,271.5699,309.3683,269.7889,308.6042,268.0427,307.9238,266.1351,306.8541,264.3457,306.0697,262.6612,305.5384,262.4698,305.4591,261.9108,303.7631,261.1362,301.9778,260.6743,300.322,259.6784,298.445,259,296.6995,258.6569,296.6995,259.2283,286.3329,258.3332,275.9663,258.4809,265.5997,259.649,255.2331,259.4357,244.8664,259,234.4998,259.2262,234.5935,259.6331,232.691,260.5628,231.005,261.3785,229.2718,261.7835,227.3685,262.6612,225.661,262.6489,225.6315,264.445,224.9675,266.2798,224.3972,267.9639,223.463,269.7912,222.8745,271.5,221.9998" style="stroke: #A80036; stroke-width: 1.5;"/><text fill="#000000" font-family="Panton" font-size="14" lengthAdjust="spacingAndGlyphs" textLength="72" x="269" y="245.1598">TensorFlow</text><text fill="#000000" font-family="Panton" font-size="14" lengthAdjust="spacingAndGlyphs" textLength="68" x="272" y="261.9597">Distributed</text><text fill="#000000" font-family="Panton" font-size="14" lengthAdjust="spacingAndGlyphs" textLength="61" x="272" y="278.7596">Execution</text><text fill="#000000" font-family="Panton" font-size="14" lengthAdjust="spacingAndGlyphs" textLength="42" x="272" y="295.5595">Engine</text><polygon fill="#D3D3D3" filter="url(#f1a633muer5xpp)" points="413.5,247.1997,413.5,247.4099,422.7857,246.7854,432.0714,247.393,441.3571,247.5994,450.6429,246.4863,459.9286,247.122,469.2143,246.7732,478.5,247.1997,478.4511,247.0816,480.2591,247.911,481.9473,248.4513,483.8739,249.5669,485.4907,249.9345,487.3388,250.8609,487.2779,250.8356,488.2041,252.6837,488.7769,254.3855,489.5565,256.1729,490.2579,257.9279,491,259.6997,491.0595,259.6997,491.0797,262.0597,491.1952,264.4197,491.2237,266.7797,491.2264,269.1396,491,271.4996,491.0784,271.5321,490.4105,273.3265,489.7518,275.1247,488.5812,276.7109,488.28,278.6573,487.3388,280.3385,487.301,280.2472,485.6392,281.2351,483.7402,281.6505,482.0268,282.5141,480.3624,283.4958,478.5,283.9996,478.5,283.9509,469.2143,284.1049,459.9286,284.3383,450.6429,284.4159,441.3571,283.9957,432.0714,284.2868,422.7857,283.4272,413.5,283.9996,413.5363,284.0872,411.8022,283.4362,410.0212,282.6721,408.2749,281.9917,406.3673,280.9219,404.6612,280.3385,404.4603,280.2553,403.7376,278.4914,403.1786,276.7954,402.4039,275.0101,401.9421,273.3543,401,271.4996,400.9418,271.4996,400.8856,269.1396,401.0761,266.7797,400.7777,264.4197,400.827,262.0597,401,259.6997,401.1999,259.7825,401.8664,257.9875,402.6907,256.2579,403.0976,254.3554,404.0272,252.6694,404.6612,250.8609,404.7365,251.0427,406.3687,249.9832,408.1845,249.3669,409.9805,248.703,411.8154,248.1327,413.5,247.1997" style="stroke: #A80036; stroke-width: 1.5;"/><text fill="#000000" font-family="Panton" font-size="14" lengthAdjust="spacingAndGlyphs" textLength="70" x="411" y="270.3596">Python API</text><polygon fill="#ADD8E6" filter="url(#f1a633muer5xpp)" points="553.5,20,553.5,20.2102,563.8636,19.5857,574.2273,20.1933,584.5909,20.3997,594.9545,19.2866,605.3182,19.9223,615.6818,19.5735,626.0455,19.6165,636.4091,19.9318,646.7727,19.3086,657.1364,20.5536,667.5,20,667.4196,19.8059,669.2425,20.6713,671.0906,21.5975,672.7924,22.1703,674.5798,22.9499,676.3388,23.6612,676.329,23.6571,677.126,25.4517,677.8769,27.2272,678.7159,29.0392,679.4744,30.8178,680,32.5,680.2264,32.5,680.0849,34.86,680.1545,37.22,680.2341,39.58,679.7596,41.9399,680,44.2999,680.209,44.3865,679.1765,46.0299,678.6999,47.9036,677.6509,49.5401,677.05,51.3623,676.3388,53.1388,676.4334,53.3671,674.5649,53.856,672.8167,54.6357,671.0787,55.4397,669.3209,56.1959,667.5,56.7999,667.5,56.796,657.1364,57.0871,646.7727,56.2275,636.4091,57.0843,626.0455,57.3481,615.6818,57.2445,605.3182,57.413,594.9545,56.3168,584.5909,56.1477,574.2273,56.1785,563.8636,56.741,553.5,56.7999,553.4749,56.7394,551.8192,56.2775,549.9422,55.2817,548.1529,54.4976,546.4581,53.9413,544.6612,53.1388,544.4558,53.0537,543.7691,51.3048,543.3965,49.686,542.5986,47.891,541.9584,46.1614,541,44.2999,540.8927,44.2999,541.1064,41.9399,541.1968,39.58,540.8425,37.22,540.968,34.86,541,32.5,541.0388,32.5161,541.9329,30.8154,542.4632,28.9639,543.3392,27.2557,543.7584,25.3583,544.6612,23.6612,544.5748,23.4526,546.4932,23.084,548.1052,21.9759,550.0294,21.6212,551.7586,20.7959,553.5,20" style="stroke: #A80036; stroke-width: 1.5;"/><text fill="#000000" font-family="Panton" font-size="14" lengthAdjust="spacingAndGlyphs" textLength="119" x="551" y="43.1599">tensors + gradients</text><path d="M491,265.5997 L491,265.7865 L493,265.2314 L495,265.7715 L497,265.9549 L499,264.9655 L501,265.5997 L501,265.5997 L500.9692,265.584 L501.8272,263.561 L502.8404,261.6172 L503.9613,259.7284 L504.7107,257.65 L505.9805,255.8372 L506.2224,255.8819 L506.1196,253.5453 L506.7231,251.3393 L507.4129,249.1493 L507.6012,246.8665 L508.0532,244.6325 L508.0833,244.6363 L508.4097,241.7242 L508.8731,238.8294 L509.2705,235.9263 L509.7939,233.0392 L509.9063,230.0997 L510.2031,230.1287 L510.5422,226.69 L510.6898,223.2326 L511.1177,219.8025 L511.5587,216.3738 L511.5835,212.9044 L511.264,212.8787 L512.1932,209.0902 L512.0703,205.217 L512.7472,201.4082 L512.6005,197.533 L513.1289,193.7123 L513.0985,193.7102 L514.0319,185.3924 L514.2557,177.0258 L514.8983,168.688 L515.5759,160.3526 L516,151.9998 L516.1846,152.0125 L516.5725,143.6572 L517.2758,135.3236 L517.4688,126.9549 L518.423,118.6385 L518.8711,110.2874 L519.1139,110.3069 L519.3771,106.4648 L519.7608,102.6324 L519.5843,98.7548 L519.8185,94.9104 L520.4165,91.0952 L520.1416,91.0684 L520.7259,87.6536 L521.0005,84.2086 L521.7243,80.8074 L521.681,77.3314 L522.0938,73.8999 L521.9425,73.8806 L522.565,71.0062 L522.541,68.0493 L522.9767,65.1511 L523.8623,62.3102 L523.9468,59.3671 L524.1372,59.4023 L524.6823,57.1856 L524.6352,54.8592 L525.3299,52.6701 L525.863,50.4511 L526.0195,48.1625 L525.8325,48.067 L526.9777,46.1906 L528.0616,44.2829 L529.2658,42.4366 L530.0022,40.3516 L531,38.4 L531,38.8111 L533,37.9077 L535,37.798 L537,38.8476 L539,37.7627 L541,38.4 " fill="none" style="stroke: #A80036; stroke-width: 1.0;"/><polygon fill="#ADD8E6" filter="url(#f1a633muer5xpp)" points="553.5,76.7999,553.5,77.0101,563.7,76.3856,573.9,76.9932,584.1,77.1996,594.3,76.0865,604.5,76.7222,614.7,76.3734,624.9,76.4164,635.1,76.7318,645.3,76.1086,655.5,77.3536,665.7,76.1696,675.9,76.6022,686.1,77.2319,696.3,76.7142,706.5,76.8682,716.7,76.768,726.9,76.9785,737.1,77.0391,747.3,77.3856,757.5,76.7999,757.5856,77.0066,759.3544,77.7413,761.068,78.3428,762.8624,79.1394,764.6606,79.9451,766.3388,80.4611,766.1167,80.3691,767.28,82.3154,767.712,83.9588,768.6999,85.8325,769.1153,87.469,770,89.2999,769.9772,89.2999,770.2472,91.6599,769.9838,94.0199,770.0351,96.3799,770.1129,98.7399,770,101.0999,770.1282,101.1529,769.2666,102.8671,768.624,104.672,767.627,106.3301,767.1586,108.2072,766.3388,109.9387,766.4088,110.1075,764.6278,110.8078,762.8815,111.5919,760.9739,111.9866,759.1846,112.6668,757.5,113.5999,757.5,112.9785,747.3,113.541,737.1,113.4033,726.9,114.2813,716.7,113.4252,706.5,113.2568,696.3,113.8281,686.1,112.933,675.9,113.0807,665.7,114.2488,655.5,114.0355,645.3,114.3343,635.1,113.2781,624.9,113.9191,614.7,114.1903,604.5,113.1274,594.3,113.504,584.1,113.7258,573.9,114.2516,563.7,113.5957,553.5,113.5999,553.559,113.7423,551.6616,112.6971,549.8781,111.9268,548.2609,111.5582,546.3375,110.4501,544.6612,109.9387,544.8179,110.0036,543.9926,108.1973,543.1142,106.369,542.3555,104.5903,541.8735,102.9261,541,101.0999,540.9002,101.0999,541.1973,98.7399,540.8158,96.3799,541.2058,94.0199,541.1614,91.6599,541,89.2999,541.0754,89.3312,541.7468,87.5382,542.6882,85.8571,543.3857,84.0749,543.9811,82.2504,544.6612,80.4611,544.6954,80.5437,546.4123,79.6887,548.2881,79.2173,549.9842,78.3121,551.7542,77.5853,553.5,76.7999" style="stroke: #A80036; stroke-width: 1.5;"/><text fill="#000000" font-family="Panton" font-size="14" lengthAdjust="spacingAndGlyphs" textLength="209" x="551" y="99.9599">linear algebra, signal processing, ...</text><path d="M491,265.5997 L491,265.7865 L493,265.2314 L495,265.7715 L497,265.9549 L499,264.9655 L501,265.5997 L501,265.5997 L500.9714,265.5802 L501.8394,264.0287 L502.8513,262.5751 L503.9632,261.1895 L504.7303,259.5694 L505.9805,258.2778 L506.2216,258.3268 L506.4911,254.3614 L507.4646,250.539 L508.5241,246.7342 L509.0837,242.8277 L509.9063,238.9747 L509.9363,238.9786 L510.2276,236.3936 L510.6558,233.8264 L511.018,231.2505 L511.5062,228.6911 L511.5835,226.0782 L511.88,226.1101 L512.1927,223.2316 L512.3142,220.3327 L512.7156,217.4638 L513.1301,214.5963 L513.1289,211.6841 L512.8097,211.6548 L514.0034,205.4548 L514.1461,199.1583 L515.0878,192.9352 L515.2067,186.6365 L516,180.3998 L515.9697,180.397 L516.9024,174.173 L517.1269,167.8841 L517.7693,161.6335 L518.4467,155.3861 L518.8711,149.1154 L519.055,149.1352 L519.1784,146.2364 L519.6162,143.3714 L519.5454,140.4518 L520.2331,137.6136 L520.4165,134.7213 L520.6581,134.7527 L520.9479,132.1675 L521.3576,129.5979 L521.2099,126.9558 L521.4709,124.3668 L522.0938,121.8249 L521.8231,121.7698 L522.8533,117.959 L523.5785,114.0862 L524.746,110.3034 L525.1583,106.3669 L526.0195,102.5218 L525.8935,102.436 L527.0995,101.1144 L527.7667,99.4263 L528.817,97.9989 L530.2424,96.8265 L531,95.1999 L531,95.5872 L533,95.8528 L535,94.9139 L537,95.4836 L539,95.7247 L541,95.1999 " fill="none" style="stroke: #A80036; stroke-width: 1.0;"/><polygon fill="#ADD8E6" filter="url(#f1a633muer5xpp)" points="553.5,133.5999,553.5,133.81,563.5,133.1855,573.5,133.7931,583.5,133.9995,593.5,132.8865,603.5,133.5221,613.5,133.1734,623.5,133.2164,633.5,133.5317,643.5,132.9085,653.5,134.1535,663.5,132.9696,673.5,133.4021,683.5,134.0318,693.5,133.5141,703.5,133.6681,713.5,133.5999,713.4959,133.59,715.2905,134.3871,717.066,135.138,718.878,135.9769,720.6567,136.7354,722.3388,137.261,722.548,137.3477,723.1495,139.0613,723.9461,140.8557,724.7518,142.6539,725.0457,144.2401,726,146.0999,726.2262,146.0999,725.9012,148.4598,726.1779,150.8198,725.835,153.1798,725.9772,155.5398,726,157.8998,726.2284,157.9944,725.2528,159.6613,724.568,161.4487,723.9076,163.2463,723.1993,165.0239,722.3388,166.7386,722.3383,166.7374,720.6077,167.5593,718.7303,168.0268,717.0718,169.0229,715.3377,169.8364,713.5,170.3998,713.5,170.8443,703.5,171.0128,693.5,169.9167,683.5,169.7476,673.5,169.7784,663.5,170.3409,653.5,170.2033,643.5,171.0812,633.5,170.2251,623.5,170.0567,613.5,170.628,603.5,169.7329,593.5,169.8807,583.5,171.0487,573.5,170.8354,563.5,171.1343,553.5,170.3998,553.459,170.3007,551.773,169.7658,550.0398,169.1171,548.1364,168.0576,546.4167,167.4413,544.6612,166.7386,544.7,166.7547,544.1296,165.054,543.1954,163.2025,542.6069,161.4943,541.5617,159.5969,541,157.8998,540.7742,157.8998,541.1679,155.5398,540.761,153.1798,541.1697,150.8198,541.0689,148.4598,541,146.0999,540.9175,146.0657,541.6233,144.287,542.6057,142.6228,543.1045,140.7584,544.1112,139.1043,544.6612,137.261,544.5907,137.0908,546.5077,136.7189,548.2585,135.9457,549.9957,135.1398,551.7383,134.3466,553.5,133.5999" style="stroke: #A80036; stroke-width: 1.5;"/><text fill="#000000" font-family="Panton" font-size="14" lengthAdjust="spacingAndGlyphs" textLength="165" x="551" y="156.7598">data I/O and preprocessing</text><path d="M491,265.5997 L491,265.7865 L493,265.2314 L495,265.7715 L497,265.9549 L499,264.9655 L501,265.5997 L501,265.5997 L500.9691,265.5842 L502.6118,261.9647 L504.4102,258.4232 L506.3167,254.9361 L507.8504,251.2619 L509.9063,247.8497 L510.1485,247.8926 L510.275,244.1621 L511.1088,240.5569 L512.0289,236.9669 L512.4468,233.2881 L513.1289,229.656 L513.159,229.6601 L513.6891,225.4828 L514.3559,221.3243 L514.9569,217.1567 L515.6837,213.0065 L516,208.7997 L516.2955,208.8404 L516.8733,204.6697 L517.2605,200.4727 L517.9268,196.3141 L518.6061,192.1573 L518.8711,187.9435 L518.5555,187.8876 L519.8126,184.3574 L520.0304,180.643 L521.0383,177.0687 L521.2326,173.3502 L522.0938,169.7498 L522.0665,169.7361 L524.1696,166.3476 L525.6369,162.6401 L527.4793,159.1208 L529.3533,155.6173 L531,151.9998 L531,152.3698 L533,151.9963 L535,152.2551 L537,151.491 L539,152.2526 L541,151.9998 " fill="none" style="stroke: #A80036; stroke-width: 1.0;"/><polygon fill="#ADD8E6" filter="url(#f1a633muer5xpp)" points="553.5,190.3998,553.5,190.61,563.8077,189.9855,574.1154,190.5931,584.4231,190.7995,594.7308,189.6864,605.0385,190.3221,615.3462,189.9733,625.6538,190.0163,635.9615,190.3316,646.2692,189.7084,656.5769,190.9534,666.8846,189.7695,677.1923,190.202,687.5,190.3998,687.5551,190.5328,689.2568,191.1056,691.0442,191.8853,692.7992,192.5866,694.5938,193.3837,696.3388,194.0609,696.4125,194.0914,697.2514,195.9034,698.01,197.6821,698.7447,199.4509,699.3462,201.1645,700,202.8998,700.1545,202.8998,700.2341,205.2598,699.7596,207.6198,700.2262,209.9797,699.9012,212.3397,700,214.6997,700.1644,214.7678,699.1153,216.4043,698.5144,218.2265,698.0317,220.0976,697.0561,221.7646,696.3388,223.5385,696.3523,223.571,694.6143,224.3751,692.8564,225.1312,691.035,225.734,689.3044,226.5559,687.5,227.1997,687.5,226.6273,677.1923,227.4841,666.8846,227.7479,656.5769,227.6442,646.2692,227.8127,635.9615,226.7166,625.6538,226.5475,615.3462,226.5783,605.0385,227.1408,594.7308,227.0032,584.4231,227.8811,574.1154,227.025,563.8077,226.8567,553.5,227.1997,553.5291,227.27,551.6472,226.2621,549.8982,225.5754,548.2795,225.2029,546.4845,224.4049,544.6612,223.5385,544.8874,223.6322,543.8298,221.7297,543.295,220.0437,542.6463,218.3106,541.5868,216.4072,541,214.6997,540.968,214.6997,541.042,212.3397,541.2173,209.9797,540.9986,207.6198,541.1542,205.2598,541,202.8998,540.8295,202.8291,541.5237,201.0456,542.6196,199.4285,542.9759,197.505,544.0857,195.8936,544.6612,194.0609,544.6875,194.1246,546.3948,193.2462,548.1516,192.4875,550.023,192.0055,551.694,191.0398,553.5,190.3998" style="stroke: #A80036; stroke-width: 1.5;"/><text fill="#000000" font-family="Panton" font-size="14" lengthAdjust="spacingAndGlyphs" textLength="139" x="551" y="213.5597">low-level deep learning</text><path d="M491,265.5997 L491,265.7865 L493,265.2314 L495,265.7715 L497,265.9549 L499,264.9655 L501,265.5997 L501,265.5997 L500.9756,265.5752 L502.6475,263.6904 L504.4422,261.9289 L506.3224,260.2532 L507.9081,258.282 L509.9063,256.7247 L510.1382,256.8068 L510.2867,254.8118 L511.1125,253.0566 L512.0208,251.3307 L512.4484,249.4345 L513.1289,247.6278 L513.1581,247.6359 L513.6894,245.5384 L514.3538,243.4776 L514.954,241.3992 L515.6767,239.3544 L516,237.1997 L516.2875,237.2789 L516.8653,235.1942 L517.2575,233.0585 L517.9213,230.9975 L518.5978,228.9401 L518.8711,226.7716 L518.569,226.6646 L519.7999,225.0529 L520.0359,223.0888 L521.0283,221.3927 L521.2418,219.4206 L522.0938,217.6747 L522.0723,217.6532 L524.1077,216.1332 L525.641,214.1094 L527.4705,212.3829 L529.325,210.6813 L531,208.7997 L531,209.1697 L533,208.7963 L535,209.055 L537,208.2909 L539,209.0525 L541,208.7997 " fill="none" style="stroke: #A80036; stroke-width: 1.0;"/><polygon fill="#ADD8E6" filter="url(#f1a633muer5xpp)" points="553.5,247.1997,553.5,247.4099,563.5,246.7854,573.5,247.393,583.5,247.5994,593.5,246.4863,603.5,247.122,613.5,246.7732,623.5,246.8162,633.5,247.1316,643.5,246.5083,653.5,247.7533,663.5,246.5694,673.5,247.0019,683.5,247.6317,693.5,247.1997,693.4891,247.1733,695.2765,247.953,697.0315,248.6543,698.8261,249.4514,700.6016,250.2023,702.3388,250.8609,702.5192,250.9356,703.2777,252.7142,704.0125,254.4831,704.6139,256.1967,705.4105,257.9911,706,259.6997,706.2341,259.6997,705.7596,262.0597,706.2262,264.4197,705.9012,266.7797,706.1779,269.1396,706,271.4996,705.8476,271.4365,705.2467,273.2587,704.7639,275.1298,703.7883,276.7967,703.1035,278.5841,702.3388,280.3385,702.382,280.4428,700.6242,281.1989,698.8028,281.8017,697.0722,282.6236,695.1947,283.0911,693.5,283.9996,693.5,284.284,683.5,284.5478,673.5,284.4442,663.5,284.6127,653.5,283.5166,643.5,283.3475,633.5,283.3782,623.5,283.9408,613.5,283.8031,603.5,284.681,593.5,283.825,583.5,283.6566,573.5,284.2279,563.5,283.3328,553.5,283.9996,553.4338,283.8398,551.815,283.4673,550.02,282.6693,548.2904,282.0291,546.3879,280.9716,544.6612,280.3385,544.7595,280.3792,544.1108,278.646,543.0512,276.7427,542.4349,275.0229,541.771,273.2835,541,271.4996,541.2173,271.4996,540.9986,269.1396,541.1542,266.7797,540.8154,264.4197,540.7742,262.0597,541,259.6997,541.1551,259.7639,541.5114,257.8405,542.6212,256.2291,543.2603,254.4228,543.8464,252.5945,544.6612,250.8609,544.616,250.7519,546.4875,250.2699,548.1585,249.3042,550.04,248.8464,551.6617,247.7617,553.5,247.1997" style="stroke: #A80036; stroke-width: 1.5;"/><text fill="#000000" font-family="Panton" font-size="14" lengthAdjust="spacingAndGlyphs" textLength="145" x="551" y="270.3596">high-level deep learning</text><path d="M491,265.5997 L491,265.7865 L493,265.2314 L495,265.7715 L497,265.9549 L499,264.9655 L501,265.5997 L501,265.5997 L501,265.5651 L507,265.4101 L513,265.4292 L519,265.5694 L525,265.2924 L531,265.5997 L531,266.0918 L533,265.0394 L535,265.4239 L537,265.9836 L539,265.5234 L541,265.5997 " fill="none" style="stroke: #A80036; stroke-width: 1.0;"/><polygon fill="#ADD8E6" filter="url(#f1a633muer5xpp)" points="553.5,303.9996,553.5,304.2098,563.2143,303.5853,572.9286,304.1929,582.6429,304.3993,592.3571,303.2862,602.0714,303.9219,611.7857,303.5731,621.5,303.9996,621.4511,303.8815,623.2591,304.7109,624.9473,305.2512,626.8739,306.3668,628.4907,306.7345,630.3388,307.6608,630.2779,307.6356,631.2041,309.4837,631.7769,311.1854,632.5565,312.9728,633.2579,314.7278,634,316.4996,634.0595,316.4996,634.0797,318.8596,634.1952,321.2196,634.2237,323.5796,634.2264,325.9396,634,328.2996,634.0784,328.332,633.4105,330.1265,632.7518,331.9247,631.5812,333.5109,631.28,335.4572,630.3388,337.1384,630.301,337.0471,628.6392,338.035,626.7402,338.4504,625.0268,339.314,623.3624,340.2957,621.5,340.7996,621.5,340.7508,611.7857,340.9049,602.0714,341.1382,592.3571,341.2158,582.6429,340.7957,572.9286,341.0868,563.2143,340.2271,553.5,340.7996,553.5363,340.8871,551.8022,340.2361,550.0212,339.472,548.2749,338.7916,546.3673,337.7219,544.6612,337.1384,544.4603,337.0552,543.7376,335.2914,543.1786,333.5954,542.4039,331.81,541.9421,330.1542,541,328.2996,540.9418,328.2996,540.8856,325.9396,541.0761,323.5796,540.7777,321.2196,540.827,318.8596,541,316.4996,541.1999,316.5824,541.8664,314.7874,542.6907,313.0578,543.0976,311.1553,544.0272,309.4693,544.6612,307.6608,544.7365,307.8426,546.3687,306.7831,548.1845,306.1668,549.9805,305.5029,551.8154,304.9326,553.5,303.9996" style="stroke: #A80036; stroke-width: 1.5;"/><text fill="#000000" font-family="Panton" font-size="14" lengthAdjust="spacingAndGlyphs" textLength="73" x="551" y="327.1596">deployment</text><path d="M491,265.5997 L491,265.7865 L493,265.2314 L495,265.7715 L497,265.9549 L499,264.9655 L501,265.5997 L501,265.5997 L500.9756,265.5752 L502.6475,267.2404 L504.4422,269.0289 L506.3224,270.9032 L507.9081,272.482 L509.9063,274.4747 L510.1382,274.5568 L510.2867,276.2005 L511.1125,278.0841 L512.0208,279.9969 L512.4484,281.7394 L513.1289,283.5715 L513.1581,283.5796 L513.6894,285.6534 L514.3538,287.7638 L514.954,289.8566 L515.6767,291.9831 L516,293.9996 L516.2875,294.0788 L516.8653,296.1654 L517.2575,298.2009 L517.9213,300.3112 L518.5978,302.425 L518.8711,304.4277 L518.569,304.3207 L519.7999,306.3478 L520.0359,308.0225 L521.0283,309.9651 L521.2418,311.6318 L522.0938,313.5246 L522.0723,313.503 L524.1077,315.5331 L525.641,317.0593 L527.4705,318.8828 L529.325,320.7312 L531,322.3996 L531,322.7696 L533,322.3961 L535,322.6549 L537,321.8908 L539,322.6524 L541,322.3996 " fill="none" style="stroke: #A80036; stroke-width: 1.0;"/><polygon fill="#ADD8E6" filter="url(#f1a633muer5xpp)" points="553.5,360.7996,553.5,361.0097,563.5,360.3852,573.5,360.9928,583.5,361.1992,593.5,360.0862,603.5,360.7218,613.5,360.3731,623.5,360.7996,623.4511,360.6815,625.2591,361.5108,626.9473,362.0511,628.8739,363.1668,630.4907,363.5344,632.3388,364.4607,632.2779,364.4355,633.2041,366.2836,633.7769,367.9853,634.5565,369.7727,635.2579,371.5277,636,373.2996,636.0595,373.2996,636.0797,375.6595,636.1952,378.0195,636.2237,380.3795,636.2264,382.7395,636,385.0995,636.0784,385.132,635.4105,386.9264,634.7518,388.7246,633.5812,390.3108,633.28,392.2571,632.3388,393.9383,632.301,393.847,630.6392,394.8349,628.7402,395.2503,627.0268,396.1139,625.3624,397.0956,623.5,397.5995,623.5,397.5508,613.5,397.7048,603.5,397.9381,593.5,398.0157,583.5,397.5956,573.5,397.8867,563.5,397.0271,553.5,397.5995,553.5363,397.6871,551.8022,397.0361,550.0212,396.2719,548.2749,395.5916,546.3673,394.5218,544.6612,393.9383,544.4603,393.8551,543.7376,392.0913,543.1786,390.3953,542.4039,388.61,541.9421,386.9542,541,385.0995,540.9418,385.0995,540.8856,382.7395,541.0761,380.3795,540.7777,378.0195,540.827,375.6595,541,373.2996,541.1999,373.3823,541.8664,371.5874,542.6907,369.8577,543.0976,367.9552,544.0272,366.2692,544.6612,364.4607,544.7365,364.6426,546.3687,363.583,548.1845,362.9667,549.9805,362.3028,551.8154,361.7325,553.5,360.7996" style="stroke: #A80036; stroke-width: 1.5;"/><text fill="#000000" font-family="Panton" font-size="14" lengthAdjust="spacingAndGlyphs" textLength="75" x="551" y="383.9595">optimization</text><path d="M491,265.5997 L491,265.7865 L493,265.2314 L495,265.7715 L497,265.9549 L499,264.9655 L501,265.5997 L501,265.5997 L500.9691,265.5842 L502.6118,269.0647 L504.4102,272.6232 L506.3167,276.2361 L507.8504,279.6618 L509.9063,283.3496 L510.1485,283.3926 L510.275,286.9395 L511.1088,290.6118 L512.0289,294.2994 L512.4468,297.898 L513.1289,301.5434 L513.159,301.5475 L513.6891,305.7127 L514.3559,309.8967 L514.9569,314.0716 L515.6837,318.2639 L516,322.3996 L516.2955,322.4403 L516.8733,326.612 L517.2605,330.7575 L517.9268,334.9414 L518.6061,339.1271 L518.8711,343.2558 L518.5555,343.1999 L519.8126,346.9472 L520.0304,350.5103 L521.0383,354.2134 L521.2326,357.7724 L522.0938,361.4495 L522.0665,361.4359 L524.1696,365.1474 L525.6369,368.5398 L527.4793,372.1205 L529.3533,375.717 L531,379.1995 L531,379.5695 L533,379.1961 L535,379.4548 L537,378.6907 L539,379.4523 L541,379.1995 " fill="none" style="stroke: #A80036; stroke-width: 1.0;"/><polygon fill="#ADD8E6" filter="url(#f1a633muer5xpp)" points="553.5,417.5995,553.5,417.8097,563.5,417.1852,573.5,417.7928,583.5,417.9992,593.5,416.8861,603.5,417.5218,613.5,417.173,623.5,417.5995,623.4511,417.4814,625.2591,418.3107,626.9473,418.851,628.8739,419.9667,630.4907,420.3343,632.3388,421.2607,632.2779,421.2354,633.2041,423.0835,633.7769,424.7852,634.5565,426.5727,635.2579,428.3276,636,430.0995,636.0595,430.0995,636.0797,432.4595,636.1952,434.8195,636.2237,437.1794,636.2264,439.5394,636,441.8994,636.0784,441.9319,635.4105,443.7263,634.7518,445.5245,633.5812,447.1107,633.28,449.057,632.3388,450.7382,632.301,450.6469,630.6392,451.6349,628.7402,452.0503,627.0268,452.9139,625.3624,453.8956,623.5,454.3994,623.5,454.3507,613.5,454.5047,603.5,454.738,593.5,454.8156,583.5,454.3955,573.5,454.6866,563.5,453.827,553.5,454.3994,553.5363,454.487,551.8022,453.836,550.0212,453.0718,548.2749,452.3915,546.3673,451.3217,544.6612,450.7382,544.4603,450.6551,543.7376,448.8912,543.1786,447.1952,542.4039,445.4099,541.9421,443.7541,541,441.8994,540.9418,441.8994,540.8856,439.5394,541.0761,437.1794,540.7777,434.8195,540.827,432.4595,541,430.0995,541.1999,430.1823,541.8664,428.3873,542.6907,426.6576,543.0976,424.7551,544.0272,423.0691,544.6612,421.2607,544.7365,421.4425,546.3687,420.3829,548.1845,419.7667,549.9805,419.1028,551.8154,418.5324,553.5,417.5995" style="stroke: #A80036; stroke-width: 1.5;"/><text fill="#000000" font-family="Panton" font-size="14" lengthAdjust="spacingAndGlyphs" textLength="75" x="551" y="440.7594">visualization</text><path d="M491,265.5997 L491,265.7865 L493,265.2314 L495,265.7715 L497,265.9549 L499,264.9655 L501,265.5997 L501,265.5997 L500.9714,265.5802 L501.8394,266.9574 L502.8513,268.4326 L503.9632,269.9758 L504.7303,271.2843 L505.9805,272.9215 L506.2216,272.9706 L506.4911,276.7263 L507.4646,280.6253 L508.5241,284.5417 L509.0837,288.3564 L509.9063,292.2246 L509.9363,292.2285 L510.2276,294.8021 L510.6558,297.3935 L511.018,299.9762 L511.5062,302.5754 L511.5835,305.1211 L511.88,305.1529 L512.1927,308.0322 L512.3142,310.8908 L512.7156,313.7796 L513.1301,316.6697 L513.1289,319.5152 L512.8097,319.4859 L514.0034,325.7997 L514.1461,332.0169 L515.0878,338.3075 L515.2067,344.5226 L516,350.7996 L515.9697,350.7968 L516.9024,357.0865 L517.1269,363.3113 L517.7693,369.5744 L518.4467,375.8408 L518.8711,382.0839 L519.055,382.1036 L519.1784,384.9625 L519.6162,387.8552 L519.5454,390.6932 L520.2331,393.6127 L520.4165,396.478 L520.6581,396.5094 L520.9479,399.0828 L521.3576,401.6717 L521.2099,404.1882 L521.4709,406.7578 L522.0938,409.3745 L521.8231,409.3194 L522.8533,413.2299 L523.5785,417.0783 L524.746,421.0167 L525.1583,424.8015 L526.0195,428.6776 L525.8935,428.5918 L527.0995,430.199 L527.7667,431.4396 L528.817,432.9409 L530.2424,434.6973 L531,435.9995 L531,436.3867 L533,436.6523 L535,435.7134 L537,436.2832 L539,436.5243 L541,435.9995 " fill="none" style="stroke: #A80036; stroke-width: 1.0;"/><polygon fill="#ADD8E6" filter="url(#f1a633muer5xpp)" points="553.5,474.3994,553.5,474.6096,563.8077,473.9851,574.1154,474.5927,584.4231,474.7991,594.7308,473.686,605.0385,474.3217,615.3462,473.9729,625.6538,474.0159,635.9615,474.3313,646.2692,473.708,656.5769,474.9531,666.8846,473.7691,677.1923,474.2016,687.5,474.3994,687.5551,474.5324,689.2568,475.1052,691.0442,475.8849,692.7992,476.5863,694.5938,477.3833,696.3388,478.0606,696.4125,478.0911,697.2514,479.9031,698.01,481.6817,698.7447,483.4505,699.3462,485.1641,700,486.8994,700.1545,486.8994,700.2341,489.2594,699.7596,491.6194,700.2262,493.9794,699.9012,496.3394,700,498.6993,700.1644,498.7674,699.1153,500.404,698.5144,502.2261,698.0317,504.0972,697.0561,505.7642,696.3388,507.5382,696.3523,507.5706,694.6143,508.3747,692.8564,509.1308,691.035,509.7337,689.3044,510.5556,687.5,511.1993,687.5,510.6269,677.1923,511.4837,666.8846,511.7475,656.5769,511.6439,646.2692,511.8124,635.9615,510.7163,625.6538,510.5472,615.3462,510.5779,605.0385,511.1405,594.7308,511.0028,584.4231,511.8808,574.1154,511.0247,563.8077,510.8563,553.5,511.1993,553.5291,511.2696,551.6472,510.2617,549.8982,509.575,548.2795,509.2025,546.4845,508.4046,544.6612,507.5382,544.8874,507.6319,543.8298,505.7294,543.295,504.0434,542.6463,502.3102,541.5868,500.4068,541,498.6993,540.968,498.6993,541.042,496.3394,541.2173,493.9794,540.9986,491.6194,541.1542,489.2594,541,486.8994,540.8295,486.8288,541.5237,485.0453,542.6196,483.4281,542.9759,481.5047,544.0857,479.8933,544.6612,478.0606,544.6875,478.1242,546.3948,477.2458,548.1516,476.4872,550.023,476.0052,551.694,475.0395,553.5,474.3994" style="stroke: #A80036; stroke-width: 1.5;"/><text fill="#000000" font-family="Panton" font-size="14" lengthAdjust="spacingAndGlyphs" textLength="139" x="551" y="497.5594">special data structures</text><path d="M491,265.5997 L491,265.7865 L493,265.2314 L495,265.7715 L497,265.9549 L499,264.9655 L501,265.5997 L501,265.5997 L500.9692,265.584 L501.8272,267.466 L502.8404,269.4272 L503.9613,271.4434 L504.7107,273.27 L505.9805,275.3622 L506.2224,275.4069 L506.1196,277.5521 L506.7231,279.828 L507.4129,282.1199 L507.6012,284.319 L508.0532,286.5668 L508.0833,286.5707 L508.4097,289.4716 L508.8731,292.39 L509.2705,295.2999 L509.7939,298.226 L509.9063,301.0996 L510.2031,301.1286 L510.5422,304.568 L510.6898,307.9887 L511.1177,311.4368 L511.5587,314.8862 L511.5835,318.2949 L511.264,318.2692 L512.1932,322.1576 L512.0703,325.9612 L512.7472,329.8293 L512.6005,333.631 L513.1289,337.4871 L513.0985,337.485 L514.0319,345.8522 L514.2557,354.1706 L514.8983,362.5178 L515.5759,370.8674 L516,379.1995 L516.1846,379.2122 L516.5725,387.5419 L517.2758,395.8933 L517.4688,404.2095 L518.423,412.5782 L518.8711,420.912 L519.1139,420.9315 L519.3771,424.7663 L519.7608,428.6107 L519.5843,432.41 L519.8185,436.2424 L520.4165,440.1041 L520.1416,440.0773 L520.7259,443.5407 L521.0005,446.9738 L521.7243,450.4507 L521.681,453.8528 L522.0938,457.2994 L521.9425,457.2801 L522.565,460.2188 L522.541,463.0751 L522.9767,465.9899 L523.8623,468.9621 L523.9468,471.8322 L524.1372,471.8674 L524.6823,474.1325 L524.6352,476.2881 L525.3299,478.5808 L525.863,480.8437 L526.0195,483.0369 L525.8325,482.9415 L526.9777,484.97 L528.0616,486.9673 L529.2658,489.026 L530.0022,490.846 L531,492.7994 L531,493.2105 L533,492.3071 L535,492.1974 L537,493.247 L539,492.1621 L541,492.7994 " fill="none" style="stroke: #A80036; stroke-width: 1.0;"/><path d="M351,265.5997 L351,265.7865 L353,265.2314 L355,265.7715 L357,265.9549 L359,264.9655 L361,265.5997 L361,265.5997 L361,265.5651 L367,265.4101 L373,265.4292 L379,265.5694 L385,265.2924 L391,265.5997 L391,266.0918 L393,265.0394 L395,265.4239 L397,265.9836 L399,265.5234 L401,265.5997 " fill="none" style="stroke: #A80036; stroke-width: 1.0;"/><polygon fill="#FFFFFF" filter="url(#f1a633muer5xpp)" points="413.5,303.9996,413.5,304.0697,422.3,303.8615,431.1,304.0641,439.9,304.1329,448.7,303.7618,457.5,303.9996,457.4901,303.9757,459.2134,304.6005,460.9866,305.346,462.7946,306.1753,464.4829,306.7157,466.3388,307.6608,466.5093,307.7314,466.877,309.3482,467.7424,311.1711,468.6686,313.0192,469.2414,314.7209,470,316.4996,470.0227,316.4996,469.9894,318.8596,470.0595,321.2196,470.0797,323.5796,470.1952,325.9396,470,328.2996,470.2067,328.3852,469.477,330.154,468.6139,331.8676,467.9461,333.662,467.2873,335.4602,466.3388,337.1384,466.2468,336.9163,464.6576,338.0796,462.7655,338.5116,461.1036,339.4995,459.2046,339.9149,457.5,340.7996,457.5,340.7767,448.7,341.0468,439.9,340.7833,431.1,340.8347,422.3,340.9124,413.5,340.7996,413.5531,340.9277,411.7317,340.0661,410.0011,339.4235,408.1237,338.4266,406.4652,337.9582,404.6612,337.1384,404.83,337.2083,404.0658,335.4273,403.3855,333.6811,402.3157,331.7735,401.5314,329.9841,401,328.2996,400.7929,328.2996,400.9804,325.9396,400.9345,323.5796,401.2271,321.2196,400.9418,318.8596,401,316.4996,400.8944,316.4559,401.8025,314.761,402.2591,312.879,403.0368,311.1301,404.1288,309.5113,404.6612,307.6608,404.7167,307.795,406.5226,307.1548,408.1557,306.0972,410.0052,305.5624,411.8075,304.9137,413.5,303.9996" style="stroke: #A80036; stroke-width: 1.5;"/><text fill="#000000" font-family="Panton" font-size="14" lengthAdjust="spacingAndGlyphs" textLength="49" x="411" y="327.1596">C++ API</text><path d="M351,265.5997 L351,265.7865 L353,265.2314 L355,265.7715 L357,265.9549 L359,264.9655 L361,265.5997 L361,265.5997 L360.9756,265.5752 L362.6475,267.2404 L364.4422,269.0289 L366.3224,270.9032 L367.9081,272.482 L369.9063,274.4747 L370.1382,274.5568 L370.2867,276.2005 L371.1125,278.0841 L372.0208,279.9969 L372.4484,281.7394 L373.1289,283.5715 L373.1581,283.5796 L373.6894,285.6534 L374.3538,287.7638 L374.954,289.8566 L375.6767,291.9831 L376,293.9996 L376.2875,294.0788 L376.8653,296.1654 L377.2575,298.2009 L377.9213,300.3112 L378.5978,302.425 L378.8711,304.4277 L378.569,304.3207 L379.7999,306.3478 L380.0359,308.0225 L381.0283,309.9651 L381.2418,311.6318 L382.0938,313.5246 L382.0723,313.503 L384.1077,315.5331 L385.641,317.0593 L387.4705,318.8828 L389.325,320.7312 L391,322.3996 L391,322.7696 L393,322.3961 L395,322.6549 L397,321.8908 L399,322.6524 L401,322.3996 " fill="none" style="stroke: #A80036; stroke-width: 1.0;"/><polygon fill="#FFFFFF" filter="url(#f1a633muer5xpp)" points="413.5,360.7996,413.5,361.0097,423.1,360.3852,432.7,360.9928,442.3,361.1992,451.9,360.0862,461.5,360.7996,461.4901,360.7756,463.2134,361.4005,464.9866,362.1459,466.7946,362.9753,468.4829,363.5156,470.3388,364.4607,470.5093,364.5313,470.877,366.1481,471.7424,367.971,472.6686,369.8191,473.2414,371.5209,474,373.2996,474.0227,373.2996,473.9894,375.6595,474.0595,378.0195,474.0797,380.3795,474.1952,382.7395,474,385.0995,474.2067,385.1851,473.477,386.9539,472.6139,388.6675,471.9461,390.4619,471.2873,392.2601,470.3388,393.9383,470.2468,393.7162,468.6576,394.8795,466.7655,395.3115,465.1036,396.2994,463.2046,396.7148,461.5,397.5995,461.5,397.531,451.9,398.3411,442.3,397.5508,432.7,397.7048,423.1,397.9381,413.5,397.5995,413.5531,397.7277,411.7317,396.8661,410.0011,396.2235,408.1237,395.2265,406.4652,394.7581,404.6612,393.9383,404.83,394.0083,404.0658,392.2273,403.3855,390.481,402.3157,388.5734,401.5314,386.7841,401,385.0995,400.7929,385.0995,400.9804,382.7395,400.9345,380.3795,401.2271,378.0195,400.9418,375.6595,401,373.2996,400.8944,373.2558,401.8025,371.5609,402.2591,369.679,403.0368,367.93,404.1288,366.3113,404.6612,364.4607,404.7167,364.5949,406.5226,363.9547,408.1557,362.8972,410.0052,362.3623,411.8075,361.7136,413.5,360.7996" style="stroke: #A80036; stroke-width: 1.5;"/><text fill="#000000" font-family="Panton" font-size="14" lengthAdjust="spacingAndGlyphs" textLength="53" x="411" y="383.9595">Java API</text><path d="M351,265.5997 L351,265.7865 L353,265.2314 L355,265.7715 L357,265.9549 L359,264.9655 L361,265.5997 L361,265.5997 L360.9691,265.5842 L362.6118,269.0647 L364.4102,272.6232 L366.3167,276.2361 L367.8504,279.6618 L369.9063,283.3496 L370.1485,283.3926 L370.275,286.9395 L371.1088,290.6118 L372.0289,294.2994 L372.4468,297.898 L373.1289,301.5434 L373.159,301.5475 L373.6891,305.7127 L374.3559,309.8967 L374.9569,314.0716 L375.6837,318.2639 L376,322.3996 L376.2955,322.4403 L376.8733,326.612 L377.2605,330.7575 L377.9268,334.9414 L378.6061,339.1271 L378.8711,343.2558 L378.5555,343.1999 L379.8126,346.9472 L380.0304,350.5103 L381.0383,354.2134 L381.2326,357.7724 L382.0938,361.4495 L382.0665,361.4359 L384.1696,365.1474 L385.6369,368.5398 L387.4793,372.1205 L389.3533,375.717 L391,379.1995 L391,379.5695 L393,379.1961 L395,379.4548 L397,378.6907 L399,379.4523 L401,379.1995 " fill="none" style="stroke: #A80036; stroke-width: 1.0;"/><polygon fill="#FFFFFF" filter="url(#f1a633muer5xpp)" points="413.5,417.5995,413.5,417.6695,420.7,417.4614,427.9,417.6639,435.1,417.7327,442.3,417.3617,449.5,417.5995,449.4901,417.5756,451.2134,418.2004,452.9866,418.9459,454.7946,419.7752,456.4829,420.3155,458.3388,421.2607,458.5093,421.3313,458.877,422.948,459.7424,424.771,460.6686,426.6191,461.2414,428.3208,462,430.0995,462.0227,430.0995,461.9894,432.4595,462.0595,434.8195,462.0797,437.1794,462.1952,439.5394,462,441.8994,462.2067,441.985,461.477,443.7538,460.6139,445.4674,459.9461,447.2619,459.2873,449.0601,458.3388,450.7382,458.2468,450.5162,456.6576,451.6794,454.7655,452.1114,453.1036,453.0993,451.2046,453.5147,449.5,454.3994,449.5,454.3766,442.3,454.6466,435.1,454.3832,427.9,454.4345,420.7,454.5123,413.5,454.3994,413.5531,454.5276,411.7317,453.666,410.0011,453.0234,408.1237,452.0264,406.4652,451.5581,404.6612,450.7382,404.83,450.8082,404.0658,449.0272,403.3855,447.2809,402.3157,445.3733,401.5314,443.584,401,441.8994,400.7929,441.8994,400.9804,439.5394,400.9345,437.1794,401.2271,434.8195,400.9418,432.4595,401,430.0995,400.8944,430.0557,401.8025,428.3608,402.2591,426.4789,403.0368,424.73,404.1288,423.1112,404.6612,421.2607,404.7167,421.3948,406.5226,420.7546,408.1557,419.6971,410.0052,419.1623,411.8075,418.5135,413.5,417.5995" style="stroke: #A80036; stroke-width: 1.5;"/><text fill="#000000" font-family="Panton" font-size="14" lengthAdjust="spacingAndGlyphs" textLength="41" x="411" y="440.7594">Go API</text><path d="M351,265.5997 L351,265.7865 L353,265.2314 L355,265.7715 L357,265.9549 L359,264.9655 L361,265.5997 L361,265.5997 L360.9714,265.5802 L361.8394,266.9574 L362.8513,268.4326 L363.9632,269.9758 L364.7303,271.2843 L365.9805,272.9215 L366.2216,272.9706 L366.4911,276.7263 L367.4646,280.6253 L368.5241,284.5417 L369.0837,288.3564 L369.9063,292.2246 L369.9363,292.2285 L370.2276,294.8021 L370.6558,297.3935 L371.018,299.9762 L371.5062,302.5754 L371.5835,305.1211 L371.88,305.1529 L372.1927,308.0322 L372.3142,310.8908 L372.7156,313.7796 L373.1301,316.6697 L373.1289,319.5152 L372.8097,319.4859 L374.0034,325.7997 L374.1461,332.0169 L375.0878,338.3075 L375.2067,344.5226 L376,350.7996 L375.9697,350.7968 L376.9024,357.0865 L377.1269,363.3113 L377.7693,369.5744 L378.4467,375.8408 L378.8711,382.0839 L379.055,382.1036 L379.1784,384.9625 L379.6162,387.8552 L379.5454,390.6932 L380.2331,393.6127 L380.4165,396.478 L380.6581,396.5094 L380.9479,399.0828 L381.3576,401.6717 L381.2099,404.1882 L381.4709,406.7578 L382.0938,409.3745 L381.8231,409.3194 L382.8533,413.2299 L383.5785,417.0783 L384.746,421.0167 L385.1583,424.8015 L386.0195,428.6776 L385.8935,428.5918 L387.0995,430.199 L387.7667,431.4396 L388.817,432.9409 L390.2424,434.6973 L391,435.9995 L391,436.3867 L393,436.6523 L395,435.7134 L397,436.2832 L399,436.5243 L401,435.9995 " fill="none" style="stroke: #A80036; stroke-width: 1.0;"/><polygon fill="#FFFFFF" filter="url(#f1a633muer5xpp)" points="413.5,474.3994,413.5,474.4695,414.3,474.2613,415.1,474.4638,415.9,474.5326,416.7,474.1616,417.5,474.3994,417.4901,474.3755,419.2134,475.0003,420.9866,475.7458,422.7946,476.5751,424.4829,477.1154,426.3388,478.0606,426.5093,478.1312,426.877,479.7479,427.7424,481.5709,428.6686,483.419,429.2414,485.1207,430,486.8994,430.0227,486.8994,429.9894,489.2594,430.0595,491.6194,430.0797,493.9794,430.1952,496.3394,430,498.6993,430.2067,498.7849,429.477,500.5538,428.6139,502.2674,427.9461,504.0618,427.2873,505.86,426.3388,507.5382,426.2468,507.3161,424.6576,508.4794,422.7655,508.9113,421.1036,509.8993,419.2046,510.3147,417.5,511.1993,417.5,511.1765,416.7,511.4465,415.9,511.1831,415.1,511.2344,414.3,511.3122,413.5,511.1993,413.5531,511.3275,411.7317,510.4659,410.0011,509.8233,408.1237,508.8264,406.4652,508.358,404.6612,507.5382,404.83,507.6081,404.0658,505.8271,403.3855,504.0808,402.3157,502.1733,401.5314,500.3839,401,498.6993,400.7929,498.6993,400.9804,496.3394,400.9345,493.9794,401.2271,491.6194,400.9418,489.2594,401,486.8994,400.8944,486.8557,401.8025,485.1608,402.2591,483.2788,403.0368,481.5299,404.1288,479.9111,404.6612,478.0606,404.7167,478.1947,406.5226,477.5545,408.1557,476.497,410.0052,475.9622,411.8075,475.3135,413.5,474.3994" style="stroke: #A80036; stroke-width: 1.5;"/><text fill="#000000" font-family="Panton" font-size="14" lengthAdjust="spacingAndGlyphs" textLength="9" x="411" y="497.5594">...</text><path d="M351,265.5997 L351,265.7865 L353,265.2314 L355,265.7715 L357,265.9549 L359,264.9655 L361,265.5997 L361,265.5997 L360.9692,265.584 L361.8272,267.466 L362.8404,269.4272 L363.9613,271.4434 L364.7107,273.27 L365.9805,275.3622 L366.2224,275.4069 L366.1196,277.5521 L366.7231,279.828 L367.4129,282.1199 L367.6012,284.319 L368.0532,286.5668 L368.0833,286.5707 L368.4097,289.4716 L368.8731,292.39 L369.2705,295.2999 L369.7939,298.226 L369.9063,301.0996 L370.2031,301.1286 L370.5422,304.568 L370.6898,307.9887 L371.1177,311.4368 L371.5587,314.8862 L371.5835,318.2949 L371.264,318.2692 L372.1932,322.1576 L372.0703,325.9612 L372.7472,329.8293 L372.6005,333.631 L373.1289,337.4871 L373.0985,337.485 L374.0319,345.8522 L374.2557,354.1706 L374.8983,362.5178 L375.5759,370.8674 L376,379.1995 L376.1846,379.2122 L376.5725,387.5419 L377.2758,395.8933 L377.4688,404.2095 L378.423,412.5782 L378.8711,420.912 L379.1139,420.9315 L379.3771,424.7663 L379.7608,428.6107 L379.5843,432.41 L379.8185,436.2424 L380.4165,440.1041 L380.1416,440.0773 L380.7259,443.5407 L381.0005,446.9738 L381.7243,450.4507 L381.681,453.8528 L382.0938,457.2994 L381.9425,457.2801 L382.565,460.2188 L382.541,463.0751 L382.9767,465.9899 L383.8623,468.9621 L383.9468,471.8322 L384.1372,471.8674 L384.6823,474.1325 L384.6352,476.2881 L385.3299,478.5808 L385.863,480.8437 L386.0195,483.0369 L385.8325,482.9415 L386.9777,484.97 L388.0616,486.9673 L389.2658,489.026 L390.0022,490.846 L391,492.7994 L391,493.2105 L393,492.3071 L395,492.1974 L397,493.247 L399,492.1621 L401,492.7994 " fill="none" style="stroke: #A80036; stroke-width: 1.0;"/><polygon fill="#D3D3D3" filter="url(#f1a633muer5xpp)" points="132.5,153.5999,132.5,153.81,143.1667,153.1855,153.8333,153.7931,164.5,153.9995,175.1667,152.8865,185.8333,153.5221,196.5,153.5999,196.4456,153.4685,198.2188,154.214,200.0268,155.0433,201.7151,155.5836,203.6417,156.6993,205.3388,157.261,205.1447,157.1806,206.0102,159.0036,206.9363,160.8517,207.5091,162.5534,208.2888,164.3408,209,166.0999,208.9894,166.0999,209.0595,171.8198,209.0797,177.5398,209.1952,183.2598,209.2237,188.9797,209,194.6997,209.2092,194.7864,208.3462,196.5,207.6783,198.2944,207.0196,200.0926,205.849,201.6788,205.3388,203.5385,205.4254,203.7475,203.5332,204.1795,201.8714,205.1674,199.9724,205.5828,198.259,206.4464,196.5,207.1997,196.5,207.9413,185.8333,207.151,175.1667,207.305,164.5,207.5383,153.8333,207.6159,143.1667,207.1958,132.5,207.1997,132.5366,207.2882,130.6592,206.2912,129.0007,205.8228,127.2666,205.1718,125.4856,204.4077,123.6612,203.5385,123.85,203.6167,122.7802,201.7092,121.9959,199.9198,121.2731,198.156,120.7141,196.46,120,194.6997,119.9345,194.6997,120.2271,188.9797,119.9418,183.2598,119.8856,177.5398,120.0761,171.8198,120,166.0999,119.7946,166.0148,120.5724,164.2659,121.6643,162.6471,122.3309,160.8521,123.1551,159.1225,123.6612,157.261,123.6201,157.1619,125.4696,156.6271,127.272,155.9784,128.9042,154.9188,130.72,154.3026,132.5,153.5999" style="stroke: #A80036; stroke-width: 1.5;"/><text fill="#000000" font-family="Panton" font-size="14" lengthAdjust="spacingAndGlyphs" textLength="69" x="130" y="176.7598">Processing</text><text fill="#000000" font-family="Panton" font-size="14" lengthAdjust="spacingAndGlyphs" textLength="33" x="133" y="193.5597">Units</text><polygon fill="#D3D3D3" filter="url(#f1a633muer5xpp)" points="34.5,76.7999,34.5,76.87,39.1,76.6618,43.7,76.8644,48.3,76.9332,52.9,76.5621,57.5,76.7999,57.4901,76.776,59.2134,77.4008,60.9866,78.1463,62.7946,78.9756,64.4829,79.5159,66.3388,80.4611,66.5093,80.5317,66.877,82.1485,67.7424,83.9714,68.6686,85.8195,69.2414,87.5212,70,89.2999,70.0227,89.2999,69.9894,91.6599,70.0595,94.0199,70.0797,96.3799,70.1952,98.7399,70,101.0999,70.2067,101.1855,69.477,102.9543,68.6139,104.6679,67.9461,106.4623,67.2873,108.2605,66.3388,109.9387,66.2468,109.7166,64.6576,110.8799,62.7655,111.3118,61.1036,112.2998,59.2046,112.7152,57.5,113.5999,57.5,113.577,52.9,113.8471,48.3,113.5836,43.7,113.635,39.1,113.7127,34.5,113.5999,34.5531,113.728,32.7317,112.8664,31.0011,112.2238,29.1237,111.2269,27.4652,110.7585,25.6612,109.9387,25.83,110.0086,25.0658,108.2276,24.3855,106.4814,23.3157,104.5738,22.5314,102.7844,22,101.0999,21.7929,101.0999,21.9804,98.7399,21.9345,96.3799,22.2271,94.0199,21.9418,91.6599,22,89.2999,21.8944,89.2562,22.8025,87.5613,23.2591,85.6793,24.0368,83.9304,25.1288,82.3116,25.6612,80.4611,25.7167,80.5953,27.5226,79.9551,29.1557,78.8975,31.0052,78.3627,32.8075,77.714,34.5,76.7999" style="stroke: #A80036; stroke-width: 1.5;"/><text fill="#000000" font-family="Panton" font-size="14" lengthAdjust="spacingAndGlyphs" textLength="28" x="32" y="99.9599">CPU</text><path d="M120,180.3998 L120,180.5866 L118,180.0315 L116,180.5716 L114,180.7551 L112,179.7657 L110,180.3998 L110,180.3998 L109.9713,180.3806 L108.0612,177.6319 L106.2958,174.98 L104.6311,172.3954 L102.6196,169.5789 L101.0938,167.0873 L101.3332,167.1439 L100.1766,164.2939 L99.7191,161.609 L99.347,158.9442 L98.4785,156.1623 L97.8711,153.442 L97.9009,153.4475 L97.2829,150.311 L96.8007,147.1995 L96.253,144.0759 L95.8302,140.9753 L95,137.7998 L95.2933,137.8537 L94.7227,134.7259 L93.9629,131.5634 L93.48,128.4517 L93.0101,125.3424 L92.1289,122.1577 L91.817,122.084 L91.7779,119.4979 L90.7116,116.6693 L90.4262,114.025 L89.3367,111.1909 L88.9063,108.5124 L88.8809,108.4954 L87.3989,106.0332 L85.3257,103.1753 L83.6014,100.5509 L81.9063,97.9461 L80,95.1999 L80,95.5699 L78,95.1964 L76,95.4552 L74,94.6911 L72,95.4527 L70,95.1999 " fill="none" style="stroke: #A80036; stroke-width: 1.0;"/><polygon fill="#D3D3D3" filter="url(#f1a633muer5xpp)" points="34.5,133.5999,34.5,133.6699,39.1,133.4617,43.7,133.6643,48.3,133.7331,52.9,133.3621,57.5,133.5999,57.4901,133.5759,59.2134,134.2007,60.9866,134.9462,62.7946,135.7756,64.4829,136.3159,66.3388,137.261,66.5093,137.3316,66.877,138.9484,67.7424,140.7713,68.6686,142.6194,69.2414,144.3211,70,146.0999,70.0227,146.0999,69.9894,148.4598,70.0595,150.8198,70.0797,153.1798,70.1952,155.5398,70,157.8998,70.2067,157.9854,69.477,159.7542,68.6139,161.4678,67.9461,163.2622,67.2873,165.0604,66.3388,166.7386,66.2468,166.5165,64.6576,167.6798,62.7655,168.1118,61.1036,169.0997,59.2046,169.5151,57.5,170.3998,57.5,170.3769,52.9,170.647,48.3,170.3835,43.7,170.4349,39.1,170.5127,34.5,170.3998,34.5531,170.528,32.7317,169.6663,31.0011,169.0238,29.1237,168.0268,27.4652,167.5584,25.6612,166.7386,25.83,166.8085,25.0658,165.0276,24.3855,163.2813,23.3157,161.3737,22.5314,159.5844,22,157.8998,21.7929,157.8998,21.9804,155.5398,21.9345,153.1798,22.2271,150.8198,21.9418,148.4598,22,146.0999,21.8944,146.0561,22.8025,144.3612,23.2591,142.4793,24.0368,140.7303,25.1288,139.1116,25.6612,137.261,25.7167,137.3952,27.5226,136.755,29.1557,135.6975,31.0052,135.1626,32.8075,134.5139,34.5,133.5999" style="stroke: #A80036; stroke-width: 1.5;"/><text fill="#000000" font-family="Panton" font-size="14" lengthAdjust="spacingAndGlyphs" textLength="28" x="32" y="156.7598">GPU</text><path d="M120,180.3998 L120,180.5866 L118,180.0315 L116,180.5716 L114,180.7551 L112,179.7657 L110,180.3998 L110,180.3998 L109.9846,180.3689 L108.1342,179.3426 L106.3615,178.4722 L104.6427,177.7102 L102.738,176.5748 L101.0938,175.9623 L101.3025,176.0926 L99.6374,173.8615 L98.5817,172.0107 L97.6004,170.2064 L96.1864,168.1321 L95,166.1998 L95.0257,166.2159 L93.7692,164.2398 L92.6298,162.3368 L91.4339,160.3986 L90.3458,158.5276 L88.9063,156.4373 L89.0393,156.7043 L87.2596,155.82 L85.3942,154.7636 L83.6544,153.9592 L81.9204,153.1667 L80,151.9998 L80,151.3588 L78,152.6029 L76,151.7363 L74,152.4743 L72,151.5598 L70,151.9998 " fill="none" style="stroke: #A80036; stroke-width: 1.0;"/><polygon fill="#D3D3D3" filter="url(#f1a633muer5xpp)" points="35.5,190.3998,35.5,190.4698,39.9,190.2617,44.3,190.4642,48.7,190.533,53.1,190.162,57.5,190.3998,57.4901,190.3758,59.2134,191.0007,60.9866,191.7461,62.7946,192.5755,64.4829,193.1158,66.3388,194.0609,66.5093,194.1316,66.877,195.7483,67.7424,197.5713,68.6686,199.4193,69.2414,201.1211,70,202.8998,70.0227,202.8998,69.9894,205.2598,70.0595,207.6198,70.0797,209.9797,70.1952,212.3397,70,214.6997,70.2067,214.7853,69.477,216.5541,68.6139,218.2677,67.9461,220.0621,67.2873,221.8604,66.3388,223.5385,66.2468,223.3164,64.6576,224.4797,62.7655,224.9117,61.1036,225.8996,59.2046,226.315,57.5,227.1997,57.5,227.1769,53.1,227.4469,48.7,227.1835,44.3,227.2348,39.9,227.3126,35.5,227.1997,35.5531,227.3279,33.7317,226.4663,32.0011,225.8237,30.1237,224.8267,28.4652,224.3584,26.6612,223.5385,26.83,223.6085,26.0658,221.8275,25.3855,220.0812,24.3157,218.1736,23.5314,216.3843,23,214.6997,22.7929,214.6997,22.9804,212.3397,22.9345,209.9797,23.2271,207.6198,22.9418,205.2598,23,202.8998,22.8944,202.856,23.8025,201.1611,24.2591,199.2792,25.0368,197.5303,26.1288,195.9115,26.6612,194.0609,26.7167,194.1951,28.5226,193.5549,30.1557,192.4974,32.0052,191.9625,33.8075,191.3138,35.5,190.3998" style="stroke: #A80036; stroke-width: 1.5;"/><text fill="#000000" font-family="Panton" font-size="14" lengthAdjust="spacingAndGlyphs" textLength="27" x="33" y="213.5597">TPU</text><path d="M120,180.3998 L120,180.5866 L118,180.0315 L116,180.5716 L114,180.7551 L112,179.7657 L110,180.3998 L110,180.3998 L109.9846,180.3689 L108.1342,181.1176 L106.3615,182.0222 L104.6427,183.0352 L102.738,183.6747 L101.0938,184.8373 L101.3025,184.9676 L99.6374,186.6414 L98.5817,188.6957 L97.6004,190.7964 L96.1864,192.6271 L95,194.5998 L95.0257,194.6158 L93.7692,196.5447 L92.6298,198.5468 L91.4339,200.5135 L90.3458,202.5476 L88.9063,204.3622 L89.0393,204.6292 L87.2596,205.52 L85.3942,206.2385 L83.6544,207.2092 L81.9204,208.1916 L80,208.7997 L80,208.1587 L78,209.4029 L76,208.5362 L74,209.2742 L72,208.3597 L70,208.7997 " fill="none" style="stroke: #A80036; stroke-width: 1.0;"/><polygon fill="#D3D3D3" filter="url(#f1a633muer5xpp)" points="53.5,247.1997,53.5,247.2698,54.3,247.0616,55.1,247.2641,55.9,247.3329,56.7,246.9619,57.5,247.1997,57.4901,247.1758,59.2134,247.8006,60.9866,248.5461,62.7946,249.3754,64.4829,249.9157,66.3388,250.8609,66.5093,250.9315,66.877,252.5482,67.7424,254.3712,68.6686,256.2193,69.2414,257.921,70,259.6997,70.0227,259.6997,69.9894,262.0597,70.0595,264.4197,70.0797,266.7797,70.1952,269.1396,70,271.4996,70.2067,271.5852,69.477,273.354,68.6139,275.0676,67.9461,276.8621,67.2873,278.6603,66.3388,280.3385,66.2468,280.1164,64.6576,281.2797,62.7655,281.7116,61.1036,282.6996,59.2046,283.115,57.5,283.9996,57.5,283.9768,56.7,284.2468,55.9,283.9834,55.1,284.0347,54.3,284.1125,53.5,283.9996,53.5531,284.1278,51.7317,283.2662,50.0011,282.6236,48.1237,281.6267,46.4652,281.1583,44.6612,280.3385,44.83,280.4084,44.0658,278.6274,43.3855,276.8811,42.3157,274.9735,41.5314,273.1842,41,271.4996,40.7929,271.4996,40.9804,269.1396,40.9345,266.7797,41.2271,264.4197,40.9418,262.0597,41,259.6997,40.8944,259.6559,41.8025,257.9611,42.2591,256.0791,43.0368,254.3302,44.1288,252.7114,44.6612,250.8609,44.7167,250.995,46.5226,250.3548,48.1557,249.2973,50.0052,248.7625,51.8075,248.1138,53.5,247.1997" style="stroke: #A80036; stroke-width: 1.5;"/><text fill="#000000" font-family="Panton" font-size="14" lengthAdjust="spacingAndGlyphs" textLength="9" x="51" y="270.3596">...</text><path d="M120,180.3998 L120,180.5866 L118,180.0315 L116,180.5716 L114,180.7551 L112,179.7657 L110,180.3998 L110,180.3998 L109.9713,180.3806 L108.0612,182.9569 L106.2958,185.63 L104.6311,188.3704 L102.6196,190.8789 L101.0938,193.7123 L101.3332,193.7688 L100.1766,196.3769 L99.7191,199.1502 L99.347,201.9436 L98.4785,204.6197 L97.8711,207.3576 L97.9009,207.363 L97.2829,210.4834 L96.8007,213.6287 L96.253,216.762 L95.8302,219.9183 L95,222.9997 L95.2933,223.0536 L94.7227,226.1827 L93.9629,229.277 L93.48,232.4222 L93.0101,235.5698 L92.1289,238.6419 L91.817,238.5682 L91.7779,241.4403 L90.7116,244.0697 L90.4262,246.8836 L89.3367,249.5076 L88.9063,252.2872 L88.8809,252.2703 L87.3989,255.133 L85.3257,257.6001 L83.6014,260.3007 L81.9063,263.0209 L80,265.5997 L80,265.9697 L78,265.5962 L76,265.855 L74,265.0909 L72,265.8525 L70,265.5997 " fill="none" style="stroke: #A80036; stroke-width: 1.0;"/><path d="M259,265.5997 L259,265.7865 L257,265.2314 L255,265.7715 L253,265.9549 L251,264.9655 L249,265.5997 L249,265.5997 L248.9713,265.5805 L247.0612,262.8318 L245.2958,260.1799 L243.6311,257.5953 L241.6196,254.7788 L240.0938,252.2872 L240.3332,252.3437 L239.1766,249.4937 L238.7191,246.8089 L238.347,244.1441 L237.4785,241.3622 L236.8711,238.6419 L236.9009,238.6474 L236.2829,235.5109 L235.8007,232.3994 L235.253,229.2758 L234.8302,226.1752 L234,222.9997 L234.2933,223.0536 L233.7227,219.9258 L232.9629,216.7633 L232.48,213.6516 L232.0101,210.5423 L231.1289,207.3576 L230.817,207.2839 L230.7779,204.6978 L229.7116,201.8692 L229.4262,199.2249 L228.3367,196.3908 L227.9063,193.7123 L227.8809,193.6953 L226.3989,191.233 L224.3257,188.3752 L222.6014,185.7508 L220.9063,183.146 L219,180.3998 L219,180.7698 L217,180.3963 L215,180.6551 L213,179.891 L211,180.6526 L209,180.3998 " fill="none" style="stroke: #A80036; stroke-width: 1.0;"/><polygon fill="#D3D3D3" filter="url(#f1a633muer5xpp)" points="141.5,352.3996,141.5,352.6098,150.6667,351.9853,159.8333,352.5929,169,352.7993,178.1667,351.6862,187.3333,352.3219,196.5,352.3996,196.4456,352.2683,198.2188,353.0137,200.0268,353.8431,201.7151,354.3834,203.6417,355.499,205.3388,356.0608,205.1447,355.9804,206.0102,357.8033,206.9363,359.6514,207.5091,361.3531,208.2888,363.1405,209,364.8996,208.9894,364.8996,209.0595,370.6196,209.0797,376.3395,209.1952,382.0595,209.2237,387.7795,209,393.4995,209.2092,393.5861,208.3462,395.2997,207.6783,397.0941,207.0196,398.8923,205.849,400.4785,205.3388,402.3383,205.4254,402.5472,203.5332,402.9792,201.8714,403.9671,199.9724,404.3825,198.259,405.2461,196.5,405.9995,196.5,406.7411,187.3333,405.9507,178.1667,406.1048,169,406.3381,159.8333,406.4157,150.6667,405.9955,141.5,405.9995,141.5366,406.0879,139.6592,405.0909,138.0007,404.6226,136.2666,403.9716,134.4856,403.2074,132.6612,402.3383,132.85,402.4165,131.7802,400.5089,130.9959,398.7196,130.2731,396.9557,129.7141,395.2597,129,393.4995,128.9345,393.4995,129.2271,387.7795,128.9418,382.0595,128.8856,376.3395,129.0761,370.6196,129,364.8996,128.7946,364.8145,129.5724,363.0656,130.6643,361.4468,131.3309,359.6519,132.1551,357.9222,132.6612,356.0608,132.6201,355.9617,134.4696,355.4268,136.272,354.7781,137.9042,353.7186,139.72,353.1023,141.5,352.3996" style="stroke: #A80036; stroke-width: 1.5;"/><text fill="#000000" font-family="Panton" font-size="14" lengthAdjust="spacingAndGlyphs" textLength="60" x="139" y="375.5595">Operating</text><text fill="#000000" font-family="Panton" font-size="14" lengthAdjust="spacingAndGlyphs" textLength="54" x="142" y="392.3595">Systems</text><polygon fill="#D3D3D3" filter="url(#f1a633muer5xpp)" points="22.5,303.9996,22.5,304.0697,31.3,303.8615,40.1,304.0641,48.9,304.1329,57.7,303.7618,66.5,303.9996,66.4901,303.9757,68.2134,304.6005,69.9866,305.346,71.7946,306.1753,73.4829,306.7157,75.3388,307.6608,75.5093,307.7314,75.877,309.3482,76.7424,311.1711,77.6686,313.0192,78.2414,314.7209,79,316.4996,79.0227,316.4996,78.9894,318.8596,79.0595,321.2196,79.0797,323.5796,79.1952,325.9396,79,328.2996,79.2067,328.3852,78.477,330.154,77.6139,331.8676,76.9461,333.662,76.2873,335.4602,75.3388,337.1384,75.2468,336.9163,73.6576,338.0796,71.7655,338.5116,70.1036,339.4995,68.2046,339.9149,66.5,340.7996,66.5,340.7767,57.7,341.0468,48.9,340.7833,40.1,340.8347,31.3,340.9124,22.5,340.7996,22.5531,340.9277,20.7317,340.0661,19.0011,339.4235,17.1237,338.4266,15.4652,337.9582,13.6612,337.1384,13.83,337.2083,13.0658,335.4273,12.3855,333.6811,11.3157,331.7735,10.5314,329.9841,10,328.2996,9.7929,328.2996,9.9804,325.9396,9.9345,323.5796,10.2271,321.2196,9.9418,318.8596,10,316.4996,9.8944,316.4559,10.8025,314.761,11.2591,312.879,12.0368,311.1301,13.1288,309.5113,13.6612,307.6608,13.7167,307.795,15.5226,307.1548,17.1557,306.0972,19.0052,305.5624,20.8075,304.9137,22.5,303.9996" style="stroke: #A80036; stroke-width: 1.5;"/><text fill="#000000" font-family="Panton" font-size="14" lengthAdjust="spacingAndGlyphs" textLength="49" x="20" y="327.1596">Android</text><path d="M129,379.1995 L129,379.3864 L127,378.8312 L125,379.3713 L123,379.5548 L121,378.5654 L119,379.1995 L119,379.1995 L118.9756,379.1751 L117.085,377.2903 L115.3172,375.5288 L113.6349,373.8531 L111.6581,371.8819 L110.0938,370.3245 L110.3257,370.4067 L109.1852,368.4116 L108.7218,366.6564 L108.3411,364.9305 L107.4797,363.0343 L106.8711,361.2277 L106.9003,361.2357 L106.2832,359.1383 L105.7992,357.0775 L105.2509,354.999 L104.8252,352.9543 L104,350.7996 L104.2875,350.8787 L103.7168,348.7941 L102.9607,346.6584 L102.476,344.5974 L102.004,342.5399 L101.1289,340.3714 L100.8268,340.2644 L100.7686,338.6528 L99.7156,336.6887 L99.4189,334.9926 L98.3434,333.0205 L97.9063,331.2746 L97.8848,331.253 L96.3577,329.7331 L94.3285,327.7092 L92.5955,325.9827 L90.8875,324.2812 L89,322.3996 L89,322.7696 L87,322.3961 L85,322.6549 L83,321.8908 L81,322.6524 L79,322.3996 " fill="none" style="stroke: #A80036; stroke-width: 1.0;"/><polygon fill="#D3D3D3" filter="url(#f1a633muer5xpp)" points="50.5,360.7996,50.5,360.8696,53.7,360.6615,56.9,360.864,60.1,360.9328,63.3,360.5618,66.5,360.7996,66.4901,360.7756,68.2134,361.4005,69.9866,362.1459,71.7946,362.9753,73.4829,363.5156,75.3388,364.4607,75.5093,364.5313,75.877,366.1481,76.7424,367.971,77.6686,369.8191,78.2414,371.5209,79,373.2996,79.0227,373.2996,78.9894,375.6595,79.0595,378.0195,79.0797,380.3795,79.1952,382.7395,79,385.0995,79.2067,385.1851,78.477,386.9539,77.6139,388.6675,76.9461,390.4619,76.2873,392.2601,75.3388,393.9383,75.2468,393.7162,73.6576,394.8795,71.7655,395.3115,70.1036,396.2994,68.2046,396.7148,66.5,397.5995,66.5,397.5767,63.3,397.8467,60.1,397.5832,56.9,397.6346,53.7,397.7124,50.5,397.5995,50.5531,397.7277,48.7317,396.8661,47.0011,396.2235,45.1237,395.2265,43.4652,394.7581,41.6612,393.9383,41.83,394.0083,41.0658,392.2273,40.3855,390.481,39.3157,388.5734,38.5314,386.7841,38,385.0995,37.7929,385.0995,37.9804,382.7395,37.9345,380.3795,38.2271,378.0195,37.9418,375.6595,38,373.2996,37.8944,373.2558,38.8025,371.5609,39.2591,369.679,40.0368,367.93,41.1288,366.3113,41.6612,364.4607,41.7167,364.5949,43.5226,363.9547,45.1557,362.8972,47.0052,362.3623,48.8075,361.7136,50.5,360.7996" style="stroke: #A80036; stroke-width: 1.5;"/><text fill="#000000" font-family="Panton" font-size="14" lengthAdjust="spacingAndGlyphs" textLength="21" x="48" y="383.9595">iOS</text><path d="M129,379.1995 L129,379.3864 L127,378.8312 L125,379.3713 L123,379.5548 L121,378.5654 L119,379.1995 L119,379.1995 L119,379.165 L113,379.01 L107,379.0291 L101,379.1692 L95,378.8922 L89,379.1995 L89,379.6916 L87,378.6393 L85,379.0237 L83,379.5835 L81,379.1233 L79,379.1995 " fill="none" style="stroke: #A80036; stroke-width: 1.0;"/><polygon fill="#D3D3D3" filter="url(#f1a633muer5xpp)" points="62.5,417.5995,62.5,417.6695,63.3,417.4614,64.1,417.6639,64.9,417.7327,65.7,417.3617,66.5,417.5995,66.4901,417.5756,68.2134,418.2004,69.9866,418.9459,71.7946,419.7752,73.4829,420.3155,75.3388,421.2607,75.5093,421.3313,75.877,422.948,76.7424,424.771,77.6686,426.6191,78.2414,428.3208,79,430.0995,79.0227,430.0995,78.9894,432.4595,79.0595,434.8195,79.0797,437.1794,79.1952,439.5394,79,441.8994,79.2067,441.985,78.477,443.7538,77.6139,445.4674,76.9461,447.2619,76.2873,449.0601,75.3388,450.7382,75.2468,450.5162,73.6576,451.6794,71.7655,452.1114,70.1036,453.0993,68.2046,453.5147,66.5,454.3994,66.5,454.3766,65.7,454.6466,64.9,454.3832,64.1,454.4345,63.3,454.5123,62.5,454.3994,62.5531,454.5276,60.7317,453.666,59.0011,453.0234,57.1237,452.0264,55.4652,451.5581,53.6612,450.7382,53.83,450.8082,53.0658,449.0272,52.3855,447.2809,51.3157,445.3733,50.5314,443.584,50,441.8994,49.7929,441.8994,49.9804,439.5394,49.9345,437.1794,50.2271,434.8195,49.9418,432.4595,50,430.0995,49.8944,430.0557,50.8025,428.3608,51.2591,426.4789,52.0368,424.73,53.1288,423.1112,53.6612,421.2607,53.7167,421.3948,55.5226,420.7546,57.1557,419.6971,59.0052,419.1623,60.8075,418.5135,62.5,417.5995" style="stroke: #A80036; stroke-width: 1.5;"/><text fill="#000000" font-family="Panton" font-size="14" lengthAdjust="spacingAndGlyphs" textLength="9" x="60" y="440.7594">...</text><path d="M129,379.1995 L129,379.3864 L127,378.8312 L125,379.3713 L123,379.5548 L121,378.5654 L119,379.1995 L119,379.1995 L118.9756,379.1751 L117.085,380.8403 L115.3172,382.6288 L113.6349,384.5031 L111.6581,386.0819 L110.0938,388.0745 L110.3257,388.1567 L109.1852,389.8003 L108.7218,391.6839 L108.3411,393.5967 L107.4797,395.3393 L106.8711,397.1714 L106.9003,397.1794 L106.2832,399.2532 L105.7992,401.3637 L105.2509,403.4565 L104.8252,405.583 L104,407.5995 L104.2875,407.6787 L103.7168,409.7652 L102.9607,411.8008 L102.476,413.911 L102.004,416.0248 L101.1289,418.0276 L100.8268,417.9206 L100.7686,419.9477 L99.7156,421.6223 L99.4189,423.5649 L98.3434,425.2316 L97.9063,427.1245 L97.8848,427.1029 L96.3577,429.1329 L94.3285,430.6591 L92.5955,432.4826 L90.8875,434.3311 L89,435.9995 L89,436.3694 L87,435.996 L85,436.2548 L83,435.4906 L81,436.2522 L79,435.9995 " fill="none" style="stroke: #A80036; stroke-width: 1.0;"/><path d="M259,265.5997 L259,265.7865 L257,265.2314 L255,265.7715 L253,265.9549 L251,264.9655 L249,265.5997 L249,265.5997 L248.9691,265.5842 L247.0493,269.0647 L245.2852,272.6232 L243.6292,276.2361 L241.6004,279.6618 L240.0938,283.3496 L240.336,283.3926 L239.1734,286.9395 L238.7181,290.6118 L238.3492,294.2994 L237.4781,297.898 L236.8711,301.5434 L236.9011,301.5475 L236.2828,305.7127 L235.8013,309.8967 L235.2537,314.0716 L234.8321,318.2639 L234,322.3996 L234.2955,322.4403 L233.7249,326.612 L232.9637,330.7575 L232.4815,334.9414 L232.0123,339.1271 L231.1289,343.2558 L230.8133,343.1999 L230.7813,346.9472 L229.7101,350.5103 L229.4289,354.2134 L228.3341,357.7724 L227.9063,361.4495 L227.879,361.4359 L226.4196,365.1474 L224.3244,368.5398 L222.6043,372.1205 L220.9158,375.717 L219,379.1995 L219,379.5695 L217,379.1961 L215,379.4548 L213,378.6907 L211,379.4523 L209,379.1995 " fill="none" style="stroke: #A80036; stroke-width: 1.0;"/><!--MD5=[ed9049638385c13a1272f921858133bb]
@startmindmap
skinparam handwritten true
<style>
node {
        BackGroundColor orange
        FontName Panton
}
</style>
+ TensorFlow\n Distributed\n Execution\n Engine
<style>
node {
        BackGroundColor lightgray
}
</style>
- - Processing\n Units
- - - CPU
- - - GPU
- - - TPU
- - - ...
- - Operating\n Systems
- - - Android
- - - iOS
- - - ...
<style>
primary
</style>
++ Python API
<style>
node {
        BackGroundColor lightblue
}
</style>
+++ tensors + gradients
+++ linear algebra, signal processing, ...
+++ data I/O and preprocessing
+++ low-level deep learning
+++ high-level deep learning
+++ deployment
+++ optimization
+++ visualization
+++ special data structures
<style>
node {
        BackGroundColor white
}
</style>
++ C++ API
++ Java API
++ Go API
++ ...
@endmindmap

PlantUML version 1.2019.13(Tue Dec 10 18:18:29 CET 2019)
(GPL source distribution)
Java Runtime: OpenJDK Runtime Environment
JVM: OpenJDK 64-Bit Server VM
Java Version: 11.0.5+10-suse-2.1-x8664
Operating System: Linux
Default Encoding: UTF-8
Language: en
Country: US
--></g></svg>