<?xml version="1.0" encoding="UTF-8" standalone="no"?>
<!DOCTYPE svg PUBLIC "-//W3C//DTD SVG 1.1//EN"
 "http://www.w3.org/Graphics/SVG/1.1/DTD/svg11.dtd">
<!-- Generated by graphviz version 2.42.1 (0)
 -->
<!-- Title: match Pages: 1 -->
<svg width="554pt" height="296pt"
 viewBox="0.00 0.00 554.48 295.87" xmlns="http://www.w3.org/2000/svg" xmlns:xlink="http://www.w3.org/1999/xlink">
<g id="graph0" class="graph" transform="scale(1 1) rotate(0) translate(4 291.87)">
<title>match</title>
<polygon fill="white" stroke="transparent" points="-4,4 -4,-291.87 550.48,-291.87 550.48,4 -4,4"/>
<!-- generate -->
<g id="node1" class="node">
<title>generate</title>
<ellipse fill="none" stroke="#00aed2" cx="204.33" cy="-198" rx="52.15" ry="26.74"/>
<text text-anchor="middle" x="204.33" y="-201.8" font-family="Panton bold" font-size="14.00" fill="#00aed2">generate</text>
<text text-anchor="middle" x="204.33" y="-186.8" font-family="Panton bold" font-size="14.00" fill="#00aed2">statistics</text>
</g>
<!-- statistics -->
<g id="node11" class="node">
<title>statistics</title>
<text text-anchor="middle" x="350.65" y="-194.2" font-family="Panton bold" font-size="16.00" fill="#606060">statistics</text>
</g>
<!-- generate&#45;&gt;statistics -->
<g id="edge4" class="edge">
<title>generate&#45;&gt;statistics</title>
<path fill="none" stroke="#606060" d="M257.02,-198C270.56,-198 285.14,-198 298.64,-198"/>
<polygon fill="#606060" stroke="#606060" points="298.72,-201.5 308.72,-198 298.72,-194.5 298.72,-201.5"/>
</g>
<!-- visualize -->
<g id="node2" class="node">
<title>visualize</title>
<ellipse fill="none" stroke="#00aed2" cx="350.65" cy="-261" rx="52.15" ry="26.74"/>
<text text-anchor="middle" x="350.65" y="-264.8" font-family="Panton bold" font-size="14.00" fill="#00aed2">visualize</text>
<text text-anchor="middle" x="350.65" y="-249.8" font-family="Panton bold" font-size="14.00" fill="#00aed2">statistics</text>
</g>
<!-- visualize&#45;&gt;statistics -->
<g id="edge5" class="edge">
<title>visualize&#45;&gt;statistics</title>
<path fill="none" stroke="#606060" d="M350.65,-224.02C350.65,-221.42 350.65,-218.81 350.65,-216.21"/>
<polygon fill="#606060" stroke="#606060" points="347.15,-224.06 350.65,-234.06 354.15,-224.06 347.15,-224.06"/>
</g>
<!-- infer -->
<g id="node3" class="node">
<title>infer</title>
<ellipse fill="none" stroke="#00aed2" cx="495.56" cy="-198" rx="45.92" ry="26.74"/>
<text text-anchor="middle" x="495.56" y="-201.8" font-family="Panton bold" font-size="14.00" fill="#00aed2">infer</text>
<text text-anchor="middle" x="495.56" y="-186.8" font-family="Panton bold" font-size="14.00" fill="#00aed2">schema</text>
</g>
<!-- schema -->
<g id="node12" class="node">
<title>schema</title>
<text text-anchor="middle" x="495.56" y="-131.2" font-family="Panton bold" font-size="16.00" fill="#606060">schema</text>
</g>
<!-- infer&#45;&gt;schema -->
<g id="edge7" class="edge">
<title>infer&#45;&gt;schema</title>
<path fill="none" stroke="#606060" d="M495.56,-171.06C495.56,-168.45 495.56,-165.85 495.56,-163.25"/>
<polygon fill="#606060" stroke="#606060" points="499.06,-163.21 495.56,-153.21 492.06,-163.21 499.06,-163.21"/>
</g>
<!-- validate -->
<g id="node4" class="node">
<title>validate</title>
<ellipse fill="none" stroke="#00aed2" cx="495.56" cy="-72" rx="50.82" ry="26.74"/>
<text text-anchor="middle" x="495.56" y="-75.8" font-family="Panton bold" font-size="14.00" fill="#00aed2">validate</text>
<text text-anchor="middle" x="495.56" y="-60.8" font-family="Panton bold" font-size="14.00" fill="#00aed2">new data</text>
</g>
<!-- tfrecords -->
<g id="node5" class="node">
<title>tfrecords</title>
<text text-anchor="middle" x="58" y="-248.2" font-family="Panton" font-size="16.00" fill="#606060">TFRecord files</text>
</g>
<!-- tfrecords&#45;&gt;generate -->
<g id="edge1" class="edge">
<title>tfrecords&#45;&gt;generate</title>
<path fill="none" stroke="#606060" d="M107.46,-233.87C121.7,-228.54 137.32,-222.7 151.75,-217.3"/>
<polygon fill="#606060" stroke="#606060" points="153.37,-220.43 161.51,-213.64 150.92,-213.87 153.37,-220.43"/>
</g>
<!-- dataframe -->
<g id="node6" class="node">
<title>dataframe</title>
<text text-anchor="middle" x="58" y="-194.2" font-family="Panton" font-size="16.00" fill="#606060">DataFrame</text>
</g>
<!-- dataframe&#45;&gt;generate -->
<g id="edge2" class="edge">
<title>dataframe&#45;&gt;generate</title>
<path fill="none" stroke="#606060" d="M104.27,-198C116.21,-198 129.29,-198 141.92,-198"/>
<polygon fill="#606060" stroke="#606060" points="141.93,-201.5 151.93,-198 141.93,-194.5 141.93,-201.5"/>
</g>
<!-- csv -->
<g id="node7" class="node">
<title>csv</title>
<text text-anchor="middle" x="58" y="-140.2" font-family="Panton" font-size="16.00" fill="#606060">CSV File</text>
</g>
<!-- csv&#45;&gt;generate -->
<g id="edge3" class="edge">
<title>csv&#45;&gt;generate</title>
<path fill="none" stroke="#606060" d="M95.05,-157.49C112.33,-163.95 133.34,-171.82 152.24,-178.89"/>
<polygon fill="#606060" stroke="#606060" points="151.01,-182.16 161.61,-182.39 153.47,-175.61 151.01,-182.16"/>
</g>
<!-- tfrecords2 -->
<g id="node8" class="node">
<title>tfrecords2</title>
<text text-anchor="middle" x="350.65" y="-122.2" font-family="Panton" font-size="16.00" fill="#606060">TFRecord files</text>
</g>
<!-- tfrecords2&#45;&gt;validate -->
<g id="edge9" class="edge">
<title>tfrecords2&#45;&gt;validate</title>
<path fill="none" stroke="#606060" d="M399.64,-107.87C413.87,-102.49 429.5,-96.59 443.89,-91.15"/>
<polygon fill="#606060" stroke="#606060" points="445.51,-94.28 453.63,-87.47 443.04,-87.73 445.51,-94.28"/>
</g>
<!-- dataframe2 -->
<g id="node9" class="node">
<title>dataframe2</title>
<text text-anchor="middle" x="350.65" y="-68.2" font-family="Panton" font-size="16.00" fill="#606060">DataFrame</text>
</g>
<!-- dataframe2&#45;&gt;validate -->
<g id="edge10" class="edge">
<title>dataframe2&#45;&gt;validate</title>
<path fill="none" stroke="#606060" d="M396.87,-72C408.69,-72 421.62,-72 434.09,-72"/>
<polygon fill="#606060" stroke="#606060" points="434.43,-75.5 444.43,-72 434.43,-68.5 434.43,-75.5"/>
</g>
<!-- csv2 -->
<g id="node10" class="node">
<title>csv2</title>
<text text-anchor="middle" x="350.65" y="-14.2" font-family="Panton" font-size="16.00" fill="#606060">CSV File</text>
</g>
<!-- csv2&#45;&gt;validate -->
<g id="edge11" class="edge">
<title>csv2&#45;&gt;validate</title>
<path fill="none" stroke="#606060" d="M387.71,-31.63C404.83,-38.09 425.56,-45.93 444.19,-52.97"/>
<polygon fill="#606060" stroke="#606060" points="443.12,-56.3 453.71,-56.56 445.6,-49.76 443.12,-56.3"/>
</g>
<!-- statistics&#45;&gt;infer -->
<g id="edge6" class="edge">
<title>statistics&#45;&gt;infer</title>
<path fill="none" stroke="#606060" d="M392.22,-198C406.84,-198 423.6,-198 439.27,-198"/>
<polygon fill="#606060" stroke="#606060" points="439.37,-201.5 449.37,-198 439.37,-194.5 439.37,-201.5"/>
</g>
<!-- schema&#45;&gt;validate -->
<g id="edge8" class="edge">
<title>schema&#45;&gt;validate</title>
<path fill="none" stroke="#606060" d="M495.56,-116.75C495.56,-114.27 495.56,-111.78 495.56,-109.29"/>
<polygon fill="#606060" stroke="#606060" points="499.06,-109.07 495.56,-99.07 492.06,-109.07 499.06,-109.07"/>
</g>
</g>
</svg>
